G04 #@! TF.GenerationSoftware,KiCad,Pcbnew,(6.0.5)*
G04 #@! TF.CreationDate,2022-07-31T15:40:06-05:00*
G04 #@! TF.ProjectId,TuringMain,54757269-6e67-44d6-9169-6e2e6b696361,rev?*
G04 #@! TF.SameCoordinates,Original*
G04 #@! TF.FileFunction,Soldermask,Bot*
G04 #@! TF.FilePolarity,Negative*
%FSLAX46Y46*%
G04 Gerber Fmt 4.6, Leading zero omitted, Abs format (unit mm)*
G04 Created by KiCad (PCBNEW (6.0.5)) date 2022-07-31 15:40:06*
%MOMM*%
%LPD*%
G01*
G04 APERTURE LIST*
G04 Aperture macros list*
%AMRoundRect*
0 Rectangle with rounded corners*
0 $1 Rounding radius*
0 $2 $3 $4 $5 $6 $7 $8 $9 X,Y pos of 4 corners*
0 Add a 4 corners polygon primitive as box body*
4,1,4,$2,$3,$4,$5,$6,$7,$8,$9,$2,$3,0*
0 Add four circle primitives for the rounded corners*
1,1,$1+$1,$2,$3*
1,1,$1+$1,$4,$5*
1,1,$1+$1,$6,$7*
1,1,$1+$1,$8,$9*
0 Add four rect primitives between the rounded corners*
20,1,$1+$1,$2,$3,$4,$5,0*
20,1,$1+$1,$4,$5,$6,$7,0*
20,1,$1+$1,$6,$7,$8,$9,0*
20,1,$1+$1,$8,$9,$2,$3,0*%
%AMFreePoly0*
4,1,17,0.373421,0.710921,0.710921,0.373421,0.725800,0.337500,0.725800,-0.337500,0.710921,-0.373421,0.373421,-0.710921,0.337500,-0.725800,-0.337500,-0.725800,-0.373421,-0.710921,-0.710921,-0.373421,-0.725800,-0.337500,-0.725800,0.337500,-0.710921,0.373421,-0.373421,0.710921,-0.337500,0.725800,0.337500,0.725800,0.373421,0.710921,0.373421,0.710921,$1*%
%AMFreePoly1*
4,1,17,0.340721,0.645521,0.645521,0.340721,0.660400,0.304800,0.660400,-0.304800,0.645521,-0.340721,0.340721,-0.645521,0.304800,-0.660400,-0.304800,-0.660400,-0.340721,-0.645521,-0.645521,-0.340721,-0.660400,-0.304800,-0.660400,0.304800,-0.645521,0.340721,-0.340721,0.645521,-0.304800,0.660400,0.304800,0.660400,0.340721,0.645521,0.340721,0.645521,$1*%
G04 Aperture macros list end*
%ADD10R,1.800000X1.800000*%
%ADD11C,1.800000*%
%ADD12C,3.100000*%
%ADD13C,1.440000*%
%ADD14O,3.240000X2.720000*%
%ADD15C,2.000000*%
%ADD16FreePoly0,180.000000*%
%ADD17RoundRect,0.250000X-0.600000X0.600000X-0.600000X-0.600000X0.600000X-0.600000X0.600000X0.600000X0*%
%ADD18C,1.700000*%
%ADD19C,1.600000*%
%ADD20O,1.600000X1.600000*%
%ADD21R,1.500000X1.500000*%
%ADD22C,1.500000*%
%ADD23C,1.601600*%
%ADD24FreePoly1,270.000000*%
%ADD25R,1.727200X1.727200*%
%ADD26O,1.727200X1.727200*%
%ADD27R,1.600000X1.600000*%
%ADD28O,1.320800X2.540000*%
%ADD29C,1.320800*%
%ADD30RoundRect,0.050800X0.609600X-0.609600X0.609600X0.609600X-0.609600X0.609600X-0.609600X-0.609600X0*%
%ADD31FreePoly1,90.000000*%
%ADD32O,2.540000X1.320800*%
%ADD33O,1.151600X2.201600*%
%ADD34R,1.700000X1.700000*%
%ADD35O,1.700000X1.700000*%
%ADD36FreePoly1,180.000000*%
G04 APERTURE END LIST*
D10*
X60000000Y-58725000D03*
D11*
X60000000Y-61265000D03*
D10*
X170000000Y-133775000D03*
D11*
X170000000Y-131235000D03*
D10*
X60000000Y-128725000D03*
D11*
X60000000Y-131265000D03*
D10*
X60000000Y-118725000D03*
D11*
X60000000Y-121265000D03*
D10*
X60000000Y-68725000D03*
D11*
X60000000Y-71265000D03*
D10*
X170000000Y-81230000D03*
D11*
X170000000Y-83770000D03*
D12*
X127200000Y-70000000D03*
X122500000Y-70000000D03*
X117800000Y-70000000D03*
D10*
X60000000Y-78725000D03*
D11*
X60000000Y-81265000D03*
D13*
X136150000Y-69040000D03*
X136150000Y-66500000D03*
X136150000Y-63960000D03*
D10*
X60000000Y-98725000D03*
D11*
X60000000Y-101265000D03*
D14*
X160000000Y-74800000D03*
X160000000Y-65200000D03*
D10*
X167500000Y-72500000D03*
D11*
X167500000Y-70000000D03*
X167500000Y-67500000D03*
D15*
X143000000Y-121100000D03*
X127000000Y-121100000D03*
D16*
X132500000Y-110850000D03*
X135000000Y-110850000D03*
X137500000Y-110850000D03*
X130000000Y-110850000D03*
X130000000Y-129150000D03*
X140000000Y-110850000D03*
X140000000Y-129150000D03*
X137500000Y-129150000D03*
X135000000Y-129150000D03*
X132500000Y-129150000D03*
D10*
X60000000Y-108725000D03*
D11*
X60000000Y-111265000D03*
D14*
X97500000Y-99800000D03*
X97500000Y-90200000D03*
D10*
X105000000Y-97500000D03*
D11*
X105000000Y-95000000D03*
X105000000Y-92500000D03*
D10*
X60000000Y-88725000D03*
D11*
X60000000Y-91265000D03*
D17*
X113460000Y-135297500D03*
D18*
X113460000Y-137837500D03*
X116000000Y-135297500D03*
X116000000Y-137837500D03*
X118540000Y-135297500D03*
X118540000Y-137837500D03*
X121080000Y-135297500D03*
X121080000Y-137837500D03*
X123620000Y-135297500D03*
X123620000Y-137837500D03*
X126160000Y-135297500D03*
X126160000Y-137837500D03*
X128700000Y-135297500D03*
X128700000Y-137837500D03*
X131240000Y-135297500D03*
X131240000Y-137837500D03*
D19*
X158920000Y-98500000D03*
D20*
X169080000Y-98500000D03*
D19*
X134500000Y-86080000D03*
D20*
X134500000Y-75920000D03*
D19*
X140000000Y-107580000D03*
D20*
X140000000Y-97420000D03*
D19*
X151580000Y-67500000D03*
D20*
X141420000Y-67500000D03*
D19*
X141500000Y-60500000D03*
D20*
X151660000Y-60500000D03*
D21*
X68060000Y-51960000D03*
D22*
X68060000Y-54500000D03*
X68060000Y-57040000D03*
D19*
X97500000Y-75920000D03*
D20*
X97500000Y-86080000D03*
D23*
X149000000Y-130080000D03*
X149000000Y-119920000D03*
D24*
X148000000Y-102460000D03*
X148000000Y-107540000D03*
D25*
X157500000Y-138000000D03*
D26*
X157500000Y-135460000D03*
X154960000Y-138000000D03*
X154960000Y-135460000D03*
X152420000Y-138000000D03*
X152420000Y-135460000D03*
X149880000Y-138000000D03*
X149880000Y-135460000D03*
X147340000Y-138000000D03*
X147340000Y-135460000D03*
D24*
X114500000Y-90960000D03*
X114500000Y-96040000D03*
D27*
X158500000Y-113500000D03*
D19*
X158500000Y-116000000D03*
X87000000Y-86080000D03*
D20*
X87000000Y-75920000D03*
D28*
X96110000Y-105690000D03*
X98650000Y-105690000D03*
X101190000Y-105690000D03*
X103730000Y-105690000D03*
X106270000Y-105690000D03*
X108810000Y-105690000D03*
X111350000Y-105690000D03*
X113890000Y-105690000D03*
X113890000Y-113310000D03*
X111350000Y-113310000D03*
X108810000Y-113310000D03*
X106270000Y-113310000D03*
X103730000Y-113310000D03*
X101190000Y-113310000D03*
X98650000Y-113310000D03*
X96110000Y-113310000D03*
D29*
X136500000Y-98690000D03*
D30*
X136500000Y-106310000D03*
D19*
X67420000Y-100000000D03*
D20*
X77580000Y-100000000D03*
D19*
X77580000Y-75500000D03*
D20*
X67420000Y-75500000D03*
D19*
X119000000Y-118920000D03*
D20*
X119000000Y-129080000D03*
D31*
X73000000Y-57040000D03*
X73000000Y-51960000D03*
D24*
X126000000Y-101460000D03*
X126000000Y-106540000D03*
D31*
X73000000Y-69540000D03*
X73000000Y-64460000D03*
D19*
X158920000Y-91500000D03*
D20*
X169080000Y-91500000D03*
D19*
X77580000Y-82500000D03*
D20*
X67420000Y-82500000D03*
D19*
X151660000Y-64000000D03*
D20*
X141500000Y-64000000D03*
D19*
X122500000Y-111580000D03*
D20*
X122500000Y-101420000D03*
D19*
X151580000Y-71000000D03*
D20*
X141420000Y-71000000D03*
D19*
X118500000Y-75920000D03*
D20*
X118500000Y-86080000D03*
D31*
X103000000Y-136040000D03*
X103000000Y-130960000D03*
D24*
X127500000Y-78460000D03*
X127500000Y-83540000D03*
D31*
X69500000Y-137540000D03*
X69500000Y-132460000D03*
D19*
X67420000Y-89500000D03*
D20*
X77580000Y-89500000D03*
D31*
X69000000Y-112040000D03*
X69000000Y-106960000D03*
X99500000Y-136040000D03*
X99500000Y-130960000D03*
D21*
X141640000Y-93540000D03*
D22*
X141640000Y-91000000D03*
D28*
X72380000Y-118190000D03*
X74920000Y-118190000D03*
X77460000Y-118190000D03*
X80000000Y-118190000D03*
X82540000Y-118190000D03*
X85080000Y-118190000D03*
X87620000Y-118190000D03*
X87620000Y-125810000D03*
X85080000Y-125810000D03*
X82540000Y-125810000D03*
X80000000Y-125810000D03*
X77460000Y-125810000D03*
X74920000Y-125810000D03*
X72380000Y-125810000D03*
X117880000Y-89690000D03*
X120420000Y-89690000D03*
X122960000Y-89690000D03*
X125500000Y-89690000D03*
X128040000Y-89690000D03*
X130580000Y-89690000D03*
X133120000Y-89690000D03*
X133120000Y-97310000D03*
X130580000Y-97310000D03*
X128040000Y-97310000D03*
X125500000Y-97310000D03*
X122960000Y-97310000D03*
X120420000Y-97310000D03*
X117880000Y-97310000D03*
D19*
X115000000Y-75920000D03*
D20*
X115000000Y-86080000D03*
D19*
X90500000Y-86080000D03*
D20*
X90500000Y-75920000D03*
D24*
X151500000Y-102460000D03*
X151500000Y-107540000D03*
X69000000Y-119460000D03*
X69000000Y-124540000D03*
X136500000Y-90960000D03*
X136500000Y-96040000D03*
D19*
X67420000Y-96500000D03*
D20*
X77580000Y-96500000D03*
D19*
X108000000Y-75920000D03*
D20*
X108000000Y-86080000D03*
D28*
X72380000Y-131190000D03*
X74920000Y-131190000D03*
X77460000Y-131190000D03*
X80000000Y-131190000D03*
X82540000Y-131190000D03*
X85080000Y-131190000D03*
X87620000Y-131190000D03*
X87620000Y-138810000D03*
X85080000Y-138810000D03*
X82540000Y-138810000D03*
X80000000Y-138810000D03*
X77460000Y-138810000D03*
X74920000Y-138810000D03*
X72380000Y-138810000D03*
D19*
X86000000Y-100080000D03*
D20*
X86000000Y-89920000D03*
D19*
X122500000Y-129080000D03*
D20*
X122500000Y-118920000D03*
D19*
X82500000Y-89920000D03*
D20*
X82500000Y-100080000D03*
D19*
X89500000Y-100080000D03*
D20*
X89500000Y-89920000D03*
D24*
X155500000Y-53960000D03*
X155500000Y-59040000D03*
D21*
X160060000Y-106940000D03*
D22*
X162600000Y-106940000D03*
X165140000Y-106940000D03*
D19*
X77580000Y-86000000D03*
D20*
X67420000Y-86000000D03*
D24*
X170000000Y-53960000D03*
X170000000Y-59040000D03*
D19*
X94000000Y-86080000D03*
D20*
X94000000Y-75920000D03*
D19*
X131000000Y-75920000D03*
D20*
X131000000Y-86080000D03*
D28*
X72380000Y-105690000D03*
X74920000Y-105690000D03*
X77460000Y-105690000D03*
X80000000Y-105690000D03*
X82540000Y-105690000D03*
X85080000Y-105690000D03*
X87620000Y-105690000D03*
X87620000Y-113310000D03*
X85080000Y-113310000D03*
X82540000Y-113310000D03*
X80000000Y-113310000D03*
X77460000Y-113310000D03*
X74920000Y-113310000D03*
X72380000Y-113310000D03*
D21*
X68060000Y-64860000D03*
D22*
X68060000Y-67400000D03*
X68060000Y-69940000D03*
D19*
X158920000Y-95000000D03*
D20*
X169080000Y-95000000D03*
D28*
X76610000Y-63190000D03*
X79150000Y-63190000D03*
X81690000Y-63190000D03*
X84230000Y-63190000D03*
X86770000Y-63190000D03*
X89310000Y-63190000D03*
X91850000Y-63190000D03*
X94390000Y-63190000D03*
X94390000Y-70810000D03*
X91850000Y-70810000D03*
X89310000Y-70810000D03*
X86770000Y-70810000D03*
X84230000Y-70810000D03*
X81690000Y-70810000D03*
X79150000Y-70810000D03*
X76610000Y-70810000D03*
D19*
X101500000Y-75920000D03*
D20*
X101500000Y-86080000D03*
D19*
X141500000Y-57000000D03*
D20*
X151660000Y-57000000D03*
D24*
X82500000Y-78960000D03*
X82500000Y-84040000D03*
D31*
X93000000Y-112040000D03*
X93000000Y-106960000D03*
X138500000Y-83540000D03*
X138500000Y-78460000D03*
D27*
X149000000Y-115682400D03*
D19*
X149000000Y-113182400D03*
D24*
X105000000Y-78460000D03*
X105000000Y-83540000D03*
D31*
X96000000Y-136040000D03*
X96000000Y-130960000D03*
D32*
X147690000Y-98890000D03*
X147690000Y-96350000D03*
X147690000Y-93810000D03*
X147690000Y-91270000D03*
X147690000Y-88730000D03*
X147690000Y-86190000D03*
X147690000Y-83650000D03*
X147690000Y-81110000D03*
X155310000Y-81110000D03*
X155310000Y-83650000D03*
X155310000Y-86190000D03*
X155310000Y-88730000D03*
X155310000Y-91270000D03*
X155310000Y-93810000D03*
X155310000Y-96350000D03*
X155310000Y-98890000D03*
D31*
X155000000Y-107540000D03*
X155000000Y-102460000D03*
D19*
X119000000Y-101420000D03*
D20*
X119000000Y-111580000D03*
D31*
X93000000Y-125040000D03*
X93000000Y-119960000D03*
D19*
X124500000Y-75920000D03*
D20*
X124500000Y-86080000D03*
D19*
X169080000Y-102000000D03*
D20*
X158920000Y-102000000D03*
D19*
X67420000Y-93000000D03*
D20*
X77580000Y-93000000D03*
D31*
X109500000Y-96040000D03*
X109500000Y-90960000D03*
D24*
X121500000Y-78460000D03*
X121500000Y-83540000D03*
D19*
X172500000Y-78080000D03*
D20*
X172500000Y-67920000D03*
D19*
X158920000Y-88000000D03*
D20*
X169080000Y-88000000D03*
D33*
X158690000Y-52690000D03*
X161230000Y-52690000D03*
X163770000Y-52690000D03*
X166310000Y-52690000D03*
X166310000Y-60310000D03*
X163770000Y-60310000D03*
X161230000Y-60310000D03*
X158690000Y-60310000D03*
D28*
X76610000Y-50690000D03*
X79150000Y-50690000D03*
X81690000Y-50690000D03*
X84230000Y-50690000D03*
X86770000Y-50690000D03*
X89310000Y-50690000D03*
X91850000Y-50690000D03*
X94390000Y-50690000D03*
X94390000Y-58310000D03*
X91850000Y-58310000D03*
X89310000Y-58310000D03*
X86770000Y-58310000D03*
X84230000Y-58310000D03*
X81690000Y-58310000D03*
X79150000Y-58310000D03*
X76610000Y-58310000D03*
D19*
X77580000Y-79000000D03*
D20*
X67420000Y-79000000D03*
D17*
X113460000Y-52697500D03*
D18*
X113460000Y-55237500D03*
X116000000Y-52697500D03*
X116000000Y-55237500D03*
X118540000Y-52697500D03*
X118540000Y-55237500D03*
X121080000Y-52697500D03*
X121080000Y-55237500D03*
X123620000Y-52697500D03*
X123620000Y-55237500D03*
X126160000Y-52697500D03*
X126160000Y-55237500D03*
X128700000Y-52697500D03*
X128700000Y-55237500D03*
X131240000Y-52697500D03*
X131240000Y-55237500D03*
D28*
X96110000Y-118190000D03*
X98650000Y-118190000D03*
X101190000Y-118190000D03*
X103730000Y-118190000D03*
X106270000Y-118190000D03*
X108810000Y-118190000D03*
X111350000Y-118190000D03*
X113890000Y-118190000D03*
X113890000Y-125810000D03*
X111350000Y-125810000D03*
X108810000Y-125810000D03*
X106270000Y-125810000D03*
X103730000Y-125810000D03*
X101190000Y-125810000D03*
X98650000Y-125810000D03*
X96110000Y-125810000D03*
D34*
X172500000Y-117860000D03*
D35*
X172500000Y-115320000D03*
X172500000Y-112780000D03*
X172500000Y-110240000D03*
X172500000Y-107700000D03*
X172500000Y-105160000D03*
X172500000Y-102620000D03*
X172500000Y-100080000D03*
X172500000Y-97540000D03*
X172500000Y-95000000D03*
D19*
X111500000Y-75920000D03*
D20*
X111500000Y-86080000D03*
D23*
X156000000Y-130080000D03*
X156000000Y-119920000D03*
D36*
X123040000Y-115500000D03*
X117960000Y-115500000D03*
M02*
