M48
INCH,TZ
T1C0.0157
T2C0.0276
T3C0.0295
T4C0.0315
T5C0.0320
T6C0.0354
T7C0.0394
T8C0.0400
T9C0.0433
T10C0.0827
%
G90
G05
T1
X23937Y-20315
X25413Y-53209
X29103Y-42118
X31043Y-45581
X31693Y-45828
X32343Y-37461
X32677Y-29705
X32681Y-43455
X33307Y-43720
X35531Y-46417
X37244Y-51041
X38386Y-53110
X41944Y-45825
X42264Y-40531
X46122Y-54980
X50603Y-42978
X57677Y-29606
X59547Y-38189
X60000Y-41850
X64528Y-50394
T2
X62476Y-20744
X62476Y-23744
X63476Y-20744
X63476Y-23744
X64476Y-20744
X64476Y-23744
X65476Y-20744
X65476Y-23744
T3
X25878Y-21315
X26075Y-26433
X26378Y-21315
X26575Y-26433
X26878Y-21315
X27075Y-26433
X64067Y-42126
X64567Y-42126
X65067Y-42126
T4
X26543Y-29724
X26543Y-31102
X26543Y-32480
X26543Y-33858
X26543Y-35236
X26543Y-36614
X26543Y-37992
X26543Y-39370
X30543Y-29724
X30543Y-31102
X30543Y-32480
X30543Y-33858
X30543Y-35236
X30543Y-36614
X30543Y-37992
X30543Y-39370
X32480Y-35402
X32480Y-39402
X33858Y-35402
X33858Y-39402
X34252Y-29890
X34252Y-33890
X35236Y-35402
X35236Y-39402
X35630Y-29890
X35630Y-33890
X37008Y-29890
X37008Y-33890
X38386Y-29890
X38386Y-33890
X39961Y-29890
X39961Y-33890
X42520Y-29890
X42520Y-33890
X43898Y-29890
X43898Y-33890
X45276Y-29890
X45276Y-33890
X46654Y-29890
X46654Y-33890
X46850Y-39929
X46850Y-43929
X46850Y-46819
X46850Y-50819
X48228Y-39929
X48228Y-43929
X48228Y-46819
X48228Y-50819
X49016Y-29890
X49016Y-33890
X51575Y-29890
X51575Y-33890
X52953Y-29890
X52953Y-33890
X53602Y-25181
X53602Y-26181
X53602Y-27181
X55118Y-38354
X55118Y-42354
X55677Y-26575
X55677Y-27953
X55709Y-22441
X55709Y-23819
X55709Y-25197
X55764Y-34827
X55764Y-35827
X55764Y-36827
X58661Y-44560
X58661Y-45544
X59677Y-26575
X59677Y-27953
X59709Y-22441
X59709Y-23819
X59709Y-25197
X62402Y-44685
X62402Y-45669
X62567Y-34646
X62567Y-36024
X62567Y-37402
X62567Y-38780
X62567Y-40157
X66567Y-34646
X66567Y-36024
X66567Y-37402
X66567Y-38780
X66567Y-40157
X67913Y-26740
X67913Y-30740
T5
X27165Y-42110
X27165Y-44110
X27165Y-47031
X27165Y-49031
X27362Y-52150
X27362Y-54150
X28496Y-41610
X28496Y-44610
X28496Y-46531
X28496Y-49531
X28496Y-51650
X28496Y-54650
X28740Y-20457
X28740Y-22457
X28740Y-25378
X28740Y-27378
X29496Y-41610
X29496Y-44610
X29496Y-46531
X29496Y-49531
X29496Y-51650
X29496Y-54650
X30161Y-19957
X30161Y-22957
X30161Y-24878
X30161Y-27878
X30496Y-41610
X30496Y-44610
X30496Y-46531
X30496Y-49531
X30496Y-51650
X30496Y-54650
X31161Y-19957
X31161Y-22957
X31161Y-24878
X31161Y-27878
X31496Y-41610
X31496Y-44610
X31496Y-46531
X31496Y-49531
X31496Y-51650
X31496Y-54650
X32161Y-19957
X32161Y-22957
X32161Y-24878
X32161Y-27878
X32480Y-31087
X32480Y-33087
X32496Y-41610
X32496Y-44610
X32496Y-46531
X32496Y-49531
X32496Y-51650
X32496Y-54650
X33161Y-19957
X33161Y-22957
X33161Y-24878
X33161Y-27878
X33496Y-41610
X33496Y-44610
X33496Y-46531
X33496Y-49531
X33496Y-51650
X33496Y-54650
X34161Y-19957
X34161Y-22957
X34161Y-24878
X34161Y-27878
X34496Y-41610
X34496Y-44610
X34496Y-46531
X34496Y-49531
X34496Y-51650
X34496Y-54650
X35161Y-19957
X35161Y-22957
X35161Y-24878
X35161Y-27878
X36161Y-19957
X36161Y-22957
X36161Y-24878
X36161Y-27878
X36614Y-42110
X36614Y-44110
X36614Y-47228
X36614Y-49228
X37161Y-19957
X37161Y-22957
X37161Y-24878
X37161Y-27878
X37795Y-51559
X37795Y-53559
X37839Y-41610
X37839Y-44610
X37839Y-46531
X37839Y-49531
X38839Y-41610
X38839Y-44610
X38839Y-46531
X38839Y-49531
X39173Y-51559
X39173Y-53559
X39839Y-41610
X39839Y-44610
X39839Y-46531
X39839Y-49531
X40551Y-51559
X40551Y-53559
X40839Y-41610
X40839Y-44610
X40839Y-46531
X40839Y-49531
X41339Y-30890
X41339Y-32890
X41839Y-41610
X41839Y-44610
X41839Y-46531
X41839Y-49531
X42839Y-41610
X42839Y-44610
X42839Y-46531
X42839Y-49531
X43110Y-35811
X43110Y-37811
X43839Y-41610
X43839Y-44610
X43839Y-46531
X43839Y-49531
X44839Y-41610
X44839Y-44610
X44839Y-46531
X44839Y-49531
X45079Y-35811
X45079Y-37811
X46409Y-35311
X46409Y-38311
X46441Y-45472
X47409Y-35311
X47409Y-38311
X47835Y-30890
X47835Y-32890
X48409Y-35311
X48409Y-38311
X48441Y-45472
X49409Y-35311
X49409Y-38311
X49606Y-39945
X49606Y-41945
X50197Y-30890
X50197Y-32890
X50409Y-35311
X50409Y-38311
X51409Y-35311
X51409Y-38311
X52409Y-35311
X52409Y-38311
X53740Y-35811
X53740Y-37811
X53740Y-38854
X53740Y-41854
X54528Y-30890
X54528Y-32890
X58146Y-31933
X58146Y-32933
X58146Y-33933
X58146Y-34933
X58146Y-35933
X58146Y-36933
X58146Y-37933
X58146Y-38933
X58268Y-40339
X58268Y-42339
X59646Y-40339
X59646Y-42339
X61024Y-40339
X61024Y-42339
X61146Y-31933
X61146Y-32933
X61146Y-33933
X61146Y-34933
X61146Y-35933
X61146Y-36933
X61146Y-37933
X61146Y-38933
X61220Y-21244
X61220Y-23244
X66929Y-21244
X66929Y-23244
T6
X23622Y-23120
X23622Y-24120
X23622Y-27057
X23622Y-28057
X23622Y-30994
X23622Y-31994
X23622Y-34931
X23622Y-35931
X23622Y-38868
X23622Y-39868
X23622Y-42805
X23622Y-43805
X23622Y-46742
X23622Y-47742
X23622Y-50679
X23622Y-51679
X51181Y-43642
X51181Y-50846
X52165Y-43642
X52165Y-50846
X53150Y-43642
X53150Y-50846
X54134Y-43642
X54134Y-50846
X55118Y-43642
X55118Y-50846
X58661Y-47213
X58661Y-51213
X61417Y-47213
X61417Y-51213
X66929Y-31980
X66929Y-32980
X66929Y-51667
X66929Y-52667
T7
X41339Y-36417
X41339Y-37402
X41339Y-38386
X44669Y-20747
X44669Y-21747
X44669Y-53267
X44669Y-54267
X45669Y-20747
X45669Y-21747
X45669Y-53267
X45669Y-54267
X46669Y-20747
X46669Y-21747
X46669Y-53267
X46669Y-54267
X47669Y-20747
X47669Y-21747
X47669Y-53267
X47669Y-54267
X48669Y-20747
X48669Y-21747
X48669Y-53267
X48669Y-54267
X49669Y-20747
X49669Y-21747
X49669Y-53267
X49669Y-54267
X50669Y-20747
X50669Y-21747
X50669Y-53267
X50669Y-54267
X51669Y-20747
X51669Y-21747
X51669Y-53267
X51669Y-54267
X65945Y-26575
X65945Y-27559
X65945Y-28543
X67913Y-37402
X67913Y-38402
X67913Y-39402
X67913Y-40402
X67913Y-41402
X67913Y-42402
X67913Y-43402
X67913Y-44402
X67913Y-45402
X67913Y-46402
T8
X58008Y-53331
X58008Y-54331
X59008Y-53331
X59008Y-54331
X60008Y-53331
X60008Y-54331
X61008Y-53331
X61008Y-54331
X62008Y-53331
X62008Y-54331
T10
X46378Y-27559
X48228Y-27559
X50079Y-27559
T9
G00X38524Y-35512
M15
G01X38248Y-35512
M16
G05
G00X38524Y-39291
M15
G01X38248Y-39291
M16
G05
G00X63130Y-25669
M15
G01X62854Y-25669
M16
G05
G00X63130Y-29449
M15
G01X62854Y-29449
M16
G05
T0
M30
