<?xml version="1.0" encoding="UTF-8" standalone="no"?>
<!-- Created with Inkscape (http://www.inkscape.org/) -->

<svg
   width="100mm"
   height="200mm"
   viewBox="0 0 100 200"
   version="1.1"
   id="svg5"
   inkscape:version="1.2 (dc2aedaf03, 2022-05-15)"
   sodipodi:docname="TuringPanelGraphics.svg"
   inkscape:export-filename="TuringPanelGraphics.png"
   inkscape:export-xdpi="100"
   inkscape:export-ydpi="100"
   xmlns:inkscape="http://www.inkscape.org/namespaces/inkscape"
   xmlns:sodipodi="http://sodipodi.sourceforge.net/DTD/sodipodi-0.dtd"
   xmlns:xlink="http://www.w3.org/1999/xlink"
   xmlns="http://www.w3.org/2000/svg"
   xmlns:svg="http://www.w3.org/2000/svg">
  <sodipodi:namedview
     id="namedview7"
     pagecolor="#ffffff"
     bordercolor="#666666"
     borderopacity="1.0"
     inkscape:pageshadow="2"
     inkscape:pageopacity="0.0"
     inkscape:pagecheckerboard="0"
     inkscape:document-units="mm"
     showgrid="true"
     showguides="true"
     inkscape:zoom="1"
     inkscape:cx="55.5"
     inkscape:cy="406"
     inkscape:window-width="1920"
     inkscape:window-height="1017"
     inkscape:window-x="-8"
     inkscape:window-y="-8"
     inkscape:window-maximized="1"
     inkscape:current-layer="layer1"
     inkscape:showpageshadow="2"
     inkscape:deskcolor="#d1d1d1">
    <sodipodi:guide
       position="0,200"
       orientation="0,377.95276"
       id="guide824"
       inkscape:locked="false" />
    <sodipodi:guide
       position="99.999999,200"
       orientation="755.90551,0"
       id="guide826"
       inkscape:locked="false" />
    <sodipodi:guide
       position="99.999999,0"
       orientation="0,-377.95276"
       id="guide828"
       inkscape:locked="false" />
    <sodipodi:guide
       position="0,0"
       orientation="-755.90551,0"
       id="guide830"
       inkscape:locked="false" />
    <inkscape:grid
       type="xygrid"
       id="grid832"
       dotted="true"
       units="mm"
       spacingx="2.5"
       spacingy="2.5"
       empspacing="10" />
    <sodipodi:guide
       position="0,175"
       orientation="0,-1"
       id="guide454"
       inkscape:locked="false" />
    <sodipodi:guide
       position="12.5,237.5"
       orientation="1,0"
       id="guide456"
       inkscape:locked="false" />
    <sodipodi:guide
       position="87.499999,225"
       orientation="1,0"
       id="guide458"
       inkscape:locked="false" />
    <sodipodi:guide
       position="50,25"
       orientation="0,-1"
       id="guide460"
       inkscape:locked="false" />
    <sodipodi:guide
       position="50,50"
       orientation="0,-1"
       id="guide462"
       inkscape:locked="false" />
    <sodipodi:guide
       position="37.5,175"
       orientation="1,0"
       id="guide464"
       inkscape:locked="false" />
    <sodipodi:guide
       position="62.5,74.999999"
       orientation="1,0"
       id="guide466"
       inkscape:locked="false" />
    <sodipodi:guide
       position="0,137.5"
       orientation="0,-1"
       id="guide5561"
       inkscape:locked="false" />
    <sodipodi:guide
       position="-62.5,12.5"
       orientation="0,-1"
       id="guide540"
       inkscape:locked="false" />
    <sodipodi:guide
       position="-12.5,37.5"
       orientation="0,-1"
       id="guide1017"
       inkscape:locked="false" />
    <sodipodi:guide
       position="-25,190"
       orientation="0,-1"
       id="guide4177"
       inkscape:locked="false" />
  </sodipodi:namedview>
  <defs
     id="defs2">
    <rect
       x="377.95276"
       y="396.85039"
       width="94.488189"
       height="37.795276"
       id="rect4181" />
    <rect
       x="113.38583"
       y="-56.692913"
       width="356.3726"
       height="55.652704"
       id="rect4173" />
    <rect
       x="-236.22047"
       y="141.73228"
       width="330.70866"
       height="47.2441"
       id="rect3872" />
    <rect
       x="141.73228"
       y="0"
       width="141.73228"
       height="47.244094"
       id="rect3812" />
    <rect
       x="-236.22047"
       y="141.73228"
       width="61.55063"
       height="26.75382"
       id="rect3872-8" />
    <rect
       x="-236.22047"
       y="141.73228"
       width="61.550629"
       height="26.75382"
       id="rect3872-8-7" />
    <rect
       x="-236.22047"
       y="141.73228"
       width="61.550629"
       height="26.75382"
       id="rect3872-8-8" />
    <rect
       x="-236.22047"
       y="141.73228"
       width="61.550629"
       height="26.75382"
       id="rect3872-8-4" />
    <rect
       x="-236.22047"
       y="141.73228"
       width="61.550629"
       height="26.75382"
       id="rect3872-8-44" />
    <rect
       x="-236.22047"
       y="141.73228"
       width="61.550629"
       height="26.75382"
       id="rect3872-8-448" />
    <rect
       x="-236.22047"
       y="141.73228"
       width="61.550629"
       height="26.75382"
       id="rect3872-8-5" />
    <rect
       x="-236.22047"
       y="141.73228"
       width="61.550629"
       height="26.75382"
       id="rect3872-8-0" />
    <rect
       x="-236.22047"
       y="141.73228"
       width="61.550629"
       height="26.75382"
       id="rect3872-8-53" />
    <rect
       x="-236.22047"
       y="141.73228"
       width="61.550629"
       height="26.75382"
       id="rect3872-8-53-0" />
    <rect
       x="-236.22047"
       y="141.73228"
       width="61.550629"
       height="26.75382"
       id="rect3872-8-53-2" />
    <rect
       x="-236.22047"
       y="141.73228"
       width="61.550629"
       height="26.75382"
       id="rect3872-8-53-1" />
    <rect
       x="-236.22047"
       y="141.73228"
       width="61.550629"
       height="26.75382"
       id="rect3872-8-53-5" />
    <rect
       x="-236.22047"
       y="141.73228"
       width="61.550629"
       height="26.75382"
       id="rect3872-8-53-9" />
    <rect
       x="-236.22047"
       y="141.73228"
       width="61.550629"
       height="26.75382"
       id="rect3872-8-53-3" />
    <rect
       x="-236.22047"
       y="141.73228"
       width="61.550629"
       height="26.75382"
       id="rect3872-8-53-27" />
    <rect
       x="-236.22047"
       y="141.73228"
       width="61.550629"
       height="26.75382"
       id="rect3872-8-53-57" />
    <rect
       x="377.95276"
       y="396.8504"
       width="94.48819"
       height="37.795277"
       id="rect4181-4" />
    <rect
       x="377.95276"
       y="396.8504"
       width="94.48819"
       height="37.795277"
       id="rect4181-4-9" />
    <rect
       x="377.95276"
       y="396.8504"
       width="94.48819"
       height="37.795277"
       id="rect4181-4-7" />
    <rect
       x="377.95276"
       y="396.8504"
       width="94.48819"
       height="37.795277"
       id="rect4181-4-2" />
    <rect
       x="377.95276"
       y="396.8504"
       width="94.48819"
       height="37.795277"
       id="rect4181-4-92" />
    <rect
       x="377.95276"
       y="396.8504"
       width="94.48819"
       height="37.795277"
       id="rect4181-4-94" />
    <rect
       x="377.95276"
       y="396.8504"
       width="94.48819"
       height="37.795277"
       id="rect4181-4-1" />
  </defs>
  <g
     inkscape:label="Layer 1"
     inkscape:groupmode="layer"
     id="layer1">
    <rect
       style="fill:#000000;fill-opacity:1;stroke:none;stroke-width:1.225;stroke-dasharray:none"
       id="rect2521"
       width="100"
       height="200"
       x="0"
       y="0" />
    <g
       aria-label="16"
       transform="matrix(0.26458333,0,0,0.26458333,98.616345,67.759003)"
       id="text3870-7-45-95"
       style="font-size:16px;line-height:1.25;font-family:Myfont;-inkscape-font-specification:'Myfont, Normal';letter-spacing:0px;word-spacing:0px;white-space:pre;shape-inside:url(#rect3872-8-53-57);display:inline;fill:#ffffff">
      <path
         d="m -232.9247,145.22042 q 0.144,-0.112 0.208,-0.096 0.064,0 0.176,0.112 0.16,0.128 0.192,0.128 0.128,0 0.128,0.496 0,0.624 -0.16,1.488 -0.096,0.624 -0.144,2.176 -0.08,2.288 -0.32,3.488 -0.112,0.56 -0.112,0.8 0,0.176 0.032,0.224 0.048,0.032 0.208,0.032 0.944,-0.032 1.104,-0.16 0.08,-0.048 0.16,0.016 0.08,0.048 0.144,0.048 0.08,-0.016 0.192,-0.032 0.112,-0.032 0.144,-0.032 0.032,0 0.096,-0.064 h 0.016 q 0.08,0 0.224,0.16 0.16,0.144 0.16,0.24 0,0.176 -0.256,0.24 -0.24,0.064 -1.456,0.192 -0.672,0.064 -1.44,0.24 -0.752,0.16 -0.896,0.256 -0.176,0.128 -0.384,0.128 -0.224,0 -0.32,-0.144 -0.096,-0.144 -0.096,-0.32 0,-0.24 0.144,-0.384 0.128,-0.128 0.288,-0.128 0.128,0 0.24,0.016 0.112,0.016 0.288,0.016 0.384,0 0.496,-0.224 0.08,-0.16 0.24,-0.816 0.16,-0.672 0.192,-1.008 0,-0.096 0.096,-0.8 0.08,-0.592 0.128,-1.952 0.064,-1.504 0.112,-1.536 0.064,-0.032 0.128,-0.8 0.032,-0.256 0.032,-0.592 0,-0.256 -0.048,-0.256 -0.048,0 -0.144,0.16 -0.064,0.096 -0.496,0.608 -0.416,0.512 -0.48,0.64 -0.144,0.256 -0.336,0.256 -0.192,0 -0.32,-0.224 -0.128,-0.176 -0.032,-0.352 0.096,-0.176 0.208,-0.208 0.128,-0.032 0.528,-0.464 0.416,-0.432 0.416,-0.544 0,-0.08 0.096,-0.112 0.08,-0.048 0.32,-0.448 0.24,-0.416 0.304,-0.464 z"
         id="path5052" />
      <path
         d="m -223.90069,150.88442 h -0.064 q -0.864,0 -1.936,0.816 -0.48,0.352 -0.624,0.416 -0.208,0.112 -0.48,0.432 -0.256,0.304 -0.256,0.432 0,0.112 0.176,0.224 0.128,0.08 0.128,0.128 0.016,0.048 -0.08,0.224 -0.096,0.144 -0.096,0.208 0,0.128 0.4,0.256 0.144,0.064 0.384,0.064 0.432,0 0.72,-0.192 0.336,-0.208 0.88,-0.736 0.544,-0.528 0.624,-0.704 0.096,-0.256 0.224,-0.352 0.128,-0.128 0.304,-0.48 0.176,-0.352 0.176,-0.512 0,-0.144 -0.08,-0.176 -0.08,-0.032 -0.4,-0.048 z m -2.928,0.752 q 0.016,0 0.4,-0.224 l 0.384,-0.24 q 0.048,0 0.288,-0.176 0.288,-0.224 0.656,-0.4 0.448,-0.224 0.576,-0.352 0.16,-0.16 0.272,-0.08 0.256,0.144 0.352,-0.208 l 0.048,-0.192 0.176,0.16 q 0.208,0.176 0.32,0.176 0.176,0 0.416,0.24 0.24,0.224 0.24,0.384 0,0.048 -0.032,0.304 -0.032,0.368 -0.16,0.64 -0.112,0.272 -0.496,0.848 -0.256,0.384 -0.848,0.976 -0.576,0.576 -0.864,0.736 -1.008,0.56 -1.584,0.56 -0.256,0 -0.464,-0.064 -0.704,-0.192 -1.136,-1.136 -0.416,-0.96 -0.416,-2.256 0,-0.592 0.096,-1.184 0.08,-0.544 0.352,-1.488 0.272,-0.96 0.368,-1.04 0.064,-0.064 0.304,-0.688 0.256,-0.656 0.384,-0.784 0.096,-0.128 0.096,-0.32 0,-0.16 0.128,-0.288 0.096,-0.08 0.224,-0.32 0.128,-0.24 0.4,-0.368 0.256,-0.144 0.32,-0.144 0.064,0 0.192,0.24 0.112,0.224 0.112,0.288 0,0.032 -0.112,0.32 -0.096,0.224 -0.304,0.528 -0.208,0.304 -0.304,0.528 -0.144,0.32 -0.256,0.4 -0.096,0.096 -0.096,0.24 0,0.144 -0.144,0.352 -0.16,0.24 -0.304,0.784 -0.176,0.608 -0.224,0.624 -0.08,0.064 -0.224,0.64 -0.128,0.56 -0.192,1.12 -0.048,0.416 -0.048,0.736 0,0.576 0.16,0.784 0.048,0.08 0.096,0.08 0.08,0 0.416,-0.336 0.4,-0.4 0.432,-0.4 z"
         id="path5054" />
    </g>
    <g
       aria-label="6"
       transform="matrix(0.26458333,0,0,0.26458333,93.562508,47.345458)"
       id="text3870-7-45-9"
       style="font-size:16px;line-height:1.25;font-family:Myfont;-inkscape-font-specification:'Myfont, Normal';letter-spacing:0px;word-spacing:0px;white-space:pre;shape-inside:url(#rect3872-8-53-9);display:inline;fill:#ffffff">
      <path
         d="m -230.5407,150.88442 h -0.064 q -0.864,0 -1.936,0.816 -0.48,0.352 -0.624,0.416 -0.208,0.112 -0.48,0.432 -0.256,0.304 -0.256,0.432 0,0.112 0.176,0.224 0.128,0.08 0.128,0.128 0.016,0.048 -0.08,0.224 -0.096,0.144 -0.096,0.208 0,0.128 0.4,0.256 0.144,0.064 0.384,0.064 0.432,0 0.72,-0.192 0.336,-0.208 0.88,-0.736 0.544,-0.528 0.624,-0.704 0.096,-0.256 0.224,-0.352 0.128,-0.128 0.304,-0.48 0.176,-0.352 0.176,-0.512 0,-0.144 -0.08,-0.176 -0.08,-0.032 -0.4,-0.048 z m -2.928,0.752 q 0.016,0 0.4,-0.224 l 0.384,-0.24 q 0.048,0 0.288,-0.176 0.288,-0.224 0.656,-0.4 0.448,-0.224 0.576,-0.352 0.16,-0.16 0.272,-0.08 0.256,0.144 0.352,-0.208 l 0.048,-0.192 0.176,0.16 q 0.208,0.176 0.32,0.176 0.176,0 0.416,0.24 0.24,0.224 0.24,0.384 0,0.048 -0.032,0.304 -0.032,0.368 -0.16,0.64 -0.112,0.272 -0.496,0.848 -0.256,0.384 -0.848,0.976 -0.576,0.576 -0.864,0.736 -1.008,0.56 -1.584,0.56 -0.256,0 -0.464,-0.064 -0.704,-0.192 -1.136,-1.136 -0.416,-0.96 -0.416,-2.256 0,-0.592 0.096,-1.184 0.08,-0.544 0.352,-1.488 0.272,-0.96 0.368,-1.04 0.064,-0.064 0.304,-0.688 0.256,-0.656 0.384,-0.784 0.096,-0.128 0.096,-0.32 0,-0.16 0.128,-0.288 0.096,-0.08 0.224,-0.32 0.128,-0.24 0.4,-0.368 0.256,-0.144 0.32,-0.144 0.064,0 0.192,0.24 0.112,0.224 0.112,0.288 0,0.032 -0.112,0.32 -0.096,0.224 -0.304,0.528 -0.208,0.304 -0.304,0.528 -0.144,0.32 -0.256,0.4 -0.096,0.096 -0.096,0.24 0,0.144 -0.144,0.352 -0.16,0.24 -0.304,0.784 -0.176,0.608 -0.224,0.624 -0.08,0.064 -0.224,0.64 -0.128,0.56 -0.192,1.12 -0.048,0.416 -0.048,0.736 0,0.576 0.16,0.784 0.048,0.08 0.096,0.08 0.08,0 0.416,-0.336 0.4,-0.4 0.432,-0.4 z"
         id="path5065" />
    </g>
    <g
       aria-label="3"
       transform="matrix(0.26458333,0,0,0.26458333,74.139912,53.786626)"
       id="text3870-7-45-4"
       style="font-size:16px;line-height:1.25;font-family:Myfont;-inkscape-font-specification:'Myfont, Normal';letter-spacing:0px;word-spacing:0px;white-space:pre;shape-inside:url(#rect3872-8-53-0);display:inline;fill:#ffffff">
      <path
         d="m -231.1007,144.67642 q 0.32,-0.08 0.368,-0.08 0.016,0 0.272,0.064 0.32,0.08 0.32,0.352 0,0.16 -0.16,0.48 -0.08,0.16 -0.72,0.896 -0.128,0.144 -0.192,0.24 -0.048,0.096 -0.144,0.32 -0.08,0.208 -0.112,0.288 -0.192,0.384 -0.384,0.992 -0.176,0.608 -0.176,0.848 0,0.08 0.016,0.096 0.016,0.032 0.288,-0.032 0.208,-0.064 0.464,-0.064 0.56,0 1.136,0.528 0.272,0.256 0.352,0.48 0.096,0.208 0.096,0.656 0,0.32 -0.176,0.784 -0.16,0.464 -0.368,0.768 -0.208,0.272 -0.208,0.32 0,0.048 -0.176,0.32 -0.192,0.24 -0.432,0.608 -0.496,0.704 -1.248,1.248 -0.736,0.544 -1.184,0.544 -0.4,0 -0.8,-0.256 -0.4,-0.256 -0.48,-0.576 0,-0.016 -0.016,-0.032 0,-0.032 0,-0.048 0,-0.112 0.08,-0.192 0.08,-0.08 0.192,-0.08 0.16,0 0.72,0.384 0.192,0.112 0.4,0.112 0.176,0 0.192,-0.08 0.032,-0.08 0.208,-0.112 0.16,-0.032 0.464,-0.304 0.352,-0.304 0.752,-0.72 0.4,-0.432 0.4,-0.496 0,-0.08 0.128,-0.208 0.144,-0.144 0.24,-0.368 0.128,-0.24 0.192,-0.272 0.08,-0.048 0.208,-0.512 0.128,-0.48 0.128,-0.704 0,-0.592 -0.464,-0.864 -0.24,-0.144 -0.512,-0.144 -0.464,0 -0.736,0.384 -0.16,0.224 -0.416,0.304 -0.192,0.048 -0.272,0.048 -0.096,0 -0.256,-0.112 -0.24,-0.192 -0.24,-0.304 0,-0.08 0.208,-0.336 0.24,-0.304 0.24,-0.368 0,-0.032 0.128,-0.32 0.08,-0.176 0.16,-0.464 0.08,-0.304 0.144,-0.464 0.16,-0.368 0.224,-0.656 0.08,-0.352 0.336,-0.96 0.272,-0.624 0.432,-0.816 0.112,-0.128 0.112,-0.208 0,-0.08 -0.224,-0.08 h -0.096 q -0.432,0 -1.44,0.56 -0.992,0.544 -1.056,0.672 -0.064,0.112 -0.288,0.256 -0.224,0.144 -0.352,0.144 -0.208,0 -0.352,-0.176 -0.144,-0.176 -0.144,-0.416 0,-0.112 0.016,-0.176 0.016,-0.112 0.208,-0.192 0.192,-0.096 0.368,-0.096 0.128,0 0.512,-0.176 0.384,-0.176 0.464,-0.192 0.896,-0.32 1.008,-0.496 0.032,-0.064 0.176,-0.064 0.144,0 0.192,-0.048 0.048,-0.048 0.432,-0.144 0.4,-0.112 0.448,-0.144 0.208,-0.112 0.4,-0.144 z"
         id="path5074" />
    </g>
    <path
       style="fill:none;stroke:#ffffff;stroke-width:0.265;stroke-linecap:butt;stroke-linejoin:miter;stroke-dasharray:none;stroke-opacity:1"
       d="m -0.07804531,41.366953 2.56290721,-3.290762 1.1452422,3.95698 2.406436,-4.541618 1.8459244,4.399973 2.0312349,-3.937176 2.1973506,3.012146 2.26056,-4.198131 0.368183,4.31613 2.728811,-4.164537 0.622333,5.402129 2.187117,-4.761384 1.505159,4.950463 1.460748,-4.12839 1.980345,4.619576 1.856567,-5.022918 4.491542,4.730381 2.289616,-5.153922 2.72537,4.647079 3.159989,-4.457536 3.627195,4.164563 2.000504,-3.75369 0.615448,3.773452 6.006413,-4.194619 2.542414,4.086826 2.832391,-4.038958 0.784595,3.77724 4.629979,-2.66682 1.487537,3.620229 5.055901,-3.560816 2.897332,3.240385 1.560995,-3.223958 5.731974,3.562579 3.977861,-2.827457 3.525796,2.669741 4.542472,-3.072804 2.922831,2.581216 6.156982,-2.422014"
       id="path3927-8-3"
       sodipodi:nodetypes="cccccccccccccccccccccccccccccccccccccc" />
    <path
       style="fill:none;stroke:#ffffff;stroke-width:0.265;stroke-linecap:butt;stroke-linejoin:miter;stroke-dasharray:none;stroke-opacity:1"
       d="m -0.25397133,44.437945 1.98302323,-3.125081 1.8079668,2.797212 1.9922336,-4.044575 3.5855767,5.062698 1.948394,-4.268538 2.445872,3.260667 3.171807,-3.866768 2.190676,5.227376 1.403362,-4.330218 0.622333,3.331114 2.584965,-3.276586 0.903417,4.122532 2.933495,-3.780309 2.751889,3.901975 3.946428,-4.408356 1.565602,3.901513 4.73396,-3.463448 4.372761,3.667519 5.2259,-4.506219 5.607516,3.755463 4.528233,-2.332733 6.61456,2.775902 1.825117,-2.81525 1.737564,2.411979 5.537344,-2.809755 2.666871,3.396898 3.232296,-2.910298 5.845333,3.001103 2.554297,-3.155644 7.230543,2.498375 3.506086,-0.930883"
       id="path3927-8"
       sodipodi:nodetypes="cccccccccccccccccccccccccccccccc" />
    <path
       style="fill:none;stroke:#ffffff;stroke-width:0.265;stroke-linecap:butt;stroke-linejoin:miter;stroke-dasharray:none;stroke-opacity:1"
       d="M -0.55858269,83.773656 27.774241,82.92007 l 20.945407,1.079517 14.810328,-1.017203 10.262982,0.488224 13.89379,-1.006436 10.034529,0.957643 4.059633,-0.440538"
       id="path3927-7-3-4-8-1-0-8-3-5-3-1-2-9-2-7-5-2-3-0-2"
       sodipodi:nodetypes="cccccccc" />
    <circle
       style="fill:#ffffff;fill-opacity:1;stroke:none;stroke-width:1.225;stroke-dasharray:none"
       id="path123"
       cx="15"
       cy="24.999998"
       r="2.5" />
    <circle
       style="fill:#ffffff;fill-opacity:1;stroke:none;stroke-width:1.225;stroke-dasharray:none"
       id="circle440"
       cx="25"
       cy="25"
       r="2.5" />
    <circle
       style="fill:#ffffff;fill-opacity:1;stroke:none;stroke-width:1.225;stroke-dasharray:none"
       id="circle442"
       cx="35"
       cy="24.999998"
       r="2.5" />
    <circle
       style="fill:#ffffff;fill-opacity:1;stroke:none;stroke-width:1.225;stroke-dasharray:none"
       id="circle444"
       cx="55"
       cy="24.999998"
       r="2.5" />
    <circle
       style="fill:#ffffff;fill-opacity:1;stroke:none;stroke-width:1.225;stroke-dasharray:none"
       id="circle446"
       cx="65"
       cy="24.999998"
       r="2.5" />
    <circle
       style="fill:#ffffff;fill-opacity:1;stroke:none;stroke-width:1.225;stroke-dasharray:none"
       id="circle448"
       cx="75"
       cy="24.999998"
       r="2.5" />
    <circle
       style="fill:#ffffff;fill-opacity:1;stroke:none;stroke-width:1.225;stroke-dasharray:none"
       id="circle450"
       cx="45"
       cy="24.999998"
       r="2.5" />
    <circle
       style="fill:#ffffff;fill-opacity:1;stroke:none;stroke-width:1.225;stroke-dasharray:none"
       id="circle452"
       cx="85"
       cy="25"
       r="2.5" />
    <circle
       style="fill:#ffffff;fill-opacity:1;stroke:none;stroke-width:1.715;stroke-dasharray:none"
       id="circle472"
       cx="62.5"
       cy="150"
       r="7" />
    <circle
       style="fill:#ffffff;fill-opacity:1;stroke:none;stroke-width:1.715;stroke-dasharray:none"
       id="circle476"
       cx="12.5"
       cy="175"
       r="7" />
    <circle
       style="fill:#ffffff;fill-opacity:1;stroke:none;stroke-width:1.715;stroke-dasharray:none"
       id="circle478"
       cx="37.5"
       cy="175"
       r="7" />
    <circle
       style="fill:#ffffff;fill-opacity:1;stroke:none;stroke-width:1.715;stroke-dasharray:none"
       id="circle480"
       cx="62.5"
       cy="175"
       r="7" />
    <circle
       style="fill:#ffffff;fill-opacity:1;stroke:none;stroke-width:1.715;stroke-dasharray:none"
       id="circle482"
       cx="87.5"
       cy="175"
       r="7" />
    <ellipse
       style="fill:#ffffff;fill-opacity:1;stroke:#ffffff;stroke-width:0.269565;stroke-dasharray:none;stroke-opacity:1"
       id="path486"
       cx="25"
       cy="100"
       rx="2.9652176"
       ry="2.9652174" />
    <circle
       style="fill:#ffffff;fill-opacity:1;stroke:#ffffff;stroke-width:0.23494;stroke-dasharray:none;stroke-opacity:1"
       id="circle1523"
       cx="75"
       cy="125"
       r="3.1325302" />
    <circle
       style="fill:#ffffff;fill-opacity:1;stroke:none;stroke-width:1.8375;stroke-dasharray:none"
       id="path2315"
       cx="75"
       cy="87.5"
       r="3" />
    <circle
       style="fill:#ffffff;fill-opacity:1;stroke:none;stroke-width:1.225;stroke-dasharray:none"
       id="path2317"
       cx="74.999107"
       cy="99.876953"
       r="1" />
    <circle
       style="fill:#ffffff;fill-opacity:1;stroke:none;stroke-width:1.225;stroke-dasharray:none"
       id="path3720"
       cx="62.5"
       cy="135"
       r="2.5" />
    <circle
       style="fill:#ffffff;fill-opacity:1;stroke:none;stroke-width:1.225;stroke-dasharray:none"
       id="path3722"
       cx="12.5"
       cy="135"
       r="2.5" />
    <path
       style="fill:none;stroke:#ffffff;stroke-width:0.265;stroke-linecap:butt;stroke-linejoin:miter;stroke-dasharray:none;stroke-opacity:1"
       d="m -0.25789567,47.612603 2.23154427,-2.876559 1.9736487,2.631531 2.5721174,-2.719126 3.4198953,2.660321 2.031234,-3.771494 1.783148,3.75771 1.432154,-4.19813 0.699545,5.310216 1.403362,-3.584652 2.030624,2.254186 2.419283,-2.033977 1.483302,2.879923 2.602132,-2.951903 4.325861,2.162322 2.703819,-2.088819 3.222414,2.244701 5.562366,-2.552201 4.041398,2.010707 4.977378,-2.435204 8.8383,2.595694 2.871421,-2.084211 4.626385,2.361699 6.38135,-2.318206 2.234608,2.909022 7.442678,-2.478392 4.86873,1.499528 5.453718,-2.244397 7.0088,2.395898"
       id="path3927"
       sodipodi:nodetypes="ccccccccccccccccccccccccccccc" />
    <path
       style="fill:none;stroke:#fffffd;stroke-width:0.7;stroke-linecap:butt;stroke-linejoin:miter;stroke-dasharray:none;stroke-opacity:1"
       d="M 12.5,175 V 135"
       id="path4065"
       sodipodi:nodetypes="cc" />
    <path
       style="color:#000000;fill:#ffffff;-inkscape-stroke:none"
       d="m 62.150391,135 v 15 h 0.699218 v -15 z"
       id="path4067" />
    <path
       style="fill:none;stroke:#ffffff;stroke-width:0.265;stroke-linecap:butt;stroke-linejoin:miter;stroke-dasharray:none;stroke-opacity:1"
       d="m -0.48501833,49.441801 2.92802853,-2.257462 1.6640994,3.714951 3.113828,-4.963353 2.5686364,5.059322 1.412137,-3.848881 1.783148,3.602936 2.051251,-2.495613 1.473417,2.524279 1.093813,-4.435911 0.869817,3.879316 1.800186,-2.575687 2.102399,2.260826 2.447358,-2.564967 2.159021,3.323129 4.0194,-3.327013 3.454575,3.250734 3.550301,-3.093911 5.124818,2.552417 6.138185,-3.286463 7.367944,2.98263 5.502584,-2.471147 3.775126,2.671248 4.910996,-2.550368 7.342161,2.367312 6.049702,-2.633166 2.392341,3.124658 4.91201,-3.018269 4.687955,1.300899 3.71381,-0.684904"
       id="path3927-7"
       sodipodi:nodetypes="cccccccccccccccccccccccccccccc" />
    <path
       style="fill:none;stroke:#ffffff;stroke-width:0.265;stroke-linecap:butt;stroke-linejoin:miter;stroke-dasharray:none;stroke-opacity:1"
       d="m -0.15100058,53.336018 1.30289808,-2.953946 2.9796814,2.941079 3.6555379,-3.41561 3.3425072,3.047257 0.79304,-2.5333 2.247471,2.596903 1.354767,-2.186064 2.015127,1.750407 2.409394,-3.042942 1.741357,3.160921 2.924627,-2.316207 4.0937,2.084934 3.709851,-2.940077 1.597284,2.786411 5.407592,-2.242652 5.589141,1.855932 5.20954,-2.899527 4.349845,3.911276 8.907618,-2.161599 5.013321,1.974764 4.756221,-3.633788 4.633611,3.528119 4.115024,-2.323617 6.880795,2.118625 5.221559,-2.70872 3.85307,1.499229 2.149701,-1.81188"
       id="path3927-7-3"
       sodipodi:nodetypes="cccccccccccccccccccccccccccc" />
    <path
       style="fill:none;stroke:#ffffff;stroke-width:0.265;stroke-linecap:butt;stroke-linejoin:miter;stroke-dasharray:none;stroke-opacity:1"
       d="m -0.02106629,55.081528 2.61848039,-1.715752 1.6640996,1.702885 3.9650866,-2.254803 2.4138617,1.731676 2.186008,-1.836816 1.4736,2.055193 1.896477,-2.573 1.473417,2.137343 2.873717,-1.804748 1.277034,1.922727 3.93066,-2.23882 3.087667,2.007547 4.096787,-2.166206 1.210348,2.01254 5.407592,-1.546168 5.589141,1.159448 5.20954,-1.661333 4.349845,2.673082 7.050327,-2.161599 6.870612,1.974764 5.84847,-2.649569 2.303168,2.853449 6.900961,-2.78794 6.880795,2.118625 4.912011,-2.476559 4.841961,2.62806"
       id="path3927-7-3-4"
       sodipodi:nodetypes="ccccccccccccccccccccccccccc" />
    <path
       style="fill:none;stroke:#ffffff;stroke-width:0.265;stroke-linecap:butt;stroke-linejoin:miter;stroke-dasharray:none;stroke-opacity:1"
       d="m -0.20960688,56.599133 2.23154428,-1.251429 2.0510357,1.238562 3.3459889,-2.022642 3.032959,1.499515 1.799072,-1.604655 1.860536,1.823032 2.438187,-2.108677 1.93774,1.67302 1.1712,-1.727361 2.902164,1.84534 2.382917,-1.929271 2.932893,1.775385 3.245528,-1.934044 2.835478,1.702991 4.943269,-1.468781 6.98211,1.701158 3.274861,-1.893494 6.284524,2.363533 7.51465,-2.238986 6.870612,1.974764 1.970283,-2.318207 3.782353,2.212538 6.514025,-1.627132 9.125023,1.886463 3.441654,-1.857462 5.53845,1.389867"
       id="path3927-7-3-4-8"
       sodipodi:nodetypes="ccccccccccccccccccccccccccc" />
    <path
       style="fill:none;stroke:#ffffff;stroke-width:0.265;stroke-linecap:butt;stroke-linejoin:miter;stroke-dasharray:none;stroke-opacity:1"
       d="m -0.32278343,58.266551 3.16018973,-1.406203 2.1284231,1.238562 1.5660848,-1.867868 3.1103465,1.422128 3.0372663,-1.449881 2.789182,1.358709 1.973864,-1.48958 1.690257,1.385285 6.094669,-1.601064 4.238472,1.930276 2.703818,-2.243592 4.383221,1.780378 4.014623,-1.700942 3.964012,1.778545 6.138185,-1.429171 6.903621,1.89921 7.127714,-1.774663 4.084675,1.665215 4.059736,-1.931271 4.478837,1.516054 6.436638,-1.70452 7.190345,1.809077 4.679848,-1.083591 2.783073,0.831009 1.749343,-0.447176"
       id="path3927-7-3-4-8-1"
       sodipodi:nodetypes="cccccccccccccccccccccccccc" />
    <path
       style="fill:none;stroke:#ffffff;stroke-width:0.265;stroke-linecap:butt;stroke-linejoin:miter;stroke-dasharray:none;stroke-opacity:1"
       d="m -0.13167492,60.191612 2.23154332,-1.406203 4.4500372,1.238562 1.9530207,-1.867868 3.1103467,1.267354 2.727718,-1.75943 2.247472,2.209968 4.867831,-2.047651 1.82971,2.153704 2.829087,-2.275735 2.381181,2.007663 5.876691,-2.475753 3.299801,1.935152 4.63372,-1.933104 4.892658,1.623771 4.822603,-1.042235 7.987041,1.744436 4.109616,-1.929438 6.561063,2.129538 3.440639,-2.008658 4.788386,1.748215 3.960249,-2.014068 4.636569,1.576915 7.543173,-0.928817 5.228899,1.622028"
       id="path3927-7-3-4-8-1-0"
       sodipodi:nodetypes="ccccccccccccccccccccccccc" />
    <path
       style="fill:none;stroke:#ffffff;stroke-width:0.265;stroke-linecap:butt;stroke-linejoin:miter;stroke-dasharray:none;stroke-opacity:1"
       d="m -0.04196871,61.857558 3.31496301,-1.019267 2.824908,0.774239 3.1138271,-1.403545 3.5746696,0.880418 2.495557,-1.140333 2.634407,1.203935 2.825123,-1.48958 4.10458,1.905182 1.590892,-1.579251 3.387214,1.233792 3.787238,-2.166205 5.311867,1.935152 5.330204,-1.933104 5.356981,1.701158 3.893958,-1.351783 5.588039,1.89921 4.032229,-1.774664 5.090707,2.052151 7.774319,-1.466948 5.020548,0.664795 3.882862,-1.317583 6.571247,1.42214 4.91201,-0.696655 4.145479,0.770769"
       id="path3927-7-3-4-8-1-0-8"
       sodipodi:nodetypes="ccccccccccccccccccccccccc" />
    <path
       style="fill:none;stroke:#ffffff;stroke-width:0.265;stroke-linecap:butt;stroke-linejoin:miter;stroke-dasharray:none;stroke-opacity:1"
       d="m 0.09356722,63.468787 5.05461548,-1.184948 3.653314,0.691399 2.3682613,-1.569227 4.237395,1.377462 0.921585,-1.554536 3.131451,1.286776 2.245238,-1.075378 3.524697,0.828254 3.413385,-0.750844 3.884257,1.730835 3.95292,-2.249045 4.897664,2.017992 5.578725,-2.015944 5.356981,1.701158 2.73419,-1.848827 7.244851,2.396254 3.452345,-1.940345 4.510823,1.637948 4.046492,-1.384108 4.854866,0.747636 7.69353,-1.151902 4.25171,1.670662 9.633927,-1.193699"
       id="path3927-7-3-4-8-1-0-8-3"
       sodipodi:nodetypes="cccccccccccccccccccccccc" />
    <path
       style="fill:none;stroke:#ffffff;stroke-width:0.265;stroke-linecap:butt;stroke-linejoin:miter;stroke-dasharray:none;stroke-opacity:1"
       d="m -0.03039502,64.689121 2.40371692,-1.102108 3.4876328,0.608559 4.9363193,-1.072184 2.497743,1.377462 3.986687,-1.803057 4.208379,1.286776 2.825123,-1.3239 3.773218,1.822341 2.336457,-1.744931 3.138691,1.979357 5.692573,-1.586321 5.72607,1.438108 4.998841,-1.850263 6.185387,1.701158 3.479755,-1.351783 6.416445,1.485007 1.961214,-1.443301 4.345142,1.306586 4.377854,-1.466949 6.511678,1.24468 4.711269,-1.648946 7.151131,1.753503 5.326219,-1.773584"
       id="path3927-7-3-4-8-1-0-8-3-5"
       sodipodi:nodetypes="cccccccccccccccccccccccc" />
    <path
       style="fill:none;stroke:#ffffff;stroke-width:0.265;stroke-linecap:butt;stroke-linejoin:miter;stroke-dasharray:none;stroke-opacity:1"
       d="m -0.19637062,66.40811 3.64632592,-2.096195 3.3219518,1.685486 3.6937099,-1.569227 4.320236,1.377462 5.063615,-1.637375 1.888842,1.866659 3.736369,-1.903784 4.02174,1.988022 2.584979,-1.330728 4.298459,1.316633 4.367124,-1.752003 6.223114,1.769471 4.998841,-2.015944 3.94869,1.949679 5.053727,-1.848826 5.75372,2.147732 3.452345,-1.443301 4.262301,0.726701 4.957738,-1.301267 7.919968,1.161839 4.131385,-1.317584 5.991363,1.422141 3.338037,-1.27654"
       id="path3927-7-3-4-8-1-0-8-3-5-3"
       sodipodi:nodetypes="cccccccccccccccccccccccc" />
    <path
       style="fill:none;stroke:#ffffff;stroke-width:0.265;stroke-linecap:butt;stroke-linejoin:miter;stroke-dasharray:none;stroke-opacity:1"
       d="m -0.52505609,67.935384 6.38006569,-1.516311 3.8189956,1.188443 3.6108688,-1.403546 3.823193,1.294621 2.247034,-1.140331 4.29122,1.452456 2.659441,-1.903784 2.364928,1.905181 4.407472,-1.579249 2.310285,1.399473 5.112689,-2.000525 5.229027,1.852312 4.998841,-1.601741 5.936864,1.783998 5.302249,-1.848827 9.040384,1.698519 5.090707,-1.344314 3.88081,1.266791 10.90223,-1.240538 4.87695,1.084794 5.245792,-0.897396"
       id="path3927-7-3-4-8-1-0-8-3-5-3-1"
       sodipodi:nodetypes="cccccccccccccccccccccc" />
    <path
       style="fill:none;stroke:#ffffff;stroke-width:0.265;stroke-linecap:butt;stroke-linejoin:miter;stroke-dasharray:none;stroke-opacity:1"
       d="m -0.47663321,69.750036 5.30313821,-1.930514 6.221372,1.768327 4.025073,-1.98343 5.645686,2.040186 5.635549,-1.923021 5.761392,2.070862 2.502139,-1.496408 3.387213,1.565154 3.787239,-2.331887 6.554477,1.438109 5.827246,-1.43606 6.019705,1.783998 6.379177,-1.765987 5.975282,1.698519 4.842185,-1.427154 7.691477,1.10111 6.263157,-1.48906 9.847386,2.161722"
       id="path3927-7-3-4-8-1-0-8-3-5-3-1-2"
       sodipodi:nodetypes="ccccccccccccccccccc" />
    <path
       style="fill:none;stroke:#ffffff;stroke-width:0.265;stroke-linecap:butt;stroke-linejoin:miter;stroke-dasharray:none;stroke-opacity:1"
       d="m -0.87310954,71.758988 4.14336964,-1.930514 4.8130814,1.768327 8.9955085,-1.900589 6.888295,1.543142 4.558622,-2.005862 5.678551,2.236544 2.170777,-1.330727 5.706749,1.233791 3.95292,-2.000524 6.88584,1.686631 5.164521,-1.35322 5.439821,1.783998 6.047815,-1.434624 7.466412,1.367156 5.919113,-1.509994 6.200346,1.018269 7.091563,-1.48906 4.545585,2.161722"
       id="path3927-7-3-4-8-1-0-8-3-5-3-1-2-9"
       sodipodi:nodetypes="ccccccccccccccccccc" />
    <path
       style="fill:none;stroke:#ffffff;stroke-width:0.265;stroke-linecap:butt;stroke-linejoin:miter;stroke-dasharray:none;stroke-opacity:1"
       d="m -0.88203787,73.926939 6.29722547,-1.764833 5.7243284,1.602646 4.439275,-1.900589 5.894208,1.708823 7.955087,-1.923021 6.258435,1.988022 3.661907,-1.496408 6.038112,0.985269 6.603819,-0.840756 5.146187,1.272428 4.99884,-1.518901 3.700169,1.701158 6.544857,-1.765987 7.880616,0.704431 5.339229,-1.178631 6.614549,1.598153 6.014635,-1.48906 2.888769,1.001954"
       id="path3927-7-3-4-8-1-0-8-3-5-3-1-2-9-2"
       sodipodi:nodetypes="ccccccccccccccccccc" />
    <path
       style="fill:none;stroke:#ffffff;stroke-width:0.265;stroke-linecap:butt;stroke-linejoin:miter;stroke-dasharray:none;stroke-opacity:1"
       d="m -0.22266963,75.579326 4.55757353,-1.764833 5.0616028,1.271284 7.8357393,-1.569227 6.308411,1.460301 4.972826,-1.508818 5.430029,1.573819 7.389734,-1.413567 7.19788,1.233791 6.189616,-0.840756 5.311868,0.941065 3.673391,-1.187538 6.102546,1.452636 8.035988,-1.517465 7.217891,1.449996 4.759345,-1.592834 6.86307,1.018269 5.092739,-0.321425"
       id="path3927-7-3-4-8-1-0-8-3-5-3-1-2-9-2-7"
       sodipodi:nodetypes="cccccccccccccccccc" />
    <path
       style="fill:none;stroke:#ffffff;stroke-width:0.265;stroke-linecap:butt;stroke-linejoin:miter;stroke-dasharray:none;stroke-opacity:1"
       d="m -0.86181444,77.193477 2.56939964,-0.853586 9.6178358,0.525718 9.078348,-1.237864 6.391252,1.37746 5.221348,-1.508818 3.690376,1.325297 7.969619,-1.496407 7.363561,1.482312 6.438137,-1.172118 4.06926,1.189587 4.915999,-1.353219 8.173561,1.286954 7.373264,-0.93758 5.229716,1.201474 5.42207,-1.675675 5.040577,1.763835 4.098651,-1.564034"
       id="path3927-7-3-4-8-1-0-8-3-5-3-1-2-9-2-7-5"
       sodipodi:nodetypes="cccccccccccccccccc" />
    <path
       style="fill:none;stroke:#ffffff;stroke-width:0.265;stroke-linecap:butt;stroke-linejoin:miter;stroke-dasharray:none;stroke-opacity:1"
       d="m -0.63577429,78.560358 7.37415359,-0.770746 10.8604457,0.608559 7.670057,-0.65798 9.870557,0.963257 10.419777,-1.265725 9.268895,1.482312 11.657094,-1.254959 4.84323,0.747616 7.179473,-1.363945 6.213496,1.464797 6.223803,-1.283744 9.481263,0.975225"
       id="path3927-7-3-4-8-1-0-8-3-5-3-1-2-9-2-7-5-2"
       sodipodi:nodetypes="ccccccccccccc" />
    <path
       style="fill:none;stroke:#ffffff;stroke-width:0.265;stroke-linecap:butt;stroke-linejoin:miter;stroke-dasharray:none;stroke-opacity:1"
       d="M -0.82665507,80.518042 13.75463,79.747296 l 8.872272,0.194356 8.498463,-0.740821 9.870557,0.880417 8.431602,-0.437319 10.925708,0.571065 9.337556,-0.923596 6.914245,0.747616 6.68243,-0.949742 5.882133,0.63639 8.4605,-0.703859 4.510824,1.058065"
       id="path3927-7-3-4-8-1-0-8-3-5-3-1-2-9-2-7-5-2-3"
       sodipodi:nodetypes="ccccccccccccc" />
    <path
       style="fill:none;stroke:#ffffff;stroke-width:0.265;stroke-linecap:butt;stroke-linejoin:miter;stroke-dasharray:none;stroke-opacity:1"
       d="m -0.87981487,82.275069 16.23809687,-1.102108 13.842709,0.525718 7.504376,-0.989343 9.953397,1.625982 11.496704,-0.851521 8.771851,0.653905 7.432223,-1.337799 8.074013,1.161819 9.581851,-1.446785 8.947234,1.216274"
       id="path3927-7-3-4-8-1-0-8-3-5-3-1-2-9-2-7-5-2-3-0"
       sodipodi:nodetypes="ccccccccccc" />
    <circle
       style="fill:#ffffff;fill-opacity:1;stroke:#ffffff;stroke-width:0.212333;stroke-dasharray:none;stroke-opacity:1"
       id="path484"
       cx="50"
       cy="62.5"
       r="3.25" />
    <text
       xml:space="preserve"
       transform="scale(0.26458333)"
       id="text3810"
       style="font-style:normal;font-weight:normal;font-size:40px;line-height:1.25;font-family:sans-serif;letter-spacing:0px;word-spacing:0px;white-space:pre;shape-inside:url(#rect3812);display:inline;fill:#000000;fill-opacity:1;stroke:none"><tspan
         x="141.73242"
         y="83.737353"
         id="tspan686"><tspan
           dx="0 15.761719 29.277344 27.8125 16.835938 29.921875 31.015625 14.0625 38.90625 27.34375 27.929688 30.058594 16.835938 29.921875"
           id="tspan684">tURING mACHINE</tspan></tspan></text>
    <path
       style="fill:none;stroke:#ffffff;stroke-width:0.265;stroke-linecap:butt;stroke-linejoin:miter;stroke-opacity:1;stroke-dasharray:none"
       d="M 25,112.5 V 87.499999"
       id="path3209"
       inkscape:tile-cx="25"
       inkscape:tile-cy="99.999999"
       inkscape:tile-w="0.26499998"
       inkscape:tile-h="25.000001"
       inkscape:tile-x0="24.8675"
       inkscape:tile-y0="87.499998" />
    <use
       x="0"
       y="0"
       inkscape:tiled-clone-of="#path3209"
       xlink:href="#path3209"
       id="use3574" />
    <use
       x="0"
       y="0"
       inkscape:tiled-clone-of="#path3209"
       xlink:href="#path3209"
       transform="rotate(30,24.999999,100)"
       id="use3576" />
    <use
       x="0"
       y="0"
       inkscape:tiled-clone-of="#path3209"
       xlink:href="#path3209"
       transform="rotate(60,25,100)"
       id="use3578" />
    <use
       x="0"
       y="0"
       inkscape:tiled-clone-of="#path3209"
       xlink:href="#path3209"
       transform="rotate(120,25,100)"
       id="use3582" />
    <path
       style="fill:none;stroke:#ffffff;stroke-width:0.265;stroke-linecap:butt;stroke-linejoin:miter;stroke-dasharray:none;stroke-opacity:1"
       d="m 18.75,89.174682 12.5,21.650638"
       id="use3584"
       inkscape:tile-x0="24.8675"
       inkscape:tile-y0="87.499998" />
    <use
       x="0"
       y="0"
       inkscape:tiled-clone-of="#path3209"
       xlink:href="#path3209"
       transform="rotate(-90,25,100)"
       id="use3586" />
    <g
       aria-label="2"
       transform="matrix(0.26458333,0,0,0.26458333,71.973869,59.943772)"
       id="text3870-7-45"
       style="font-size:16px;line-height:1.25;font-family:Myfont;-inkscape-font-specification:'Myfont, Normal';letter-spacing:0px;word-spacing:0px;white-space:pre;shape-inside:url(#rect3872-8-53);display:inline;fill:#ffffff">
      <path
         d="m -230.6207,144.96442 q 0.08,-0.016 0.176,-0.032 0.096,-0.016 0.144,-0.016 0.048,-0.016 0.08,-0.016 0.08,0 0.128,0.08 0.032,0.08 0.224,0.048 0.176,-0.016 0.24,0.096 0.048,0.064 0.336,0.224 0.288,0.144 0.288,0.272 0,0.176 0.112,0.256 0.096,0.08 0.096,0.48 v 0.32 q -0.032,0.672 -0.112,0.752 -0.096,0.064 -0.32,0.544 -0.272,0.576 -0.704,1.296 -0.416,0.72 -0.528,0.8 -0.096,0.08 -0.448,0.576 -0.352,0.48 -0.512,0.784 -0.144,0.24 -0.448,0.656 -1.12,1.472 -1.12,1.824 0,0.16 0.4,-0.032 l 0.464,-0.192 q 0.48,-0.176 0.864,-0.336 0.384,-0.16 0.448,-0.224 0.096,-0.096 0.224,-0.064 h 0.08 q 0.144,0 0.592,-0.08 0.464,-0.096 0.608,-0.096 h 0.08 q 0.256,0.048 0.416,-0.112 0.16,-0.144 0.336,-0.048 0.176,0.096 0.32,0.064 h 0.032 q 0.144,0 0.272,0.16 0.128,0.16 0.128,0.336 0,0.144 -0.112,0.24 -0.08,0.08 -0.688,0.08 -0.208,0 -0.48,0.016 h -0.272 q -0.24,0.016 -1.216,0.304 -0.96,0.272 -1.328,0.432 -0.416,0.192 -0.688,0.272 -0.672,0.24 -1.152,0.736 -0.128,0.128 -0.224,0.16 -0.08,0.016 -0.224,0.016 -0.144,0 -0.288,0.048 -0.176,0.064 -0.24,0.048 -0.048,-0.016 -0.128,-0.112 -0.128,-0.176 -0.128,-0.384 0,-0.48 0.528,-1.008 0.352,-0.352 0.576,-0.624 0.24,-0.272 0.528,-0.672 0.288,-0.416 0.448,-0.624 0.576,-0.736 2.112,-3.104 0.96,-1.488 0.976,-2.384 0,-0.272 -0.048,-0.368 -0.032,-0.096 -0.176,-0.224 -0.224,-0.208 -0.64,-0.208 -0.208,0 -0.608,0.08 -0.544,0.096 -0.688,0.096 -0.208,0 -0.24,0.048 -0.032,0.08 -0.624,0.368 -0.432,0.208 -0.736,0.464 -0.288,0.256 -0.848,0.88 -0.24,0.272 -0.416,0.272 -0.176,0 -0.384,-0.256 -0.192,-0.24 -0.192,-0.368 0,-0.128 0.192,-0.384 0.208,-0.256 0.384,-0.352 0.176,-0.08 0.56,-0.336 0.4,-0.256 0.72,-0.448 0.32,-0.192 0.416,-0.192 0.112,0 0.304,-0.224 0.176,-0.208 0.432,-0.192 h 0.064 q 0.528,0 1.056,-0.24 0.256,-0.112 0.576,-0.176 z"
         id="path5077" />
    </g>
    <g
       aria-label="4"
       transform="matrix(0.26458333,0,0,0.26458333,78.896466,48.138217)"
       id="text3870-7-45-1"
       style="font-size:16px;line-height:1.25;font-family:Myfont;-inkscape-font-specification:'Myfont, Normal';letter-spacing:0px;word-spacing:0px;white-space:pre;shape-inside:url(#rect3872-8-53-2);display:inline;fill:#ffffff">
      <path
         d="m -230.5247,144.80442 q 0,-0.368 0.224,-0.368 0.096,0 0.192,0.096 0.08,0.08 0.08,0.224 0,0.224 -0.304,1.248 -0.256,0.848 -0.256,0.992 0,0.112 -0.064,0.112 -0.064,0 -0.096,0.176 -0.128,0.56 -0.128,0.704 0,0.224 0.288,0.288 0.144,0.032 0.192,0.096 0.064,0.048 0.096,0.176 0.032,0.144 0,0.336 -0.016,0.096 -0.08,0.112 -0.048,0 -0.24,-0.032 -0.032,0 -0.064,0 -0.032,-0.016 -0.048,-0.016 -0.448,0 -0.448,0.448 0,0.16 -0.096,0.576 -0.112,0.464 -0.208,1.12 -0.048,0.432 -0.08,0.592 -0.032,0.16 -0.096,0.352 -0.048,0.176 -0.112,0.544 -0.128,0.688 -0.128,1.024 0,0.272 0.064,0.336 0.048,0.048 0.048,0.128 0,0.288 -0.304,0.592 -0.208,0.208 -0.304,0.208 -0.032,0 -0.08,-0.016 -0.032,-0.016 -0.048,-0.016 -0.016,-0.016 -0.048,-0.016 -0.24,-0.096 -0.256,-0.144 -0.016,-0.032 -0.016,-0.144 0,-0.352 0.144,-1.152 0.144,-0.8 0.32,-1.408 0.032,-0.096 0.192,-0.944 0.16,-0.864 0.24,-1.04 0.16,-0.304 0.016,-0.336 -0.048,0 -0.112,0.048 -0.224,0.192 -0.832,0.256 -0.608,0.064 -1.216,0.4 -0.368,0.208 -0.56,0.208 -0.144,0 -0.368,-0.128 -0.304,-0.176 -0.304,-0.4 0,-0.096 0.096,-0.224 0.128,-0.192 0.128,-0.288 0,-0.112 0.048,-0.16 0.144,-0.176 0.24,-0.976 0.032,-0.32 0.144,-0.56 0.08,-0.16 0.08,-0.32 0,-0.144 0.208,-0.56 0.144,-0.288 0.144,-0.448 0,-0.08 -0.016,-0.128 -0.08,-0.16 0.048,-0.448 0.128,-0.304 0.352,-0.336 h 0.096 q 0.304,0 0.608,0.304 0.128,0.16 0.128,0.24 0,0.064 -0.048,0.24 -0.048,0.24 -0.272,0.512 -0.56,0.56 -0.768,2.048 -0.032,0.256 -0.032,0.288 0,0.16 0.112,0.16 0.08,0 0.192,-0.048 0.192,-0.064 0.608,-0.064 0.16,0 0.256,0 0.096,-0.016 0.192,-0.032 0.096,-0.032 0.128,-0.048 0.048,-0.016 0.16,-0.064 0.112,-0.048 0.192,-0.08 0.624,-0.224 0.704,-0.672 0.016,-0.176 0.128,-0.608 0.112,-0.432 0.128,-0.544 0.032,-0.176 0.096,-0.176 0.032,0 0.096,-0.384 0.016,-0.24 0.144,-0.576 0.144,-0.336 0.16,-0.528 0.032,-0.272 0.176,-0.448 0.144,-0.176 0.144,-0.304 z"
         id="path5071" />
    </g>
    <g
       aria-label="5"
       transform="matrix(0.26458333,0,0,0.26458333,86.625867,45.859035)"
       id="text3870-7-45-5"
       style="font-size:16px;line-height:1.25;font-family:Myfont;-inkscape-font-specification:'Myfont, Normal';letter-spacing:0px;word-spacing:0px;white-space:pre;shape-inside:url(#rect3872-8-53-1);display:inline;fill:#ffffff">
      <path
         d="m -230.6847,144.66042 q 0.224,-0.096 0.432,-0.096 0.272,0 0.448,0.128 0.192,0.128 0.192,0.336 0,0.208 -0.128,0.304 -0.128,0.08 -0.464,0.096 -0.384,0.032 -1.232,0.24 -0.816,0.208 -1.744,0.272 -0.048,0 -0.144,0.016 -0.72,0.048 -0.768,0.144 -0.016,0.032 -0.016,0.064 0,0.016 0.096,0.368 0.064,0.192 0.064,0.624 0,0.768 -0.144,1.28 -0.048,0.192 -0.048,0.336 0,0.32 0.192,0.32 0.128,0 0.256,-0.112 0.112,-0.096 0.736,-0.096 0.224,0 0.512,0.032 0.336,0.048 0.864,0.32 0.544,0.256 0.784,0.496 0.288,0.288 0.48,0.544 0.192,0.256 0.224,0.368 0.032,0.096 0.032,0.496 0,1.28 -0.944,2.544 -0.304,0.432 -0.304,0.464 0,0.08 -0.448,0.448 -0.432,0.352 -0.672,0.464 -0.784,0.352 -1.424,0.352 -0.032,0 -0.096,0 -0.048,-0.016 -0.064,-0.016 -0.464,-0.064 -0.816,-0.304 -0.352,-0.256 -0.464,-0.608 -0.064,-0.256 -0.064,-0.272 0,-0.112 0.208,-0.176 0.208,-0.08 0.304,-0.08 0.128,0 0.272,0.24 0.224,0.448 0.896,0.496 h 0.144 q 0.72,0 1.104,-0.352 0.576,-0.464 0.768,-0.736 0.208,-0.272 0.688,-1.296 0.16,-0.288 0.16,-0.944 0,-0.112 -0.016,-0.128 -0.112,-0.352 -0.272,-0.688 -0.064,-0.112 -0.448,-0.352 -0.384,-0.24 -0.752,-0.384 -0.48,-0.176 -0.8,-0.176 -0.304,0 -0.544,0.144 -0.16,0.096 -0.752,0.56 -0.448,0.368 -0.56,0.368 -0.08,0 -0.144,-0.048 -0.16,-0.08 -0.208,-0.192 -0.048,-0.112 -0.048,-0.416 0,-0.224 0.144,-0.464 0.144,-0.24 0.176,-0.352 0.336,-1.248 0.336,-1.664 0,-0.56 -0.224,-1.04 -0.24,-0.512 -0.24,-0.72 0,-0.272 0.24,-0.48 0.24,-0.224 0.496,-0.224 0.096,0 0.192,0.048 0.16,0.112 1.056,0.112 0.592,0 0.864,-0.064 0.992,-0.224 1.632,-0.544 z"
         id="path5068" />
    </g>
    <g
       aria-label="8"
       transform="matrix(0.26458333,0,0,0.26458333,99.111817,53.291151)"
       id="text3870-7-45-2"
       style="font-size:16px;line-height:1.25;font-family:Myfont;-inkscape-font-specification:'Myfont, Normal';letter-spacing:0px;word-spacing:0px;white-space:pre;shape-inside:url(#rect3872-8-53-3);display:inline;fill:#ffffff">
      <path
         d="m -231.8367,150.42042 q -0.224,-0.384 -0.352,-0.384 -0.16,0 -0.464,0.496 -0.16,0.288 -0.288,0.416 -0.512,0.576 -1.04,1.456 -0.512,0.864 -0.576,1.248 -0.016,0.096 -0.016,0.208 0,0.128 0.176,0.256 0.16,0.112 0.416,0.112 0.64,0 1.424,-0.592 0.784,-0.608 0.992,-1.328 0.08,-0.288 0.08,-0.592 0,-0.672 -0.352,-1.296 z m 0.56,-4.704 q -0.288,-0.192 -0.464,-0.192 -0.144,0 -0.672,0.16 -0.672,0.208 -1.04,0.56 -0.352,0.336 -0.528,0.912 -0.048,0.144 -0.048,0.288 0,0.576 0.912,1.024 0.448,0.208 0.688,0.384 0.128,0.096 0.224,0.096 0.16,0 0.448,-0.4 0.784,-1.12 0.848,-1.856 0.016,-0.112 0.016,-0.288 0,-0.448 -0.384,-0.688 z m -0.208,-0.992 q 0.16,-0.08 0.208,-0.08 0.032,0 0.352,0.176 0.256,0.144 0.352,0.32 0.096,0.176 0.24,0.736 0.08,0.32 0.08,0.56 0,0.752 -0.896,2.112 -0.448,0.704 -0.448,0.768 0,0.16 0.24,0.496 0.688,0.96 0.688,1.76 0,0.224 -0.112,0.672 -0.112,0.448 -0.208,0.608 -0.4,0.688 -0.688,0.944 -0.288,0.256 -1.024,0.624 -0.48,0.24 -0.704,0.304 -0.224,0.048 -0.656,0.08 h -0.288 q -0.4,0 -0.528,-0.064 -0.176,-0.096 -0.32,-0.352 -0.128,-0.272 -0.128,-0.544 0,-0.256 0.24,-0.752 0.24,-0.512 0.496,-0.784 0.144,-0.16 0.336,-0.448 0.016,-0.016 0.8,-1.056 0.784,-1.056 0.784,-1.152 0,-0.176 -1.088,-0.736 -1.12,-0.592 -1.12,-1.52 0,-0.16 0.016,-0.24 0.064,-0.304 0.288,-0.704 0.224,-0.416 0.448,-0.608 0.352,-0.288 1.12,-0.672 0.784,-0.384 1.04,-0.384 0.288,0 0.48,-0.064 z"
         id="path5062" />
    </g>
    <g
       aria-label="12"
       transform="matrix(0.26458333,0,0,0.26458333,100.49915,60.326887)"
       id="text3870-7-45-94"
       style="font-size:16px;line-height:1.25;font-family:Myfont;-inkscape-font-specification:'Myfont, Normal';letter-spacing:0px;word-spacing:0px;white-space:pre;shape-inside:url(#rect3872-8-53-27);display:inline;fill:#ffffff">
      <path
         d="m -232.9247,145.22042 q 0.144,-0.112 0.208,-0.096 0.064,0 0.176,0.112 0.16,0.128 0.192,0.128 0.128,0 0.128,0.496 0,0.624 -0.16,1.488 -0.096,0.624 -0.144,2.176 -0.08,2.288 -0.32,3.488 -0.112,0.56 -0.112,0.8 0,0.176 0.032,0.224 0.048,0.032 0.208,0.032 0.944,-0.032 1.104,-0.16 0.08,-0.048 0.16,0.016 0.08,0.048 0.144,0.048 0.08,-0.016 0.192,-0.032 0.112,-0.032 0.144,-0.032 0.032,0 0.096,-0.064 h 0.016 q 0.08,0 0.224,0.16 0.16,0.144 0.16,0.24 0,0.176 -0.256,0.24 -0.24,0.064 -1.456,0.192 -0.672,0.064 -1.44,0.24 -0.752,0.16 -0.896,0.256 -0.176,0.128 -0.384,0.128 -0.224,0 -0.32,-0.144 -0.096,-0.144 -0.096,-0.32 0,-0.24 0.144,-0.384 0.128,-0.128 0.288,-0.128 0.128,0 0.24,0.016 0.112,0.016 0.288,0.016 0.384,0 0.496,-0.224 0.08,-0.16 0.24,-0.816 0.16,-0.672 0.192,-1.008 0,-0.096 0.096,-0.8 0.08,-0.592 0.128,-1.952 0.064,-1.504 0.112,-1.536 0.064,-0.032 0.128,-0.8 0.032,-0.256 0.032,-0.592 0,-0.256 -0.048,-0.256 -0.048,0 -0.144,0.16 -0.064,0.096 -0.496,0.608 -0.416,0.512 -0.48,0.64 -0.144,0.256 -0.336,0.256 -0.192,0 -0.32,-0.224 -0.128,-0.176 -0.032,-0.352 0.096,-0.176 0.208,-0.208 0.128,-0.032 0.528,-0.464 0.416,-0.432 0.416,-0.544 0,-0.08 0.096,-0.112 0.08,-0.048 0.32,-0.448 0.24,-0.416 0.304,-0.464 z"
         id="path5057" />
      <path
         d="m -223.98069,144.96442 q 0.08,-0.016 0.176,-0.032 0.096,-0.016 0.144,-0.016 0.048,-0.016 0.08,-0.016 0.08,0 0.128,0.08 0.032,0.08 0.224,0.048 0.176,-0.016 0.24,0.096 0.048,0.064 0.336,0.224 0.288,0.144 0.288,0.272 0,0.176 0.112,0.256 0.096,0.08 0.096,0.48 v 0.32 q -0.032,0.672 -0.112,0.752 -0.096,0.064 -0.32,0.544 -0.272,0.576 -0.704,1.296 -0.416,0.72 -0.528,0.8 -0.096,0.08 -0.448,0.576 -0.352,0.48 -0.512,0.784 -0.144,0.24 -0.448,0.656 -1.12,1.472 -1.12,1.824 0,0.16 0.4,-0.032 l 0.464,-0.192 q 0.48,-0.176 0.864,-0.336 0.384,-0.16 0.448,-0.224 0.096,-0.096 0.224,-0.064 h 0.08 q 0.144,0 0.592,-0.08 0.464,-0.096 0.608,-0.096 h 0.08 q 0.256,0.048 0.416,-0.112 0.16,-0.144 0.336,-0.048 0.176,0.096 0.32,0.064 h 0.032 q 0.144,0 0.272,0.16 0.128,0.16 0.128,0.336 0,0.144 -0.112,0.24 -0.08,0.08 -0.688,0.08 -0.208,0 -0.48,0.016 h -0.272 q -0.24,0.016 -1.216,0.304 -0.96,0.272 -1.328,0.432 -0.416,0.192 -0.688,0.272 -0.672,0.24 -1.152,0.736 -0.128,0.128 -0.224,0.16 -0.08,0.016 -0.224,0.016 -0.144,0 -0.288,0.048 -0.176,0.064 -0.24,0.048 -0.048,-0.016 -0.128,-0.112 -0.128,-0.176 -0.128,-0.384 0,-0.48 0.528,-1.008 0.352,-0.352 0.576,-0.624 0.24,-0.272 0.528,-0.672 0.288,-0.416 0.448,-0.624 0.576,-0.736 2.112,-3.104 0.96,-1.488 0.976,-2.384 0,-0.272 -0.048,-0.368 -0.032,-0.096 -0.176,-0.224 -0.224,-0.208 -0.64,-0.208 -0.208,0 -0.608,0.08 -0.544,0.096 -0.688,0.096 -0.208,0 -0.24,0.048 -0.032,0.08 -0.624,0.368 -0.432,0.208 -0.736,0.464 -0.288,0.256 -0.848,0.88 -0.24,0.272 -0.416,0.272 -0.176,0 -0.384,-0.256 -0.192,-0.24 -0.192,-0.368 0,-0.128 0.192,-0.384 0.208,-0.256 0.384,-0.352 0.176,-0.08 0.56,-0.336 0.4,-0.256 0.72,-0.448 0.32,-0.192 0.416,-0.192 0.112,0 0.304,-0.224 0.176,-0.208 0.432,-0.192 h 0.064 q 0.528,0 1.056,-0.24 0.256,-0.112 0.576,-0.176 z"
         id="path5059" />
    </g>
    <text
       xml:space="preserve"
       transform="matrix(0.26458333,0,0,0.26458333,-25.56786,17.820378)"
       id="text4171"
       style="font-size:42.6667px;line-height:1.25;font-family:Myfont;-inkscape-font-specification:Myfont;letter-spacing:0px;word-spacing:0px;white-space:pre;shape-inside:url(#rect4173);display:inline;fill:#ffffff"><tspan
         x="113.38672"
         y="-17.226663"
         id="tspan688">The Halting Problem</tspan></text>
    <text
       xml:space="preserve"
       transform="matrix(0.26458333,0,0,0.26458333,-33.0787,-13.746299)"
       id="text4179"
       style="font-style:normal;font-variant:normal;font-weight:normal;font-stretch:normal;font-size:26.6667px;line-height:1.25;font-family:Myfont;-inkscape-font-specification:'Myfont, Normal';font-variant-ligatures:normal;font-variant-caps:normal;font-variant-numeric:normal;font-variant-east-asian:normal;letter-spacing:0px;word-spacing:0px;white-space:pre;shape-inside:url(#rect4181);display:inline;fill:#ffffff"><tspan
         x="377.95312"
         y="421.51631"
         id="tspan690">Write</tspan></text>
    <text
       xml:space="preserve"
       transform="matrix(0.26458333,0,0,0.26458333,-84.696204,5.414092)"
       id="text4179-9"
       style="font-style:normal;font-variant:normal;font-weight:normal;font-stretch:normal;font-size:26.6667px;line-height:1.25;font-family:Myfont;-inkscape-font-specification:'Myfont, Normal';font-variant-ligatures:normal;font-variant-caps:normal;font-variant-numeric:normal;font-variant-east-asian:normal;letter-spacing:0px;word-spacing:0px;white-space:pre;shape-inside:url(#rect4181-4);display:inline;fill:#ffffff"><tspan
         x="377.95312"
         y="421.51631"
         id="tspan692">Length</tspan></text>
    <text
       xml:space="preserve"
       transform="matrix(0.26458333,0,0,0.26458333,-32.29202,31.264284)"
       id="text4179-9-3"
       style="font-style:normal;font-variant:normal;font-weight:normal;font-stretch:normal;font-size:26.6667px;line-height:1.25;font-family:Myfont;-inkscape-font-specification:'Myfont, Normal';font-variant-ligatures:normal;font-variant-caps:normal;font-variant-numeric:normal;font-variant-east-asian:normal;letter-spacing:0px;word-spacing:0px;white-space:pre;shape-inside:url(#rect4181-4-9);display:inline;fill:#ffffff"><tspan
         x="377.95312"
         y="421.51631"
         id="tspan694">Scale</tspan></text>
    <text
       xml:space="preserve"
       transform="matrix(0.26458333,0,0,0.26458333,-43.825405,53.834839)"
       id="text4179-9-1"
       style="font-style:normal;font-variant:normal;font-weight:normal;font-stretch:normal;font-size:26.6667px;line-height:1.25;font-family:Myfont;-inkscape-font-specification:'Myfont, Normal';font-variant-ligatures:normal;font-variant-caps:normal;font-variant-numeric:normal;font-variant-east-asian:normal;letter-spacing:0px;word-spacing:0px;white-space:pre;shape-inside:url(#rect4181-4-7);display:inline;fill:#ffffff"><tspan
         x="377.95312"
         y="421.51631"
         id="tspan696">Pulse</tspan></text>
    <text
       xml:space="preserve"
       transform="matrix(0.26458333,0,0,0.26458333,-94.855517,78.792506)"
       id="text4179-9-0"
       style="font-style:normal;font-variant:normal;font-weight:normal;font-stretch:normal;font-size:26.6667px;line-height:1.25;font-family:Myfont;-inkscape-font-specification:'Myfont, Normal';font-variant-ligatures:normal;font-variant-caps:normal;font-variant-numeric:normal;font-variant-east-asian:normal;letter-spacing:0px;word-spacing:0px;white-space:pre;shape-inside:url(#rect4181-4-2);display:inline;fill:#ffffff"><tspan
         x="377.95312"
         y="421.51631"
         id="tspan698">Clock</tspan></text>
    <text
       xml:space="preserve"
       transform="matrix(0.26458333,0,0,0.26458333,-66.310095,78.824256)"
       id="text4179-9-7"
       style="font-style:normal;font-variant:normal;font-weight:normal;font-stretch:normal;font-size:26.6667px;line-height:1.25;font-family:Myfont;-inkscape-font-specification:'Myfont, Normal';font-variant-ligatures:normal;font-variant-caps:normal;font-variant-numeric:normal;font-variant-east-asian:normal;letter-spacing:0px;word-spacing:0px;white-space:pre;shape-inside:url(#rect4181-4-92);display:inline;fill:#ffffff"><tspan
         x="377.95312"
         y="421.51631"
         id="tspan700">CV</tspan></text>
    <text
       xml:space="preserve"
       transform="matrix(0.26458333,0,0,0.26458333,-44.802597,78.77134)"
       id="text4179-9-8"
       style="font-style:normal;font-variant:normal;font-weight:normal;font-stretch:normal;font-size:26.6667px;line-height:1.25;font-family:Myfont;-inkscape-font-specification:'Myfont, Normal';font-variant-ligatures:normal;font-variant-caps:normal;font-variant-numeric:normal;font-variant-east-asian:normal;letter-spacing:0px;word-spacing:0px;white-space:pre;shape-inside:url(#rect4181-4-94);display:inline;fill:#ffffff"><tspan
         x="377.95312"
         y="421.51631"
         id="tspan702">Noise</tspan></text>
    <text
       xml:space="preserve"
       transform="matrix(0.26458333,0,0,0.26458333,-17.350789,78.824256)"
       id="text4179-9-2"
       style="font-style:normal;font-variant:normal;font-weight:normal;font-stretch:normal;font-size:26.6667px;line-height:1.25;font-family:Myfont;-inkscape-font-specification:'Myfont, Normal';font-variant-ligatures:normal;font-variant-caps:normal;font-variant-numeric:normal;font-variant-east-asian:normal;letter-spacing:0px;word-spacing:0px;white-space:pre;shape-inside:url(#rect4181-4-1);display:inline;fill:#ffffff"><tspan
         x="377.95312"
         y="421.51631"
         id="tspan704">Out</tspan></text>
  </g>
  <g
     inkscape:groupmode="layer"
     id="layer2"
     inkscape:label="Knobs"
     style="display:inline">
    <circle
       style="fill:#ffffff;stroke:#ffffff;stroke-width:1.02778"
       id="path4219"
       cx="50"
       cy="62.5"
       r="17.986111" />
    <circle
       style="fill:#ffffff;stroke:#ffffff;stroke-width:0.923077"
       id="path4221"
       cx="75"
       cy="125"
       r="11.538462" />
    <circle
       style="fill:#ffffff;stroke:#ffffff;stroke-width:0.923077"
       id="path4223"
       cx="25"
       cy="100"
       r="11.538462" />
  </g>
</svg>
