G04 #@! TF.GenerationSoftware,KiCad,Pcbnew,(6.0.5)*
G04 #@! TF.CreationDate,2022-06-09T21:52:40-05:00*
G04 #@! TF.ProjectId,TuringJack,54757269-6e67-44a6-9163-6b2e6b696361,rev?*
G04 #@! TF.SameCoordinates,Original*
G04 #@! TF.FileFunction,Copper,L1,Top*
G04 #@! TF.FilePolarity,Positive*
%FSLAX46Y46*%
G04 Gerber Fmt 4.6, Leading zero omitted, Abs format (unit mm)*
G04 Created by KiCad (PCBNEW (6.0.5)) date 2022-06-09 21:52:40*
%MOMM*%
%LPD*%
G01*
G04 APERTURE LIST*
G04 #@! TA.AperFunction,ComponentPad*
%ADD10C,4.500001*%
G04 #@! TD*
G04 #@! TA.AperFunction,ComponentPad*
%ADD11R,4.500001X4.500001*%
G04 #@! TD*
G04 #@! TA.AperFunction,ComponentPad*
%ADD12C,4.500000*%
G04 #@! TD*
G04 #@! TA.AperFunction,ComponentPad*
%ADD13R,1.700000X1.700000*%
G04 #@! TD*
G04 #@! TA.AperFunction,ComponentPad*
%ADD14O,1.700000X1.700000*%
G04 #@! TD*
G04 #@! TA.AperFunction,Conductor*
%ADD15C,0.250000*%
G04 #@! TD*
G04 APERTURE END LIST*
D10*
X210500000Y-126100000D03*
X216400000Y-130000000D03*
D11*
X214740000Y-137240000D03*
D12*
X203600000Y-133000000D03*
X207500000Y-138900000D03*
D13*
X172475000Y-117860000D03*
D14*
X172475000Y-115320000D03*
X172475000Y-112780000D03*
X172475000Y-110240000D03*
X172475000Y-107700000D03*
X172475000Y-105160000D03*
X172475000Y-102620000D03*
X172475000Y-100080000D03*
X172475000Y-97540000D03*
X172475000Y-95000000D03*
D10*
X210500000Y-76100000D03*
X216400000Y-80000000D03*
D11*
X214740000Y-87240000D03*
D12*
X203600000Y-83000000D03*
X207500000Y-88900000D03*
D10*
X210500000Y-51100000D03*
X216400000Y-55000000D03*
D11*
X214740000Y-62240000D03*
D12*
X203600000Y-58000000D03*
X207500000Y-63900000D03*
D10*
X210500000Y-101100000D03*
X216400000Y-105000000D03*
D11*
X214740000Y-112240000D03*
D12*
X203600000Y-108000000D03*
X207500000Y-113900000D03*
D10*
X185500000Y-76100000D03*
X191400000Y-80000000D03*
D11*
X189740000Y-87240000D03*
D12*
X178600000Y-83000000D03*
X182500000Y-88900000D03*
D15*
X185920000Y-115320000D02*
X203600000Y-133000000D01*
X172475000Y-115320000D02*
X185920000Y-115320000D01*
X172475000Y-110240000D02*
X201360000Y-110240000D01*
X201360000Y-110240000D02*
X203600000Y-108000000D01*
X172475000Y-105160000D02*
X181440000Y-105160000D01*
X181440000Y-105160000D02*
X203600000Y-83000000D01*
X172475000Y-102620000D02*
X178600000Y-96495000D01*
X178600000Y-96495000D02*
X178600000Y-83000000D01*
X175000000Y-74000000D02*
X191000000Y-58000000D01*
X175000000Y-97555000D02*
X175000000Y-74000000D01*
X172475000Y-100080000D02*
X175000000Y-97555000D01*
X191000000Y-58000000D02*
X203600000Y-58000000D01*
G04 #@! TA.AperFunction,Conductor*
G36*
X219433621Y-48028502D02*
G01*
X219480114Y-48082158D01*
X219491500Y-48134500D01*
X219491500Y-141865500D01*
X219471498Y-141933621D01*
X219417842Y-141980114D01*
X219365500Y-141991500D01*
X170634500Y-141991500D01*
X170566379Y-141971498D01*
X170519886Y-141917842D01*
X170508500Y-141865500D01*
X170508500Y-138871061D01*
X204736610Y-138871061D01*
X204753147Y-139203255D01*
X204753788Y-139206986D01*
X204753789Y-139206994D01*
X204768586Y-139293103D01*
X204809474Y-139531057D01*
X204810562Y-139534696D01*
X204810563Y-139534699D01*
X204903580Y-139845724D01*
X204904774Y-139849718D01*
X204906287Y-139853189D01*
X204906289Y-139853195D01*
X204997458Y-140062370D01*
X205037666Y-140154622D01*
X205206226Y-140441352D01*
X205208527Y-140444367D01*
X205405712Y-140702742D01*
X205405717Y-140702748D01*
X205408012Y-140705755D01*
X205640102Y-140944002D01*
X205899132Y-141152640D01*
X206181352Y-141328648D01*
X206482672Y-141469476D01*
X206798729Y-141573085D01*
X207124944Y-141637973D01*
X207128716Y-141638260D01*
X207128724Y-141638261D01*
X207452815Y-141662914D01*
X207452820Y-141662914D01*
X207456592Y-141663201D01*
X207788869Y-141648403D01*
X207793401Y-141647649D01*
X208113220Y-141594417D01*
X208113225Y-141594416D01*
X208116961Y-141593794D01*
X208436116Y-141500164D01*
X208439583Y-141498674D01*
X208439587Y-141498673D01*
X208738228Y-141370366D01*
X208738230Y-141370365D01*
X208741712Y-141368869D01*
X209029321Y-141201813D01*
X209032343Y-141199532D01*
X209032347Y-141199529D01*
X209291753Y-141003697D01*
X209291754Y-141003696D01*
X209294777Y-141001414D01*
X209534235Y-140770575D01*
X209744227Y-140512641D01*
X209921710Y-140231347D01*
X210064114Y-139930767D01*
X210169377Y-139615257D01*
X210185846Y-139534669D01*
X211982001Y-139534669D01*
X211982371Y-139541490D01*
X211987895Y-139592352D01*
X211991521Y-139607604D01*
X212036676Y-139728054D01*
X212045214Y-139743649D01*
X212121715Y-139845724D01*
X212134276Y-139858285D01*
X212236351Y-139934786D01*
X212251946Y-139943324D01*
X212372394Y-139988478D01*
X212387649Y-139992105D01*
X212438514Y-139997631D01*
X212445328Y-139998000D01*
X214467885Y-139998000D01*
X214483124Y-139993525D01*
X214484329Y-139992135D01*
X214486000Y-139984452D01*
X214486000Y-139979884D01*
X214994000Y-139979884D01*
X214998475Y-139995123D01*
X214999865Y-139996328D01*
X215007548Y-139997999D01*
X217034669Y-139997999D01*
X217041490Y-139997629D01*
X217092352Y-139992105D01*
X217107604Y-139988479D01*
X217228054Y-139943324D01*
X217243649Y-139934786D01*
X217345724Y-139858285D01*
X217358285Y-139845724D01*
X217434786Y-139743649D01*
X217443324Y-139728054D01*
X217488478Y-139607606D01*
X217492105Y-139592351D01*
X217497631Y-139541486D01*
X217498000Y-139534672D01*
X217498000Y-137512115D01*
X217493525Y-137496876D01*
X217492135Y-137495671D01*
X217484452Y-137494000D01*
X215012115Y-137494000D01*
X214996876Y-137498475D01*
X214995671Y-137499865D01*
X214994000Y-137507548D01*
X214994000Y-139979884D01*
X214486000Y-139979884D01*
X214486000Y-137512115D01*
X214481525Y-137496876D01*
X214480135Y-137495671D01*
X214472452Y-137494000D01*
X212000116Y-137494000D01*
X211984877Y-137498475D01*
X211983672Y-137499865D01*
X211982001Y-137507548D01*
X211982001Y-139534669D01*
X210185846Y-139534669D01*
X210235972Y-139289386D01*
X210262936Y-138957875D01*
X210263542Y-138900000D01*
X210262026Y-138874853D01*
X210243755Y-138571772D01*
X210243754Y-138571765D01*
X210243527Y-138567997D01*
X210183770Y-138240803D01*
X210085139Y-137923157D01*
X209949061Y-137619662D01*
X209864108Y-137478555D01*
X209779466Y-137337966D01*
X209779462Y-137337960D01*
X209777507Y-137334713D01*
X209775180Y-137331729D01*
X209775175Y-137331722D01*
X209575294Y-137075425D01*
X209575288Y-137075418D01*
X209572963Y-137072437D01*
X209468957Y-136967885D01*
X211982000Y-136967885D01*
X211986475Y-136983124D01*
X211987865Y-136984329D01*
X211995548Y-136986000D01*
X214467885Y-136986000D01*
X214483124Y-136981525D01*
X214484329Y-136980135D01*
X214486000Y-136972452D01*
X214486000Y-136967885D01*
X214994000Y-136967885D01*
X214998475Y-136983124D01*
X214999865Y-136984329D01*
X215007548Y-136986000D01*
X217479884Y-136986000D01*
X217495123Y-136981525D01*
X217496328Y-136980135D01*
X217497999Y-136972452D01*
X217497999Y-134945331D01*
X217497629Y-134938510D01*
X217492105Y-134887648D01*
X217488479Y-134872396D01*
X217443324Y-134751946D01*
X217434786Y-134736351D01*
X217358285Y-134634276D01*
X217345724Y-134621715D01*
X217243649Y-134545214D01*
X217228054Y-134536676D01*
X217107606Y-134491522D01*
X217092351Y-134487895D01*
X217041486Y-134482369D01*
X217034672Y-134482000D01*
X215012115Y-134482000D01*
X214996876Y-134486475D01*
X214995671Y-134487865D01*
X214994000Y-134495548D01*
X214994000Y-136967885D01*
X214486000Y-136967885D01*
X214486000Y-134500116D01*
X214481525Y-134484877D01*
X214480135Y-134483672D01*
X214472452Y-134482001D01*
X212445331Y-134482001D01*
X212438510Y-134482371D01*
X212387648Y-134487895D01*
X212372396Y-134491521D01*
X212251946Y-134536676D01*
X212236351Y-134545214D01*
X212134276Y-134621715D01*
X212121715Y-134634276D01*
X212045214Y-134736351D01*
X212036676Y-134751946D01*
X211991522Y-134872394D01*
X211987895Y-134887649D01*
X211982369Y-134938514D01*
X211982000Y-134945328D01*
X211982000Y-136967885D01*
X209468957Y-136967885D01*
X209338392Y-136836634D01*
X209077191Y-136630720D01*
X208793144Y-136457677D01*
X208672046Y-136402617D01*
X208493817Y-136321580D01*
X208493809Y-136321577D01*
X208490365Y-136320011D01*
X208173240Y-136219718D01*
X207950896Y-136177906D01*
X207850087Y-136158949D01*
X207850085Y-136158949D01*
X207846364Y-136158249D01*
X207514470Y-136136496D01*
X207510690Y-136136704D01*
X207510689Y-136136704D01*
X207412918Y-136142085D01*
X207182366Y-136154773D01*
X207178639Y-136155434D01*
X207178635Y-136155434D01*
X206919510Y-136201358D01*
X206854864Y-136212815D01*
X206851239Y-136213920D01*
X206851234Y-136213921D01*
X206643683Y-136277178D01*
X206536707Y-136309782D01*
X206533243Y-136311313D01*
X206533236Y-136311316D01*
X206346051Y-136394070D01*
X206232503Y-136444269D01*
X206229249Y-136446205D01*
X206229243Y-136446208D01*
X205949918Y-136612389D01*
X205946659Y-136614328D01*
X205683316Y-136817496D01*
X205446288Y-137050829D01*
X205239009Y-137310949D01*
X205064481Y-137594086D01*
X204925232Y-137896140D01*
X204924073Y-137899740D01*
X204924070Y-137899747D01*
X204915368Y-137926771D01*
X204823280Y-138212735D01*
X204760100Y-138539285D01*
X204759833Y-138543061D01*
X204759832Y-138543066D01*
X204758067Y-138567997D01*
X204736610Y-138871061D01*
X170508500Y-138871061D01*
X170508500Y-118754669D01*
X171117001Y-118754669D01*
X171117371Y-118761490D01*
X171122895Y-118812352D01*
X171126521Y-118827604D01*
X171171676Y-118948054D01*
X171180214Y-118963649D01*
X171256715Y-119065724D01*
X171269276Y-119078285D01*
X171371351Y-119154786D01*
X171386946Y-119163324D01*
X171507394Y-119208478D01*
X171522649Y-119212105D01*
X171573514Y-119217631D01*
X171580328Y-119218000D01*
X172202885Y-119218000D01*
X172218124Y-119213525D01*
X172219329Y-119212135D01*
X172221000Y-119204452D01*
X172221000Y-119199884D01*
X172729000Y-119199884D01*
X172733475Y-119215123D01*
X172734865Y-119216328D01*
X172742548Y-119217999D01*
X173369669Y-119217999D01*
X173376490Y-119217629D01*
X173427352Y-119212105D01*
X173442604Y-119208479D01*
X173563054Y-119163324D01*
X173578649Y-119154786D01*
X173680724Y-119078285D01*
X173693285Y-119065724D01*
X173769786Y-118963649D01*
X173778324Y-118948054D01*
X173823478Y-118827606D01*
X173827105Y-118812351D01*
X173832631Y-118761486D01*
X173833000Y-118754672D01*
X173833000Y-118132115D01*
X173828525Y-118116876D01*
X173827135Y-118115671D01*
X173819452Y-118114000D01*
X172747115Y-118114000D01*
X172731876Y-118118475D01*
X172730671Y-118119865D01*
X172729000Y-118127548D01*
X172729000Y-119199884D01*
X172221000Y-119199884D01*
X172221000Y-118132115D01*
X172216525Y-118116876D01*
X172215135Y-118115671D01*
X172207452Y-118114000D01*
X171135116Y-118114000D01*
X171119877Y-118118475D01*
X171118672Y-118119865D01*
X171117001Y-118127548D01*
X171117001Y-118754669D01*
X170508500Y-118754669D01*
X170508500Y-115286695D01*
X171112251Y-115286695D01*
X171125110Y-115509715D01*
X171126247Y-115514761D01*
X171126248Y-115514767D01*
X171150304Y-115621508D01*
X171174222Y-115727639D01*
X171258266Y-115934616D01*
X171374987Y-116125088D01*
X171521250Y-116293938D01*
X171525225Y-116297238D01*
X171525231Y-116297244D01*
X171530425Y-116301556D01*
X171570059Y-116360460D01*
X171571555Y-116431441D01*
X171534439Y-116491962D01*
X171494168Y-116516480D01*
X171386946Y-116556676D01*
X171371351Y-116565214D01*
X171269276Y-116641715D01*
X171256715Y-116654276D01*
X171180214Y-116756351D01*
X171171676Y-116771946D01*
X171126522Y-116892394D01*
X171122895Y-116907649D01*
X171117369Y-116958514D01*
X171117000Y-116965328D01*
X171117000Y-117587885D01*
X171121475Y-117603124D01*
X171122865Y-117604329D01*
X171130548Y-117606000D01*
X173814884Y-117606000D01*
X173830123Y-117601525D01*
X173831328Y-117600135D01*
X173832999Y-117592452D01*
X173832999Y-116965331D01*
X173832629Y-116958510D01*
X173827105Y-116907648D01*
X173823479Y-116892396D01*
X173778324Y-116771946D01*
X173769786Y-116756351D01*
X173693285Y-116654276D01*
X173680724Y-116641715D01*
X173578649Y-116565214D01*
X173563054Y-116556676D01*
X173452813Y-116515348D01*
X173396049Y-116472706D01*
X173371349Y-116406145D01*
X173386557Y-116336796D01*
X173408104Y-116308115D01*
X173509430Y-116207144D01*
X173509440Y-116207132D01*
X173513096Y-116203489D01*
X173551346Y-116150259D01*
X173640435Y-116026277D01*
X173643453Y-116022077D01*
X173645746Y-116017437D01*
X173647446Y-116014608D01*
X173699674Y-115966518D01*
X173755451Y-115953500D01*
X185605406Y-115953500D01*
X185673527Y-115973502D01*
X185694501Y-115990405D01*
X201183174Y-131479079D01*
X201217200Y-131541391D01*
X201212135Y-131612206D01*
X201201340Y-131634289D01*
X201164481Y-131694086D01*
X201025232Y-131996140D01*
X201024073Y-131999740D01*
X201024070Y-131999747D01*
X200926797Y-132301813D01*
X200923280Y-132312735D01*
X200922561Y-132316451D01*
X200922559Y-132316459D01*
X200867957Y-132598673D01*
X200860100Y-132639285D01*
X200859833Y-132643061D01*
X200859832Y-132643066D01*
X200836878Y-132967272D01*
X200836610Y-132971061D01*
X200853147Y-133303255D01*
X200853788Y-133306986D01*
X200853789Y-133306994D01*
X200868586Y-133393103D01*
X200909474Y-133631057D01*
X201004774Y-133949718D01*
X201006287Y-133953189D01*
X201006289Y-133953195D01*
X201097458Y-134162370D01*
X201137666Y-134254622D01*
X201306226Y-134541352D01*
X201308527Y-134544367D01*
X201505712Y-134802742D01*
X201505717Y-134802748D01*
X201508012Y-134805755D01*
X201740102Y-135044002D01*
X201999132Y-135252640D01*
X202281352Y-135428648D01*
X202582672Y-135569476D01*
X202898729Y-135673085D01*
X203224944Y-135737973D01*
X203228716Y-135738260D01*
X203228724Y-135738261D01*
X203552815Y-135762914D01*
X203552820Y-135762914D01*
X203556592Y-135763201D01*
X203888869Y-135748403D01*
X203893401Y-135747649D01*
X204213220Y-135694417D01*
X204213225Y-135694416D01*
X204216961Y-135693794D01*
X204536116Y-135600164D01*
X204539583Y-135598674D01*
X204539587Y-135598673D01*
X204838228Y-135470366D01*
X204838230Y-135470365D01*
X204841712Y-135468869D01*
X205129321Y-135301813D01*
X205132343Y-135299532D01*
X205132347Y-135299529D01*
X205391753Y-135103697D01*
X205391754Y-135103696D01*
X205394777Y-135101414D01*
X205563763Y-134938510D01*
X205631508Y-134873204D01*
X205631509Y-134873203D01*
X205634235Y-134870575D01*
X205844227Y-134612641D01*
X206021710Y-134331347D01*
X206164114Y-134030767D01*
X206269377Y-133715257D01*
X206335972Y-133389386D01*
X206362936Y-133057875D01*
X206363542Y-133000000D01*
X206362026Y-132974853D01*
X206343755Y-132671772D01*
X206343754Y-132671765D01*
X206343527Y-132667997D01*
X206306811Y-132466962D01*
X206284451Y-132344530D01*
X206284450Y-132344525D01*
X206283770Y-132340803D01*
X206272256Y-132303719D01*
X206191611Y-132044002D01*
X206185139Y-132023157D01*
X206049061Y-131719662D01*
X205941709Y-131541352D01*
X205879466Y-131437966D01*
X205879462Y-131437960D01*
X205877507Y-131434713D01*
X205875180Y-131431729D01*
X205875175Y-131431722D01*
X205675294Y-131175425D01*
X205675288Y-131175418D01*
X205672963Y-131172437D01*
X205438392Y-130936634D01*
X205177191Y-130730720D01*
X204893144Y-130557677D01*
X204772046Y-130502617D01*
X204593817Y-130421580D01*
X204593809Y-130421577D01*
X204590365Y-130420011D01*
X204273240Y-130319718D01*
X204050896Y-130277906D01*
X203950087Y-130258949D01*
X203950085Y-130258949D01*
X203946364Y-130258249D01*
X203614470Y-130236496D01*
X203610690Y-130236704D01*
X203610689Y-130236704D01*
X203512918Y-130242085D01*
X203282366Y-130254773D01*
X203278639Y-130255434D01*
X203278635Y-130255434D01*
X203030191Y-130299465D01*
X202954864Y-130312815D01*
X202951239Y-130313920D01*
X202951234Y-130313921D01*
X202743683Y-130377178D01*
X202636707Y-130409782D01*
X202633243Y-130411313D01*
X202633236Y-130411316D01*
X202446051Y-130494070D01*
X202332503Y-130544269D01*
X202306657Y-130559646D01*
X202233438Y-130603206D01*
X202164667Y-130620846D01*
X202097277Y-130598505D01*
X202079920Y-130584016D01*
X201466965Y-129971061D01*
X213636610Y-129971061D01*
X213636799Y-129974853D01*
X213650907Y-130258249D01*
X213653147Y-130303255D01*
X213653788Y-130306986D01*
X213653789Y-130306994D01*
X213703881Y-130598505D01*
X213709474Y-130631057D01*
X213710562Y-130634696D01*
X213710563Y-130634699D01*
X213801664Y-130939318D01*
X213804774Y-130949718D01*
X213806287Y-130953189D01*
X213806289Y-130953195D01*
X213897458Y-131162370D01*
X213937666Y-131254622D01*
X214106226Y-131541352D01*
X214108527Y-131544367D01*
X214305712Y-131802742D01*
X214305717Y-131802748D01*
X214308012Y-131805755D01*
X214310656Y-131808469D01*
X214519796Y-132023157D01*
X214540102Y-132044002D01*
X214799132Y-132252640D01*
X215081352Y-132428648D01*
X215382672Y-132569476D01*
X215386281Y-132570659D01*
X215694724Y-132671772D01*
X215698729Y-132673085D01*
X216024944Y-132737973D01*
X216028716Y-132738260D01*
X216028724Y-132738261D01*
X216352815Y-132762914D01*
X216352820Y-132762914D01*
X216356592Y-132763201D01*
X216688869Y-132748403D01*
X216693401Y-132747649D01*
X217013220Y-132694417D01*
X217013225Y-132694416D01*
X217016961Y-132693794D01*
X217336116Y-132600164D01*
X217339583Y-132598674D01*
X217339587Y-132598673D01*
X217638228Y-132470366D01*
X217638230Y-132470365D01*
X217641712Y-132468869D01*
X217929321Y-132301813D01*
X217932343Y-132299532D01*
X217932347Y-132299529D01*
X218191753Y-132103697D01*
X218191754Y-132103696D01*
X218194777Y-132101414D01*
X218434235Y-131870575D01*
X218644227Y-131612641D01*
X218821710Y-131331347D01*
X218964114Y-131030767D01*
X218995520Y-130936634D01*
X219068180Y-130718844D01*
X219069377Y-130715257D01*
X219135972Y-130389386D01*
X219162936Y-130057875D01*
X219163542Y-130000000D01*
X219162026Y-129974853D01*
X219143755Y-129671772D01*
X219143754Y-129671765D01*
X219143527Y-129667997D01*
X219083770Y-129340803D01*
X218985139Y-129023157D01*
X218849061Y-128719662D01*
X218757128Y-128566962D01*
X218679466Y-128437966D01*
X218679462Y-128437960D01*
X218677507Y-128434713D01*
X218675180Y-128431729D01*
X218675175Y-128431722D01*
X218475294Y-128175425D01*
X218475288Y-128175418D01*
X218472963Y-128172437D01*
X218238392Y-127936634D01*
X217977191Y-127730720D01*
X217693144Y-127557677D01*
X217572046Y-127502617D01*
X217393817Y-127421580D01*
X217393809Y-127421577D01*
X217390365Y-127420011D01*
X217073240Y-127319718D01*
X216850896Y-127277906D01*
X216750087Y-127258949D01*
X216750085Y-127258949D01*
X216746364Y-127258249D01*
X216414470Y-127236496D01*
X216410690Y-127236704D01*
X216410689Y-127236704D01*
X216312918Y-127242085D01*
X216082366Y-127254773D01*
X216078639Y-127255434D01*
X216078635Y-127255434D01*
X215819510Y-127301358D01*
X215754864Y-127312815D01*
X215751239Y-127313920D01*
X215751234Y-127313921D01*
X215606946Y-127357897D01*
X215436707Y-127409782D01*
X215433243Y-127411313D01*
X215433236Y-127411316D01*
X215246051Y-127494070D01*
X215132503Y-127544269D01*
X215129249Y-127546205D01*
X215129243Y-127546208D01*
X214964253Y-127644367D01*
X214846659Y-127714328D01*
X214583316Y-127917496D01*
X214346288Y-128150829D01*
X214139009Y-128410949D01*
X213964481Y-128694086D01*
X213825232Y-128996140D01*
X213824073Y-128999740D01*
X213824070Y-128999747D01*
X213815368Y-129026771D01*
X213723280Y-129312735D01*
X213660100Y-129639285D01*
X213659833Y-129643061D01*
X213659832Y-129643066D01*
X213658067Y-129667997D01*
X213636610Y-129971061D01*
X201466965Y-129971061D01*
X197566965Y-126071061D01*
X207736610Y-126071061D01*
X207753147Y-126403255D01*
X207753788Y-126406986D01*
X207753789Y-126406994D01*
X207768586Y-126493103D01*
X207809474Y-126731057D01*
X207904774Y-127049718D01*
X207906287Y-127053189D01*
X207906289Y-127053195D01*
X207986181Y-127236496D01*
X208037666Y-127354622D01*
X208039589Y-127357893D01*
X208039591Y-127357897D01*
X208080749Y-127427909D01*
X208206226Y-127641352D01*
X208208527Y-127644367D01*
X208405712Y-127902742D01*
X208405717Y-127902748D01*
X208408012Y-127905755D01*
X208640102Y-128144002D01*
X208899132Y-128352640D01*
X209181352Y-128528648D01*
X209482672Y-128669476D01*
X209798729Y-128773085D01*
X210124944Y-128837973D01*
X210128716Y-128838260D01*
X210128724Y-128838261D01*
X210452815Y-128862914D01*
X210452820Y-128862914D01*
X210456592Y-128863201D01*
X210788869Y-128848403D01*
X210793401Y-128847649D01*
X211113220Y-128794417D01*
X211113225Y-128794416D01*
X211116961Y-128793794D01*
X211436116Y-128700164D01*
X211439583Y-128698674D01*
X211439587Y-128698673D01*
X211738228Y-128570366D01*
X211738230Y-128570365D01*
X211741712Y-128568869D01*
X212029321Y-128401813D01*
X212032343Y-128399532D01*
X212032347Y-128399529D01*
X212291753Y-128203697D01*
X212291754Y-128203696D01*
X212294777Y-128201414D01*
X212534235Y-127970575D01*
X212744227Y-127712641D01*
X212921710Y-127431347D01*
X213064114Y-127130767D01*
X213169377Y-126815257D01*
X213235972Y-126489386D01*
X213262936Y-126157875D01*
X213263542Y-126100000D01*
X213262026Y-126074853D01*
X213243755Y-125771772D01*
X213243754Y-125771765D01*
X213243527Y-125767997D01*
X213183770Y-125440803D01*
X213085139Y-125123157D01*
X212949061Y-124819662D01*
X212864108Y-124678555D01*
X212779466Y-124537966D01*
X212779462Y-124537960D01*
X212777507Y-124534713D01*
X212775180Y-124531729D01*
X212775175Y-124531722D01*
X212575294Y-124275425D01*
X212575288Y-124275418D01*
X212572963Y-124272437D01*
X212338392Y-124036634D01*
X212077191Y-123830720D01*
X211793144Y-123657677D01*
X211672046Y-123602617D01*
X211493817Y-123521580D01*
X211493809Y-123521577D01*
X211490365Y-123520011D01*
X211173240Y-123419718D01*
X210950896Y-123377906D01*
X210850087Y-123358949D01*
X210850085Y-123358949D01*
X210846364Y-123358249D01*
X210514470Y-123336496D01*
X210510690Y-123336704D01*
X210510689Y-123336704D01*
X210412918Y-123342085D01*
X210182366Y-123354773D01*
X210178639Y-123355434D01*
X210178635Y-123355434D01*
X209919510Y-123401358D01*
X209854864Y-123412815D01*
X209851239Y-123413920D01*
X209851234Y-123413921D01*
X209643683Y-123477178D01*
X209536707Y-123509782D01*
X209533243Y-123511313D01*
X209533236Y-123511316D01*
X209346051Y-123594070D01*
X209232503Y-123644269D01*
X209229249Y-123646205D01*
X209229243Y-123646208D01*
X208949918Y-123812389D01*
X208946659Y-123814328D01*
X208683316Y-124017496D01*
X208446288Y-124250829D01*
X208239009Y-124510949D01*
X208064481Y-124794086D01*
X207925232Y-125096140D01*
X207924073Y-125099740D01*
X207924070Y-125099747D01*
X207915368Y-125126771D01*
X207823280Y-125412735D01*
X207760100Y-125739285D01*
X207759833Y-125743061D01*
X207759832Y-125743066D01*
X207758067Y-125767997D01*
X207736610Y-126071061D01*
X197566965Y-126071061D01*
X186423652Y-114927747D01*
X186416112Y-114919461D01*
X186412000Y-114912982D01*
X186362348Y-114866356D01*
X186359507Y-114863602D01*
X186339770Y-114843865D01*
X186336573Y-114841385D01*
X186327551Y-114833680D01*
X186301100Y-114808841D01*
X186295321Y-114803414D01*
X186288375Y-114799595D01*
X186288372Y-114799593D01*
X186277566Y-114793652D01*
X186261047Y-114782801D01*
X186260583Y-114782441D01*
X186245041Y-114770386D01*
X186237772Y-114767241D01*
X186237768Y-114767238D01*
X186204463Y-114752826D01*
X186193813Y-114747609D01*
X186155060Y-114726305D01*
X186135437Y-114721267D01*
X186116734Y-114714863D01*
X186105420Y-114709967D01*
X186105419Y-114709967D01*
X186098145Y-114706819D01*
X186090322Y-114705580D01*
X186090312Y-114705577D01*
X186054476Y-114699901D01*
X186042856Y-114697495D01*
X186007711Y-114688472D01*
X186007710Y-114688472D01*
X186000030Y-114686500D01*
X185979776Y-114686500D01*
X185960065Y-114684949D01*
X185947886Y-114683020D01*
X185940057Y-114681780D01*
X185932165Y-114682526D01*
X185896039Y-114685941D01*
X185884181Y-114686500D01*
X173751805Y-114686500D01*
X173683684Y-114666498D01*
X173646013Y-114628940D01*
X173557822Y-114492617D01*
X173557820Y-114492614D01*
X173555014Y-114488277D01*
X173404670Y-114323051D01*
X173400619Y-114319852D01*
X173400615Y-114319848D01*
X173233414Y-114187800D01*
X173233410Y-114187798D01*
X173229359Y-114184598D01*
X173188053Y-114161796D01*
X173138084Y-114111364D01*
X173123312Y-114041921D01*
X173148428Y-113975516D01*
X173175780Y-113948909D01*
X173244348Y-113900000D01*
X173284919Y-113871061D01*
X204736610Y-113871061D01*
X204737883Y-113896632D01*
X204752378Y-114187800D01*
X204753147Y-114203255D01*
X204753788Y-114206986D01*
X204753789Y-114206994D01*
X204802869Y-114492617D01*
X204809474Y-114531057D01*
X204810562Y-114534696D01*
X204810563Y-114534699D01*
X204903580Y-114845724D01*
X204904774Y-114849718D01*
X204906287Y-114853189D01*
X204906289Y-114853195D01*
X204996246Y-115059588D01*
X205037666Y-115154622D01*
X205206226Y-115441352D01*
X205208527Y-115444367D01*
X205405712Y-115702742D01*
X205405717Y-115702748D01*
X205408012Y-115705755D01*
X205433993Y-115732425D01*
X205635249Y-115939020D01*
X205640102Y-115944002D01*
X205899132Y-116152640D01*
X206040242Y-116240644D01*
X206119432Y-116290031D01*
X206181352Y-116328648D01*
X206482672Y-116469476D01*
X206486281Y-116470659D01*
X206774719Y-116565214D01*
X206798729Y-116573085D01*
X207124944Y-116637973D01*
X207128716Y-116638260D01*
X207128724Y-116638261D01*
X207452815Y-116662914D01*
X207452820Y-116662914D01*
X207456592Y-116663201D01*
X207788869Y-116648403D01*
X207829051Y-116641715D01*
X208113220Y-116594417D01*
X208113225Y-116594416D01*
X208116961Y-116593794D01*
X208436116Y-116500164D01*
X208439583Y-116498674D01*
X208439587Y-116498673D01*
X208738228Y-116370366D01*
X208738230Y-116370365D01*
X208741712Y-116368869D01*
X209029321Y-116201813D01*
X209032343Y-116199532D01*
X209032347Y-116199529D01*
X209291753Y-116003697D01*
X209291754Y-116003696D01*
X209294777Y-116001414D01*
X209534235Y-115770575D01*
X209744227Y-115512641D01*
X209921710Y-115231347D01*
X210064114Y-114930767D01*
X210068051Y-114918968D01*
X210149165Y-114675840D01*
X210169377Y-114615257D01*
X210185846Y-114534669D01*
X211982001Y-114534669D01*
X211982371Y-114541490D01*
X211987895Y-114592352D01*
X211991521Y-114607604D01*
X212036676Y-114728054D01*
X212045214Y-114743649D01*
X212121715Y-114845724D01*
X212134276Y-114858285D01*
X212236351Y-114934786D01*
X212251946Y-114943324D01*
X212372394Y-114988478D01*
X212387649Y-114992105D01*
X212438514Y-114997631D01*
X212445328Y-114998000D01*
X214467885Y-114998000D01*
X214483124Y-114993525D01*
X214484329Y-114992135D01*
X214486000Y-114984452D01*
X214486000Y-114979884D01*
X214994000Y-114979884D01*
X214998475Y-114995123D01*
X214999865Y-114996328D01*
X215007548Y-114997999D01*
X217034669Y-114997999D01*
X217041490Y-114997629D01*
X217092352Y-114992105D01*
X217107604Y-114988479D01*
X217228054Y-114943324D01*
X217243649Y-114934786D01*
X217345724Y-114858285D01*
X217358285Y-114845724D01*
X217434786Y-114743649D01*
X217443324Y-114728054D01*
X217488478Y-114607606D01*
X217492105Y-114592351D01*
X217497631Y-114541486D01*
X217498000Y-114534672D01*
X217498000Y-112512115D01*
X217493525Y-112496876D01*
X217492135Y-112495671D01*
X217484452Y-112494000D01*
X215012115Y-112494000D01*
X214996876Y-112498475D01*
X214995671Y-112499865D01*
X214994000Y-112507548D01*
X214994000Y-114979884D01*
X214486000Y-114979884D01*
X214486000Y-112512115D01*
X214481525Y-112496876D01*
X214480135Y-112495671D01*
X214472452Y-112494000D01*
X212000116Y-112494000D01*
X211984877Y-112498475D01*
X211983672Y-112499865D01*
X211982001Y-112507548D01*
X211982001Y-114534669D01*
X210185846Y-114534669D01*
X210235972Y-114289386D01*
X210262936Y-113957875D01*
X210263542Y-113900000D01*
X210262026Y-113874853D01*
X210243755Y-113571772D01*
X210243754Y-113571765D01*
X210243527Y-113567997D01*
X210209849Y-113383599D01*
X210184451Y-113244530D01*
X210184450Y-113244525D01*
X210183770Y-113240803D01*
X210168749Y-113192425D01*
X210101164Y-112974767D01*
X210085139Y-112923157D01*
X209949061Y-112619662D01*
X209781113Y-112340702D01*
X209779466Y-112337966D01*
X209779462Y-112337960D01*
X209777507Y-112334713D01*
X209775180Y-112331729D01*
X209775175Y-112331722D01*
X209575294Y-112075425D01*
X209575288Y-112075418D01*
X209572963Y-112072437D01*
X209468957Y-111967885D01*
X211982000Y-111967885D01*
X211986475Y-111983124D01*
X211987865Y-111984329D01*
X211995548Y-111986000D01*
X214467885Y-111986000D01*
X214483124Y-111981525D01*
X214484329Y-111980135D01*
X214486000Y-111972452D01*
X214486000Y-111967885D01*
X214994000Y-111967885D01*
X214998475Y-111983124D01*
X214999865Y-111984329D01*
X215007548Y-111986000D01*
X217479884Y-111986000D01*
X217495123Y-111981525D01*
X217496328Y-111980135D01*
X217497999Y-111972452D01*
X217497999Y-109945331D01*
X217497629Y-109938510D01*
X217492105Y-109887648D01*
X217488479Y-109872396D01*
X217443324Y-109751946D01*
X217434786Y-109736351D01*
X217358285Y-109634276D01*
X217345724Y-109621715D01*
X217243649Y-109545214D01*
X217228054Y-109536676D01*
X217107606Y-109491522D01*
X217092351Y-109487895D01*
X217041486Y-109482369D01*
X217034672Y-109482000D01*
X215012115Y-109482000D01*
X214996876Y-109486475D01*
X214995671Y-109487865D01*
X214994000Y-109495548D01*
X214994000Y-111967885D01*
X214486000Y-111967885D01*
X214486000Y-109500116D01*
X214481525Y-109484877D01*
X214480135Y-109483672D01*
X214472452Y-109482001D01*
X212445331Y-109482001D01*
X212438510Y-109482371D01*
X212387648Y-109487895D01*
X212372396Y-109491521D01*
X212251946Y-109536676D01*
X212236351Y-109545214D01*
X212134276Y-109621715D01*
X212121715Y-109634276D01*
X212045214Y-109736351D01*
X212036676Y-109751946D01*
X211991522Y-109872394D01*
X211987895Y-109887649D01*
X211982369Y-109938514D01*
X211982000Y-109945328D01*
X211982000Y-111967885D01*
X209468957Y-111967885D01*
X209338392Y-111836634D01*
X209077191Y-111630720D01*
X208793144Y-111457677D01*
X208576649Y-111359242D01*
X208493817Y-111321580D01*
X208493809Y-111321577D01*
X208490365Y-111320011D01*
X208173240Y-111219718D01*
X207950896Y-111177906D01*
X207850087Y-111158949D01*
X207850085Y-111158949D01*
X207846364Y-111158249D01*
X207514470Y-111136496D01*
X207510690Y-111136704D01*
X207510689Y-111136704D01*
X207412918Y-111142085D01*
X207182366Y-111154773D01*
X207178639Y-111155434D01*
X207178635Y-111155434D01*
X206919510Y-111201358D01*
X206854864Y-111212815D01*
X206851239Y-111213920D01*
X206851234Y-111213921D01*
X206643683Y-111277178D01*
X206536707Y-111309782D01*
X206533243Y-111311313D01*
X206533236Y-111311316D01*
X206346051Y-111394070D01*
X206232503Y-111444269D01*
X206229249Y-111446205D01*
X206229243Y-111446208D01*
X205949918Y-111612389D01*
X205946659Y-111614328D01*
X205943658Y-111616643D01*
X205943654Y-111616646D01*
X205903273Y-111647800D01*
X205683316Y-111817496D01*
X205446288Y-112050829D01*
X205239009Y-112310949D01*
X205064481Y-112594086D01*
X204925232Y-112896140D01*
X204924073Y-112899740D01*
X204924070Y-112899747D01*
X204829820Y-113192425D01*
X204823280Y-113212735D01*
X204822561Y-113216451D01*
X204822559Y-113216459D01*
X204760819Y-113535567D01*
X204760100Y-113539285D01*
X204759833Y-113543061D01*
X204759832Y-113543066D01*
X204740400Y-113817529D01*
X204736610Y-113871061D01*
X173284919Y-113871061D01*
X173354860Y-113821173D01*
X173513096Y-113663489D01*
X173572594Y-113580689D01*
X173640435Y-113486277D01*
X173643453Y-113482077D01*
X173742430Y-113281811D01*
X173807370Y-113068069D01*
X173836529Y-112846590D01*
X173838156Y-112780000D01*
X173819852Y-112557361D01*
X173765431Y-112340702D01*
X173676354Y-112135840D01*
X173555014Y-111948277D01*
X173404670Y-111783051D01*
X173400619Y-111779852D01*
X173400615Y-111779848D01*
X173233414Y-111647800D01*
X173233410Y-111647798D01*
X173229359Y-111644598D01*
X173188053Y-111621796D01*
X173138084Y-111571364D01*
X173123312Y-111501921D01*
X173148428Y-111435516D01*
X173175780Y-111408909D01*
X173219603Y-111377650D01*
X173354860Y-111281173D01*
X173513096Y-111123489D01*
X173572594Y-111040689D01*
X173640435Y-110946277D01*
X173643453Y-110942077D01*
X173645746Y-110937437D01*
X173647446Y-110934608D01*
X173699674Y-110886518D01*
X173755451Y-110873500D01*
X201281233Y-110873500D01*
X201292416Y-110874027D01*
X201299909Y-110875702D01*
X201307835Y-110875453D01*
X201307836Y-110875453D01*
X201367986Y-110873562D01*
X201371945Y-110873500D01*
X201399856Y-110873500D01*
X201403791Y-110873003D01*
X201403856Y-110872995D01*
X201415693Y-110872062D01*
X201447951Y-110871048D01*
X201451970Y-110870922D01*
X201459889Y-110870673D01*
X201479343Y-110865021D01*
X201498700Y-110861013D01*
X201510930Y-110859468D01*
X201510931Y-110859468D01*
X201518797Y-110858474D01*
X201526168Y-110855555D01*
X201526170Y-110855555D01*
X201559912Y-110842196D01*
X201571142Y-110838351D01*
X201605983Y-110828229D01*
X201605984Y-110828229D01*
X201613593Y-110826018D01*
X201620412Y-110821985D01*
X201620417Y-110821983D01*
X201631028Y-110815707D01*
X201648776Y-110807012D01*
X201667617Y-110799552D01*
X201703387Y-110773564D01*
X201713307Y-110767048D01*
X201744535Y-110748580D01*
X201744538Y-110748578D01*
X201751362Y-110744542D01*
X201765683Y-110730221D01*
X201780717Y-110717380D01*
X201790694Y-110710131D01*
X201797107Y-110705472D01*
X201825298Y-110671395D01*
X201833288Y-110662616D01*
X202078685Y-110417219D01*
X202140997Y-110383193D01*
X202211812Y-110388258D01*
X202234456Y-110399401D01*
X202281352Y-110428648D01*
X202582672Y-110569476D01*
X202586281Y-110570659D01*
X202893574Y-110671395D01*
X202898729Y-110673085D01*
X203224944Y-110737973D01*
X203228716Y-110738260D01*
X203228724Y-110738261D01*
X203552815Y-110762914D01*
X203552820Y-110762914D01*
X203556592Y-110763201D01*
X203888869Y-110748403D01*
X203945777Y-110738931D01*
X204213220Y-110694417D01*
X204213225Y-110694416D01*
X204216961Y-110693794D01*
X204536116Y-110600164D01*
X204539583Y-110598674D01*
X204539587Y-110598673D01*
X204838228Y-110470366D01*
X204838230Y-110470365D01*
X204841712Y-110468869D01*
X205129321Y-110301813D01*
X205132343Y-110299532D01*
X205132347Y-110299529D01*
X205391753Y-110103697D01*
X205391754Y-110103696D01*
X205394777Y-110101414D01*
X205563763Y-109938510D01*
X205631508Y-109873204D01*
X205631509Y-109873203D01*
X205634235Y-109870575D01*
X205844227Y-109612641D01*
X206021710Y-109331347D01*
X206063542Y-109243051D01*
X206092912Y-109181057D01*
X206164114Y-109030767D01*
X206175501Y-108996638D01*
X206259730Y-108744171D01*
X206269377Y-108715257D01*
X206335972Y-108389386D01*
X206362936Y-108057875D01*
X206363542Y-108000000D01*
X206363409Y-107997789D01*
X206343755Y-107671772D01*
X206343754Y-107671765D01*
X206343527Y-107667997D01*
X206303660Y-107449707D01*
X206284451Y-107344530D01*
X206284450Y-107344525D01*
X206283770Y-107340803D01*
X206272256Y-107303719D01*
X206191611Y-107044002D01*
X206185139Y-107023157D01*
X206049061Y-106719662D01*
X205957632Y-106567800D01*
X205879466Y-106437966D01*
X205879462Y-106437960D01*
X205877507Y-106434713D01*
X205875180Y-106431729D01*
X205875175Y-106431722D01*
X205675294Y-106175425D01*
X205675288Y-106175418D01*
X205672963Y-106172437D01*
X205438392Y-105936634D01*
X205177191Y-105730720D01*
X204893144Y-105557677D01*
X204772046Y-105502617D01*
X204593817Y-105421580D01*
X204593809Y-105421577D01*
X204590365Y-105420011D01*
X204273240Y-105319718D01*
X204050896Y-105277906D01*
X203950087Y-105258949D01*
X203950085Y-105258949D01*
X203946364Y-105258249D01*
X203614470Y-105236496D01*
X203610690Y-105236704D01*
X203610689Y-105236704D01*
X203512918Y-105242085D01*
X203282366Y-105254773D01*
X203278639Y-105255434D01*
X203278635Y-105255434D01*
X203030191Y-105299465D01*
X202954864Y-105312815D01*
X202951239Y-105313920D01*
X202951234Y-105313921D01*
X202817216Y-105354767D01*
X202636707Y-105409782D01*
X202633243Y-105411313D01*
X202633236Y-105411316D01*
X202446051Y-105494070D01*
X202332503Y-105544269D01*
X202329249Y-105546205D01*
X202329243Y-105546208D01*
X202087428Y-105690073D01*
X202046659Y-105714328D01*
X202043658Y-105716643D01*
X202043654Y-105716646D01*
X201963514Y-105778474D01*
X201783316Y-105917496D01*
X201546288Y-106150829D01*
X201339009Y-106410949D01*
X201164481Y-106694086D01*
X201025232Y-106996140D01*
X201024073Y-106999740D01*
X201024070Y-106999747D01*
X200926797Y-107301813D01*
X200923280Y-107312735D01*
X200922561Y-107316451D01*
X200922559Y-107316459D01*
X200867957Y-107598673D01*
X200860100Y-107639285D01*
X200859833Y-107643061D01*
X200859832Y-107643066D01*
X200836878Y-107967272D01*
X200836610Y-107971061D01*
X200853147Y-108303255D01*
X200853788Y-108306986D01*
X200853789Y-108306994D01*
X200888499Y-108508990D01*
X200909474Y-108631057D01*
X200910562Y-108634696D01*
X200910563Y-108634699D01*
X200942406Y-108741173D01*
X201004774Y-108949718D01*
X201006287Y-108953189D01*
X201006289Y-108953195D01*
X201071191Y-109102104D01*
X201137666Y-109254622D01*
X201139589Y-109257893D01*
X201139591Y-109257897D01*
X201203708Y-109366963D01*
X201220987Y-109435825D01*
X201198294Y-109503097D01*
X201184182Y-109519913D01*
X201134500Y-109569595D01*
X201072188Y-109603621D01*
X201045405Y-109606500D01*
X173751805Y-109606500D01*
X173683684Y-109586498D01*
X173646013Y-109548940D01*
X173557822Y-109412617D01*
X173557820Y-109412614D01*
X173555014Y-109408277D01*
X173404670Y-109243051D01*
X173400619Y-109239852D01*
X173400615Y-109239848D01*
X173233414Y-109107800D01*
X173233410Y-109107798D01*
X173229359Y-109104598D01*
X173188053Y-109081796D01*
X173138084Y-109031364D01*
X173123312Y-108961921D01*
X173148428Y-108895516D01*
X173175780Y-108868909D01*
X173219603Y-108837650D01*
X173354860Y-108741173D01*
X173513096Y-108583489D01*
X173572594Y-108500689D01*
X173640435Y-108406277D01*
X173643453Y-108402077D01*
X173649726Y-108389386D01*
X173740136Y-108206453D01*
X173740137Y-108206451D01*
X173742430Y-108201811D01*
X173807370Y-107988069D01*
X173836529Y-107766590D01*
X173836969Y-107748572D01*
X173838074Y-107703365D01*
X173838074Y-107703361D01*
X173838156Y-107700000D01*
X173819852Y-107477361D01*
X173765431Y-107260702D01*
X173676354Y-107055840D01*
X173635504Y-106992696D01*
X173557822Y-106872617D01*
X173557820Y-106872614D01*
X173555014Y-106868277D01*
X173404670Y-106703051D01*
X173400619Y-106699852D01*
X173400615Y-106699848D01*
X173233414Y-106567800D01*
X173233410Y-106567798D01*
X173229359Y-106564598D01*
X173188053Y-106541796D01*
X173138084Y-106491364D01*
X173123312Y-106421921D01*
X173148428Y-106355516D01*
X173175780Y-106328909D01*
X173219603Y-106297650D01*
X173354860Y-106201173D01*
X173513096Y-106043489D01*
X173572594Y-105960689D01*
X173640435Y-105866277D01*
X173643453Y-105862077D01*
X173645746Y-105857437D01*
X173647446Y-105854608D01*
X173699674Y-105806518D01*
X173755451Y-105793500D01*
X181361233Y-105793500D01*
X181372416Y-105794027D01*
X181379909Y-105795702D01*
X181387835Y-105795453D01*
X181387836Y-105795453D01*
X181447986Y-105793562D01*
X181451945Y-105793500D01*
X181479856Y-105793500D01*
X181483791Y-105793003D01*
X181483856Y-105792995D01*
X181495693Y-105792062D01*
X181527951Y-105791048D01*
X181531970Y-105790922D01*
X181539889Y-105790673D01*
X181559343Y-105785021D01*
X181578700Y-105781013D01*
X181590930Y-105779468D01*
X181590931Y-105779468D01*
X181598797Y-105778474D01*
X181606168Y-105775555D01*
X181606170Y-105775555D01*
X181639912Y-105762196D01*
X181651142Y-105758351D01*
X181685983Y-105748229D01*
X181685984Y-105748229D01*
X181693593Y-105746018D01*
X181700412Y-105741985D01*
X181700417Y-105741983D01*
X181711028Y-105735707D01*
X181728776Y-105727012D01*
X181747617Y-105719552D01*
X181754808Y-105714328D01*
X181783387Y-105693564D01*
X181793307Y-105687048D01*
X181824535Y-105668580D01*
X181824538Y-105668578D01*
X181831362Y-105664542D01*
X181845683Y-105650221D01*
X181860717Y-105637380D01*
X181870694Y-105630131D01*
X181877107Y-105625472D01*
X181905298Y-105591395D01*
X181913288Y-105582616D01*
X182524843Y-104971061D01*
X213636610Y-104971061D01*
X213636799Y-104974853D01*
X213650907Y-105258249D01*
X213653147Y-105303255D01*
X213653788Y-105306986D01*
X213653789Y-105306994D01*
X213702659Y-105591395D01*
X213709474Y-105631057D01*
X213710562Y-105634696D01*
X213710563Y-105634699D01*
X213801664Y-105939318D01*
X213804774Y-105949718D01*
X213806287Y-105953189D01*
X213806289Y-105953195D01*
X213845644Y-106043489D01*
X213937666Y-106254622D01*
X214106226Y-106541352D01*
X214108527Y-106544367D01*
X214305712Y-106802742D01*
X214305717Y-106802748D01*
X214308012Y-106805755D01*
X214310656Y-106808469D01*
X214523228Y-107026680D01*
X214540102Y-107044002D01*
X214799132Y-107252640D01*
X215081352Y-107428648D01*
X215382672Y-107569476D01*
X215386281Y-107570659D01*
X215694965Y-107671851D01*
X215698729Y-107673085D01*
X216024944Y-107737973D01*
X216028716Y-107738260D01*
X216028724Y-107738261D01*
X216352815Y-107762914D01*
X216352820Y-107762914D01*
X216356592Y-107763201D01*
X216688869Y-107748403D01*
X216693401Y-107747649D01*
X217013220Y-107694417D01*
X217013225Y-107694416D01*
X217016961Y-107693794D01*
X217336116Y-107600164D01*
X217339583Y-107598674D01*
X217339587Y-107598673D01*
X217638228Y-107470366D01*
X217638230Y-107470365D01*
X217641712Y-107468869D01*
X217929321Y-107301813D01*
X217932343Y-107299532D01*
X217932347Y-107299529D01*
X218191753Y-107103697D01*
X218191754Y-107103696D01*
X218194777Y-107101414D01*
X218434235Y-106870575D01*
X218644227Y-106612641D01*
X218773358Y-106407981D01*
X218819683Y-106334560D01*
X218819685Y-106334557D01*
X218821710Y-106331347D01*
X218846396Y-106279242D01*
X218962485Y-106034205D01*
X218964114Y-106030767D01*
X218986027Y-105965088D01*
X219054446Y-105760010D01*
X219069377Y-105715257D01*
X219135972Y-105389386D01*
X219162936Y-105057875D01*
X219163542Y-105000000D01*
X219162026Y-104974853D01*
X219143755Y-104671772D01*
X219143754Y-104671765D01*
X219143527Y-104667997D01*
X219083770Y-104340803D01*
X219081229Y-104332617D01*
X218986261Y-104026771D01*
X218985139Y-104023157D01*
X218849061Y-103719662D01*
X218757128Y-103566962D01*
X218679466Y-103437966D01*
X218679462Y-103437960D01*
X218677507Y-103434713D01*
X218675180Y-103431729D01*
X218675175Y-103431722D01*
X218475294Y-103175425D01*
X218475288Y-103175418D01*
X218472963Y-103172437D01*
X218238392Y-102936634D01*
X217977191Y-102730720D01*
X217693144Y-102557677D01*
X217572046Y-102502617D01*
X217393817Y-102421580D01*
X217393809Y-102421577D01*
X217390365Y-102420011D01*
X217073240Y-102319718D01*
X216850896Y-102277906D01*
X216750087Y-102258949D01*
X216750085Y-102258949D01*
X216746364Y-102258249D01*
X216414470Y-102236496D01*
X216410690Y-102236704D01*
X216410689Y-102236704D01*
X216312918Y-102242085D01*
X216082366Y-102254773D01*
X216078639Y-102255434D01*
X216078635Y-102255434D01*
X215819510Y-102301358D01*
X215754864Y-102312815D01*
X215751239Y-102313920D01*
X215751234Y-102313921D01*
X215585051Y-102364570D01*
X215436707Y-102409782D01*
X215433243Y-102411313D01*
X215433236Y-102411316D01*
X215246051Y-102494070D01*
X215132503Y-102544269D01*
X215129249Y-102546205D01*
X215129243Y-102546208D01*
X214964253Y-102644367D01*
X214846659Y-102714328D01*
X214583316Y-102917496D01*
X214580617Y-102920152D01*
X214580618Y-102920152D01*
X214375766Y-103121811D01*
X214346288Y-103150829D01*
X214139009Y-103410949D01*
X213964481Y-103694086D01*
X213825232Y-103996140D01*
X213824073Y-103999740D01*
X213824070Y-103999747D01*
X213725316Y-104306411D01*
X213723280Y-104312735D01*
X213722561Y-104316451D01*
X213722559Y-104316459D01*
X213682478Y-104523621D01*
X213660100Y-104639285D01*
X213659833Y-104643061D01*
X213659832Y-104643066D01*
X213640954Y-104909707D01*
X213636610Y-104971061D01*
X182524843Y-104971061D01*
X186424843Y-101071061D01*
X207736610Y-101071061D01*
X207753147Y-101403255D01*
X207753788Y-101406986D01*
X207753789Y-101406994D01*
X207787706Y-101604373D01*
X207809474Y-101731057D01*
X207810562Y-101734696D01*
X207810563Y-101734699D01*
X207817652Y-101758401D01*
X207904774Y-102049718D01*
X207906287Y-102053189D01*
X207906289Y-102053195D01*
X207955444Y-102165974D01*
X208037666Y-102354622D01*
X208039589Y-102357893D01*
X208039591Y-102357897D01*
X208080749Y-102427909D01*
X208206226Y-102641352D01*
X208208527Y-102644367D01*
X208405712Y-102902742D01*
X208405717Y-102902748D01*
X208408012Y-102905755D01*
X208419450Y-102917496D01*
X208623007Y-103126453D01*
X208640102Y-103144002D01*
X208899132Y-103352640D01*
X209181352Y-103528648D01*
X209482672Y-103669476D01*
X209486281Y-103670659D01*
X209695492Y-103739242D01*
X209798729Y-103773085D01*
X210124944Y-103837973D01*
X210128716Y-103838260D01*
X210128724Y-103838261D01*
X210452815Y-103862914D01*
X210452820Y-103862914D01*
X210456592Y-103863201D01*
X210788869Y-103848403D01*
X210793401Y-103847649D01*
X211113220Y-103794417D01*
X211113225Y-103794416D01*
X211116961Y-103793794D01*
X211436116Y-103700164D01*
X211439583Y-103698674D01*
X211439587Y-103698673D01*
X211738228Y-103570366D01*
X211738230Y-103570365D01*
X211741712Y-103568869D01*
X212029321Y-103401813D01*
X212032343Y-103399532D01*
X212032347Y-103399529D01*
X212291753Y-103203697D01*
X212291754Y-103203696D01*
X212294777Y-103201414D01*
X212534235Y-102970575D01*
X212744227Y-102712641D01*
X212921710Y-102431347D01*
X212937812Y-102397361D01*
X213055331Y-102149305D01*
X213064114Y-102130767D01*
X213169377Y-101815257D01*
X213235972Y-101489386D01*
X213262936Y-101157875D01*
X213263542Y-101100000D01*
X213262026Y-101074853D01*
X213243755Y-100771772D01*
X213243754Y-100771765D01*
X213243527Y-100767997D01*
X213183770Y-100440803D01*
X213129042Y-100264547D01*
X213092415Y-100146590D01*
X213085139Y-100123157D01*
X212949061Y-99819662D01*
X212819589Y-99604610D01*
X212779466Y-99537966D01*
X212779462Y-99537960D01*
X212777507Y-99534713D01*
X212775180Y-99531729D01*
X212775175Y-99531722D01*
X212575294Y-99275425D01*
X212575288Y-99275418D01*
X212572963Y-99272437D01*
X212338392Y-99036634D01*
X212077191Y-98830720D01*
X211793144Y-98657677D01*
X211672046Y-98602617D01*
X211493817Y-98521580D01*
X211493809Y-98521577D01*
X211490365Y-98520011D01*
X211173240Y-98419718D01*
X210950896Y-98377906D01*
X210850087Y-98358949D01*
X210850085Y-98358949D01*
X210846364Y-98358249D01*
X210514470Y-98336496D01*
X210510690Y-98336704D01*
X210510689Y-98336704D01*
X210412918Y-98342085D01*
X210182366Y-98354773D01*
X210178639Y-98355434D01*
X210178635Y-98355434D01*
X209919510Y-98401358D01*
X209854864Y-98412815D01*
X209851239Y-98413920D01*
X209851234Y-98413921D01*
X209643683Y-98477178D01*
X209536707Y-98509782D01*
X209533243Y-98511313D01*
X209533236Y-98511316D01*
X209346051Y-98594070D01*
X209232503Y-98644269D01*
X209229249Y-98646205D01*
X209229243Y-98646208D01*
X208949918Y-98812389D01*
X208946659Y-98814328D01*
X208943658Y-98816643D01*
X208943654Y-98816646D01*
X208927972Y-98828745D01*
X208683316Y-99017496D01*
X208680617Y-99020152D01*
X208680618Y-99020152D01*
X208479230Y-99218401D01*
X208446288Y-99250829D01*
X208239009Y-99510949D01*
X208064481Y-99794086D01*
X207925232Y-100096140D01*
X207924073Y-100099740D01*
X207924070Y-100099747D01*
X207826721Y-100402049D01*
X207823280Y-100412735D01*
X207822561Y-100416451D01*
X207822559Y-100416459D01*
X207768742Y-100694616D01*
X207760100Y-100739285D01*
X207759833Y-100743061D01*
X207759832Y-100743066D01*
X207736878Y-101067272D01*
X207736610Y-101071061D01*
X186424843Y-101071061D01*
X198624843Y-88871061D01*
X204736610Y-88871061D01*
X204753147Y-89203255D01*
X204753788Y-89206986D01*
X204753789Y-89206994D01*
X204768586Y-89293103D01*
X204809474Y-89531057D01*
X204810562Y-89534696D01*
X204810563Y-89534699D01*
X204903580Y-89845724D01*
X204904774Y-89849718D01*
X204906287Y-89853189D01*
X204906289Y-89853195D01*
X204997458Y-90062370D01*
X205037666Y-90154622D01*
X205206226Y-90441352D01*
X205208527Y-90444367D01*
X205405712Y-90702742D01*
X205405717Y-90702748D01*
X205408012Y-90705755D01*
X205640102Y-90944002D01*
X205899132Y-91152640D01*
X206181352Y-91328648D01*
X206482672Y-91469476D01*
X206798729Y-91573085D01*
X207124944Y-91637973D01*
X207128716Y-91638260D01*
X207128724Y-91638261D01*
X207452815Y-91662914D01*
X207452820Y-91662914D01*
X207456592Y-91663201D01*
X207788869Y-91648403D01*
X207793401Y-91647649D01*
X208113220Y-91594417D01*
X208113225Y-91594416D01*
X208116961Y-91593794D01*
X208436116Y-91500164D01*
X208439583Y-91498674D01*
X208439587Y-91498673D01*
X208738228Y-91370366D01*
X208738230Y-91370365D01*
X208741712Y-91368869D01*
X209029321Y-91201813D01*
X209032343Y-91199532D01*
X209032347Y-91199529D01*
X209291753Y-91003697D01*
X209291754Y-91003696D01*
X209294777Y-91001414D01*
X209534235Y-90770575D01*
X209744227Y-90512641D01*
X209921710Y-90231347D01*
X210064114Y-89930767D01*
X210169377Y-89615257D01*
X210185846Y-89534669D01*
X211982001Y-89534669D01*
X211982371Y-89541490D01*
X211987895Y-89592352D01*
X211991521Y-89607604D01*
X212036676Y-89728054D01*
X212045214Y-89743649D01*
X212121715Y-89845724D01*
X212134276Y-89858285D01*
X212236351Y-89934786D01*
X212251946Y-89943324D01*
X212372394Y-89988478D01*
X212387649Y-89992105D01*
X212438514Y-89997631D01*
X212445328Y-89998000D01*
X214467885Y-89998000D01*
X214483124Y-89993525D01*
X214484329Y-89992135D01*
X214486000Y-89984452D01*
X214486000Y-89979884D01*
X214994000Y-89979884D01*
X214998475Y-89995123D01*
X214999865Y-89996328D01*
X215007548Y-89997999D01*
X217034669Y-89997999D01*
X217041490Y-89997629D01*
X217092352Y-89992105D01*
X217107604Y-89988479D01*
X217228054Y-89943324D01*
X217243649Y-89934786D01*
X217345724Y-89858285D01*
X217358285Y-89845724D01*
X217434786Y-89743649D01*
X217443324Y-89728054D01*
X217488478Y-89607606D01*
X217492105Y-89592351D01*
X217497631Y-89541486D01*
X217498000Y-89534672D01*
X217498000Y-87512115D01*
X217493525Y-87496876D01*
X217492135Y-87495671D01*
X217484452Y-87494000D01*
X215012115Y-87494000D01*
X214996876Y-87498475D01*
X214995671Y-87499865D01*
X214994000Y-87507548D01*
X214994000Y-89979884D01*
X214486000Y-89979884D01*
X214486000Y-87512115D01*
X214481525Y-87496876D01*
X214480135Y-87495671D01*
X214472452Y-87494000D01*
X212000116Y-87494000D01*
X211984877Y-87498475D01*
X211983672Y-87499865D01*
X211982001Y-87507548D01*
X211982001Y-89534669D01*
X210185846Y-89534669D01*
X210235972Y-89289386D01*
X210262936Y-88957875D01*
X210263542Y-88900000D01*
X210262026Y-88874853D01*
X210243755Y-88571772D01*
X210243754Y-88571765D01*
X210243527Y-88567997D01*
X210183770Y-88240803D01*
X210085139Y-87923157D01*
X209949061Y-87619662D01*
X209864108Y-87478555D01*
X209779466Y-87337966D01*
X209779462Y-87337960D01*
X209777507Y-87334713D01*
X209775180Y-87331729D01*
X209775175Y-87331722D01*
X209575294Y-87075425D01*
X209575288Y-87075418D01*
X209572963Y-87072437D01*
X209468957Y-86967885D01*
X211982000Y-86967885D01*
X211986475Y-86983124D01*
X211987865Y-86984329D01*
X211995548Y-86986000D01*
X214467885Y-86986000D01*
X214483124Y-86981525D01*
X214484329Y-86980135D01*
X214486000Y-86972452D01*
X214486000Y-86967885D01*
X214994000Y-86967885D01*
X214998475Y-86983124D01*
X214999865Y-86984329D01*
X215007548Y-86986000D01*
X217479884Y-86986000D01*
X217495123Y-86981525D01*
X217496328Y-86980135D01*
X217497999Y-86972452D01*
X217497999Y-84945331D01*
X217497629Y-84938510D01*
X217492105Y-84887648D01*
X217488479Y-84872396D01*
X217443324Y-84751946D01*
X217434786Y-84736351D01*
X217358285Y-84634276D01*
X217345724Y-84621715D01*
X217243649Y-84545214D01*
X217228054Y-84536676D01*
X217107606Y-84491522D01*
X217092351Y-84487895D01*
X217041486Y-84482369D01*
X217034672Y-84482000D01*
X215012115Y-84482000D01*
X214996876Y-84486475D01*
X214995671Y-84487865D01*
X214994000Y-84495548D01*
X214994000Y-86967885D01*
X214486000Y-86967885D01*
X214486000Y-84500116D01*
X214481525Y-84484877D01*
X214480135Y-84483672D01*
X214472452Y-84482001D01*
X212445331Y-84482001D01*
X212438510Y-84482371D01*
X212387648Y-84487895D01*
X212372396Y-84491521D01*
X212251946Y-84536676D01*
X212236351Y-84545214D01*
X212134276Y-84621715D01*
X212121715Y-84634276D01*
X212045214Y-84736351D01*
X212036676Y-84751946D01*
X211991522Y-84872394D01*
X211987895Y-84887649D01*
X211982369Y-84938514D01*
X211982000Y-84945328D01*
X211982000Y-86967885D01*
X209468957Y-86967885D01*
X209338392Y-86836634D01*
X209077191Y-86630720D01*
X208793144Y-86457677D01*
X208672046Y-86402617D01*
X208493817Y-86321580D01*
X208493809Y-86321577D01*
X208490365Y-86320011D01*
X208173240Y-86219718D01*
X207950896Y-86177906D01*
X207850087Y-86158949D01*
X207850085Y-86158949D01*
X207846364Y-86158249D01*
X207514470Y-86136496D01*
X207510690Y-86136704D01*
X207510689Y-86136704D01*
X207412918Y-86142085D01*
X207182366Y-86154773D01*
X207178639Y-86155434D01*
X207178635Y-86155434D01*
X206919510Y-86201358D01*
X206854864Y-86212815D01*
X206851239Y-86213920D01*
X206851234Y-86213921D01*
X206643683Y-86277178D01*
X206536707Y-86309782D01*
X206533243Y-86311313D01*
X206533236Y-86311316D01*
X206346051Y-86394070D01*
X206232503Y-86444269D01*
X206229249Y-86446205D01*
X206229243Y-86446208D01*
X205949918Y-86612389D01*
X205946659Y-86614328D01*
X205683316Y-86817496D01*
X205446288Y-87050829D01*
X205239009Y-87310949D01*
X205064481Y-87594086D01*
X204925232Y-87896140D01*
X204924073Y-87899740D01*
X204924070Y-87899747D01*
X204915368Y-87926771D01*
X204823280Y-88212735D01*
X204760100Y-88539285D01*
X204759833Y-88543061D01*
X204759832Y-88543066D01*
X204758067Y-88567997D01*
X204736610Y-88871061D01*
X198624843Y-88871061D01*
X202078685Y-85417219D01*
X202140997Y-85383193D01*
X202211812Y-85388258D01*
X202234456Y-85399401D01*
X202281352Y-85428648D01*
X202582672Y-85569476D01*
X202586281Y-85570659D01*
X202879749Y-85666863D01*
X202898729Y-85673085D01*
X203224944Y-85737973D01*
X203228716Y-85738260D01*
X203228724Y-85738261D01*
X203552815Y-85762914D01*
X203552820Y-85762914D01*
X203556592Y-85763201D01*
X203888869Y-85748403D01*
X203893401Y-85747649D01*
X204213220Y-85694417D01*
X204213225Y-85694416D01*
X204216961Y-85693794D01*
X204536116Y-85600164D01*
X204539583Y-85598674D01*
X204539587Y-85598673D01*
X204838228Y-85470366D01*
X204838230Y-85470365D01*
X204841712Y-85468869D01*
X205129321Y-85301813D01*
X205132343Y-85299532D01*
X205132347Y-85299529D01*
X205391753Y-85103697D01*
X205391754Y-85103696D01*
X205394777Y-85101414D01*
X205563763Y-84938510D01*
X205631508Y-84873204D01*
X205631509Y-84873203D01*
X205634235Y-84870575D01*
X205844227Y-84612641D01*
X205955789Y-84435826D01*
X206019683Y-84334560D01*
X206019685Y-84334557D01*
X206021710Y-84331347D01*
X206164114Y-84030767D01*
X206269377Y-83715257D01*
X206335972Y-83389386D01*
X206362936Y-83057875D01*
X206363542Y-83000000D01*
X206362026Y-82974853D01*
X206343755Y-82671772D01*
X206343754Y-82671765D01*
X206343527Y-82667997D01*
X206306811Y-82466962D01*
X206284451Y-82344530D01*
X206284450Y-82344525D01*
X206283770Y-82340803D01*
X206272256Y-82303719D01*
X206191611Y-82044002D01*
X206185139Y-82023157D01*
X206049061Y-81719662D01*
X205941709Y-81541352D01*
X205879466Y-81437966D01*
X205879462Y-81437960D01*
X205877507Y-81434713D01*
X205875180Y-81431729D01*
X205875175Y-81431722D01*
X205675294Y-81175425D01*
X205675288Y-81175418D01*
X205672963Y-81172437D01*
X205438392Y-80936634D01*
X205177191Y-80730720D01*
X204893144Y-80557677D01*
X204772046Y-80502617D01*
X204593817Y-80421580D01*
X204593809Y-80421577D01*
X204590365Y-80420011D01*
X204273240Y-80319718D01*
X204050896Y-80277906D01*
X203950087Y-80258949D01*
X203950085Y-80258949D01*
X203946364Y-80258249D01*
X203614470Y-80236496D01*
X203610690Y-80236704D01*
X203610689Y-80236704D01*
X203512918Y-80242085D01*
X203282366Y-80254773D01*
X203278639Y-80255434D01*
X203278635Y-80255434D01*
X203030191Y-80299465D01*
X202954864Y-80312815D01*
X202951239Y-80313920D01*
X202951234Y-80313921D01*
X202743683Y-80377178D01*
X202636707Y-80409782D01*
X202633243Y-80411313D01*
X202633236Y-80411316D01*
X202446051Y-80494070D01*
X202332503Y-80544269D01*
X202329249Y-80546205D01*
X202329243Y-80546208D01*
X202051323Y-80711553D01*
X202046659Y-80714328D01*
X201783316Y-80917496D01*
X201546288Y-81150829D01*
X201339009Y-81410949D01*
X201164481Y-81694086D01*
X201025232Y-81996140D01*
X201024073Y-81999740D01*
X201024070Y-81999747D01*
X200926797Y-82301813D01*
X200923280Y-82312735D01*
X200922561Y-82316451D01*
X200922559Y-82316459D01*
X200860819Y-82635567D01*
X200860100Y-82639285D01*
X200859833Y-82643061D01*
X200859832Y-82643066D01*
X200836878Y-82967272D01*
X200836610Y-82971061D01*
X200853147Y-83303255D01*
X200853788Y-83306986D01*
X200853789Y-83306994D01*
X200887347Y-83502284D01*
X200909474Y-83631057D01*
X201004774Y-83949718D01*
X201006287Y-83953189D01*
X201006289Y-83953195D01*
X201097458Y-84162370D01*
X201137666Y-84254622D01*
X201139589Y-84257894D01*
X201139591Y-84257897D01*
X201203708Y-84366964D01*
X201220987Y-84435826D01*
X201198294Y-84503098D01*
X201184182Y-84519914D01*
X181214500Y-104489595D01*
X181152188Y-104523621D01*
X181125405Y-104526500D01*
X173751805Y-104526500D01*
X173683684Y-104506498D01*
X173646013Y-104468940D01*
X173557822Y-104332617D01*
X173557820Y-104332614D01*
X173555014Y-104328277D01*
X173404670Y-104163051D01*
X173400619Y-104159852D01*
X173400615Y-104159848D01*
X173233414Y-104027800D01*
X173233410Y-104027798D01*
X173229359Y-104024598D01*
X173188053Y-104001796D01*
X173138084Y-103951364D01*
X173123312Y-103881921D01*
X173148428Y-103815516D01*
X173175780Y-103788909D01*
X173219603Y-103757650D01*
X173354860Y-103661173D01*
X173513096Y-103503489D01*
X173572594Y-103420689D01*
X173640435Y-103326277D01*
X173643453Y-103322077D01*
X173704390Y-103198781D01*
X173740136Y-103126453D01*
X173740137Y-103126451D01*
X173742430Y-103121811D01*
X173788379Y-102970575D01*
X173805865Y-102913023D01*
X173805865Y-102913021D01*
X173807370Y-102908069D01*
X173836529Y-102686590D01*
X173837561Y-102644367D01*
X173838074Y-102623365D01*
X173838074Y-102623361D01*
X173838156Y-102620000D01*
X173819852Y-102397361D01*
X173791821Y-102285765D01*
X173794625Y-102214823D01*
X173824930Y-102165974D01*
X178992253Y-96998652D01*
X179000539Y-96991112D01*
X179007018Y-96987000D01*
X179053644Y-96937348D01*
X179056398Y-96934507D01*
X179076135Y-96914770D01*
X179078615Y-96911573D01*
X179086320Y-96902551D01*
X179116586Y-96870321D01*
X179120405Y-96863375D01*
X179120407Y-96863372D01*
X179126348Y-96852566D01*
X179137199Y-96836047D01*
X179144758Y-96826301D01*
X179149614Y-96820041D01*
X179152759Y-96812772D01*
X179152762Y-96812768D01*
X179167174Y-96779463D01*
X179172391Y-96768813D01*
X179193695Y-96730060D01*
X179198733Y-96710437D01*
X179205137Y-96691734D01*
X179210033Y-96680420D01*
X179210033Y-96680419D01*
X179213181Y-96673145D01*
X179214420Y-96665322D01*
X179214423Y-96665312D01*
X179220099Y-96629476D01*
X179222505Y-96617856D01*
X179231528Y-96582711D01*
X179231528Y-96582710D01*
X179233500Y-96575030D01*
X179233500Y-96554776D01*
X179235051Y-96535065D01*
X179236980Y-96522886D01*
X179238220Y-96515057D01*
X179234059Y-96471038D01*
X179233500Y-96459181D01*
X179233500Y-88871061D01*
X179736610Y-88871061D01*
X179753147Y-89203255D01*
X179753788Y-89206986D01*
X179753789Y-89206994D01*
X179768586Y-89293103D01*
X179809474Y-89531057D01*
X179810562Y-89534696D01*
X179810563Y-89534699D01*
X179903580Y-89845724D01*
X179904774Y-89849718D01*
X179906287Y-89853189D01*
X179906289Y-89853195D01*
X179997458Y-90062370D01*
X180037666Y-90154622D01*
X180206226Y-90441352D01*
X180208527Y-90444367D01*
X180405712Y-90702742D01*
X180405717Y-90702748D01*
X180408012Y-90705755D01*
X180640102Y-90944002D01*
X180899132Y-91152640D01*
X181181352Y-91328648D01*
X181482672Y-91469476D01*
X181798729Y-91573085D01*
X182124944Y-91637973D01*
X182128716Y-91638260D01*
X182128724Y-91638261D01*
X182452815Y-91662914D01*
X182452820Y-91662914D01*
X182456592Y-91663201D01*
X182788869Y-91648403D01*
X182793401Y-91647649D01*
X183113220Y-91594417D01*
X183113225Y-91594416D01*
X183116961Y-91593794D01*
X183436116Y-91500164D01*
X183439583Y-91498674D01*
X183439587Y-91498673D01*
X183738228Y-91370366D01*
X183738230Y-91370365D01*
X183741712Y-91368869D01*
X184029321Y-91201813D01*
X184032343Y-91199532D01*
X184032347Y-91199529D01*
X184291753Y-91003697D01*
X184291754Y-91003696D01*
X184294777Y-91001414D01*
X184534235Y-90770575D01*
X184744227Y-90512641D01*
X184921710Y-90231347D01*
X185064114Y-89930767D01*
X185169377Y-89615257D01*
X185185846Y-89534669D01*
X186982001Y-89534669D01*
X186982371Y-89541490D01*
X186987895Y-89592352D01*
X186991521Y-89607604D01*
X187036676Y-89728054D01*
X187045214Y-89743649D01*
X187121715Y-89845724D01*
X187134276Y-89858285D01*
X187236351Y-89934786D01*
X187251946Y-89943324D01*
X187372394Y-89988478D01*
X187387649Y-89992105D01*
X187438514Y-89997631D01*
X187445328Y-89998000D01*
X189467885Y-89998000D01*
X189483124Y-89993525D01*
X189484329Y-89992135D01*
X189486000Y-89984452D01*
X189486000Y-89979884D01*
X189994000Y-89979884D01*
X189998475Y-89995123D01*
X189999865Y-89996328D01*
X190007548Y-89997999D01*
X192034669Y-89997999D01*
X192041490Y-89997629D01*
X192092352Y-89992105D01*
X192107604Y-89988479D01*
X192228054Y-89943324D01*
X192243649Y-89934786D01*
X192345724Y-89858285D01*
X192358285Y-89845724D01*
X192434786Y-89743649D01*
X192443324Y-89728054D01*
X192488478Y-89607606D01*
X192492105Y-89592351D01*
X192497631Y-89541486D01*
X192498000Y-89534672D01*
X192498000Y-87512115D01*
X192493525Y-87496876D01*
X192492135Y-87495671D01*
X192484452Y-87494000D01*
X190012115Y-87494000D01*
X189996876Y-87498475D01*
X189995671Y-87499865D01*
X189994000Y-87507548D01*
X189994000Y-89979884D01*
X189486000Y-89979884D01*
X189486000Y-87512115D01*
X189481525Y-87496876D01*
X189480135Y-87495671D01*
X189472452Y-87494000D01*
X187000116Y-87494000D01*
X186984877Y-87498475D01*
X186983672Y-87499865D01*
X186982001Y-87507548D01*
X186982001Y-89534669D01*
X185185846Y-89534669D01*
X185235972Y-89289386D01*
X185262936Y-88957875D01*
X185263542Y-88900000D01*
X185262026Y-88874853D01*
X185243755Y-88571772D01*
X185243754Y-88571765D01*
X185243527Y-88567997D01*
X185183770Y-88240803D01*
X185085139Y-87923157D01*
X184949061Y-87619662D01*
X184864108Y-87478555D01*
X184779466Y-87337966D01*
X184779462Y-87337960D01*
X184777507Y-87334713D01*
X184775180Y-87331729D01*
X184775175Y-87331722D01*
X184575294Y-87075425D01*
X184575288Y-87075418D01*
X184572963Y-87072437D01*
X184468957Y-86967885D01*
X186982000Y-86967885D01*
X186986475Y-86983124D01*
X186987865Y-86984329D01*
X186995548Y-86986000D01*
X189467885Y-86986000D01*
X189483124Y-86981525D01*
X189484329Y-86980135D01*
X189486000Y-86972452D01*
X189486000Y-86967885D01*
X189994000Y-86967885D01*
X189998475Y-86983124D01*
X189999865Y-86984329D01*
X190007548Y-86986000D01*
X192479884Y-86986000D01*
X192495123Y-86981525D01*
X192496328Y-86980135D01*
X192497999Y-86972452D01*
X192497999Y-84945331D01*
X192497629Y-84938510D01*
X192492105Y-84887648D01*
X192488479Y-84872396D01*
X192443324Y-84751946D01*
X192434786Y-84736351D01*
X192358285Y-84634276D01*
X192345724Y-84621715D01*
X192243649Y-84545214D01*
X192228054Y-84536676D01*
X192107606Y-84491522D01*
X192092351Y-84487895D01*
X192041486Y-84482369D01*
X192034672Y-84482000D01*
X190012115Y-84482000D01*
X189996876Y-84486475D01*
X189995671Y-84487865D01*
X189994000Y-84495548D01*
X189994000Y-86967885D01*
X189486000Y-86967885D01*
X189486000Y-84500116D01*
X189481525Y-84484877D01*
X189480135Y-84483672D01*
X189472452Y-84482001D01*
X187445331Y-84482001D01*
X187438510Y-84482371D01*
X187387648Y-84487895D01*
X187372396Y-84491521D01*
X187251946Y-84536676D01*
X187236351Y-84545214D01*
X187134276Y-84621715D01*
X187121715Y-84634276D01*
X187045214Y-84736351D01*
X187036676Y-84751946D01*
X186991522Y-84872394D01*
X186987895Y-84887649D01*
X186982369Y-84938514D01*
X186982000Y-84945328D01*
X186982000Y-86967885D01*
X184468957Y-86967885D01*
X184338392Y-86836634D01*
X184077191Y-86630720D01*
X183793144Y-86457677D01*
X183672046Y-86402617D01*
X183493817Y-86321580D01*
X183493809Y-86321577D01*
X183490365Y-86320011D01*
X183173240Y-86219718D01*
X182950896Y-86177906D01*
X182850087Y-86158949D01*
X182850085Y-86158949D01*
X182846364Y-86158249D01*
X182514470Y-86136496D01*
X182510690Y-86136704D01*
X182510689Y-86136704D01*
X182412918Y-86142085D01*
X182182366Y-86154773D01*
X182178639Y-86155434D01*
X182178635Y-86155434D01*
X181919510Y-86201358D01*
X181854864Y-86212815D01*
X181851239Y-86213920D01*
X181851234Y-86213921D01*
X181643683Y-86277178D01*
X181536707Y-86309782D01*
X181533243Y-86311313D01*
X181533236Y-86311316D01*
X181346051Y-86394070D01*
X181232503Y-86444269D01*
X181229249Y-86446205D01*
X181229243Y-86446208D01*
X180949918Y-86612389D01*
X180946659Y-86614328D01*
X180683316Y-86817496D01*
X180446288Y-87050829D01*
X180239009Y-87310949D01*
X180064481Y-87594086D01*
X179925232Y-87896140D01*
X179924073Y-87899740D01*
X179924070Y-87899747D01*
X179915368Y-87926771D01*
X179823280Y-88212735D01*
X179760100Y-88539285D01*
X179759833Y-88543061D01*
X179759832Y-88543066D01*
X179758067Y-88567997D01*
X179736610Y-88871061D01*
X179233500Y-88871061D01*
X179233500Y-85783288D01*
X179253502Y-85715167D01*
X179307158Y-85668674D01*
X179324031Y-85662383D01*
X179532488Y-85601229D01*
X179532498Y-85601225D01*
X179536116Y-85600164D01*
X179539583Y-85598674D01*
X179539587Y-85598673D01*
X179838228Y-85470366D01*
X179838230Y-85470365D01*
X179841712Y-85468869D01*
X180129321Y-85301813D01*
X180132343Y-85299532D01*
X180132347Y-85299529D01*
X180391753Y-85103697D01*
X180391754Y-85103696D01*
X180394777Y-85101414D01*
X180563763Y-84938510D01*
X180631508Y-84873204D01*
X180631509Y-84873203D01*
X180634235Y-84870575D01*
X180844227Y-84612641D01*
X180955789Y-84435826D01*
X181019683Y-84334560D01*
X181019685Y-84334557D01*
X181021710Y-84331347D01*
X181164114Y-84030767D01*
X181269377Y-83715257D01*
X181335972Y-83389386D01*
X181362936Y-83057875D01*
X181363542Y-83000000D01*
X181362026Y-82974853D01*
X181343755Y-82671772D01*
X181343754Y-82671765D01*
X181343527Y-82667997D01*
X181306811Y-82466962D01*
X181284451Y-82344530D01*
X181284450Y-82344525D01*
X181283770Y-82340803D01*
X181272256Y-82303719D01*
X181191611Y-82044002D01*
X181185139Y-82023157D01*
X181049061Y-81719662D01*
X180941709Y-81541352D01*
X180879466Y-81437966D01*
X180879462Y-81437960D01*
X180877507Y-81434713D01*
X180875180Y-81431729D01*
X180875175Y-81431722D01*
X180675294Y-81175425D01*
X180675288Y-81175418D01*
X180672963Y-81172437D01*
X180438392Y-80936634D01*
X180177191Y-80730720D01*
X179893144Y-80557677D01*
X179772046Y-80502617D01*
X179593817Y-80421580D01*
X179593809Y-80421577D01*
X179590365Y-80420011D01*
X179273240Y-80319718D01*
X179050896Y-80277906D01*
X178950087Y-80258949D01*
X178950085Y-80258949D01*
X178946364Y-80258249D01*
X178614470Y-80236496D01*
X178610690Y-80236704D01*
X178610689Y-80236704D01*
X178512918Y-80242085D01*
X178282366Y-80254773D01*
X178278639Y-80255434D01*
X178278635Y-80255434D01*
X178030191Y-80299465D01*
X177954864Y-80312815D01*
X177951239Y-80313920D01*
X177951234Y-80313921D01*
X177743683Y-80377178D01*
X177636707Y-80409782D01*
X177633243Y-80411313D01*
X177633236Y-80411316D01*
X177446051Y-80494070D01*
X177332503Y-80544269D01*
X177329249Y-80546205D01*
X177329243Y-80546208D01*
X177051323Y-80711553D01*
X177046659Y-80714328D01*
X176783316Y-80917496D01*
X176546288Y-81150829D01*
X176339009Y-81410949D01*
X176164481Y-81694086D01*
X176025232Y-81996140D01*
X176024073Y-81999740D01*
X176024070Y-81999747D01*
X175926797Y-82301813D01*
X175923280Y-82312735D01*
X175922561Y-82316451D01*
X175922559Y-82316459D01*
X175883206Y-82519860D01*
X175850628Y-82582941D01*
X175789118Y-82618396D01*
X175718204Y-82614967D01*
X175660402Y-82573743D01*
X175634062Y-82507813D01*
X175633500Y-82495926D01*
X175633500Y-79971061D01*
X188636610Y-79971061D01*
X188636799Y-79974853D01*
X188650907Y-80258249D01*
X188653147Y-80303255D01*
X188653788Y-80306986D01*
X188653789Y-80306994D01*
X188696865Y-80557677D01*
X188709474Y-80631057D01*
X188710562Y-80634696D01*
X188710563Y-80634699D01*
X188801664Y-80939318D01*
X188804774Y-80949718D01*
X188806287Y-80953189D01*
X188806289Y-80953195D01*
X188891267Y-81148166D01*
X188937666Y-81254622D01*
X189106226Y-81541352D01*
X189108527Y-81544367D01*
X189305712Y-81802742D01*
X189305717Y-81802748D01*
X189308012Y-81805755D01*
X189310656Y-81808469D01*
X189519796Y-82023157D01*
X189540102Y-82044002D01*
X189799132Y-82252640D01*
X190081352Y-82428648D01*
X190382672Y-82569476D01*
X190423747Y-82582941D01*
X190694724Y-82671772D01*
X190698729Y-82673085D01*
X191024944Y-82737973D01*
X191028716Y-82738260D01*
X191028724Y-82738261D01*
X191352815Y-82762914D01*
X191352820Y-82762914D01*
X191356592Y-82763201D01*
X191688869Y-82748403D01*
X191693401Y-82747649D01*
X192013220Y-82694417D01*
X192013225Y-82694416D01*
X192016961Y-82693794D01*
X192336116Y-82600164D01*
X192339583Y-82598674D01*
X192339587Y-82598673D01*
X192638228Y-82470366D01*
X192638230Y-82470365D01*
X192641712Y-82468869D01*
X192929321Y-82301813D01*
X192932343Y-82299532D01*
X192932347Y-82299529D01*
X193191753Y-82103697D01*
X193191754Y-82103696D01*
X193194777Y-82101414D01*
X193434235Y-81870575D01*
X193644227Y-81612641D01*
X193821710Y-81331347D01*
X193964114Y-81030767D01*
X193995520Y-80936634D01*
X194068180Y-80718844D01*
X194069377Y-80715257D01*
X194135972Y-80389386D01*
X194162936Y-80057875D01*
X194163542Y-80000000D01*
X194162026Y-79974853D01*
X194161797Y-79971061D01*
X213636610Y-79971061D01*
X213636799Y-79974853D01*
X213650907Y-80258249D01*
X213653147Y-80303255D01*
X213653788Y-80306986D01*
X213653789Y-80306994D01*
X213696865Y-80557677D01*
X213709474Y-80631057D01*
X213710562Y-80634696D01*
X213710563Y-80634699D01*
X213801664Y-80939318D01*
X213804774Y-80949718D01*
X213806287Y-80953189D01*
X213806289Y-80953195D01*
X213891267Y-81148166D01*
X213937666Y-81254622D01*
X214106226Y-81541352D01*
X214108527Y-81544367D01*
X214305712Y-81802742D01*
X214305717Y-81802748D01*
X214308012Y-81805755D01*
X214310656Y-81808469D01*
X214519796Y-82023157D01*
X214540102Y-82044002D01*
X214799132Y-82252640D01*
X215081352Y-82428648D01*
X215382672Y-82569476D01*
X215423747Y-82582941D01*
X215694724Y-82671772D01*
X215698729Y-82673085D01*
X216024944Y-82737973D01*
X216028716Y-82738260D01*
X216028724Y-82738261D01*
X216352815Y-82762914D01*
X216352820Y-82762914D01*
X216356592Y-82763201D01*
X216688869Y-82748403D01*
X216693401Y-82747649D01*
X217013220Y-82694417D01*
X217013225Y-82694416D01*
X217016961Y-82693794D01*
X217336116Y-82600164D01*
X217339583Y-82598674D01*
X217339587Y-82598673D01*
X217638228Y-82470366D01*
X217638230Y-82470365D01*
X217641712Y-82468869D01*
X217929321Y-82301813D01*
X217932343Y-82299532D01*
X217932347Y-82299529D01*
X218191753Y-82103697D01*
X218191754Y-82103696D01*
X218194777Y-82101414D01*
X218434235Y-81870575D01*
X218644227Y-81612641D01*
X218821710Y-81331347D01*
X218964114Y-81030767D01*
X218995520Y-80936634D01*
X219068180Y-80718844D01*
X219069377Y-80715257D01*
X219135972Y-80389386D01*
X219162936Y-80057875D01*
X219163542Y-80000000D01*
X219162026Y-79974853D01*
X219143755Y-79671772D01*
X219143754Y-79671765D01*
X219143527Y-79667997D01*
X219083770Y-79340803D01*
X218985139Y-79023157D01*
X218849061Y-78719662D01*
X218757128Y-78566962D01*
X218679466Y-78437966D01*
X218679462Y-78437960D01*
X218677507Y-78434713D01*
X218675180Y-78431729D01*
X218675175Y-78431722D01*
X218475294Y-78175425D01*
X218475288Y-78175418D01*
X218472963Y-78172437D01*
X218238392Y-77936634D01*
X217977191Y-77730720D01*
X217693144Y-77557677D01*
X217572046Y-77502617D01*
X217393817Y-77421580D01*
X217393809Y-77421577D01*
X217390365Y-77420011D01*
X217073240Y-77319718D01*
X216850896Y-77277906D01*
X216750087Y-77258949D01*
X216750085Y-77258949D01*
X216746364Y-77258249D01*
X216414470Y-77236496D01*
X216410690Y-77236704D01*
X216410689Y-77236704D01*
X216312918Y-77242085D01*
X216082366Y-77254773D01*
X216078639Y-77255434D01*
X216078635Y-77255434D01*
X215819510Y-77301358D01*
X215754864Y-77312815D01*
X215751239Y-77313920D01*
X215751234Y-77313921D01*
X215606946Y-77357897D01*
X215436707Y-77409782D01*
X215433243Y-77411313D01*
X215433236Y-77411316D01*
X215246051Y-77494070D01*
X215132503Y-77544269D01*
X215129249Y-77546205D01*
X215129243Y-77546208D01*
X214964253Y-77644367D01*
X214846659Y-77714328D01*
X214583316Y-77917496D01*
X214346288Y-78150829D01*
X214139009Y-78410949D01*
X213964481Y-78694086D01*
X213825232Y-78996140D01*
X213824073Y-78999740D01*
X213824070Y-78999747D01*
X213815368Y-79026771D01*
X213723280Y-79312735D01*
X213660100Y-79639285D01*
X213659833Y-79643061D01*
X213659832Y-79643066D01*
X213658067Y-79667997D01*
X213636610Y-79971061D01*
X194161797Y-79971061D01*
X194143755Y-79671772D01*
X194143754Y-79671765D01*
X194143527Y-79667997D01*
X194083770Y-79340803D01*
X193985139Y-79023157D01*
X193849061Y-78719662D01*
X193757128Y-78566962D01*
X193679466Y-78437966D01*
X193679462Y-78437960D01*
X193677507Y-78434713D01*
X193675180Y-78431729D01*
X193675175Y-78431722D01*
X193475294Y-78175425D01*
X193475288Y-78175418D01*
X193472963Y-78172437D01*
X193238392Y-77936634D01*
X192977191Y-77730720D01*
X192693144Y-77557677D01*
X192572046Y-77502617D01*
X192393817Y-77421580D01*
X192393809Y-77421577D01*
X192390365Y-77420011D01*
X192073240Y-77319718D01*
X191850896Y-77277906D01*
X191750087Y-77258949D01*
X191750085Y-77258949D01*
X191746364Y-77258249D01*
X191414470Y-77236496D01*
X191410690Y-77236704D01*
X191410689Y-77236704D01*
X191312918Y-77242085D01*
X191082366Y-77254773D01*
X191078639Y-77255434D01*
X191078635Y-77255434D01*
X190819510Y-77301358D01*
X190754864Y-77312815D01*
X190751239Y-77313920D01*
X190751234Y-77313921D01*
X190606946Y-77357897D01*
X190436707Y-77409782D01*
X190433243Y-77411313D01*
X190433236Y-77411316D01*
X190246051Y-77494070D01*
X190132503Y-77544269D01*
X190129249Y-77546205D01*
X190129243Y-77546208D01*
X189964253Y-77644367D01*
X189846659Y-77714328D01*
X189583316Y-77917496D01*
X189346288Y-78150829D01*
X189139009Y-78410949D01*
X188964481Y-78694086D01*
X188825232Y-78996140D01*
X188824073Y-78999740D01*
X188824070Y-78999747D01*
X188815368Y-79026771D01*
X188723280Y-79312735D01*
X188660100Y-79639285D01*
X188659833Y-79643061D01*
X188659832Y-79643066D01*
X188658067Y-79667997D01*
X188636610Y-79971061D01*
X175633500Y-79971061D01*
X175633500Y-76071061D01*
X182736610Y-76071061D01*
X182753147Y-76403255D01*
X182753788Y-76406986D01*
X182753789Y-76406994D01*
X182768586Y-76493103D01*
X182809474Y-76731057D01*
X182904774Y-77049718D01*
X182906287Y-77053189D01*
X182906289Y-77053195D01*
X182986181Y-77236496D01*
X183037666Y-77354622D01*
X183039589Y-77357893D01*
X183039591Y-77357897D01*
X183080749Y-77427909D01*
X183206226Y-77641352D01*
X183208527Y-77644367D01*
X183405712Y-77902742D01*
X183405717Y-77902748D01*
X183408012Y-77905755D01*
X183640102Y-78144002D01*
X183899132Y-78352640D01*
X184181352Y-78528648D01*
X184482672Y-78669476D01*
X184798729Y-78773085D01*
X185124944Y-78837973D01*
X185128716Y-78838260D01*
X185128724Y-78838261D01*
X185452815Y-78862914D01*
X185452820Y-78862914D01*
X185456592Y-78863201D01*
X185788869Y-78848403D01*
X185793401Y-78847649D01*
X186113220Y-78794417D01*
X186113225Y-78794416D01*
X186116961Y-78793794D01*
X186436116Y-78700164D01*
X186439583Y-78698674D01*
X186439587Y-78698673D01*
X186738228Y-78570366D01*
X186738230Y-78570365D01*
X186741712Y-78568869D01*
X187029321Y-78401813D01*
X187032343Y-78399532D01*
X187032347Y-78399529D01*
X187291753Y-78203697D01*
X187291754Y-78203696D01*
X187294777Y-78201414D01*
X187534235Y-77970575D01*
X187744227Y-77712641D01*
X187921710Y-77431347D01*
X188064114Y-77130767D01*
X188169377Y-76815257D01*
X188235972Y-76489386D01*
X188262936Y-76157875D01*
X188263542Y-76100000D01*
X188262026Y-76074853D01*
X188261797Y-76071061D01*
X207736610Y-76071061D01*
X207753147Y-76403255D01*
X207753788Y-76406986D01*
X207753789Y-76406994D01*
X207768586Y-76493103D01*
X207809474Y-76731057D01*
X207904774Y-77049718D01*
X207906287Y-77053189D01*
X207906289Y-77053195D01*
X207986181Y-77236496D01*
X208037666Y-77354622D01*
X208039589Y-77357893D01*
X208039591Y-77357897D01*
X208080749Y-77427909D01*
X208206226Y-77641352D01*
X208208527Y-77644367D01*
X208405712Y-77902742D01*
X208405717Y-77902748D01*
X208408012Y-77905755D01*
X208640102Y-78144002D01*
X208899132Y-78352640D01*
X209181352Y-78528648D01*
X209482672Y-78669476D01*
X209798729Y-78773085D01*
X210124944Y-78837973D01*
X210128716Y-78838260D01*
X210128724Y-78838261D01*
X210452815Y-78862914D01*
X210452820Y-78862914D01*
X210456592Y-78863201D01*
X210788869Y-78848403D01*
X210793401Y-78847649D01*
X211113220Y-78794417D01*
X211113225Y-78794416D01*
X211116961Y-78793794D01*
X211436116Y-78700164D01*
X211439583Y-78698674D01*
X211439587Y-78698673D01*
X211738228Y-78570366D01*
X211738230Y-78570365D01*
X211741712Y-78568869D01*
X212029321Y-78401813D01*
X212032343Y-78399532D01*
X212032347Y-78399529D01*
X212291753Y-78203697D01*
X212291754Y-78203696D01*
X212294777Y-78201414D01*
X212534235Y-77970575D01*
X212744227Y-77712641D01*
X212921710Y-77431347D01*
X213064114Y-77130767D01*
X213169377Y-76815257D01*
X213235972Y-76489386D01*
X213262936Y-76157875D01*
X213263542Y-76100000D01*
X213262026Y-76074853D01*
X213243755Y-75771772D01*
X213243754Y-75771765D01*
X213243527Y-75767997D01*
X213183770Y-75440803D01*
X213085139Y-75123157D01*
X212949061Y-74819662D01*
X212864108Y-74678555D01*
X212779466Y-74537966D01*
X212779462Y-74537960D01*
X212777507Y-74534713D01*
X212775180Y-74531729D01*
X212775175Y-74531722D01*
X212575294Y-74275425D01*
X212575288Y-74275418D01*
X212572963Y-74272437D01*
X212338392Y-74036634D01*
X212077191Y-73830720D01*
X211793144Y-73657677D01*
X211629823Y-73583419D01*
X211493817Y-73521580D01*
X211493809Y-73521577D01*
X211490365Y-73520011D01*
X211173240Y-73419718D01*
X210950896Y-73377906D01*
X210850087Y-73358949D01*
X210850085Y-73358949D01*
X210846364Y-73358249D01*
X210514470Y-73336496D01*
X210510690Y-73336704D01*
X210510689Y-73336704D01*
X210412918Y-73342085D01*
X210182366Y-73354773D01*
X210178639Y-73355434D01*
X210178635Y-73355434D01*
X209919510Y-73401358D01*
X209854864Y-73412815D01*
X209851239Y-73413920D01*
X209851234Y-73413921D01*
X209643683Y-73477178D01*
X209536707Y-73509782D01*
X209533243Y-73511313D01*
X209533236Y-73511316D01*
X209370286Y-73583356D01*
X209232503Y-73644269D01*
X209229249Y-73646205D01*
X209229243Y-73646208D01*
X208949918Y-73812389D01*
X208946659Y-73814328D01*
X208943658Y-73816643D01*
X208943654Y-73816646D01*
X208872697Y-73871389D01*
X208683316Y-74017496D01*
X208446288Y-74250829D01*
X208239009Y-74510949D01*
X208064481Y-74794086D01*
X207925232Y-75096140D01*
X207924073Y-75099740D01*
X207924070Y-75099747D01*
X207915368Y-75126771D01*
X207823280Y-75412735D01*
X207760100Y-75739285D01*
X207759833Y-75743061D01*
X207759832Y-75743066D01*
X207758067Y-75767997D01*
X207736610Y-76071061D01*
X188261797Y-76071061D01*
X188243755Y-75771772D01*
X188243754Y-75771765D01*
X188243527Y-75767997D01*
X188183770Y-75440803D01*
X188085139Y-75123157D01*
X187949061Y-74819662D01*
X187864108Y-74678555D01*
X187779466Y-74537966D01*
X187779462Y-74537960D01*
X187777507Y-74534713D01*
X187775180Y-74531729D01*
X187775175Y-74531722D01*
X187575294Y-74275425D01*
X187575288Y-74275418D01*
X187572963Y-74272437D01*
X187338392Y-74036634D01*
X187077191Y-73830720D01*
X186793144Y-73657677D01*
X186629823Y-73583419D01*
X186493817Y-73521580D01*
X186493809Y-73521577D01*
X186490365Y-73520011D01*
X186173240Y-73419718D01*
X185950896Y-73377906D01*
X185850087Y-73358949D01*
X185850085Y-73358949D01*
X185846364Y-73358249D01*
X185514470Y-73336496D01*
X185510690Y-73336704D01*
X185510689Y-73336704D01*
X185412918Y-73342085D01*
X185182366Y-73354773D01*
X185178639Y-73355434D01*
X185178635Y-73355434D01*
X184919510Y-73401358D01*
X184854864Y-73412815D01*
X184851239Y-73413920D01*
X184851234Y-73413921D01*
X184643683Y-73477178D01*
X184536707Y-73509782D01*
X184533243Y-73511313D01*
X184533236Y-73511316D01*
X184370286Y-73583356D01*
X184232503Y-73644269D01*
X184229249Y-73646205D01*
X184229243Y-73646208D01*
X183949918Y-73812389D01*
X183946659Y-73814328D01*
X183943658Y-73816643D01*
X183943654Y-73816646D01*
X183872697Y-73871389D01*
X183683316Y-74017496D01*
X183446288Y-74250829D01*
X183239009Y-74510949D01*
X183064481Y-74794086D01*
X182925232Y-75096140D01*
X182924073Y-75099740D01*
X182924070Y-75099747D01*
X182915368Y-75126771D01*
X182823280Y-75412735D01*
X182760100Y-75739285D01*
X182759833Y-75743061D01*
X182759832Y-75743066D01*
X182758067Y-75767997D01*
X182736610Y-76071061D01*
X175633500Y-76071061D01*
X175633500Y-74314594D01*
X175653502Y-74246473D01*
X175670405Y-74225499D01*
X186024844Y-63871061D01*
X204736610Y-63871061D01*
X204753147Y-64203255D01*
X204753788Y-64206986D01*
X204753789Y-64206994D01*
X204768586Y-64293103D01*
X204809474Y-64531057D01*
X204810562Y-64534696D01*
X204810563Y-64534699D01*
X204903580Y-64845724D01*
X204904774Y-64849718D01*
X204906287Y-64853189D01*
X204906289Y-64853195D01*
X204997458Y-65062370D01*
X205037666Y-65154622D01*
X205206226Y-65441352D01*
X205208527Y-65444367D01*
X205405712Y-65702742D01*
X205405717Y-65702748D01*
X205408012Y-65705755D01*
X205640102Y-65944002D01*
X205899132Y-66152640D01*
X206181352Y-66328648D01*
X206482672Y-66469476D01*
X206798729Y-66573085D01*
X207124944Y-66637973D01*
X207128716Y-66638260D01*
X207128724Y-66638261D01*
X207452815Y-66662914D01*
X207452820Y-66662914D01*
X207456592Y-66663201D01*
X207788869Y-66648403D01*
X207793401Y-66647649D01*
X208113220Y-66594417D01*
X208113225Y-66594416D01*
X208116961Y-66593794D01*
X208436116Y-66500164D01*
X208439583Y-66498674D01*
X208439587Y-66498673D01*
X208738228Y-66370366D01*
X208738230Y-66370365D01*
X208741712Y-66368869D01*
X209029321Y-66201813D01*
X209032343Y-66199532D01*
X209032347Y-66199529D01*
X209291753Y-66003697D01*
X209291754Y-66003696D01*
X209294777Y-66001414D01*
X209534235Y-65770575D01*
X209744227Y-65512641D01*
X209921710Y-65231347D01*
X210064114Y-64930767D01*
X210169377Y-64615257D01*
X210185846Y-64534669D01*
X211982001Y-64534669D01*
X211982371Y-64541490D01*
X211987895Y-64592352D01*
X211991521Y-64607604D01*
X212036676Y-64728054D01*
X212045214Y-64743649D01*
X212121715Y-64845724D01*
X212134276Y-64858285D01*
X212236351Y-64934786D01*
X212251946Y-64943324D01*
X212372394Y-64988478D01*
X212387649Y-64992105D01*
X212438514Y-64997631D01*
X212445328Y-64998000D01*
X214467885Y-64998000D01*
X214483124Y-64993525D01*
X214484329Y-64992135D01*
X214486000Y-64984452D01*
X214486000Y-64979884D01*
X214994000Y-64979884D01*
X214998475Y-64995123D01*
X214999865Y-64996328D01*
X215007548Y-64997999D01*
X217034669Y-64997999D01*
X217041490Y-64997629D01*
X217092352Y-64992105D01*
X217107604Y-64988479D01*
X217228054Y-64943324D01*
X217243649Y-64934786D01*
X217345724Y-64858285D01*
X217358285Y-64845724D01*
X217434786Y-64743649D01*
X217443324Y-64728054D01*
X217488478Y-64607606D01*
X217492105Y-64592351D01*
X217497631Y-64541486D01*
X217498000Y-64534672D01*
X217498000Y-62512115D01*
X217493525Y-62496876D01*
X217492135Y-62495671D01*
X217484452Y-62494000D01*
X215012115Y-62494000D01*
X214996876Y-62498475D01*
X214995671Y-62499865D01*
X214994000Y-62507548D01*
X214994000Y-64979884D01*
X214486000Y-64979884D01*
X214486000Y-62512115D01*
X214481525Y-62496876D01*
X214480135Y-62495671D01*
X214472452Y-62494000D01*
X212000116Y-62494000D01*
X211984877Y-62498475D01*
X211983672Y-62499865D01*
X211982001Y-62507548D01*
X211982001Y-64534669D01*
X210185846Y-64534669D01*
X210235972Y-64289386D01*
X210262936Y-63957875D01*
X210263542Y-63900000D01*
X210262026Y-63874853D01*
X210243755Y-63571772D01*
X210243754Y-63571765D01*
X210243527Y-63567997D01*
X210183770Y-63240803D01*
X210085139Y-62923157D01*
X209949061Y-62619662D01*
X209864108Y-62478555D01*
X209779466Y-62337966D01*
X209779462Y-62337960D01*
X209777507Y-62334713D01*
X209775180Y-62331729D01*
X209775175Y-62331722D01*
X209575294Y-62075425D01*
X209575288Y-62075418D01*
X209572963Y-62072437D01*
X209468957Y-61967885D01*
X211982000Y-61967885D01*
X211986475Y-61983124D01*
X211987865Y-61984329D01*
X211995548Y-61986000D01*
X214467885Y-61986000D01*
X214483124Y-61981525D01*
X214484329Y-61980135D01*
X214486000Y-61972452D01*
X214486000Y-61967885D01*
X214994000Y-61967885D01*
X214998475Y-61983124D01*
X214999865Y-61984329D01*
X215007548Y-61986000D01*
X217479884Y-61986000D01*
X217495123Y-61981525D01*
X217496328Y-61980135D01*
X217497999Y-61972452D01*
X217497999Y-59945331D01*
X217497629Y-59938510D01*
X217492105Y-59887648D01*
X217488479Y-59872396D01*
X217443324Y-59751946D01*
X217434786Y-59736351D01*
X217358285Y-59634276D01*
X217345724Y-59621715D01*
X217243649Y-59545214D01*
X217228054Y-59536676D01*
X217107606Y-59491522D01*
X217092351Y-59487895D01*
X217041486Y-59482369D01*
X217034672Y-59482000D01*
X215012115Y-59482000D01*
X214996876Y-59486475D01*
X214995671Y-59487865D01*
X214994000Y-59495548D01*
X214994000Y-61967885D01*
X214486000Y-61967885D01*
X214486000Y-59500116D01*
X214481525Y-59484877D01*
X214480135Y-59483672D01*
X214472452Y-59482001D01*
X212445331Y-59482001D01*
X212438510Y-59482371D01*
X212387648Y-59487895D01*
X212372396Y-59491521D01*
X212251946Y-59536676D01*
X212236351Y-59545214D01*
X212134276Y-59621715D01*
X212121715Y-59634276D01*
X212045214Y-59736351D01*
X212036676Y-59751946D01*
X211991522Y-59872394D01*
X211987895Y-59887649D01*
X211982369Y-59938514D01*
X211982000Y-59945328D01*
X211982000Y-61967885D01*
X209468957Y-61967885D01*
X209338392Y-61836634D01*
X209077191Y-61630720D01*
X208793144Y-61457677D01*
X208672046Y-61402617D01*
X208493817Y-61321580D01*
X208493809Y-61321577D01*
X208490365Y-61320011D01*
X208173240Y-61219718D01*
X207950896Y-61177906D01*
X207850087Y-61158949D01*
X207850085Y-61158949D01*
X207846364Y-61158249D01*
X207514470Y-61136496D01*
X207510690Y-61136704D01*
X207510689Y-61136704D01*
X207412918Y-61142085D01*
X207182366Y-61154773D01*
X207178639Y-61155434D01*
X207178635Y-61155434D01*
X206919510Y-61201358D01*
X206854864Y-61212815D01*
X206851239Y-61213920D01*
X206851234Y-61213921D01*
X206643683Y-61277178D01*
X206536707Y-61309782D01*
X206533243Y-61311313D01*
X206533236Y-61311316D01*
X206346051Y-61394070D01*
X206232503Y-61444269D01*
X206229249Y-61446205D01*
X206229243Y-61446208D01*
X205949918Y-61612389D01*
X205946659Y-61614328D01*
X205683316Y-61817496D01*
X205446288Y-62050829D01*
X205239009Y-62310949D01*
X205064481Y-62594086D01*
X204925232Y-62896140D01*
X204924073Y-62899740D01*
X204924070Y-62899747D01*
X204915368Y-62926771D01*
X204823280Y-63212735D01*
X204760100Y-63539285D01*
X204759833Y-63543061D01*
X204759832Y-63543066D01*
X204758067Y-63567997D01*
X204736610Y-63871061D01*
X186024844Y-63871061D01*
X191225500Y-58670405D01*
X191287812Y-58636379D01*
X191314595Y-58633500D01*
X200816373Y-58633500D01*
X200884494Y-58653502D01*
X200930987Y-58707158D01*
X200937090Y-58723398D01*
X201004774Y-58949718D01*
X201006287Y-58953189D01*
X201006289Y-58953195D01*
X201097458Y-59162370D01*
X201137666Y-59254622D01*
X201306226Y-59541352D01*
X201308527Y-59544367D01*
X201505712Y-59802742D01*
X201505717Y-59802748D01*
X201508012Y-59805755D01*
X201740102Y-60044002D01*
X201999132Y-60252640D01*
X202281352Y-60428648D01*
X202582672Y-60569476D01*
X202898729Y-60673085D01*
X203224944Y-60737973D01*
X203228716Y-60738260D01*
X203228724Y-60738261D01*
X203552815Y-60762914D01*
X203552820Y-60762914D01*
X203556592Y-60763201D01*
X203888869Y-60748403D01*
X203893401Y-60747649D01*
X204213220Y-60694417D01*
X204213225Y-60694416D01*
X204216961Y-60693794D01*
X204536116Y-60600164D01*
X204539583Y-60598674D01*
X204539587Y-60598673D01*
X204838228Y-60470366D01*
X204838230Y-60470365D01*
X204841712Y-60468869D01*
X205129321Y-60301813D01*
X205132343Y-60299532D01*
X205132347Y-60299529D01*
X205391753Y-60103697D01*
X205391754Y-60103696D01*
X205394777Y-60101414D01*
X205563763Y-59938510D01*
X205631508Y-59873204D01*
X205631509Y-59873203D01*
X205634235Y-59870575D01*
X205844227Y-59612641D01*
X206021710Y-59331347D01*
X206164114Y-59030767D01*
X206269377Y-58715257D01*
X206335972Y-58389386D01*
X206362936Y-58057875D01*
X206363542Y-58000000D01*
X206363409Y-57997789D01*
X206343755Y-57671772D01*
X206343754Y-57671765D01*
X206343527Y-57667997D01*
X206300607Y-57432994D01*
X206284451Y-57344530D01*
X206284450Y-57344525D01*
X206283770Y-57340803D01*
X206272256Y-57303719D01*
X206191611Y-57044002D01*
X206185139Y-57023157D01*
X206049061Y-56719662D01*
X205941709Y-56541352D01*
X205879466Y-56437966D01*
X205879462Y-56437960D01*
X205877507Y-56434713D01*
X205875180Y-56431729D01*
X205875175Y-56431722D01*
X205675294Y-56175425D01*
X205675288Y-56175418D01*
X205672963Y-56172437D01*
X205438392Y-55936634D01*
X205177191Y-55730720D01*
X204893144Y-55557677D01*
X204772046Y-55502617D01*
X204593817Y-55421580D01*
X204593809Y-55421577D01*
X204590365Y-55420011D01*
X204273240Y-55319718D01*
X204050896Y-55277906D01*
X203950087Y-55258949D01*
X203950085Y-55258949D01*
X203946364Y-55258249D01*
X203614470Y-55236496D01*
X203610690Y-55236704D01*
X203610689Y-55236704D01*
X203512918Y-55242085D01*
X203282366Y-55254773D01*
X203278639Y-55255434D01*
X203278635Y-55255434D01*
X203030191Y-55299465D01*
X202954864Y-55312815D01*
X202951239Y-55313920D01*
X202951234Y-55313921D01*
X202743683Y-55377178D01*
X202636707Y-55409782D01*
X202633243Y-55411313D01*
X202633236Y-55411316D01*
X202446051Y-55494070D01*
X202332503Y-55544269D01*
X202329249Y-55546205D01*
X202329243Y-55546208D01*
X202051323Y-55711553D01*
X202046659Y-55714328D01*
X201783316Y-55917496D01*
X201546288Y-56150829D01*
X201339009Y-56410949D01*
X201164481Y-56694086D01*
X201025232Y-56996140D01*
X201024073Y-56999740D01*
X201024070Y-56999747D01*
X200934104Y-57279122D01*
X200894184Y-57337833D01*
X200828860Y-57365641D01*
X200814169Y-57366500D01*
X191078767Y-57366500D01*
X191067584Y-57365973D01*
X191060091Y-57364298D01*
X191052165Y-57364547D01*
X191052164Y-57364547D01*
X190992014Y-57366438D01*
X190988055Y-57366500D01*
X190960144Y-57366500D01*
X190956210Y-57366997D01*
X190956209Y-57366997D01*
X190956144Y-57367005D01*
X190944307Y-57367938D01*
X190912049Y-57368952D01*
X190908030Y-57369078D01*
X190900111Y-57369327D01*
X190880657Y-57374979D01*
X190861300Y-57378987D01*
X190849070Y-57380532D01*
X190849069Y-57380532D01*
X190841203Y-57381526D01*
X190833832Y-57384445D01*
X190833830Y-57384445D01*
X190800088Y-57397804D01*
X190788858Y-57401649D01*
X190754017Y-57411771D01*
X190754016Y-57411771D01*
X190746407Y-57413982D01*
X190739588Y-57418015D01*
X190739583Y-57418017D01*
X190728972Y-57424293D01*
X190711224Y-57432988D01*
X190692383Y-57440448D01*
X190685967Y-57445110D01*
X190685966Y-57445110D01*
X190656613Y-57466436D01*
X190646693Y-57472952D01*
X190615465Y-57491420D01*
X190615462Y-57491422D01*
X190608638Y-57495458D01*
X190594317Y-57509779D01*
X190579284Y-57522619D01*
X190562893Y-57534528D01*
X190557842Y-57540634D01*
X190534702Y-57568605D01*
X190526712Y-57577384D01*
X174607747Y-73496348D01*
X174599461Y-73503888D01*
X174592982Y-73508000D01*
X174587557Y-73513777D01*
X174546357Y-73557651D01*
X174543602Y-73560493D01*
X174523865Y-73580230D01*
X174521385Y-73583427D01*
X174513682Y-73592447D01*
X174483414Y-73624679D01*
X174479595Y-73631625D01*
X174479593Y-73631628D01*
X174473652Y-73642434D01*
X174462801Y-73658953D01*
X174450386Y-73674959D01*
X174447241Y-73682228D01*
X174447238Y-73682232D01*
X174432826Y-73715537D01*
X174427609Y-73726187D01*
X174406305Y-73764940D01*
X174404334Y-73772615D01*
X174404334Y-73772616D01*
X174401267Y-73784562D01*
X174394863Y-73803266D01*
X174386819Y-73821855D01*
X174385580Y-73829678D01*
X174385577Y-73829688D01*
X174379901Y-73865524D01*
X174377495Y-73877144D01*
X174366500Y-73919970D01*
X174366500Y-73940224D01*
X174364949Y-73959934D01*
X174361780Y-73979943D01*
X174362526Y-73987835D01*
X174365941Y-74023961D01*
X174366500Y-74035819D01*
X174366500Y-97240405D01*
X174346498Y-97308526D01*
X174329595Y-97329500D01*
X174051877Y-97607218D01*
X173989565Y-97641244D01*
X173918750Y-97636179D01*
X173861914Y-97593632D01*
X173837206Y-97528447D01*
X173820276Y-97322522D01*
X173819852Y-97317361D01*
X173765431Y-97100702D01*
X173676354Y-96895840D01*
X173597539Y-96774011D01*
X173557822Y-96712617D01*
X173557820Y-96712614D01*
X173555014Y-96708277D01*
X173404670Y-96543051D01*
X173400619Y-96539852D01*
X173400615Y-96539848D01*
X173233414Y-96407800D01*
X173233410Y-96407798D01*
X173229359Y-96404598D01*
X173187569Y-96381529D01*
X173137598Y-96331097D01*
X173122826Y-96261654D01*
X173147942Y-96195248D01*
X173175294Y-96168641D01*
X173350328Y-96043792D01*
X173358200Y-96037139D01*
X173509052Y-95886812D01*
X173515730Y-95878965D01*
X173640003Y-95706020D01*
X173645313Y-95697183D01*
X173739670Y-95506267D01*
X173743469Y-95496672D01*
X173805377Y-95292910D01*
X173807555Y-95282837D01*
X173808986Y-95271962D01*
X173806775Y-95257778D01*
X173793617Y-95254000D01*
X171158225Y-95254000D01*
X171144694Y-95257973D01*
X171143257Y-95267966D01*
X171173565Y-95402446D01*
X171176645Y-95412275D01*
X171256770Y-95609603D01*
X171261413Y-95618794D01*
X171372694Y-95800388D01*
X171378777Y-95808699D01*
X171518213Y-95969667D01*
X171525580Y-95976883D01*
X171689434Y-96112916D01*
X171697881Y-96118831D01*
X171766969Y-96159203D01*
X171815693Y-96210842D01*
X171828764Y-96280625D01*
X171802033Y-96346396D01*
X171761584Y-96379752D01*
X171748607Y-96386507D01*
X171744474Y-96389610D01*
X171744471Y-96389612D01*
X171587905Y-96507165D01*
X171569965Y-96520635D01*
X171415629Y-96682138D01*
X171289743Y-96866680D01*
X171266119Y-96917574D01*
X171233893Y-96987000D01*
X171195688Y-97069305D01*
X171135989Y-97284570D01*
X171112251Y-97506695D01*
X171112548Y-97511848D01*
X171112548Y-97511851D01*
X171119717Y-97636179D01*
X171125110Y-97729715D01*
X171126247Y-97734761D01*
X171126248Y-97734767D01*
X171147275Y-97828069D01*
X171174222Y-97947639D01*
X171258266Y-98154616D01*
X171374987Y-98345088D01*
X171521250Y-98513938D01*
X171693126Y-98656632D01*
X171698284Y-98659646D01*
X171766445Y-98699476D01*
X171815169Y-98751114D01*
X171828240Y-98820897D01*
X171801509Y-98886669D01*
X171761055Y-98920027D01*
X171748607Y-98926507D01*
X171744474Y-98929610D01*
X171744471Y-98929612D01*
X171574100Y-99057530D01*
X171569965Y-99060635D01*
X171415629Y-99222138D01*
X171289743Y-99406680D01*
X171195688Y-99609305D01*
X171135989Y-99824570D01*
X171112251Y-100046695D01*
X171112548Y-100051848D01*
X171112548Y-100051851D01*
X171118011Y-100146590D01*
X171125110Y-100269715D01*
X171126247Y-100274761D01*
X171126248Y-100274767D01*
X171147275Y-100368069D01*
X171174222Y-100487639D01*
X171258266Y-100694616D01*
X171374987Y-100885088D01*
X171521250Y-101053938D01*
X171693126Y-101196632D01*
X171763595Y-101237811D01*
X171766445Y-101239476D01*
X171815169Y-101291114D01*
X171828240Y-101360897D01*
X171801509Y-101426669D01*
X171761055Y-101460027D01*
X171748607Y-101466507D01*
X171744474Y-101469610D01*
X171744471Y-101469612D01*
X171713184Y-101493103D01*
X171569965Y-101600635D01*
X171566393Y-101604373D01*
X171448910Y-101727312D01*
X171415629Y-101762138D01*
X171289743Y-101946680D01*
X171195688Y-102149305D01*
X171135989Y-102364570D01*
X171112251Y-102586695D01*
X171112548Y-102591848D01*
X171112548Y-102591851D01*
X171119744Y-102716646D01*
X171125110Y-102809715D01*
X171126247Y-102814761D01*
X171126248Y-102814767D01*
X171146075Y-102902742D01*
X171174222Y-103027639D01*
X171258266Y-103234616D01*
X171260965Y-103239020D01*
X171366323Y-103410949D01*
X171374987Y-103425088D01*
X171521250Y-103593938D01*
X171668610Y-103716279D01*
X171672686Y-103719662D01*
X171693126Y-103736632D01*
X171755508Y-103773085D01*
X171766445Y-103779476D01*
X171815169Y-103831114D01*
X171828240Y-103900897D01*
X171801509Y-103966669D01*
X171761055Y-104000027D01*
X171748607Y-104006507D01*
X171744474Y-104009610D01*
X171744471Y-104009612D01*
X171720247Y-104027800D01*
X171569965Y-104140635D01*
X171415629Y-104302138D01*
X171412715Y-104306410D01*
X171412714Y-104306411D01*
X171386711Y-104344530D01*
X171289743Y-104486680D01*
X171272596Y-104523621D01*
X171203827Y-104671772D01*
X171195688Y-104689305D01*
X171135989Y-104904570D01*
X171112251Y-105126695D01*
X171112548Y-105131848D01*
X171112548Y-105131851D01*
X171122213Y-105299465D01*
X171125110Y-105349715D01*
X171126247Y-105354761D01*
X171126248Y-105354767D01*
X171140694Y-105418867D01*
X171174222Y-105567639D01*
X171232659Y-105711553D01*
X171251662Y-105758351D01*
X171258266Y-105774616D01*
X171277816Y-105806518D01*
X171363340Y-105946081D01*
X171374987Y-105965088D01*
X171521250Y-106133938D01*
X171693126Y-106276632D01*
X171763595Y-106317811D01*
X171766445Y-106319476D01*
X171815169Y-106371114D01*
X171828240Y-106440897D01*
X171801509Y-106506669D01*
X171761055Y-106540027D01*
X171748607Y-106546507D01*
X171744474Y-106549610D01*
X171744471Y-106549612D01*
X171574100Y-106677530D01*
X171569965Y-106680635D01*
X171415629Y-106842138D01*
X171412715Y-106846410D01*
X171412714Y-106846411D01*
X171394838Y-106872617D01*
X171289743Y-107026680D01*
X171195688Y-107229305D01*
X171135989Y-107444570D01*
X171112251Y-107666695D01*
X171112548Y-107671848D01*
X171112548Y-107671851D01*
X171118011Y-107766590D01*
X171125110Y-107889715D01*
X171126247Y-107894761D01*
X171126248Y-107894767D01*
X171142588Y-107967272D01*
X171174222Y-108107639D01*
X171258266Y-108314616D01*
X171374987Y-108505088D01*
X171521250Y-108673938D01*
X171693126Y-108816632D01*
X171763595Y-108857811D01*
X171766445Y-108859476D01*
X171815169Y-108911114D01*
X171828240Y-108980897D01*
X171801509Y-109046669D01*
X171761055Y-109080027D01*
X171748607Y-109086507D01*
X171744474Y-109089610D01*
X171744471Y-109089612D01*
X171720247Y-109107800D01*
X171569965Y-109220635D01*
X171566393Y-109224373D01*
X171430131Y-109366963D01*
X171415629Y-109382138D01*
X171289743Y-109566680D01*
X171272596Y-109603621D01*
X171203746Y-109751946D01*
X171195688Y-109769305D01*
X171135989Y-109984570D01*
X171112251Y-110206695D01*
X171112548Y-110211848D01*
X171112548Y-110211851D01*
X171117735Y-110301813D01*
X171125110Y-110429715D01*
X171126247Y-110434761D01*
X171126248Y-110434767D01*
X171134271Y-110470366D01*
X171174222Y-110647639D01*
X171234014Y-110794890D01*
X171251662Y-110838351D01*
X171258266Y-110854616D01*
X171374987Y-111045088D01*
X171521250Y-111213938D01*
X171693126Y-111356632D01*
X171763595Y-111397811D01*
X171766445Y-111399476D01*
X171815169Y-111451114D01*
X171828240Y-111520897D01*
X171801509Y-111586669D01*
X171761055Y-111620027D01*
X171748607Y-111626507D01*
X171744474Y-111629610D01*
X171744471Y-111629612D01*
X171720247Y-111647800D01*
X171569965Y-111760635D01*
X171415629Y-111922138D01*
X171412715Y-111926410D01*
X171412714Y-111926411D01*
X171381307Y-111972452D01*
X171289743Y-112106680D01*
X171195688Y-112309305D01*
X171135989Y-112524570D01*
X171112251Y-112746695D01*
X171112548Y-112751848D01*
X171112548Y-112751851D01*
X171122634Y-112926771D01*
X171125110Y-112969715D01*
X171126247Y-112974761D01*
X171126248Y-112974767D01*
X171146119Y-113062939D01*
X171174222Y-113187639D01*
X171258266Y-113394616D01*
X171260965Y-113399020D01*
X171364514Y-113567997D01*
X171374987Y-113585088D01*
X171521250Y-113753938D01*
X171693126Y-113896632D01*
X171763595Y-113937811D01*
X171766445Y-113939476D01*
X171815169Y-113991114D01*
X171828240Y-114060897D01*
X171801509Y-114126669D01*
X171761055Y-114160027D01*
X171748607Y-114166507D01*
X171744474Y-114169610D01*
X171744471Y-114169612D01*
X171574100Y-114297530D01*
X171569965Y-114300635D01*
X171415629Y-114462138D01*
X171289743Y-114646680D01*
X171251971Y-114728054D01*
X171214471Y-114808841D01*
X171195688Y-114849305D01*
X171135989Y-115064570D01*
X171112251Y-115286695D01*
X170508500Y-115286695D01*
X170508500Y-94734183D01*
X171139389Y-94734183D01*
X171140912Y-94742607D01*
X171153292Y-94746000D01*
X172202885Y-94746000D01*
X172218124Y-94741525D01*
X172219329Y-94740135D01*
X172221000Y-94732452D01*
X172221000Y-94727885D01*
X172729000Y-94727885D01*
X172733475Y-94743124D01*
X172734865Y-94744329D01*
X172742548Y-94746000D01*
X173793344Y-94746000D01*
X173806875Y-94742027D01*
X173808180Y-94732947D01*
X173766214Y-94565875D01*
X173762894Y-94556124D01*
X173677972Y-94360814D01*
X173673105Y-94351739D01*
X173557426Y-94172926D01*
X173551136Y-94164757D01*
X173407806Y-94007240D01*
X173400273Y-94000215D01*
X173233139Y-93868222D01*
X173224552Y-93862517D01*
X173038117Y-93759599D01*
X173028705Y-93755369D01*
X172827959Y-93684280D01*
X172817988Y-93681646D01*
X172746837Y-93668972D01*
X172733540Y-93670432D01*
X172729000Y-93684989D01*
X172729000Y-94727885D01*
X172221000Y-94727885D01*
X172221000Y-93683102D01*
X172217082Y-93669758D01*
X172202806Y-93667771D01*
X172164324Y-93673660D01*
X172154288Y-93676051D01*
X171951868Y-93742212D01*
X171942359Y-93746209D01*
X171753463Y-93844542D01*
X171744738Y-93850036D01*
X171574433Y-93977905D01*
X171566726Y-93984748D01*
X171419590Y-94138717D01*
X171413104Y-94146727D01*
X171293098Y-94322649D01*
X171288000Y-94331623D01*
X171198338Y-94524783D01*
X171194775Y-94534470D01*
X171139389Y-94734183D01*
X170508500Y-94734183D01*
X170508500Y-54971061D01*
X213636610Y-54971061D01*
X213636799Y-54974853D01*
X213650907Y-55258249D01*
X213653147Y-55303255D01*
X213653788Y-55306986D01*
X213653789Y-55306994D01*
X213696865Y-55557677D01*
X213709474Y-55631057D01*
X213710562Y-55634696D01*
X213710563Y-55634699D01*
X213801664Y-55939318D01*
X213804774Y-55949718D01*
X213806287Y-55953189D01*
X213806289Y-55953195D01*
X213891267Y-56148166D01*
X213937666Y-56254622D01*
X214106226Y-56541352D01*
X214108527Y-56544367D01*
X214305712Y-56802742D01*
X214305717Y-56802748D01*
X214308012Y-56805755D01*
X214310656Y-56808469D01*
X214519796Y-57023157D01*
X214540102Y-57044002D01*
X214799132Y-57252640D01*
X214881035Y-57303719D01*
X215064306Y-57418017D01*
X215081352Y-57428648D01*
X215382672Y-57569476D01*
X215386281Y-57570659D01*
X215694724Y-57671772D01*
X215698729Y-57673085D01*
X216024944Y-57737973D01*
X216028716Y-57738260D01*
X216028724Y-57738261D01*
X216352815Y-57762914D01*
X216352820Y-57762914D01*
X216356592Y-57763201D01*
X216688869Y-57748403D01*
X216693401Y-57747649D01*
X217013220Y-57694417D01*
X217013225Y-57694416D01*
X217016961Y-57693794D01*
X217336116Y-57600164D01*
X217339583Y-57598674D01*
X217339587Y-57598673D01*
X217638228Y-57470366D01*
X217638230Y-57470365D01*
X217641712Y-57468869D01*
X217929321Y-57301813D01*
X217932343Y-57299532D01*
X217932347Y-57299529D01*
X218191753Y-57103697D01*
X218191754Y-57103696D01*
X218194777Y-57101414D01*
X218434235Y-56870575D01*
X218644227Y-56612641D01*
X218821710Y-56331347D01*
X218964114Y-56030767D01*
X218995520Y-55936634D01*
X219068180Y-55718844D01*
X219069377Y-55715257D01*
X219135972Y-55389386D01*
X219162936Y-55057875D01*
X219163542Y-55000000D01*
X219162026Y-54974853D01*
X219143755Y-54671772D01*
X219143754Y-54671765D01*
X219143527Y-54667997D01*
X219083770Y-54340803D01*
X218985139Y-54023157D01*
X218849061Y-53719662D01*
X218757128Y-53566962D01*
X218679466Y-53437966D01*
X218679462Y-53437960D01*
X218677507Y-53434713D01*
X218675180Y-53431729D01*
X218675175Y-53431722D01*
X218475294Y-53175425D01*
X218475288Y-53175418D01*
X218472963Y-53172437D01*
X218238392Y-52936634D01*
X217977191Y-52730720D01*
X217693144Y-52557677D01*
X217572046Y-52502617D01*
X217393817Y-52421580D01*
X217393809Y-52421577D01*
X217390365Y-52420011D01*
X217073240Y-52319718D01*
X216850896Y-52277906D01*
X216750087Y-52258949D01*
X216750085Y-52258949D01*
X216746364Y-52258249D01*
X216414470Y-52236496D01*
X216410690Y-52236704D01*
X216410689Y-52236704D01*
X216312918Y-52242085D01*
X216082366Y-52254773D01*
X216078639Y-52255434D01*
X216078635Y-52255434D01*
X215819510Y-52301358D01*
X215754864Y-52312815D01*
X215751239Y-52313920D01*
X215751234Y-52313921D01*
X215606946Y-52357897D01*
X215436707Y-52409782D01*
X215433243Y-52411313D01*
X215433236Y-52411316D01*
X215246051Y-52494070D01*
X215132503Y-52544269D01*
X215129249Y-52546205D01*
X215129243Y-52546208D01*
X214964253Y-52644367D01*
X214846659Y-52714328D01*
X214583316Y-52917496D01*
X214346288Y-53150829D01*
X214139009Y-53410949D01*
X213964481Y-53694086D01*
X213825232Y-53996140D01*
X213824073Y-53999740D01*
X213824070Y-53999747D01*
X213815368Y-54026771D01*
X213723280Y-54312735D01*
X213660100Y-54639285D01*
X213659833Y-54643061D01*
X213659832Y-54643066D01*
X213658067Y-54667997D01*
X213636610Y-54971061D01*
X170508500Y-54971061D01*
X170508500Y-51071061D01*
X207736610Y-51071061D01*
X207753147Y-51403255D01*
X207753788Y-51406986D01*
X207753789Y-51406994D01*
X207768586Y-51493103D01*
X207809474Y-51731057D01*
X207904774Y-52049718D01*
X207906287Y-52053189D01*
X207906289Y-52053195D01*
X207986181Y-52236496D01*
X208037666Y-52354622D01*
X208039589Y-52357893D01*
X208039591Y-52357897D01*
X208080749Y-52427909D01*
X208206226Y-52641352D01*
X208208527Y-52644367D01*
X208405712Y-52902742D01*
X208405717Y-52902748D01*
X208408012Y-52905755D01*
X208640102Y-53144002D01*
X208899132Y-53352640D01*
X209181352Y-53528648D01*
X209482672Y-53669476D01*
X209798729Y-53773085D01*
X210124944Y-53837973D01*
X210128716Y-53838260D01*
X210128724Y-53838261D01*
X210452815Y-53862914D01*
X210452820Y-53862914D01*
X210456592Y-53863201D01*
X210788869Y-53848403D01*
X210793401Y-53847649D01*
X211113220Y-53794417D01*
X211113225Y-53794416D01*
X211116961Y-53793794D01*
X211436116Y-53700164D01*
X211439583Y-53698674D01*
X211439587Y-53698673D01*
X211738228Y-53570366D01*
X211738230Y-53570365D01*
X211741712Y-53568869D01*
X212029321Y-53401813D01*
X212032343Y-53399532D01*
X212032347Y-53399529D01*
X212291753Y-53203697D01*
X212291754Y-53203696D01*
X212294777Y-53201414D01*
X212534235Y-52970575D01*
X212744227Y-52712641D01*
X212921710Y-52431347D01*
X213064114Y-52130767D01*
X213169377Y-51815257D01*
X213235972Y-51489386D01*
X213262936Y-51157875D01*
X213263542Y-51100000D01*
X213262026Y-51074853D01*
X213243755Y-50771772D01*
X213243754Y-50771765D01*
X213243527Y-50767997D01*
X213183770Y-50440803D01*
X213085139Y-50123157D01*
X212949061Y-49819662D01*
X212864108Y-49678555D01*
X212779466Y-49537966D01*
X212779462Y-49537960D01*
X212777507Y-49534713D01*
X212775180Y-49531729D01*
X212775175Y-49531722D01*
X212575294Y-49275425D01*
X212575288Y-49275418D01*
X212572963Y-49272437D01*
X212338392Y-49036634D01*
X212077191Y-48830720D01*
X211793144Y-48657677D01*
X211672046Y-48602617D01*
X211493817Y-48521580D01*
X211493809Y-48521577D01*
X211490365Y-48520011D01*
X211173240Y-48419718D01*
X210950896Y-48377906D01*
X210850087Y-48358949D01*
X210850085Y-48358949D01*
X210846364Y-48358249D01*
X210514470Y-48336496D01*
X210510690Y-48336704D01*
X210510689Y-48336704D01*
X210412918Y-48342085D01*
X210182366Y-48354773D01*
X210178639Y-48355434D01*
X210178635Y-48355434D01*
X209919510Y-48401358D01*
X209854864Y-48412815D01*
X209851239Y-48413920D01*
X209851234Y-48413921D01*
X209643683Y-48477178D01*
X209536707Y-48509782D01*
X209533243Y-48511313D01*
X209533236Y-48511316D01*
X209346051Y-48594070D01*
X209232503Y-48644269D01*
X209229249Y-48646205D01*
X209229243Y-48646208D01*
X208949918Y-48812389D01*
X208946659Y-48814328D01*
X208683316Y-49017496D01*
X208446288Y-49250829D01*
X208239009Y-49510949D01*
X208064481Y-49794086D01*
X207925232Y-50096140D01*
X207924073Y-50099740D01*
X207924070Y-50099747D01*
X207915368Y-50126771D01*
X207823280Y-50412735D01*
X207760100Y-50739285D01*
X207759833Y-50743061D01*
X207759832Y-50743066D01*
X207758067Y-50767997D01*
X207736610Y-51071061D01*
X170508500Y-51071061D01*
X170508500Y-48134500D01*
X170528502Y-48066379D01*
X170582158Y-48019886D01*
X170634500Y-48008500D01*
X219365500Y-48008500D01*
X219433621Y-48028502D01*
G37*
G04 #@! TD.AperFunction*
M02*
