G04 #@! TF.GenerationSoftware,KiCad,Pcbnew,(6.0.5)*
G04 #@! TF.CreationDate,2022-06-09T21:52:40-05:00*
G04 #@! TF.ProjectId,TuringJack,54757269-6e67-44a6-9163-6b2e6b696361,rev?*
G04 #@! TF.SameCoordinates,Original*
G04 #@! TF.FileFunction,Legend,Top*
G04 #@! TF.FilePolarity,Positive*
%FSLAX46Y46*%
G04 Gerber Fmt 4.6, Leading zero omitted, Abs format (unit mm)*
G04 Created by KiCad (PCBNEW (6.0.5)) date 2022-06-09 21:52:40*
%MOMM*%
%LPD*%
G01*
G04 APERTURE LIST*
%ADD10C,0.150000*%
%ADD11C,0.120000*%
G04 APERTURE END LIST*
D10*
X200267857Y-134071428D02*
X200303571Y-134107142D01*
X200339285Y-134214285D01*
X200339285Y-134285714D01*
X200303571Y-134392857D01*
X200232142Y-134464285D01*
X200160714Y-134500000D01*
X200017857Y-134535714D01*
X199910714Y-134535714D01*
X199767857Y-134500000D01*
X199696428Y-134464285D01*
X199625000Y-134392857D01*
X199589285Y-134285714D01*
X199589285Y-134214285D01*
X199625000Y-134107142D01*
X199660714Y-134071428D01*
X200339285Y-133392857D02*
X200339285Y-133750000D01*
X199589285Y-133750000D01*
X199589285Y-133000000D02*
X199589285Y-132857142D01*
X199625000Y-132785714D01*
X199696428Y-132714285D01*
X199839285Y-132678571D01*
X200089285Y-132678571D01*
X200232142Y-132714285D01*
X200303571Y-132785714D01*
X200339285Y-132857142D01*
X200339285Y-133000000D01*
X200303571Y-133071428D01*
X200232142Y-133142857D01*
X200089285Y-133178571D01*
X199839285Y-133178571D01*
X199696428Y-133142857D01*
X199625000Y-133071428D01*
X199589285Y-133000000D01*
X200267857Y-131928571D02*
X200303571Y-131964285D01*
X200339285Y-132071428D01*
X200339285Y-132142857D01*
X200303571Y-132250000D01*
X200232142Y-132321428D01*
X200160714Y-132357142D01*
X200017857Y-132392857D01*
X199910714Y-132392857D01*
X199767857Y-132357142D01*
X199696428Y-132321428D01*
X199625000Y-132250000D01*
X199589285Y-132142857D01*
X199589285Y-132071428D01*
X199625000Y-131964285D01*
X199660714Y-131928571D01*
X200339285Y-131607142D02*
X199589285Y-131607142D01*
X200339285Y-131178571D02*
X199910714Y-131500000D01*
X199589285Y-131178571D02*
X200017857Y-131607142D01*
X200339285Y-130464285D02*
X200339285Y-130892857D01*
X200339285Y-130678571D02*
X199589285Y-130678571D01*
X199696428Y-130750000D01*
X199767857Y-130821428D01*
X199803571Y-130892857D01*
X200339285Y-85875000D02*
X199589285Y-85875000D01*
X200339285Y-85446428D01*
X199589285Y-85446428D01*
X199589285Y-84946428D02*
X199589285Y-84803571D01*
X199625000Y-84732142D01*
X199696428Y-84660714D01*
X199839285Y-84625000D01*
X200089285Y-84625000D01*
X200232142Y-84660714D01*
X200303571Y-84732142D01*
X200339285Y-84803571D01*
X200339285Y-84946428D01*
X200303571Y-85017857D01*
X200232142Y-85089285D01*
X200089285Y-85125000D01*
X199839285Y-85125000D01*
X199696428Y-85089285D01*
X199625000Y-85017857D01*
X199589285Y-84946428D01*
X200339285Y-84303571D02*
X199589285Y-84303571D01*
X200303571Y-83982142D02*
X200339285Y-83875000D01*
X200339285Y-83696428D01*
X200303571Y-83625000D01*
X200267857Y-83589285D01*
X200196428Y-83553571D01*
X200125000Y-83553571D01*
X200053571Y-83589285D01*
X200017857Y-83625000D01*
X199982142Y-83696428D01*
X199946428Y-83839285D01*
X199910714Y-83910714D01*
X199875000Y-83946428D01*
X199803571Y-83982142D01*
X199732142Y-83982142D01*
X199660714Y-83946428D01*
X199625000Y-83910714D01*
X199589285Y-83839285D01*
X199589285Y-83660714D01*
X199625000Y-83553571D01*
X199946428Y-83232142D02*
X199946428Y-82982142D01*
X200339285Y-82875000D02*
X200339285Y-83232142D01*
X199589285Y-83232142D01*
X199589285Y-82875000D01*
X200053571Y-82553571D02*
X200053571Y-81982142D01*
X199589285Y-81482142D02*
X199589285Y-81339285D01*
X199625000Y-81267857D01*
X199696428Y-81196428D01*
X199839285Y-81160714D01*
X200089285Y-81160714D01*
X200232142Y-81196428D01*
X200303571Y-81267857D01*
X200339285Y-81339285D01*
X200339285Y-81482142D01*
X200303571Y-81553571D01*
X200232142Y-81625000D01*
X200089285Y-81660714D01*
X199839285Y-81660714D01*
X199696428Y-81625000D01*
X199625000Y-81553571D01*
X199589285Y-81482142D01*
X199589285Y-80839285D02*
X200196428Y-80839285D01*
X200267857Y-80803571D01*
X200303571Y-80767857D01*
X200339285Y-80696428D01*
X200339285Y-80553571D01*
X200303571Y-80482142D01*
X200267857Y-80446428D01*
X200196428Y-80410714D01*
X199589285Y-80410714D01*
X199589285Y-80160714D02*
X199589285Y-79732142D01*
X200339285Y-79946428D02*
X199589285Y-79946428D01*
X200339285Y-79089285D02*
X200339285Y-79517857D01*
X200339285Y-79303571D02*
X199589285Y-79303571D01*
X199696428Y-79375000D01*
X199767857Y-79446428D01*
X199803571Y-79517857D01*
X200267857Y-59803571D02*
X200303571Y-59839285D01*
X200339285Y-59946428D01*
X200339285Y-60017857D01*
X200303571Y-60125000D01*
X200232142Y-60196428D01*
X200160714Y-60232142D01*
X200017857Y-60267857D01*
X199910714Y-60267857D01*
X199767857Y-60232142D01*
X199696428Y-60196428D01*
X199625000Y-60125000D01*
X199589285Y-60017857D01*
X199589285Y-59946428D01*
X199625000Y-59839285D01*
X199660714Y-59803571D01*
X199589285Y-59589285D02*
X200339285Y-59339285D01*
X199589285Y-59089285D01*
X200410714Y-59017857D02*
X200410714Y-58446428D01*
X199589285Y-58125000D02*
X199589285Y-57982142D01*
X199625000Y-57910714D01*
X199696428Y-57839285D01*
X199839285Y-57803571D01*
X200089285Y-57803571D01*
X200232142Y-57839285D01*
X200303571Y-57910714D01*
X200339285Y-57982142D01*
X200339285Y-58125000D01*
X200303571Y-58196428D01*
X200232142Y-58267857D01*
X200089285Y-58303571D01*
X199839285Y-58303571D01*
X199696428Y-58267857D01*
X199625000Y-58196428D01*
X199589285Y-58125000D01*
X199589285Y-57482142D02*
X200196428Y-57482142D01*
X200267857Y-57446428D01*
X200303571Y-57410714D01*
X200339285Y-57339285D01*
X200339285Y-57196428D01*
X200303571Y-57125000D01*
X200267857Y-57089285D01*
X200196428Y-57053571D01*
X199589285Y-57053571D01*
X199589285Y-56803571D02*
X199589285Y-56375000D01*
X200339285Y-56589285D02*
X199589285Y-56589285D01*
X200339285Y-55732142D02*
X200339285Y-56160714D01*
X200339285Y-55946428D02*
X199589285Y-55946428D01*
X199696428Y-56017857D01*
X199767857Y-56089285D01*
X199803571Y-56160714D01*
X200267857Y-108803571D02*
X200303571Y-108839285D01*
X200339285Y-108946428D01*
X200339285Y-109017857D01*
X200303571Y-109125000D01*
X200232142Y-109196428D01*
X200160714Y-109232142D01*
X200017857Y-109267857D01*
X199910714Y-109267857D01*
X199767857Y-109232142D01*
X199696428Y-109196428D01*
X199625000Y-109125000D01*
X199589285Y-109017857D01*
X199589285Y-108946428D01*
X199625000Y-108839285D01*
X199660714Y-108803571D01*
X199589285Y-108589285D02*
X200339285Y-108339285D01*
X199589285Y-108089285D01*
X200410714Y-108017857D02*
X200410714Y-107446428D01*
X200339285Y-107267857D02*
X199589285Y-107267857D01*
X200339285Y-106910714D02*
X199589285Y-106910714D01*
X200339285Y-106482142D01*
X199589285Y-106482142D01*
X200339285Y-105732142D02*
X200339285Y-106160714D01*
X200339285Y-105946428D02*
X199589285Y-105946428D01*
X199696428Y-106017857D01*
X199767857Y-106089285D01*
X199803571Y-106160714D01*
X195339285Y-85803571D02*
X194589285Y-85803571D01*
X194589285Y-85517857D01*
X194625000Y-85446428D01*
X194660714Y-85410714D01*
X194732142Y-85375000D01*
X194839285Y-85375000D01*
X194910714Y-85410714D01*
X194946428Y-85446428D01*
X194982142Y-85517857D01*
X194982142Y-85803571D01*
X194589285Y-85053571D02*
X195196428Y-85053571D01*
X195267857Y-85017857D01*
X195303571Y-84982142D01*
X195339285Y-84910714D01*
X195339285Y-84767857D01*
X195303571Y-84696428D01*
X195267857Y-84660714D01*
X195196428Y-84625000D01*
X194589285Y-84625000D01*
X195339285Y-83910714D02*
X195339285Y-84267857D01*
X194589285Y-84267857D01*
X195303571Y-83696428D02*
X195339285Y-83589285D01*
X195339285Y-83410714D01*
X195303571Y-83339285D01*
X195267857Y-83303571D01*
X195196428Y-83267857D01*
X195125000Y-83267857D01*
X195053571Y-83303571D01*
X195017857Y-83339285D01*
X194982142Y-83410714D01*
X194946428Y-83553571D01*
X194910714Y-83625000D01*
X194875000Y-83660714D01*
X194803571Y-83696428D01*
X194732142Y-83696428D01*
X194660714Y-83660714D01*
X194625000Y-83625000D01*
X194589285Y-83553571D01*
X194589285Y-83375000D01*
X194625000Y-83267857D01*
X194946428Y-82946428D02*
X194946428Y-82696428D01*
X195339285Y-82589285D02*
X195339285Y-82946428D01*
X194589285Y-82946428D01*
X194589285Y-82589285D01*
X195410714Y-82446428D02*
X195410714Y-81875000D01*
X194589285Y-81553571D02*
X194589285Y-81410714D01*
X194625000Y-81339285D01*
X194696428Y-81267857D01*
X194839285Y-81232142D01*
X195089285Y-81232142D01*
X195232142Y-81267857D01*
X195303571Y-81339285D01*
X195339285Y-81410714D01*
X195339285Y-81553571D01*
X195303571Y-81625000D01*
X195232142Y-81696428D01*
X195089285Y-81732142D01*
X194839285Y-81732142D01*
X194696428Y-81696428D01*
X194625000Y-81625000D01*
X194589285Y-81553571D01*
X194589285Y-80910714D02*
X195196428Y-80910714D01*
X195267857Y-80875000D01*
X195303571Y-80839285D01*
X195339285Y-80767857D01*
X195339285Y-80625000D01*
X195303571Y-80553571D01*
X195267857Y-80517857D01*
X195196428Y-80482142D01*
X194589285Y-80482142D01*
X194589285Y-80232142D02*
X194589285Y-79803571D01*
X195339285Y-80017857D02*
X194589285Y-80017857D01*
X195339285Y-79160714D02*
X195339285Y-79589285D01*
X195339285Y-79375000D02*
X194589285Y-79375000D01*
X194696428Y-79446428D01*
X194767857Y-79517857D01*
X194803571Y-79589285D01*
D11*
X216290000Y-139590000D02*
X215350000Y-140350000D01*
X217850000Y-138300000D02*
X217850000Y-138350000D01*
X215350000Y-140350000D02*
X209500000Y-140350000D01*
X202100000Y-124600000D02*
X208500000Y-124600000D01*
X205500000Y-140350000D02*
X202100000Y-140350000D01*
X217850000Y-132100000D02*
X217850000Y-138300000D01*
X217850000Y-138350000D02*
X217110000Y-138940000D01*
X217850000Y-124600000D02*
X217850000Y-127800000D01*
X202100000Y-140350000D02*
X202100000Y-135000000D01*
X212500000Y-124600000D02*
X217850000Y-124600000D01*
X202100000Y-131000000D02*
X202100000Y-124600000D01*
X172475000Y-119190000D02*
X171145000Y-119190000D01*
X173805000Y-93670000D02*
X171145000Y-93670000D01*
X171145000Y-116590000D02*
X171145000Y-93670000D01*
X173805000Y-116590000D02*
X173805000Y-93670000D01*
X171145000Y-119190000D02*
X171145000Y-117860000D01*
X173805000Y-116590000D02*
X171145000Y-116590000D01*
X215350000Y-90350000D02*
X209500000Y-90350000D01*
X217850000Y-88300000D02*
X217850000Y-88350000D01*
X212500000Y-74600000D02*
X217850000Y-74600000D01*
X202100000Y-74600000D02*
X208500000Y-74600000D01*
X205500000Y-90350000D02*
X202100000Y-90350000D01*
X217850000Y-74600000D02*
X217850000Y-77800000D01*
X217850000Y-88350000D02*
X217110000Y-88940000D01*
X202100000Y-81000000D02*
X202100000Y-74600000D01*
X217850000Y-82100000D02*
X217850000Y-88300000D01*
X216290000Y-89590000D02*
X215350000Y-90350000D01*
X202100000Y-90350000D02*
X202100000Y-85000000D01*
X217850000Y-49600000D02*
X217850000Y-52800000D01*
X215350000Y-65350000D02*
X209500000Y-65350000D01*
X212500000Y-49600000D02*
X217850000Y-49600000D01*
X202100000Y-56000000D02*
X202100000Y-49600000D01*
X205500000Y-65350000D02*
X202100000Y-65350000D01*
X202100000Y-65350000D02*
X202100000Y-60000000D01*
X217850000Y-57100000D02*
X217850000Y-63300000D01*
X217850000Y-63350000D02*
X217110000Y-63940000D01*
X216290000Y-64590000D02*
X215350000Y-65350000D01*
X202100000Y-49600000D02*
X208500000Y-49600000D01*
X217850000Y-63300000D02*
X217850000Y-63350000D01*
X217850000Y-107100000D02*
X217850000Y-113300000D01*
X217850000Y-99600000D02*
X217850000Y-102800000D01*
X202100000Y-106000000D02*
X202100000Y-99600000D01*
X205500000Y-115350000D02*
X202100000Y-115350000D01*
X216290000Y-114590000D02*
X215350000Y-115350000D01*
X202100000Y-99600000D02*
X208500000Y-99600000D01*
X202100000Y-115350000D02*
X202100000Y-110000000D01*
X215350000Y-115350000D02*
X209500000Y-115350000D01*
X212500000Y-99600000D02*
X217850000Y-99600000D01*
X217850000Y-113350000D02*
X217110000Y-113940000D01*
X217850000Y-113300000D02*
X217850000Y-113350000D01*
X180500000Y-90350000D02*
X177100000Y-90350000D01*
X192850000Y-82100000D02*
X192850000Y-88300000D01*
X177100000Y-90350000D02*
X177100000Y-85000000D01*
X192850000Y-88300000D02*
X192850000Y-88350000D01*
X187500000Y-74600000D02*
X192850000Y-74600000D01*
X190350000Y-90350000D02*
X184500000Y-90350000D01*
X192850000Y-88350000D02*
X192110000Y-88940000D01*
X177100000Y-81000000D02*
X177100000Y-74600000D01*
X192850000Y-74600000D02*
X192850000Y-77800000D01*
X191290000Y-89590000D02*
X190350000Y-90350000D01*
X177100000Y-74600000D02*
X183500000Y-74600000D01*
M02*
