M48
INCH,TZ
T1C0.0394
T2C0.1063
%
G90
G05
T1
X67904Y-37402
X67904Y-38402
X67904Y-39402
X67904Y-40402
X67904Y-41402
X67904Y-42402
X67904Y-43402
X67904Y-44402
X67904Y-45402
X67904Y-46402
T2
X70315Y-32677
X71850Y-35000
X73031Y-29961
X74701Y-34346
X75354Y-31496
X80157Y-22835
X80157Y-32677
X80157Y-42520
X80157Y-52362
X81693Y-25157
X81693Y-35000
X81693Y-44843
X81693Y-54685
X82874Y-20118
X82874Y-29961
X82874Y-39803
X82874Y-49646
X84543Y-24504
X84543Y-34346
X84543Y-44189
X84543Y-54031
X85197Y-21654
X85197Y-31496
X85197Y-41339
X85197Y-51181
T0
M30
