%TF.GenerationSoftware,KiCad,Pcbnew,(6.0.5)*%
%TF.CreationDate,2022-06-04T19:29:46-05:00*%
%TF.ProjectId,TuringPanel,54757269-6e67-4506-916e-656c2e6b6963,rev?*%
%TF.SameCoordinates,Original*%
%TF.FileFunction,Copper,L4,Bot*%
%TF.FilePolarity,Positive*%
%FSLAX46Y46*%
G04 Gerber Fmt 4.6, Leading zero omitted, Abs format (unit mm)*
G04 Created by KiCad (PCBNEW (6.0.5)) date 2022-06-04 19:29:46*
%MOMM*%
%LPD*%
G01*
G04 APERTURE LIST*
%TA.AperFunction,ComponentPad*%
%ADD10C,14.000000*%
%TD*%
%TA.AperFunction,ComponentPad*%
%ADD11C,5.500000*%
%TD*%
%TA.AperFunction,ComponentPad*%
%ADD12C,4.000000*%
%TD*%
%TA.AperFunction,ComponentPad*%
%ADD13C,9.000000*%
%TD*%
G04 APERTURE END LIST*
D10*
%TO.P,He,1,1*%
%TO.N,GND*%
X210000000Y-107500000D03*
%TD*%
D11*
%TO.P,H24,1*%
%TO.N,N/C*%
X170000000Y-82500000D03*
%TD*%
%TO.P,H23,1*%
%TO.N,N/C*%
X170000000Y-132500000D03*
%TD*%
%TO.P,H22,1*%
%TO.N,N/C*%
X60000000Y-60000000D03*
%TD*%
%TO.P,H21,1*%
%TO.N,N/C*%
X60000000Y-70000000D03*
%TD*%
%TO.P,H20,1*%
%TO.N,N/C*%
X60000000Y-80000000D03*
%TD*%
D12*
%TO.P,H19,1,1*%
%TO.N,GND*%
X232000000Y-48000000D03*
%TD*%
D11*
%TO.P,H18,1*%
%TO.N,N/C*%
X60000000Y-90000000D03*
%TD*%
D12*
%TO.P,H17,1,1*%
%TO.N,GND*%
X38000000Y-48000000D03*
%TD*%
D11*
%TO.P,H16,1*%
%TO.N,N/C*%
X60000000Y-100000000D03*
%TD*%
D10*
%TO.P,H15,1,1*%
%TO.N,GND*%
X210000000Y-57500000D03*
%TD*%
D13*
%TO.P,H13,1,1*%
%TO.N,GND*%
X160000000Y-70000000D03*
%TD*%
%TO.P,H12,1,1*%
%TO.N,GND*%
X122500000Y-70000000D03*
%TD*%
D11*
%TO.P,H11,1*%
%TO.N,N/C*%
X60000000Y-110000000D03*
%TD*%
D10*
%TO.P,H10,1,1*%
%TO.N,GND*%
X210000000Y-82500000D03*
%TD*%
%TO.P,H9,1,1*%
%TO.N,GND*%
X185000000Y-82500000D03*
%TD*%
D13*
%TO.P,H8,1,1*%
%TO.N,GND*%
X97500000Y-95000000D03*
%TD*%
D11*
%TO.P,H7,1*%
%TO.N,N/C*%
X60000000Y-120000000D03*
%TD*%
D13*
%TO.P,H6,1,1*%
%TO.N,GND*%
X135000000Y-120000000D03*
%TD*%
D11*
%TO.P,H4,1*%
%TO.N,N/C*%
X60000000Y-130000000D03*
%TD*%
D12*
%TO.P,H3,1,1*%
%TO.N,GND*%
X38000000Y-142000000D03*
%TD*%
%TO.P,H2,1,1*%
%TO.N,GND*%
X232000000Y-142000000D03*
%TD*%
D10*
%TO.P,H1,1,1*%
%TO.N,GND*%
X210000000Y-132500000D03*
%TD*%
%TA.AperFunction,Conductor*%
%TO.N,GND*%
G36*
X36780308Y-45045524D02*
G01*
X36850663Y-45101630D01*
X36889707Y-45182706D01*
X36889707Y-45272694D01*
X36850663Y-45353770D01*
X36779626Y-45410203D01*
X36623754Y-45484550D01*
X36613565Y-45490152D01*
X36343752Y-45659405D01*
X36334282Y-45666135D01*
X36319827Y-45677716D01*
X36307537Y-45693197D01*
X36308088Y-45695586D01*
X36314027Y-45703936D01*
X37983891Y-47373799D01*
X38000631Y-47384317D01*
X38008261Y-47381647D01*
X39681965Y-45707944D01*
X39692030Y-45691926D01*
X39680469Y-45680005D01*
X39464585Y-45534937D01*
X39454579Y-45529020D01*
X39218902Y-45407379D01*
X39150126Y-45349347D01*
X39113340Y-45267222D01*
X39115830Y-45177269D01*
X39157102Y-45097305D01*
X39228983Y-45043166D01*
X39311640Y-45025500D01*
X230692577Y-45025500D01*
X230780308Y-45045524D01*
X230850663Y-45101630D01*
X230889707Y-45182706D01*
X230889707Y-45272694D01*
X230850663Y-45353770D01*
X230779626Y-45410203D01*
X230623754Y-45484550D01*
X230613565Y-45490152D01*
X230343752Y-45659405D01*
X230334282Y-45666135D01*
X230319827Y-45677716D01*
X230307537Y-45693197D01*
X230308088Y-45695586D01*
X230314027Y-45703936D01*
X231983891Y-47373799D01*
X232000631Y-47384317D01*
X232008261Y-47381647D01*
X233681965Y-45707944D01*
X233692030Y-45691926D01*
X233680469Y-45680005D01*
X233464585Y-45534937D01*
X233454579Y-45529020D01*
X233218902Y-45407379D01*
X233150126Y-45349347D01*
X233113340Y-45267222D01*
X233115830Y-45177269D01*
X233157102Y-45097305D01*
X233228983Y-45043166D01*
X233311640Y-45025500D01*
X234772300Y-45025500D01*
X234860031Y-45045524D01*
X234930386Y-45101630D01*
X234969430Y-45182706D01*
X234974500Y-45227700D01*
X234974500Y-46687160D01*
X234954476Y-46774891D01*
X234898370Y-46845246D01*
X234817294Y-46884290D01*
X234727306Y-46884290D01*
X234646230Y-46845246D01*
X234590124Y-46774891D01*
X234586312Y-46766490D01*
X234570876Y-46730300D01*
X234565703Y-46719880D01*
X234407906Y-46443233D01*
X234401558Y-46433459D01*
X234319793Y-46322150D01*
X234304835Y-46309219D01*
X234304594Y-46309264D01*
X234292817Y-46317274D01*
X232626201Y-47983891D01*
X232615683Y-48000631D01*
X232618353Y-48008261D01*
X234293091Y-49683000D01*
X234308897Y-49692931D01*
X234321139Y-49680933D01*
X234480264Y-49438691D01*
X234486072Y-49428630D01*
X234591660Y-49218693D01*
X234648969Y-49149314D01*
X234730704Y-49111671D01*
X234820679Y-49113219D01*
X234901071Y-49153652D01*
X234955958Y-49224962D01*
X234974500Y-49309546D01*
X234974500Y-140687160D01*
X234954476Y-140774891D01*
X234898370Y-140845246D01*
X234817294Y-140884290D01*
X234727306Y-140884290D01*
X234646230Y-140845246D01*
X234590124Y-140774891D01*
X234586312Y-140766490D01*
X234570876Y-140730300D01*
X234565703Y-140719880D01*
X234407906Y-140443233D01*
X234401558Y-140433459D01*
X234319793Y-140322150D01*
X234304835Y-140309219D01*
X234304594Y-140309264D01*
X234292817Y-140317274D01*
X232626201Y-141983891D01*
X232615683Y-142000631D01*
X232618353Y-142008261D01*
X234293091Y-143683000D01*
X234308897Y-143692931D01*
X234321139Y-143680933D01*
X234480264Y-143438691D01*
X234486072Y-143428630D01*
X234591660Y-143218693D01*
X234648969Y-143149314D01*
X234730704Y-143111671D01*
X234820679Y-143113219D01*
X234901071Y-143153652D01*
X234955958Y-143224962D01*
X234974500Y-143309546D01*
X234974500Y-144772300D01*
X234954476Y-144860031D01*
X234898370Y-144930386D01*
X234817294Y-144969430D01*
X234772300Y-144974500D01*
X233310135Y-144974500D01*
X233222404Y-144954476D01*
X233152049Y-144898370D01*
X233113005Y-144817294D01*
X233113005Y-144727306D01*
X233152049Y-144646230D01*
X233228862Y-144587153D01*
X233296547Y-144557442D01*
X233306919Y-144552156D01*
X233581896Y-144391472D01*
X233591600Y-144385025D01*
X233678094Y-144320084D01*
X233690866Y-144304993D01*
X233690711Y-144304210D01*
X233683202Y-144293293D01*
X232016109Y-142626201D01*
X231999369Y-142615683D01*
X231991739Y-142618353D01*
X230319770Y-144290321D01*
X230309321Y-144306950D01*
X230319588Y-144317875D01*
X230458699Y-144417836D01*
X230468527Y-144424073D01*
X230746825Y-144578971D01*
X230757279Y-144584025D01*
X230760819Y-144585491D01*
X230761902Y-144586259D01*
X230762530Y-144586563D01*
X230762479Y-144586669D01*
X230834209Y-144637564D01*
X230877738Y-144716323D01*
X230882784Y-144806169D01*
X230848348Y-144889306D01*
X230781250Y-144949270D01*
X230694780Y-144974182D01*
X230683441Y-144974500D01*
X39310135Y-144974500D01*
X39222404Y-144954476D01*
X39152049Y-144898370D01*
X39113005Y-144817294D01*
X39113005Y-144727306D01*
X39152049Y-144646230D01*
X39228862Y-144587153D01*
X39296547Y-144557442D01*
X39306919Y-144552156D01*
X39581896Y-144391472D01*
X39591600Y-144385025D01*
X39678094Y-144320084D01*
X39690866Y-144304993D01*
X39690711Y-144304210D01*
X39683202Y-144293293D01*
X38016109Y-142626201D01*
X37999369Y-142615683D01*
X37991739Y-142618353D01*
X36319770Y-144290321D01*
X36309321Y-144306950D01*
X36319588Y-144317875D01*
X36458699Y-144417836D01*
X36468527Y-144424073D01*
X36746825Y-144578971D01*
X36757279Y-144584025D01*
X36760819Y-144585491D01*
X36761902Y-144586259D01*
X36762530Y-144586563D01*
X36762479Y-144586669D01*
X36834209Y-144637564D01*
X36877738Y-144716323D01*
X36882784Y-144806169D01*
X36848348Y-144889306D01*
X36781250Y-144949270D01*
X36694780Y-144974182D01*
X36683441Y-144974500D01*
X35227700Y-144974500D01*
X35139969Y-144954476D01*
X35069614Y-144898370D01*
X35030570Y-144817294D01*
X35025500Y-144772300D01*
X35025500Y-143314370D01*
X35045524Y-143226639D01*
X35101630Y-143156284D01*
X35182706Y-143117240D01*
X35272694Y-143117240D01*
X35353770Y-143156284D01*
X35406397Y-143219755D01*
X35544385Y-143480369D01*
X35550414Y-143490324D01*
X35679737Y-143678490D01*
X35693835Y-143691473D01*
X35707264Y-143682645D01*
X37373799Y-142016109D01*
X37383524Y-142000631D01*
X38615683Y-142000631D01*
X38618353Y-142008261D01*
X40293091Y-143683000D01*
X40308897Y-143692931D01*
X40321139Y-143680933D01*
X40480264Y-143438691D01*
X40486072Y-143428630D01*
X40629190Y-143144072D01*
X40633799Y-143133422D01*
X40743256Y-142834317D01*
X40746620Y-142823173D01*
X40820969Y-142513488D01*
X40823031Y-142502031D01*
X40861453Y-142184522D01*
X40862134Y-142175563D01*
X40867510Y-142004506D01*
X40867393Y-141995505D01*
X40862794Y-141915737D01*
X229133915Y-141915737D01*
X229142253Y-142234138D01*
X229143226Y-142245725D01*
X229188102Y-142561040D01*
X229190404Y-142572457D01*
X229271220Y-142880508D01*
X229274820Y-142891588D01*
X229390511Y-143188320D01*
X229395355Y-143198900D01*
X229544385Y-143480369D01*
X229550414Y-143490324D01*
X229679737Y-143678490D01*
X229693835Y-143691473D01*
X229707264Y-143682645D01*
X231373799Y-142016109D01*
X231384317Y-141999369D01*
X231381647Y-141991739D01*
X229708835Y-140318926D01*
X229692095Y-140308408D01*
X229690305Y-140309034D01*
X229681943Y-140316570D01*
X229648832Y-140358798D01*
X229642182Y-140368366D01*
X229475775Y-140639916D01*
X229470271Y-140650183D01*
X229336179Y-140939061D01*
X229331896Y-140949876D01*
X229231891Y-141252265D01*
X229228880Y-141263502D01*
X229164293Y-141575379D01*
X229162593Y-141586887D01*
X229134280Y-141904136D01*
X229133915Y-141915737D01*
X40862794Y-141915737D01*
X40848983Y-141676219D01*
X40847644Y-141664654D01*
X40792886Y-141350905D01*
X40790231Y-141339585D01*
X40699776Y-141034211D01*
X40695831Y-141023254D01*
X40570876Y-140730301D01*
X40565703Y-140719880D01*
X40407906Y-140443233D01*
X40401558Y-140433459D01*
X40319793Y-140322150D01*
X40304835Y-140309219D01*
X40304594Y-140309264D01*
X40292817Y-140317274D01*
X38626201Y-141983891D01*
X38615683Y-142000631D01*
X37383524Y-142000631D01*
X37384317Y-141999369D01*
X37381647Y-141991739D01*
X35708835Y-140318926D01*
X35692095Y-140308408D01*
X35690305Y-140309034D01*
X35681943Y-140316570D01*
X35648832Y-140358798D01*
X35642182Y-140368366D01*
X35475775Y-140639916D01*
X35470270Y-140650183D01*
X35411104Y-140777647D01*
X35356004Y-140848793D01*
X35275491Y-140888985D01*
X35185513Y-140890264D01*
X35103890Y-140852376D01*
X35046789Y-140782826D01*
X35025500Y-140692514D01*
X35025500Y-139693197D01*
X36307537Y-139693197D01*
X36308088Y-139695586D01*
X36314027Y-139703936D01*
X37983891Y-141373799D01*
X38000631Y-141384317D01*
X38008261Y-141381647D01*
X39681965Y-139707944D01*
X39692030Y-139691926D01*
X39680469Y-139680005D01*
X39464585Y-139534937D01*
X39454579Y-139529020D01*
X39171551Y-139382939D01*
X39160936Y-139378213D01*
X38862985Y-139265626D01*
X38851902Y-139262153D01*
X38542988Y-139184560D01*
X38531575Y-139182382D01*
X38215799Y-139140810D01*
X38204196Y-139139957D01*
X37885748Y-139134955D01*
X37874109Y-139135443D01*
X37557190Y-139167076D01*
X37545720Y-139168892D01*
X37234521Y-139236745D01*
X37223323Y-139239871D01*
X36921989Y-139343040D01*
X36911230Y-139347431D01*
X36623754Y-139484550D01*
X36613565Y-139490152D01*
X36343752Y-139659405D01*
X36334282Y-139666135D01*
X36319827Y-139677716D01*
X36307537Y-139693197D01*
X35025500Y-139693197D01*
X35025500Y-138360222D01*
X204756091Y-138360222D01*
X204757292Y-138363654D01*
X204762597Y-138369742D01*
X205153363Y-138697632D01*
X205158969Y-138702012D01*
X205597512Y-139020633D01*
X205603373Y-139024586D01*
X206063092Y-139311851D01*
X206069217Y-139315387D01*
X206547849Y-139569879D01*
X206554214Y-139572984D01*
X207049447Y-139793476D01*
X207055971Y-139796112D01*
X207565410Y-139981533D01*
X207572095Y-139983705D01*
X208093199Y-140133129D01*
X208100073Y-140134842D01*
X208630295Y-140247544D01*
X208637283Y-140248777D01*
X209174080Y-140324219D01*
X209181129Y-140324960D01*
X209721875Y-140362772D01*
X209728961Y-140363020D01*
X210271039Y-140363020D01*
X210278125Y-140362772D01*
X210818871Y-140324960D01*
X210825920Y-140324219D01*
X211362717Y-140248777D01*
X211369705Y-140247544D01*
X211899927Y-140134842D01*
X211906801Y-140133129D01*
X212427905Y-139983705D01*
X212434590Y-139981533D01*
X212944029Y-139796112D01*
X212950553Y-139793476D01*
X213175783Y-139693197D01*
X230307537Y-139693197D01*
X230308088Y-139695586D01*
X230314027Y-139703936D01*
X231983891Y-141373799D01*
X232000631Y-141384317D01*
X232008261Y-141381647D01*
X233681965Y-139707944D01*
X233692030Y-139691926D01*
X233680469Y-139680005D01*
X233464585Y-139534937D01*
X233454579Y-139529020D01*
X233171551Y-139382939D01*
X233160936Y-139378213D01*
X232862985Y-139265626D01*
X232851902Y-139262153D01*
X232542988Y-139184560D01*
X232531575Y-139182382D01*
X232215799Y-139140810D01*
X232204196Y-139139957D01*
X231885748Y-139134955D01*
X231874109Y-139135443D01*
X231557190Y-139167076D01*
X231545720Y-139168892D01*
X231234521Y-139236745D01*
X231223323Y-139239871D01*
X230921989Y-139343040D01*
X230911230Y-139347431D01*
X230623754Y-139484550D01*
X230613565Y-139490152D01*
X230343752Y-139659405D01*
X230334282Y-139666135D01*
X230319827Y-139677716D01*
X230307537Y-139693197D01*
X213175783Y-139693197D01*
X213445786Y-139572984D01*
X213452151Y-139569879D01*
X213930783Y-139315387D01*
X213936908Y-139311851D01*
X214396627Y-139024586D01*
X214402488Y-139020633D01*
X214841031Y-138702012D01*
X214846637Y-138697632D01*
X215232046Y-138374237D01*
X215243985Y-138358476D01*
X215243087Y-138354949D01*
X215238335Y-138348426D01*
X210016109Y-133126201D01*
X209999369Y-133115683D01*
X209991739Y-133118353D01*
X204766609Y-138343482D01*
X204756091Y-138360222D01*
X35025500Y-138360222D01*
X35025500Y-129908663D01*
X57093615Y-129908663D01*
X57102378Y-130243320D01*
X57149548Y-130574752D01*
X57234499Y-130898566D01*
X57236613Y-130903989D01*
X57236614Y-130903991D01*
X57243384Y-130921354D01*
X57356105Y-131210470D01*
X57512755Y-131506329D01*
X57516053Y-131511127D01*
X57516055Y-131511131D01*
X57682360Y-131753106D01*
X57702371Y-131782223D01*
X57706204Y-131786617D01*
X57706208Y-131786622D01*
X57918609Y-132030102D01*
X57918616Y-132030109D01*
X57922442Y-132034495D01*
X57926750Y-132038415D01*
X57926753Y-132038418D01*
X58131233Y-132224480D01*
X58170050Y-132259801D01*
X58174786Y-132263204D01*
X58174787Y-132263205D01*
X58399850Y-132424929D01*
X58441912Y-132455154D01*
X58734426Y-132617965D01*
X59043715Y-132746076D01*
X59365679Y-132837790D01*
X59371432Y-132838732D01*
X59371436Y-132838733D01*
X59625436Y-132880327D01*
X59696050Y-132891891D01*
X59929400Y-132902896D01*
X60024637Y-132907387D01*
X60024639Y-132907387D01*
X60030450Y-132907661D01*
X60098321Y-132903034D01*
X60358640Y-132885287D01*
X60358643Y-132885287D01*
X60364446Y-132884891D01*
X60693612Y-132823884D01*
X60699181Y-132822171D01*
X60699184Y-132822170D01*
X61008005Y-132727164D01*
X61008011Y-132727162D01*
X61013585Y-132725447D01*
X61018926Y-132723103D01*
X61018930Y-132723101D01*
X61314784Y-132593231D01*
X61314789Y-132593228D01*
X61320123Y-132590887D01*
X61325148Y-132587950D01*
X61325157Y-132587946D01*
X61604125Y-132424929D01*
X61609163Y-132421985D01*
X61619166Y-132414475D01*
X61626907Y-132408663D01*
X167093615Y-132408663D01*
X167093767Y-132414472D01*
X167093767Y-132414475D01*
X167095585Y-132483891D01*
X167102378Y-132743320D01*
X167149548Y-133074752D01*
X167234499Y-133398566D01*
X167356105Y-133710470D01*
X167512755Y-134006329D01*
X167702371Y-134282223D01*
X167706204Y-134286617D01*
X167706208Y-134286622D01*
X167918609Y-134530102D01*
X167918616Y-134530109D01*
X167922442Y-134534495D01*
X167926750Y-134538415D01*
X167926753Y-134538418D01*
X168131233Y-134724480D01*
X168170050Y-134759801D01*
X168174786Y-134763204D01*
X168174787Y-134763205D01*
X168399850Y-134924929D01*
X168441912Y-134955154D01*
X168734426Y-135117965D01*
X169043715Y-135246076D01*
X169365679Y-135337790D01*
X169371432Y-135338732D01*
X169371436Y-135338733D01*
X169625436Y-135380327D01*
X169696050Y-135391891D01*
X169929400Y-135402896D01*
X170024637Y-135407387D01*
X170024639Y-135407387D01*
X170030450Y-135407661D01*
X170098321Y-135403034D01*
X170358640Y-135385287D01*
X170358643Y-135385287D01*
X170364446Y-135384891D01*
X170693612Y-135323884D01*
X170699181Y-135322171D01*
X170699184Y-135322170D01*
X171008005Y-135227164D01*
X171008011Y-135227162D01*
X171013585Y-135225447D01*
X171018926Y-135223103D01*
X171018930Y-135223101D01*
X171314784Y-135093231D01*
X171314789Y-135093228D01*
X171320123Y-135090887D01*
X171325148Y-135087950D01*
X171325157Y-135087946D01*
X171604125Y-134924929D01*
X171609163Y-134921985D01*
X171876875Y-134720981D01*
X171928480Y-134672010D01*
X172115485Y-134494550D01*
X172115491Y-134494544D01*
X172119710Y-134490540D01*
X172334449Y-134233715D01*
X172337654Y-134228836D01*
X172515046Y-133958782D01*
X172515048Y-133958778D01*
X172518246Y-133953910D01*
X172668665Y-133654835D01*
X172783713Y-133340452D01*
X172861864Y-133014931D01*
X172902082Y-132682584D01*
X172907709Y-132503522D01*
X202132310Y-132503522D01*
X202151230Y-133045304D01*
X202151723Y-133052348D01*
X202208385Y-133591460D01*
X202209371Y-133598479D01*
X202303507Y-134132347D01*
X202304967Y-134139217D01*
X202436122Y-134665249D01*
X202438060Y-134672010D01*
X202605583Y-135187593D01*
X202607997Y-135194225D01*
X202811071Y-135696850D01*
X202813946Y-135703308D01*
X203051585Y-136190539D01*
X203054901Y-136196777D01*
X203325944Y-136666237D01*
X203329697Y-136672243D01*
X203632828Y-137121651D01*
X203636979Y-137127366D01*
X203970731Y-137554549D01*
X203975274Y-137559962D01*
X204128071Y-137729661D01*
X204144238Y-137741042D01*
X204149485Y-137739509D01*
X204153227Y-137736682D01*
X209373799Y-132516109D01*
X209383524Y-132500631D01*
X210615683Y-132500631D01*
X210618353Y-132508261D01*
X215840575Y-137730484D01*
X215857315Y-137741002D01*
X215862473Y-137739197D01*
X215866060Y-137736179D01*
X216024726Y-137559962D01*
X216029269Y-137554549D01*
X216363021Y-137127366D01*
X216367172Y-137121651D01*
X216670303Y-136672243D01*
X216674056Y-136666237D01*
X216945099Y-136196777D01*
X216948415Y-136190539D01*
X217186054Y-135703308D01*
X217188929Y-135696850D01*
X217392003Y-135194225D01*
X217394417Y-135187593D01*
X217561940Y-134672010D01*
X217563878Y-134665249D01*
X217695033Y-134139217D01*
X217696493Y-134132347D01*
X217790629Y-133598479D01*
X217791615Y-133591460D01*
X217848277Y-133052348D01*
X217848770Y-133045304D01*
X217867690Y-132503522D01*
X217867690Y-132496478D01*
X217848770Y-131954696D01*
X217848277Y-131947652D01*
X217791615Y-131408540D01*
X217790629Y-131401521D01*
X217696493Y-130867653D01*
X217695033Y-130860783D01*
X217563878Y-130334751D01*
X217561940Y-130327990D01*
X217394417Y-129812407D01*
X217392003Y-129805775D01*
X217188929Y-129303150D01*
X217186054Y-129296692D01*
X216948415Y-128809461D01*
X216945099Y-128803223D01*
X216674056Y-128333763D01*
X216670303Y-128327757D01*
X216367172Y-127878349D01*
X216363021Y-127872634D01*
X216029269Y-127445451D01*
X216024726Y-127440038D01*
X215871929Y-127270339D01*
X215855762Y-127258958D01*
X215850515Y-127260491D01*
X215846773Y-127263318D01*
X210626201Y-132483891D01*
X210615683Y-132500631D01*
X209383524Y-132500631D01*
X209384317Y-132499369D01*
X209381647Y-132491739D01*
X204159425Y-127269516D01*
X204142685Y-127258998D01*
X204137527Y-127260803D01*
X204133940Y-127263821D01*
X203975274Y-127440038D01*
X203970731Y-127445451D01*
X203636979Y-127872634D01*
X203632828Y-127878349D01*
X203329697Y-128327757D01*
X203325944Y-128333763D01*
X203054901Y-128803223D01*
X203051585Y-128809461D01*
X202813946Y-129296692D01*
X202811071Y-129303150D01*
X202607997Y-129805775D01*
X202605583Y-129812407D01*
X202438060Y-130327990D01*
X202436122Y-130334751D01*
X202304967Y-130860783D01*
X202303507Y-130867653D01*
X202209371Y-131401521D01*
X202208385Y-131408540D01*
X202151723Y-131947652D01*
X202151230Y-131954696D01*
X202132310Y-132496478D01*
X202132310Y-132503522D01*
X172907709Y-132503522D01*
X172907820Y-132500000D01*
X172905038Y-132451751D01*
X172888885Y-132171602D01*
X172888884Y-132171594D01*
X172888549Y-132165783D01*
X172830992Y-131835997D01*
X172816367Y-131786622D01*
X172737569Y-131520604D01*
X172737567Y-131520600D01*
X172735912Y-131515011D01*
X172604569Y-131207081D01*
X172438703Y-130916288D01*
X172425685Y-130898566D01*
X172243960Y-130651177D01*
X172243959Y-130651176D01*
X172240514Y-130646486D01*
X172012628Y-130401251D01*
X172008202Y-130397471D01*
X172008198Y-130397467D01*
X171762498Y-130187620D01*
X171762497Y-130187619D01*
X171758065Y-130183834D01*
X171683009Y-130133398D01*
X171485035Y-130000365D01*
X171485031Y-130000363D01*
X171480201Y-129997117D01*
X171182717Y-129843574D01*
X170869557Y-129725241D01*
X170609975Y-129660038D01*
X170550529Y-129645106D01*
X170550526Y-129645105D01*
X170544871Y-129643685D01*
X170539093Y-129642924D01*
X170539086Y-129642923D01*
X170321736Y-129614309D01*
X170212963Y-129599989D01*
X170207144Y-129599898D01*
X170207136Y-129599897D01*
X170027532Y-129597076D01*
X169878233Y-129594731D01*
X169545117Y-129627980D01*
X169218030Y-129699297D01*
X169212523Y-129701182D01*
X169212521Y-129701183D01*
X168906812Y-129805850D01*
X168906809Y-129805851D01*
X168901307Y-129807735D01*
X168599147Y-129951858D01*
X168315555Y-130129755D01*
X168054289Y-130339069D01*
X168050193Y-130343208D01*
X168050192Y-130343209D01*
X167988533Y-130405517D01*
X167818812Y-130577024D01*
X167612246Y-130840468D01*
X167437328Y-131125907D01*
X167296377Y-131429560D01*
X167191262Y-131747401D01*
X167123374Y-132075217D01*
X167093615Y-132408663D01*
X61626907Y-132408663D01*
X61708293Y-132347556D01*
X61876875Y-132220981D01*
X62036492Y-132069511D01*
X62115485Y-131994550D01*
X62115491Y-131994544D01*
X62119710Y-131990540D01*
X62334449Y-131733715D01*
X62337654Y-131728836D01*
X62515046Y-131458782D01*
X62515048Y-131458778D01*
X62518246Y-131453910D01*
X62668665Y-131154835D01*
X62783713Y-130840452D01*
X62861864Y-130514931D01*
X62902082Y-130182584D01*
X62907820Y-130000000D01*
X62902889Y-129914475D01*
X62888885Y-129671602D01*
X62888884Y-129671594D01*
X62888549Y-129665783D01*
X62830992Y-129335997D01*
X62735912Y-129015011D01*
X62604569Y-128707081D01*
X62438703Y-128416288D01*
X62240514Y-128146486D01*
X62012628Y-127901251D01*
X62008202Y-127897471D01*
X62008198Y-127897467D01*
X61762498Y-127687620D01*
X61762497Y-127687619D01*
X61758065Y-127683834D01*
X61683009Y-127633398D01*
X61485035Y-127500365D01*
X61485031Y-127500363D01*
X61480201Y-127497117D01*
X61182717Y-127343574D01*
X60869557Y-127225241D01*
X60647541Y-127169474D01*
X60550529Y-127145106D01*
X60550526Y-127145105D01*
X60544871Y-127143685D01*
X60539093Y-127142924D01*
X60539086Y-127142923D01*
X60321736Y-127114309D01*
X60212963Y-127099989D01*
X60207144Y-127099898D01*
X60207136Y-127099897D01*
X60027532Y-127097076D01*
X59878233Y-127094731D01*
X59545117Y-127127980D01*
X59218030Y-127199297D01*
X59212523Y-127201182D01*
X59212521Y-127201183D01*
X58906812Y-127305850D01*
X58906809Y-127305851D01*
X58901307Y-127307735D01*
X58599147Y-127451858D01*
X58315555Y-127629755D01*
X58054289Y-127839069D01*
X58050193Y-127843208D01*
X58050192Y-127843209D01*
X57988533Y-127905517D01*
X57818812Y-128077024D01*
X57612246Y-128340468D01*
X57437328Y-128625907D01*
X57296377Y-128929560D01*
X57191262Y-129247401D01*
X57123374Y-129575217D01*
X57093615Y-129908663D01*
X35025500Y-129908663D01*
X35025500Y-126641524D01*
X204756015Y-126641524D01*
X204756913Y-126645051D01*
X204761665Y-126651574D01*
X209983891Y-131873799D01*
X210000631Y-131884317D01*
X210008261Y-131881647D01*
X215233391Y-126656518D01*
X215243909Y-126639778D01*
X215242708Y-126636346D01*
X215237403Y-126630258D01*
X214846637Y-126302368D01*
X214841031Y-126297988D01*
X214402488Y-125979367D01*
X214396627Y-125975414D01*
X213936908Y-125688149D01*
X213930783Y-125684613D01*
X213452151Y-125430121D01*
X213445786Y-125427016D01*
X212950553Y-125206524D01*
X212944029Y-125203888D01*
X212434590Y-125018467D01*
X212427905Y-125016295D01*
X211906801Y-124866871D01*
X211899927Y-124865158D01*
X211369705Y-124752456D01*
X211362717Y-124751223D01*
X210825920Y-124675781D01*
X210818871Y-124675040D01*
X210278125Y-124637228D01*
X210271039Y-124636980D01*
X209728961Y-124636980D01*
X209721875Y-124637228D01*
X209181129Y-124675040D01*
X209174080Y-124675781D01*
X208637283Y-124751223D01*
X208630295Y-124752456D01*
X208100073Y-124865158D01*
X208093199Y-124866871D01*
X207572095Y-125016295D01*
X207565410Y-125018467D01*
X207055971Y-125203888D01*
X207049447Y-125206524D01*
X206554214Y-125427016D01*
X206547849Y-125430121D01*
X206069218Y-125684613D01*
X206063093Y-125688149D01*
X205603373Y-125975414D01*
X205597512Y-125979367D01*
X205158969Y-126297988D01*
X205153363Y-126302368D01*
X204767954Y-126625763D01*
X204756015Y-126641524D01*
X35025500Y-126641524D01*
X35025500Y-124087057D01*
X131529256Y-124087057D01*
X131531061Y-124092215D01*
X131534079Y-124095802D01*
X131575397Y-124133005D01*
X131581911Y-124138394D01*
X131933237Y-124405064D01*
X131940199Y-124409903D01*
X132312594Y-124646232D01*
X132319952Y-124650480D01*
X132710824Y-124854822D01*
X132718461Y-124858417D01*
X133125093Y-125029350D01*
X133133016Y-125032296D01*
X133552512Y-125168599D01*
X133560656Y-125170872D01*
X133990081Y-125271593D01*
X133998397Y-125273179D01*
X134434730Y-125337612D01*
X134443168Y-125338499D01*
X134883353Y-125366193D01*
X134891828Y-125366370D01*
X135332818Y-125357132D01*
X135341243Y-125356602D01*
X135779896Y-125310498D01*
X135788294Y-125309258D01*
X136221525Y-125226614D01*
X136229802Y-125224673D01*
X136654604Y-125106066D01*
X136662670Y-125103445D01*
X137076056Y-124949709D01*
X137083885Y-124946418D01*
X137482972Y-124758621D01*
X137490476Y-124754698D01*
X137872447Y-124534167D01*
X137879610Y-124529621D01*
X138241785Y-124277904D01*
X138248531Y-124272784D01*
X138457634Y-124099799D01*
X138469680Y-124084124D01*
X138468895Y-124080948D01*
X138463771Y-124073862D01*
X135016109Y-120626201D01*
X134999369Y-120615683D01*
X134991739Y-120618353D01*
X131539774Y-124070317D01*
X131529256Y-124087057D01*
X35025500Y-124087057D01*
X35025500Y-119908663D01*
X57093615Y-119908663D01*
X57102378Y-120243320D01*
X57149548Y-120574752D01*
X57234499Y-120898566D01*
X57356105Y-121210470D01*
X57512755Y-121506329D01*
X57516053Y-121511127D01*
X57516055Y-121511131D01*
X57693397Y-121769165D01*
X57702371Y-121782223D01*
X57706204Y-121786617D01*
X57706208Y-121786622D01*
X57918609Y-122030102D01*
X57918616Y-122030109D01*
X57922442Y-122034495D01*
X57926750Y-122038415D01*
X57926753Y-122038418D01*
X58131233Y-122224480D01*
X58170050Y-122259801D01*
X58174786Y-122263204D01*
X58174787Y-122263205D01*
X58399850Y-122424929D01*
X58441912Y-122455154D01*
X58734426Y-122617965D01*
X59043715Y-122746076D01*
X59365679Y-122837790D01*
X59371432Y-122838732D01*
X59371436Y-122838733D01*
X59625436Y-122880327D01*
X59696050Y-122891891D01*
X59929400Y-122902896D01*
X60024637Y-122907387D01*
X60024639Y-122907387D01*
X60030450Y-122907661D01*
X60098321Y-122903034D01*
X60358640Y-122885287D01*
X60358643Y-122885287D01*
X60364446Y-122884891D01*
X60693612Y-122823884D01*
X60699181Y-122822171D01*
X60699184Y-122822170D01*
X61008005Y-122727164D01*
X61008011Y-122727162D01*
X61013585Y-122725447D01*
X61018926Y-122723103D01*
X61018930Y-122723101D01*
X61314784Y-122593231D01*
X61314789Y-122593228D01*
X61320123Y-122590887D01*
X61325148Y-122587950D01*
X61325157Y-122587946D01*
X61604125Y-122424929D01*
X61609163Y-122421985D01*
X61876875Y-122220981D01*
X61912669Y-122187014D01*
X62115485Y-121994550D01*
X62115491Y-121994544D01*
X62119710Y-121990540D01*
X62334449Y-121733715D01*
X62451570Y-121555415D01*
X62515046Y-121458782D01*
X62515048Y-121458778D01*
X62518246Y-121453910D01*
X62668665Y-121154835D01*
X62783713Y-120840452D01*
X62861864Y-120514931D01*
X62897490Y-120220532D01*
X129637072Y-120220532D01*
X129637427Y-120228997D01*
X129674334Y-120668518D01*
X129675397Y-120676930D01*
X129748954Y-121111822D01*
X129750710Y-121120084D01*
X129860405Y-121547320D01*
X129862849Y-121555415D01*
X130007908Y-121971969D01*
X130011017Y-121979820D01*
X130190418Y-122382762D01*
X130194190Y-122390360D01*
X130406678Y-122776873D01*
X130411055Y-122784100D01*
X130655153Y-123151499D01*
X130660117Y-123158330D01*
X130898636Y-123459266D01*
X130914056Y-123471639D01*
X130916178Y-123471161D01*
X130924957Y-123464952D01*
X134373799Y-120016109D01*
X134383524Y-120000631D01*
X135615683Y-120000631D01*
X135618353Y-120008261D01*
X139068909Y-123458818D01*
X139085649Y-123469336D01*
X139089773Y-123467893D01*
X139094871Y-123463512D01*
X139203817Y-123337297D01*
X139209069Y-123330671D01*
X139468329Y-122973830D01*
X139473009Y-122966787D01*
X139701505Y-122589494D01*
X139705576Y-122582089D01*
X139901693Y-122187014D01*
X139905140Y-122179272D01*
X140067513Y-121769165D01*
X140070292Y-121761187D01*
X140197779Y-121338928D01*
X140199883Y-121330734D01*
X140291586Y-120899302D01*
X140292998Y-120890955D01*
X140348281Y-120453348D01*
X140348988Y-120444926D01*
X140367459Y-120004223D01*
X140367459Y-119995777D01*
X140348988Y-119555074D01*
X140348281Y-119546652D01*
X140292998Y-119109045D01*
X140291586Y-119100698D01*
X140199883Y-118669266D01*
X140197779Y-118661072D01*
X140070292Y-118238813D01*
X140067513Y-118230835D01*
X139905140Y-117820728D01*
X139901693Y-117812986D01*
X139705576Y-117417911D01*
X139701505Y-117410506D01*
X139473009Y-117033213D01*
X139468329Y-117026170D01*
X139209069Y-116669329D01*
X139203817Y-116662703D01*
X139099906Y-116542321D01*
X139083980Y-116530603D01*
X139079758Y-116531741D01*
X139074358Y-116535733D01*
X135626201Y-119983891D01*
X135615683Y-120000631D01*
X134383524Y-120000631D01*
X134384317Y-119999369D01*
X134381647Y-119991739D01*
X130928897Y-116538988D01*
X130912157Y-116528470D01*
X130910106Y-116529188D01*
X130902099Y-116536365D01*
X130660117Y-116841670D01*
X130655153Y-116848501D01*
X130411055Y-117215900D01*
X130406678Y-117223127D01*
X130194190Y-117609640D01*
X130190418Y-117617238D01*
X130011017Y-118020180D01*
X130007908Y-118028031D01*
X129862849Y-118444585D01*
X129860405Y-118452680D01*
X129750710Y-118879916D01*
X129748954Y-118888178D01*
X129675397Y-119323070D01*
X129674334Y-119331482D01*
X129637427Y-119771003D01*
X129637072Y-119779468D01*
X129637072Y-120220532D01*
X62897490Y-120220532D01*
X62902082Y-120182584D01*
X62907820Y-120000000D01*
X62902889Y-119914475D01*
X62888885Y-119671602D01*
X62888884Y-119671594D01*
X62888549Y-119665783D01*
X62830992Y-119335997D01*
X62735912Y-119015011D01*
X62604569Y-118707081D01*
X62459461Y-118452680D01*
X62441593Y-118421354D01*
X62441590Y-118421349D01*
X62438703Y-118416288D01*
X62308335Y-118238813D01*
X62243960Y-118151177D01*
X62243959Y-118151176D01*
X62240514Y-118146486D01*
X62012628Y-117901251D01*
X62008202Y-117897471D01*
X62008198Y-117897467D01*
X61762498Y-117687620D01*
X61762497Y-117687619D01*
X61758065Y-117683834D01*
X61683009Y-117633398D01*
X61485035Y-117500365D01*
X61485031Y-117500363D01*
X61480201Y-117497117D01*
X61182717Y-117343574D01*
X60869557Y-117225241D01*
X60647541Y-117169474D01*
X60550529Y-117145106D01*
X60550526Y-117145105D01*
X60544871Y-117143685D01*
X60539093Y-117142924D01*
X60539086Y-117142923D01*
X60321736Y-117114309D01*
X60212963Y-117099989D01*
X60207144Y-117099898D01*
X60207136Y-117099897D01*
X60027532Y-117097076D01*
X59878233Y-117094731D01*
X59545117Y-117127980D01*
X59218030Y-117199297D01*
X59212523Y-117201182D01*
X59212521Y-117201183D01*
X58906812Y-117305850D01*
X58906809Y-117305851D01*
X58901307Y-117307735D01*
X58599147Y-117451858D01*
X58414477Y-117567701D01*
X58335509Y-117617238D01*
X58315555Y-117629755D01*
X58054289Y-117839069D01*
X58050193Y-117843208D01*
X58050192Y-117843209D01*
X57988533Y-117905517D01*
X57818812Y-118077024D01*
X57815218Y-118081608D01*
X57815215Y-118081611D01*
X57649072Y-118293502D01*
X57612246Y-118340468D01*
X57437328Y-118625907D01*
X57296377Y-118929560D01*
X57191262Y-119247401D01*
X57123374Y-119575217D01*
X57093615Y-119908663D01*
X35025500Y-119908663D01*
X35025500Y-115914496D01*
X131529215Y-115914496D01*
X131530748Y-115919744D01*
X131533572Y-115923481D01*
X134983891Y-119373799D01*
X135000631Y-119384317D01*
X135008261Y-119381647D01*
X138459078Y-115930831D01*
X138469596Y-115914091D01*
X138468515Y-115911002D01*
X138462749Y-115904433D01*
X138248531Y-115727216D01*
X138241785Y-115722096D01*
X137879610Y-115470379D01*
X137872447Y-115465833D01*
X137490476Y-115245302D01*
X137482972Y-115241379D01*
X137083885Y-115053582D01*
X137076056Y-115050291D01*
X136662670Y-114896555D01*
X136654604Y-114893934D01*
X136229802Y-114775327D01*
X136221525Y-114773386D01*
X135788294Y-114690742D01*
X135779896Y-114689502D01*
X135341243Y-114643398D01*
X135332818Y-114642868D01*
X134891828Y-114633630D01*
X134883353Y-114633807D01*
X134443168Y-114661501D01*
X134434730Y-114662388D01*
X133998397Y-114726821D01*
X133990081Y-114728407D01*
X133560656Y-114829128D01*
X133552512Y-114831401D01*
X133133016Y-114967704D01*
X133125093Y-114970650D01*
X132718461Y-115141583D01*
X132710824Y-115145178D01*
X132319952Y-115349520D01*
X132312594Y-115353768D01*
X131940199Y-115590097D01*
X131933237Y-115594936D01*
X131581911Y-115861606D01*
X131575397Y-115866995D01*
X131540596Y-115898330D01*
X131529215Y-115914496D01*
X35025500Y-115914496D01*
X35025500Y-113360222D01*
X204756091Y-113360222D01*
X204757292Y-113363654D01*
X204762597Y-113369742D01*
X205153363Y-113697632D01*
X205158969Y-113702012D01*
X205597512Y-114020633D01*
X205603373Y-114024586D01*
X206063092Y-114311851D01*
X206069217Y-114315387D01*
X206547849Y-114569879D01*
X206554214Y-114572984D01*
X207049447Y-114793476D01*
X207055971Y-114796112D01*
X207565410Y-114981533D01*
X207572095Y-114983705D01*
X208093199Y-115133129D01*
X208100073Y-115134842D01*
X208630295Y-115247544D01*
X208637283Y-115248777D01*
X209174080Y-115324219D01*
X209181129Y-115324960D01*
X209721875Y-115362772D01*
X209728961Y-115363020D01*
X210271039Y-115363020D01*
X210278125Y-115362772D01*
X210818871Y-115324960D01*
X210825920Y-115324219D01*
X211362717Y-115248777D01*
X211369705Y-115247544D01*
X211899927Y-115134842D01*
X211906801Y-115133129D01*
X212427905Y-114983705D01*
X212434590Y-114981533D01*
X212944029Y-114796112D01*
X212950553Y-114793476D01*
X213445786Y-114572984D01*
X213452151Y-114569879D01*
X213930783Y-114315387D01*
X213936908Y-114311851D01*
X214396627Y-114024586D01*
X214402488Y-114020633D01*
X214841031Y-113702012D01*
X214846637Y-113697632D01*
X215232046Y-113374237D01*
X215243985Y-113358476D01*
X215243087Y-113354949D01*
X215238335Y-113348426D01*
X210016109Y-108126201D01*
X209999369Y-108115683D01*
X209991739Y-108118353D01*
X204766609Y-113343482D01*
X204756091Y-113360222D01*
X35025500Y-113360222D01*
X35025500Y-109908663D01*
X57093615Y-109908663D01*
X57102378Y-110243320D01*
X57149548Y-110574752D01*
X57234499Y-110898566D01*
X57356105Y-111210470D01*
X57512755Y-111506329D01*
X57702371Y-111782223D01*
X57706204Y-111786617D01*
X57706208Y-111786622D01*
X57918609Y-112030102D01*
X57918616Y-112030109D01*
X57922442Y-112034495D01*
X57926750Y-112038415D01*
X57926753Y-112038418D01*
X58131233Y-112224480D01*
X58170050Y-112259801D01*
X58174786Y-112263204D01*
X58174787Y-112263205D01*
X58399850Y-112424929D01*
X58441912Y-112455154D01*
X58734426Y-112617965D01*
X58739798Y-112620190D01*
X59027108Y-112739197D01*
X59043715Y-112746076D01*
X59365679Y-112837790D01*
X59371432Y-112838732D01*
X59371436Y-112838733D01*
X59625436Y-112880327D01*
X59696050Y-112891891D01*
X59929400Y-112902896D01*
X60024637Y-112907387D01*
X60024639Y-112907387D01*
X60030450Y-112907661D01*
X60098321Y-112903034D01*
X60358640Y-112885287D01*
X60358643Y-112885287D01*
X60364446Y-112884891D01*
X60693612Y-112823884D01*
X60699181Y-112822171D01*
X60699184Y-112822170D01*
X61008005Y-112727164D01*
X61008011Y-112727162D01*
X61013585Y-112725447D01*
X61018926Y-112723103D01*
X61018930Y-112723101D01*
X61314784Y-112593231D01*
X61314789Y-112593228D01*
X61320123Y-112590887D01*
X61325148Y-112587950D01*
X61325157Y-112587946D01*
X61604125Y-112424929D01*
X61609163Y-112421985D01*
X61876875Y-112220981D01*
X61975525Y-112127366D01*
X62115485Y-111994550D01*
X62115491Y-111994544D01*
X62119710Y-111990540D01*
X62334449Y-111733715D01*
X62337654Y-111728836D01*
X62515046Y-111458782D01*
X62515048Y-111458778D01*
X62518246Y-111453910D01*
X62668665Y-111154835D01*
X62783713Y-110840452D01*
X62861864Y-110514931D01*
X62902082Y-110182584D01*
X62907820Y-110000000D01*
X62902889Y-109914475D01*
X62888885Y-109671602D01*
X62888884Y-109671594D01*
X62888549Y-109665783D01*
X62830992Y-109335997D01*
X62803110Y-109241869D01*
X62737569Y-109020604D01*
X62737567Y-109020600D01*
X62735912Y-109015011D01*
X62604569Y-108707081D01*
X62438703Y-108416288D01*
X62240514Y-108146486D01*
X62012628Y-107901251D01*
X62008202Y-107897471D01*
X62008198Y-107897467D01*
X61762498Y-107687620D01*
X61762497Y-107687619D01*
X61758065Y-107683834D01*
X61683009Y-107633398D01*
X61489733Y-107503522D01*
X202132310Y-107503522D01*
X202151230Y-108045304D01*
X202151723Y-108052348D01*
X202208385Y-108591460D01*
X202209371Y-108598479D01*
X202303507Y-109132347D01*
X202304967Y-109139217D01*
X202436122Y-109665249D01*
X202438060Y-109672010D01*
X202605583Y-110187593D01*
X202607997Y-110194225D01*
X202811071Y-110696850D01*
X202813946Y-110703308D01*
X203051585Y-111190539D01*
X203054901Y-111196777D01*
X203325944Y-111666237D01*
X203329697Y-111672243D01*
X203632828Y-112121651D01*
X203636979Y-112127366D01*
X203970731Y-112554549D01*
X203975274Y-112559962D01*
X204128071Y-112729661D01*
X204144238Y-112741042D01*
X204149485Y-112739509D01*
X204153227Y-112736682D01*
X209373799Y-107516109D01*
X209383524Y-107500631D01*
X210615683Y-107500631D01*
X210618353Y-107508261D01*
X215840575Y-112730484D01*
X215857315Y-112741002D01*
X215862473Y-112739197D01*
X215866060Y-112736179D01*
X216024726Y-112559962D01*
X216029269Y-112554549D01*
X216363021Y-112127366D01*
X216367172Y-112121651D01*
X216670303Y-111672243D01*
X216674056Y-111666237D01*
X216945099Y-111196777D01*
X216948415Y-111190539D01*
X217186054Y-110703308D01*
X217188929Y-110696850D01*
X217392003Y-110194225D01*
X217394417Y-110187593D01*
X217561940Y-109672010D01*
X217563878Y-109665249D01*
X217695033Y-109139217D01*
X217696493Y-109132347D01*
X217790629Y-108598479D01*
X217791615Y-108591460D01*
X217848277Y-108052348D01*
X217848770Y-108045304D01*
X217867690Y-107503522D01*
X217867690Y-107496478D01*
X217848770Y-106954696D01*
X217848277Y-106947652D01*
X217791615Y-106408540D01*
X217790629Y-106401521D01*
X217696493Y-105867653D01*
X217695033Y-105860783D01*
X217563878Y-105334751D01*
X217561940Y-105327990D01*
X217394417Y-104812407D01*
X217392003Y-104805775D01*
X217188929Y-104303150D01*
X217186054Y-104296692D01*
X216948415Y-103809461D01*
X216945099Y-103803223D01*
X216674056Y-103333763D01*
X216670303Y-103327757D01*
X216367172Y-102878349D01*
X216363021Y-102872634D01*
X216029269Y-102445451D01*
X216024726Y-102440038D01*
X215871929Y-102270339D01*
X215855762Y-102258958D01*
X215850515Y-102260491D01*
X215846773Y-102263318D01*
X210626201Y-107483891D01*
X210615683Y-107500631D01*
X209383524Y-107500631D01*
X209384317Y-107499369D01*
X209381647Y-107491739D01*
X204159425Y-102269516D01*
X204142685Y-102258998D01*
X204137527Y-102260803D01*
X204133940Y-102263821D01*
X203975274Y-102440038D01*
X203970731Y-102445451D01*
X203636979Y-102872634D01*
X203632828Y-102878349D01*
X203329697Y-103327757D01*
X203325944Y-103333763D01*
X203054901Y-103803223D01*
X203051585Y-103809461D01*
X202813946Y-104296692D01*
X202811071Y-104303150D01*
X202607997Y-104805775D01*
X202605583Y-104812407D01*
X202438060Y-105327990D01*
X202436122Y-105334751D01*
X202304967Y-105860783D01*
X202303507Y-105867653D01*
X202209371Y-106401521D01*
X202208385Y-106408540D01*
X202151723Y-106947652D01*
X202151230Y-106954696D01*
X202132310Y-107496478D01*
X202132310Y-107503522D01*
X61489733Y-107503522D01*
X61485035Y-107500365D01*
X61485031Y-107500363D01*
X61480201Y-107497117D01*
X61182717Y-107343574D01*
X60869557Y-107225241D01*
X60647541Y-107169474D01*
X60550529Y-107145106D01*
X60550526Y-107145105D01*
X60544871Y-107143685D01*
X60539093Y-107142924D01*
X60539086Y-107142923D01*
X60321736Y-107114309D01*
X60212963Y-107099989D01*
X60207144Y-107099898D01*
X60207136Y-107099897D01*
X60027532Y-107097076D01*
X59878233Y-107094731D01*
X59545117Y-107127980D01*
X59218030Y-107199297D01*
X59212523Y-107201182D01*
X59212521Y-107201183D01*
X58906812Y-107305850D01*
X58906809Y-107305851D01*
X58901307Y-107307735D01*
X58599147Y-107451858D01*
X58315555Y-107629755D01*
X58054289Y-107839069D01*
X58050193Y-107843208D01*
X58050192Y-107843209D01*
X57988533Y-107905517D01*
X57818812Y-108077024D01*
X57815218Y-108081608D01*
X57815215Y-108081611D01*
X57786406Y-108118353D01*
X57612246Y-108340468D01*
X57437328Y-108625907D01*
X57296377Y-108929560D01*
X57191262Y-109247401D01*
X57123374Y-109575217D01*
X57122856Y-109581016D01*
X57122856Y-109581019D01*
X57112755Y-109694197D01*
X57093615Y-109908663D01*
X35025500Y-109908663D01*
X35025500Y-99908663D01*
X57093615Y-99908663D01*
X57093767Y-99914472D01*
X57093767Y-99914475D01*
X57094690Y-99949709D01*
X57102378Y-100243320D01*
X57149548Y-100574752D01*
X57234499Y-100898566D01*
X57356105Y-101210470D01*
X57512755Y-101506329D01*
X57516053Y-101511127D01*
X57516055Y-101511131D01*
X57615977Y-101656518D01*
X57702371Y-101782223D01*
X57706204Y-101786617D01*
X57706208Y-101786622D01*
X57918609Y-102030102D01*
X57918616Y-102030109D01*
X57922442Y-102034495D01*
X57926750Y-102038415D01*
X57926753Y-102038418D01*
X58131233Y-102224480D01*
X58170050Y-102259801D01*
X58174786Y-102263204D01*
X58174787Y-102263205D01*
X58399850Y-102424929D01*
X58441912Y-102455154D01*
X58734426Y-102617965D01*
X59043715Y-102746076D01*
X59365679Y-102837790D01*
X59371432Y-102838732D01*
X59371436Y-102838733D01*
X59578456Y-102872634D01*
X59696050Y-102891891D01*
X59929400Y-102902896D01*
X60024637Y-102907387D01*
X60024639Y-102907387D01*
X60030450Y-102907661D01*
X60098321Y-102903034D01*
X60358640Y-102885287D01*
X60358643Y-102885287D01*
X60364446Y-102884891D01*
X60693612Y-102823884D01*
X60699181Y-102822171D01*
X60699184Y-102822170D01*
X61008005Y-102727164D01*
X61008011Y-102727162D01*
X61013585Y-102725447D01*
X61018926Y-102723103D01*
X61018930Y-102723101D01*
X61314784Y-102593231D01*
X61314789Y-102593228D01*
X61320123Y-102590887D01*
X61325148Y-102587950D01*
X61325157Y-102587946D01*
X61604125Y-102424929D01*
X61609163Y-102421985D01*
X61876875Y-102220981D01*
X61881102Y-102216970D01*
X62115485Y-101994550D01*
X62115491Y-101994544D01*
X62119710Y-101990540D01*
X62334449Y-101733715D01*
X62385158Y-101656518D01*
X62395007Y-101641524D01*
X204756015Y-101641524D01*
X204756913Y-101645051D01*
X204761665Y-101651574D01*
X209983891Y-106873799D01*
X210000631Y-106884317D01*
X210008261Y-106881647D01*
X215233391Y-101656518D01*
X215243909Y-101639778D01*
X215242708Y-101636346D01*
X215237403Y-101630258D01*
X214846637Y-101302368D01*
X214841031Y-101297988D01*
X214402488Y-100979367D01*
X214396627Y-100975414D01*
X213936908Y-100688149D01*
X213930783Y-100684613D01*
X213452151Y-100430121D01*
X213445786Y-100427016D01*
X212950553Y-100206524D01*
X212944029Y-100203888D01*
X212434590Y-100018467D01*
X212427905Y-100016295D01*
X211906801Y-99866871D01*
X211899927Y-99865158D01*
X211369705Y-99752456D01*
X211362717Y-99751223D01*
X210825920Y-99675781D01*
X210818871Y-99675040D01*
X210278125Y-99637228D01*
X210271039Y-99636980D01*
X209728961Y-99636980D01*
X209721875Y-99637228D01*
X209181129Y-99675040D01*
X209174080Y-99675781D01*
X208637283Y-99751223D01*
X208630295Y-99752456D01*
X208100073Y-99865158D01*
X208093199Y-99866871D01*
X207572095Y-100016295D01*
X207565410Y-100018467D01*
X207055971Y-100203888D01*
X207049447Y-100206524D01*
X206554214Y-100427016D01*
X206547849Y-100430121D01*
X206069218Y-100684613D01*
X206063093Y-100688149D01*
X205603373Y-100975414D01*
X205597512Y-100979367D01*
X205158969Y-101297988D01*
X205153363Y-101302368D01*
X204767954Y-101625763D01*
X204756015Y-101641524D01*
X62395007Y-101641524D01*
X62515046Y-101458782D01*
X62515048Y-101458778D01*
X62518246Y-101453910D01*
X62668665Y-101154835D01*
X62783713Y-100840452D01*
X62861864Y-100514931D01*
X62902082Y-100182584D01*
X62907820Y-100000000D01*
X62904920Y-99949709D01*
X62888885Y-99671602D01*
X62888884Y-99671594D01*
X62888549Y-99665783D01*
X62830992Y-99335997D01*
X62761027Y-99099799D01*
X62757253Y-99087057D01*
X94029256Y-99087057D01*
X94031061Y-99092215D01*
X94034079Y-99095802D01*
X94075397Y-99133005D01*
X94081911Y-99138394D01*
X94433237Y-99405064D01*
X94440199Y-99409903D01*
X94812594Y-99646232D01*
X94819952Y-99650480D01*
X95210824Y-99854822D01*
X95218461Y-99858417D01*
X95625093Y-100029350D01*
X95633016Y-100032296D01*
X96052512Y-100168599D01*
X96060656Y-100170872D01*
X96490081Y-100271593D01*
X96498397Y-100273179D01*
X96934730Y-100337612D01*
X96943168Y-100338499D01*
X97383353Y-100366193D01*
X97391828Y-100366370D01*
X97832818Y-100357132D01*
X97841243Y-100356602D01*
X98279896Y-100310498D01*
X98288294Y-100309258D01*
X98721525Y-100226614D01*
X98729802Y-100224673D01*
X99154604Y-100106066D01*
X99162670Y-100103445D01*
X99576056Y-99949709D01*
X99583885Y-99946418D01*
X99982972Y-99758621D01*
X99990476Y-99754698D01*
X100372447Y-99534167D01*
X100379610Y-99529621D01*
X100741785Y-99277904D01*
X100748531Y-99272784D01*
X100957634Y-99099799D01*
X100969680Y-99084124D01*
X100968895Y-99080948D01*
X100963771Y-99073862D01*
X97516109Y-95626201D01*
X97499369Y-95615683D01*
X97491739Y-95618353D01*
X94039774Y-99070317D01*
X94029256Y-99087057D01*
X62757253Y-99087057D01*
X62737569Y-99020604D01*
X62737567Y-99020600D01*
X62735912Y-99015011D01*
X62604569Y-98707081D01*
X62465639Y-98463512D01*
X62441593Y-98421354D01*
X62441590Y-98421349D01*
X62438703Y-98416288D01*
X62249214Y-98158330D01*
X62243960Y-98151177D01*
X62243959Y-98151176D01*
X62240514Y-98146486D01*
X62012628Y-97901251D01*
X62008202Y-97897471D01*
X62008198Y-97897467D01*
X61762498Y-97687620D01*
X61762497Y-97687619D01*
X61758065Y-97683834D01*
X61683009Y-97633398D01*
X61485035Y-97500365D01*
X61485031Y-97500363D01*
X61480201Y-97497117D01*
X61182717Y-97343574D01*
X60869557Y-97225241D01*
X60647541Y-97169474D01*
X60550529Y-97145106D01*
X60550526Y-97145105D01*
X60544871Y-97143685D01*
X60539093Y-97142924D01*
X60539086Y-97142923D01*
X60321736Y-97114309D01*
X60212963Y-97099989D01*
X60207144Y-97099898D01*
X60207136Y-97099897D01*
X60027532Y-97097076D01*
X59878233Y-97094731D01*
X59545117Y-97127980D01*
X59218030Y-97199297D01*
X59212523Y-97201182D01*
X59212521Y-97201183D01*
X58906812Y-97305850D01*
X58906809Y-97305851D01*
X58901307Y-97307735D01*
X58599147Y-97451858D01*
X58414477Y-97567701D01*
X58379737Y-97589494D01*
X58315555Y-97629755D01*
X58054289Y-97839069D01*
X58050193Y-97843208D01*
X58050192Y-97843209D01*
X57988533Y-97905517D01*
X57818812Y-98077024D01*
X57612246Y-98340468D01*
X57437328Y-98625907D01*
X57296377Y-98929560D01*
X57191262Y-99247401D01*
X57123374Y-99575217D01*
X57093615Y-99908663D01*
X35025500Y-99908663D01*
X35025500Y-95220532D01*
X92137072Y-95220532D01*
X92137427Y-95228997D01*
X92174334Y-95668518D01*
X92175397Y-95676930D01*
X92248954Y-96111822D01*
X92250710Y-96120084D01*
X92360405Y-96547320D01*
X92362849Y-96555415D01*
X92507908Y-96971969D01*
X92511017Y-96979820D01*
X92690418Y-97382762D01*
X92694190Y-97390360D01*
X92906678Y-97776873D01*
X92911055Y-97784100D01*
X93155153Y-98151499D01*
X93160117Y-98158330D01*
X93398636Y-98459266D01*
X93414056Y-98471639D01*
X93416178Y-98471161D01*
X93424957Y-98464952D01*
X96873799Y-95016109D01*
X96883524Y-95000631D01*
X98115683Y-95000631D01*
X98118353Y-95008261D01*
X101568909Y-98458818D01*
X101585649Y-98469336D01*
X101589773Y-98467893D01*
X101594871Y-98463512D01*
X101703817Y-98337297D01*
X101709069Y-98330671D01*
X101968329Y-97973830D01*
X101973009Y-97966787D01*
X102201505Y-97589494D01*
X102205576Y-97582089D01*
X102401693Y-97187014D01*
X102405140Y-97179272D01*
X102567513Y-96769165D01*
X102570292Y-96761187D01*
X102697779Y-96338928D01*
X102699883Y-96330734D01*
X102791586Y-95899302D01*
X102792998Y-95890955D01*
X102848281Y-95453348D01*
X102848988Y-95444926D01*
X102867459Y-95004223D01*
X102867459Y-94995777D01*
X102848988Y-94555074D01*
X102848281Y-94546652D01*
X102792998Y-94109045D01*
X102791586Y-94100698D01*
X102699883Y-93669266D01*
X102697779Y-93661072D01*
X102570292Y-93238813D01*
X102567513Y-93230835D01*
X102405140Y-92820728D01*
X102401693Y-92812986D01*
X102205576Y-92417911D01*
X102201505Y-92410506D01*
X101973009Y-92033213D01*
X101968329Y-92026170D01*
X101709069Y-91669329D01*
X101703817Y-91662703D01*
X101599906Y-91542321D01*
X101583980Y-91530603D01*
X101579758Y-91531741D01*
X101574358Y-91535733D01*
X98126201Y-94983891D01*
X98115683Y-95000631D01*
X96883524Y-95000631D01*
X96884317Y-94999369D01*
X96881647Y-94991739D01*
X93428897Y-91538988D01*
X93412157Y-91528470D01*
X93410106Y-91529188D01*
X93402099Y-91536365D01*
X93160117Y-91841670D01*
X93155153Y-91848501D01*
X92911055Y-92215900D01*
X92906678Y-92223127D01*
X92694190Y-92609640D01*
X92690418Y-92617238D01*
X92511017Y-93020180D01*
X92507908Y-93028031D01*
X92362849Y-93444585D01*
X92360405Y-93452680D01*
X92250710Y-93879916D01*
X92248954Y-93888178D01*
X92175397Y-94323070D01*
X92174334Y-94331482D01*
X92137427Y-94771003D01*
X92137072Y-94779468D01*
X92137072Y-95220532D01*
X35025500Y-95220532D01*
X35025500Y-89908663D01*
X57093615Y-89908663D01*
X57102378Y-90243320D01*
X57149548Y-90574752D01*
X57234499Y-90898566D01*
X57236613Y-90903989D01*
X57236614Y-90903991D01*
X57240552Y-90914091D01*
X57356105Y-91210470D01*
X57512755Y-91506329D01*
X57516053Y-91511127D01*
X57516055Y-91511131D01*
X57537492Y-91542321D01*
X57702371Y-91782223D01*
X57706204Y-91786617D01*
X57706208Y-91786622D01*
X57918609Y-92030102D01*
X57918616Y-92030109D01*
X57922442Y-92034495D01*
X57926750Y-92038415D01*
X57926753Y-92038418D01*
X58131233Y-92224480D01*
X58170050Y-92259801D01*
X58174786Y-92263204D01*
X58174787Y-92263205D01*
X58399850Y-92424929D01*
X58441912Y-92455154D01*
X58734426Y-92617965D01*
X59043715Y-92746076D01*
X59365679Y-92837790D01*
X59371432Y-92838732D01*
X59371436Y-92838733D01*
X59625436Y-92880327D01*
X59696050Y-92891891D01*
X59929400Y-92902896D01*
X60024637Y-92907387D01*
X60024639Y-92907387D01*
X60030450Y-92907661D01*
X60098321Y-92903034D01*
X60358640Y-92885287D01*
X60358643Y-92885287D01*
X60364446Y-92884891D01*
X60693612Y-92823884D01*
X60699181Y-92822171D01*
X60699184Y-92822170D01*
X61008005Y-92727164D01*
X61008011Y-92727162D01*
X61013585Y-92725447D01*
X61018926Y-92723103D01*
X61018930Y-92723101D01*
X61314784Y-92593231D01*
X61314789Y-92593228D01*
X61320123Y-92590887D01*
X61325148Y-92587950D01*
X61325157Y-92587946D01*
X61604125Y-92424929D01*
X61609163Y-92421985D01*
X61876875Y-92220981D01*
X61881102Y-92216970D01*
X62115485Y-91994550D01*
X62115491Y-91994544D01*
X62119710Y-91990540D01*
X62334449Y-91733715D01*
X62460171Y-91542321D01*
X62515046Y-91458782D01*
X62515048Y-91458778D01*
X62518246Y-91453910D01*
X62668665Y-91154835D01*
X62756617Y-90914496D01*
X94029215Y-90914496D01*
X94030748Y-90919744D01*
X94033572Y-90923481D01*
X97483891Y-94373799D01*
X97500631Y-94384317D01*
X97508261Y-94381647D01*
X100959078Y-90930831D01*
X100969596Y-90914091D01*
X100968515Y-90911002D01*
X100962749Y-90904433D01*
X100748531Y-90727216D01*
X100741785Y-90722096D01*
X100379610Y-90470379D01*
X100372447Y-90465833D01*
X99990476Y-90245302D01*
X99982972Y-90241379D01*
X99583885Y-90053582D01*
X99576056Y-90050291D01*
X99162670Y-89896555D01*
X99154604Y-89893934D01*
X98729802Y-89775327D01*
X98721525Y-89773386D01*
X98288294Y-89690742D01*
X98279896Y-89689502D01*
X97841243Y-89643398D01*
X97832818Y-89642868D01*
X97391828Y-89633630D01*
X97383353Y-89633807D01*
X96943168Y-89661501D01*
X96934730Y-89662388D01*
X96498397Y-89726821D01*
X96490081Y-89728407D01*
X96060656Y-89829128D01*
X96052512Y-89831401D01*
X95633016Y-89967704D01*
X95625093Y-89970650D01*
X95218461Y-90141583D01*
X95210824Y-90145178D01*
X94819952Y-90349520D01*
X94812594Y-90353768D01*
X94440199Y-90590097D01*
X94433237Y-90594936D01*
X94081911Y-90861606D01*
X94075397Y-90866995D01*
X94040596Y-90898330D01*
X94029215Y-90914496D01*
X62756617Y-90914496D01*
X62783713Y-90840452D01*
X62861864Y-90514931D01*
X62902082Y-90182584D01*
X62907820Y-90000000D01*
X62907561Y-89995505D01*
X62888885Y-89671602D01*
X62888884Y-89671594D01*
X62888549Y-89665783D01*
X62830992Y-89335997D01*
X62803110Y-89241869D01*
X62737569Y-89020604D01*
X62737567Y-89020600D01*
X62735912Y-89015011D01*
X62604569Y-88707081D01*
X62438703Y-88416288D01*
X62400040Y-88363654D01*
X62397519Y-88360222D01*
X179756091Y-88360222D01*
X179757292Y-88363654D01*
X179762597Y-88369742D01*
X180153363Y-88697632D01*
X180158969Y-88702012D01*
X180597512Y-89020633D01*
X180603373Y-89024586D01*
X181063092Y-89311851D01*
X181069217Y-89315387D01*
X181547849Y-89569879D01*
X181554214Y-89572984D01*
X182049447Y-89793476D01*
X182055971Y-89796112D01*
X182565410Y-89981533D01*
X182572095Y-89983705D01*
X183093199Y-90133129D01*
X183100073Y-90134842D01*
X183630295Y-90247544D01*
X183637283Y-90248777D01*
X184174080Y-90324219D01*
X184181129Y-90324960D01*
X184721875Y-90362772D01*
X184728961Y-90363020D01*
X185271039Y-90363020D01*
X185278125Y-90362772D01*
X185818871Y-90324960D01*
X185825920Y-90324219D01*
X186362717Y-90248777D01*
X186369705Y-90247544D01*
X186899927Y-90134842D01*
X186906801Y-90133129D01*
X187427905Y-89983705D01*
X187434590Y-89981533D01*
X187944029Y-89796112D01*
X187950553Y-89793476D01*
X188445786Y-89572984D01*
X188452151Y-89569879D01*
X188930783Y-89315387D01*
X188936908Y-89311851D01*
X189396627Y-89024586D01*
X189402488Y-89020633D01*
X189841031Y-88702012D01*
X189846637Y-88697632D01*
X190232046Y-88374237D01*
X190242662Y-88360222D01*
X204756091Y-88360222D01*
X204757292Y-88363654D01*
X204762597Y-88369742D01*
X205153363Y-88697632D01*
X205158969Y-88702012D01*
X205597512Y-89020633D01*
X205603373Y-89024586D01*
X206063092Y-89311851D01*
X206069217Y-89315387D01*
X206547849Y-89569879D01*
X206554214Y-89572984D01*
X207049447Y-89793476D01*
X207055971Y-89796112D01*
X207565410Y-89981533D01*
X207572095Y-89983705D01*
X208093199Y-90133129D01*
X208100073Y-90134842D01*
X208630295Y-90247544D01*
X208637283Y-90248777D01*
X209174080Y-90324219D01*
X209181129Y-90324960D01*
X209721875Y-90362772D01*
X209728961Y-90363020D01*
X210271039Y-90363020D01*
X210278125Y-90362772D01*
X210818871Y-90324960D01*
X210825920Y-90324219D01*
X211362717Y-90248777D01*
X211369705Y-90247544D01*
X211899927Y-90134842D01*
X211906801Y-90133129D01*
X212427905Y-89983705D01*
X212434590Y-89981533D01*
X212944029Y-89796112D01*
X212950553Y-89793476D01*
X213445786Y-89572984D01*
X213452151Y-89569879D01*
X213930783Y-89315387D01*
X213936908Y-89311851D01*
X214396627Y-89024586D01*
X214402488Y-89020633D01*
X214841031Y-88702012D01*
X214846637Y-88697632D01*
X215232046Y-88374237D01*
X215243985Y-88358476D01*
X215243087Y-88354949D01*
X215238335Y-88348426D01*
X210016109Y-83126201D01*
X209999369Y-83115683D01*
X209991739Y-83118353D01*
X204766609Y-88343482D01*
X204756091Y-88360222D01*
X190242662Y-88360222D01*
X190243985Y-88358476D01*
X190243087Y-88354949D01*
X190238335Y-88348426D01*
X185016109Y-83126201D01*
X184999369Y-83115683D01*
X184991739Y-83118353D01*
X179766609Y-88343482D01*
X179756091Y-88360222D01*
X62397519Y-88360222D01*
X62243960Y-88151177D01*
X62243959Y-88151176D01*
X62240514Y-88146486D01*
X62012628Y-87901251D01*
X62008202Y-87897471D01*
X62008198Y-87897467D01*
X61762498Y-87687620D01*
X61762497Y-87687619D01*
X61758065Y-87683834D01*
X61683009Y-87633398D01*
X61485035Y-87500365D01*
X61485031Y-87500363D01*
X61480201Y-87497117D01*
X61182717Y-87343574D01*
X60869557Y-87225241D01*
X60647541Y-87169474D01*
X60550529Y-87145106D01*
X60550526Y-87145105D01*
X60544871Y-87143685D01*
X60539093Y-87142924D01*
X60539086Y-87142923D01*
X60321736Y-87114309D01*
X60212963Y-87099989D01*
X60207144Y-87099898D01*
X60207136Y-87099897D01*
X60027532Y-87097076D01*
X59878233Y-87094731D01*
X59545117Y-87127980D01*
X59218030Y-87199297D01*
X59212523Y-87201182D01*
X59212521Y-87201183D01*
X58906812Y-87305850D01*
X58906809Y-87305851D01*
X58901307Y-87307735D01*
X58599147Y-87451858D01*
X58315555Y-87629755D01*
X58054289Y-87839069D01*
X58050193Y-87843208D01*
X58050192Y-87843209D01*
X57988533Y-87905517D01*
X57818812Y-88077024D01*
X57612246Y-88340468D01*
X57437328Y-88625907D01*
X57296377Y-88929560D01*
X57191262Y-89247401D01*
X57123374Y-89575217D01*
X57093615Y-89908663D01*
X35025500Y-89908663D01*
X35025500Y-79908663D01*
X57093615Y-79908663D01*
X57102378Y-80243320D01*
X57149548Y-80574752D01*
X57234499Y-80898566D01*
X57236613Y-80903989D01*
X57236614Y-80903991D01*
X57243384Y-80921354D01*
X57356105Y-81210470D01*
X57512755Y-81506329D01*
X57516053Y-81511127D01*
X57516055Y-81511131D01*
X57682360Y-81753106D01*
X57702371Y-81782223D01*
X57706204Y-81786617D01*
X57706208Y-81786622D01*
X57918609Y-82030102D01*
X57918616Y-82030109D01*
X57922442Y-82034495D01*
X57926750Y-82038415D01*
X57926753Y-82038418D01*
X58131233Y-82224480D01*
X58170050Y-82259801D01*
X58174786Y-82263204D01*
X58174787Y-82263205D01*
X58399850Y-82424929D01*
X58441912Y-82455154D01*
X58734426Y-82617965D01*
X59043715Y-82746076D01*
X59365679Y-82837790D01*
X59371432Y-82838732D01*
X59371436Y-82838733D01*
X59625436Y-82880327D01*
X59696050Y-82891891D01*
X59929400Y-82902896D01*
X60024637Y-82907387D01*
X60024639Y-82907387D01*
X60030450Y-82907661D01*
X60098321Y-82903034D01*
X60358640Y-82885287D01*
X60358643Y-82885287D01*
X60364446Y-82884891D01*
X60693612Y-82823884D01*
X60699181Y-82822171D01*
X60699184Y-82822170D01*
X61008005Y-82727164D01*
X61008011Y-82727162D01*
X61013585Y-82725447D01*
X61018926Y-82723103D01*
X61018930Y-82723101D01*
X61314784Y-82593231D01*
X61314789Y-82593228D01*
X61320123Y-82590887D01*
X61325148Y-82587950D01*
X61325157Y-82587946D01*
X61604125Y-82424929D01*
X61609163Y-82421985D01*
X61619166Y-82414475D01*
X61626907Y-82408663D01*
X167093615Y-82408663D01*
X167093767Y-82414472D01*
X167093767Y-82414475D01*
X167095585Y-82483891D01*
X167102378Y-82743320D01*
X167149548Y-83074752D01*
X167234499Y-83398566D01*
X167356105Y-83710470D01*
X167512755Y-84006329D01*
X167702371Y-84282223D01*
X167706204Y-84286617D01*
X167706208Y-84286622D01*
X167918609Y-84530102D01*
X167918616Y-84530109D01*
X167922442Y-84534495D01*
X167926750Y-84538415D01*
X167926753Y-84538418D01*
X168131233Y-84724480D01*
X168170050Y-84759801D01*
X168174786Y-84763204D01*
X168174787Y-84763205D01*
X168399850Y-84924929D01*
X168441912Y-84955154D01*
X168734426Y-85117965D01*
X169043715Y-85246076D01*
X169365679Y-85337790D01*
X169371432Y-85338732D01*
X169371436Y-85338733D01*
X169625436Y-85380327D01*
X169696050Y-85391891D01*
X169929400Y-85402896D01*
X170024637Y-85407387D01*
X170024639Y-85407387D01*
X170030450Y-85407661D01*
X170098321Y-85403034D01*
X170358640Y-85385287D01*
X170358643Y-85385287D01*
X170364446Y-85384891D01*
X170693612Y-85323884D01*
X170699181Y-85322171D01*
X170699184Y-85322170D01*
X171008005Y-85227164D01*
X171008011Y-85227162D01*
X171013585Y-85225447D01*
X171018926Y-85223103D01*
X171018930Y-85223101D01*
X171314784Y-85093231D01*
X171314789Y-85093228D01*
X171320123Y-85090887D01*
X171325148Y-85087950D01*
X171325157Y-85087946D01*
X171604125Y-84924929D01*
X171609163Y-84921985D01*
X171876875Y-84720981D01*
X171928480Y-84672010D01*
X172115485Y-84494550D01*
X172115491Y-84494544D01*
X172119710Y-84490540D01*
X172334449Y-84233715D01*
X172337654Y-84228836D01*
X172515046Y-83958782D01*
X172515048Y-83958778D01*
X172518246Y-83953910D01*
X172668665Y-83654835D01*
X172783713Y-83340452D01*
X172861864Y-83014931D01*
X172902082Y-82682584D01*
X172907709Y-82503522D01*
X177132310Y-82503522D01*
X177151230Y-83045304D01*
X177151723Y-83052348D01*
X177208385Y-83591460D01*
X177209371Y-83598479D01*
X177303507Y-84132347D01*
X177304967Y-84139217D01*
X177436122Y-84665249D01*
X177438060Y-84672010D01*
X177605583Y-85187593D01*
X177607997Y-85194225D01*
X177811071Y-85696850D01*
X177813946Y-85703308D01*
X178051585Y-86190539D01*
X178054901Y-86196777D01*
X178325944Y-86666237D01*
X178329697Y-86672243D01*
X178632828Y-87121651D01*
X178636979Y-87127366D01*
X178970731Y-87554549D01*
X178975274Y-87559962D01*
X179128071Y-87729661D01*
X179144238Y-87741042D01*
X179149485Y-87739509D01*
X179153227Y-87736682D01*
X184373799Y-82516109D01*
X184383524Y-82500631D01*
X185615683Y-82500631D01*
X185618353Y-82508261D01*
X190840575Y-87730484D01*
X190857315Y-87741002D01*
X190862473Y-87739197D01*
X190866060Y-87736179D01*
X191024726Y-87559962D01*
X191029269Y-87554549D01*
X191363021Y-87127366D01*
X191367172Y-87121651D01*
X191670303Y-86672243D01*
X191674056Y-86666237D01*
X191945099Y-86196777D01*
X191948415Y-86190539D01*
X192186054Y-85703308D01*
X192188929Y-85696850D01*
X192392003Y-85194225D01*
X192394417Y-85187593D01*
X192561940Y-84672010D01*
X192563878Y-84665249D01*
X192695033Y-84139217D01*
X192696493Y-84132347D01*
X192790629Y-83598479D01*
X192791615Y-83591460D01*
X192848277Y-83052348D01*
X192848770Y-83045304D01*
X192867690Y-82503522D01*
X202132310Y-82503522D01*
X202151230Y-83045304D01*
X202151723Y-83052348D01*
X202208385Y-83591460D01*
X202209371Y-83598479D01*
X202303507Y-84132347D01*
X202304967Y-84139217D01*
X202436122Y-84665249D01*
X202438060Y-84672010D01*
X202605583Y-85187593D01*
X202607997Y-85194225D01*
X202811071Y-85696850D01*
X202813946Y-85703308D01*
X203051585Y-86190539D01*
X203054901Y-86196777D01*
X203325944Y-86666237D01*
X203329697Y-86672243D01*
X203632828Y-87121651D01*
X203636979Y-87127366D01*
X203970731Y-87554549D01*
X203975274Y-87559962D01*
X204128071Y-87729661D01*
X204144238Y-87741042D01*
X204149485Y-87739509D01*
X204153227Y-87736682D01*
X209373799Y-82516109D01*
X209383524Y-82500631D01*
X210615683Y-82500631D01*
X210618353Y-82508261D01*
X215840575Y-87730484D01*
X215857315Y-87741002D01*
X215862473Y-87739197D01*
X215866060Y-87736179D01*
X216024726Y-87559962D01*
X216029269Y-87554549D01*
X216363021Y-87127366D01*
X216367172Y-87121651D01*
X216670303Y-86672243D01*
X216674056Y-86666237D01*
X216945099Y-86196777D01*
X216948415Y-86190539D01*
X217186054Y-85703308D01*
X217188929Y-85696850D01*
X217392003Y-85194225D01*
X217394417Y-85187593D01*
X217561940Y-84672010D01*
X217563878Y-84665249D01*
X217695033Y-84139217D01*
X217696493Y-84132347D01*
X217790629Y-83598479D01*
X217791615Y-83591460D01*
X217848277Y-83052348D01*
X217848770Y-83045304D01*
X217867690Y-82503522D01*
X217867690Y-82496478D01*
X217848770Y-81954696D01*
X217848277Y-81947652D01*
X217791615Y-81408540D01*
X217790629Y-81401521D01*
X217696493Y-80867653D01*
X217695033Y-80860783D01*
X217563878Y-80334751D01*
X217561940Y-80327990D01*
X217394417Y-79812407D01*
X217392003Y-79805775D01*
X217188929Y-79303150D01*
X217186054Y-79296692D01*
X216948415Y-78809461D01*
X216945099Y-78803223D01*
X216674056Y-78333763D01*
X216670303Y-78327757D01*
X216367172Y-77878349D01*
X216363021Y-77872634D01*
X216029269Y-77445451D01*
X216024726Y-77440038D01*
X215871929Y-77270339D01*
X215855762Y-77258958D01*
X215850515Y-77260491D01*
X215846773Y-77263318D01*
X210626201Y-82483891D01*
X210615683Y-82500631D01*
X209383524Y-82500631D01*
X209384317Y-82499369D01*
X209381647Y-82491739D01*
X204159425Y-77269516D01*
X204142685Y-77258998D01*
X204137527Y-77260803D01*
X204133940Y-77263821D01*
X203975274Y-77440038D01*
X203970731Y-77445451D01*
X203636979Y-77872634D01*
X203632828Y-77878349D01*
X203329697Y-78327757D01*
X203325944Y-78333763D01*
X203054901Y-78803223D01*
X203051585Y-78809461D01*
X202813946Y-79296692D01*
X202811071Y-79303150D01*
X202607997Y-79805775D01*
X202605583Y-79812407D01*
X202438060Y-80327990D01*
X202436122Y-80334751D01*
X202304967Y-80860783D01*
X202303507Y-80867653D01*
X202209371Y-81401521D01*
X202208385Y-81408540D01*
X202151723Y-81947652D01*
X202151230Y-81954696D01*
X202132310Y-82496478D01*
X202132310Y-82503522D01*
X192867690Y-82503522D01*
X192867690Y-82496478D01*
X192848770Y-81954696D01*
X192848277Y-81947652D01*
X192791615Y-81408540D01*
X192790629Y-81401521D01*
X192696493Y-80867653D01*
X192695033Y-80860783D01*
X192563878Y-80334751D01*
X192561940Y-80327990D01*
X192394417Y-79812407D01*
X192392003Y-79805775D01*
X192188929Y-79303150D01*
X192186054Y-79296692D01*
X191948415Y-78809461D01*
X191945099Y-78803223D01*
X191674056Y-78333763D01*
X191670303Y-78327757D01*
X191367172Y-77878349D01*
X191363021Y-77872634D01*
X191029269Y-77445451D01*
X191024726Y-77440038D01*
X190871929Y-77270339D01*
X190855762Y-77258958D01*
X190850515Y-77260491D01*
X190846773Y-77263318D01*
X185626201Y-82483891D01*
X185615683Y-82500631D01*
X184383524Y-82500631D01*
X184384317Y-82499369D01*
X184381647Y-82491739D01*
X179159425Y-77269516D01*
X179142685Y-77258998D01*
X179137527Y-77260803D01*
X179133940Y-77263821D01*
X178975274Y-77440038D01*
X178970731Y-77445451D01*
X178636979Y-77872634D01*
X178632828Y-77878349D01*
X178329697Y-78327757D01*
X178325944Y-78333763D01*
X178054901Y-78803223D01*
X178051585Y-78809461D01*
X177813946Y-79296692D01*
X177811071Y-79303150D01*
X177607997Y-79805775D01*
X177605583Y-79812407D01*
X177438060Y-80327990D01*
X177436122Y-80334751D01*
X177304967Y-80860783D01*
X177303507Y-80867653D01*
X177209371Y-81401521D01*
X177208385Y-81408540D01*
X177151723Y-81947652D01*
X177151230Y-81954696D01*
X177132310Y-82496478D01*
X177132310Y-82503522D01*
X172907709Y-82503522D01*
X172907820Y-82500000D01*
X172905038Y-82451751D01*
X172888885Y-82171602D01*
X172888884Y-82171594D01*
X172888549Y-82165783D01*
X172830992Y-81835997D01*
X172816367Y-81786622D01*
X172737569Y-81520604D01*
X172737567Y-81520600D01*
X172735912Y-81515011D01*
X172604569Y-81207081D01*
X172438703Y-80916288D01*
X172425685Y-80898566D01*
X172243960Y-80651177D01*
X172243959Y-80651176D01*
X172240514Y-80646486D01*
X172012628Y-80401251D01*
X172008202Y-80397471D01*
X172008198Y-80397467D01*
X171762498Y-80187620D01*
X171762497Y-80187619D01*
X171758065Y-80183834D01*
X171683009Y-80133398D01*
X171485035Y-80000365D01*
X171485031Y-80000363D01*
X171480201Y-79997117D01*
X171182717Y-79843574D01*
X170869557Y-79725241D01*
X170609975Y-79660038D01*
X170550529Y-79645106D01*
X170550526Y-79645105D01*
X170544871Y-79643685D01*
X170539093Y-79642924D01*
X170539086Y-79642923D01*
X170321736Y-79614309D01*
X170212963Y-79599989D01*
X170207144Y-79599898D01*
X170207136Y-79599897D01*
X170027532Y-79597076D01*
X169878233Y-79594731D01*
X169545117Y-79627980D01*
X169218030Y-79699297D01*
X169212523Y-79701182D01*
X169212521Y-79701183D01*
X168906812Y-79805850D01*
X168906809Y-79805851D01*
X168901307Y-79807735D01*
X168599147Y-79951858D01*
X168315555Y-80129755D01*
X168054289Y-80339069D01*
X168050193Y-80343208D01*
X168050192Y-80343209D01*
X167988533Y-80405517D01*
X167818812Y-80577024D01*
X167612246Y-80840468D01*
X167437328Y-81125907D01*
X167296377Y-81429560D01*
X167191262Y-81747401D01*
X167123374Y-82075217D01*
X167093615Y-82408663D01*
X61626907Y-82408663D01*
X61708293Y-82347556D01*
X61876875Y-82220981D01*
X62036492Y-82069511D01*
X62115485Y-81994550D01*
X62115491Y-81994544D01*
X62119710Y-81990540D01*
X62334449Y-81733715D01*
X62337654Y-81728836D01*
X62515046Y-81458782D01*
X62515048Y-81458778D01*
X62518246Y-81453910D01*
X62668665Y-81154835D01*
X62783713Y-80840452D01*
X62861864Y-80514931D01*
X62902082Y-80182584D01*
X62907820Y-80000000D01*
X62902889Y-79914475D01*
X62888885Y-79671602D01*
X62888884Y-79671594D01*
X62888549Y-79665783D01*
X62830992Y-79335997D01*
X62735912Y-79015011D01*
X62604569Y-78707081D01*
X62438703Y-78416288D01*
X62240514Y-78146486D01*
X62012628Y-77901251D01*
X62008202Y-77897471D01*
X62008198Y-77897467D01*
X61762498Y-77687620D01*
X61762497Y-77687619D01*
X61758065Y-77683834D01*
X61683009Y-77633398D01*
X61485035Y-77500365D01*
X61485031Y-77500363D01*
X61480201Y-77497117D01*
X61182717Y-77343574D01*
X60869557Y-77225241D01*
X60647541Y-77169474D01*
X60550529Y-77145106D01*
X60550526Y-77145105D01*
X60544871Y-77143685D01*
X60539093Y-77142924D01*
X60539086Y-77142923D01*
X60321736Y-77114309D01*
X60212963Y-77099989D01*
X60207144Y-77099898D01*
X60207136Y-77099897D01*
X60027532Y-77097076D01*
X59878233Y-77094731D01*
X59545117Y-77127980D01*
X59218030Y-77199297D01*
X59212523Y-77201182D01*
X59212521Y-77201183D01*
X58906812Y-77305850D01*
X58906809Y-77305851D01*
X58901307Y-77307735D01*
X58599147Y-77451858D01*
X58315555Y-77629755D01*
X58054289Y-77839069D01*
X58050193Y-77843208D01*
X58050192Y-77843209D01*
X57988533Y-77905517D01*
X57818812Y-78077024D01*
X57612246Y-78340468D01*
X57437328Y-78625907D01*
X57296377Y-78929560D01*
X57191262Y-79247401D01*
X57123374Y-79575217D01*
X57093615Y-79908663D01*
X35025500Y-79908663D01*
X35025500Y-76641524D01*
X179756015Y-76641524D01*
X179756913Y-76645051D01*
X179761665Y-76651574D01*
X184983891Y-81873799D01*
X185000631Y-81884317D01*
X185008261Y-81881647D01*
X190233391Y-76656518D01*
X190242812Y-76641524D01*
X204756015Y-76641524D01*
X204756913Y-76645051D01*
X204761665Y-76651574D01*
X209983891Y-81873799D01*
X210000631Y-81884317D01*
X210008261Y-81881647D01*
X215233391Y-76656518D01*
X215243909Y-76639778D01*
X215242708Y-76636346D01*
X215237403Y-76630258D01*
X214846637Y-76302368D01*
X214841031Y-76297988D01*
X214402488Y-75979367D01*
X214396627Y-75975414D01*
X213936908Y-75688149D01*
X213930783Y-75684613D01*
X213452151Y-75430121D01*
X213445786Y-75427016D01*
X212950553Y-75206524D01*
X212944029Y-75203888D01*
X212434590Y-75018467D01*
X212427905Y-75016295D01*
X211906801Y-74866871D01*
X211899927Y-74865158D01*
X211369705Y-74752456D01*
X211362717Y-74751223D01*
X210825920Y-74675781D01*
X210818871Y-74675040D01*
X210278125Y-74637228D01*
X210271039Y-74636980D01*
X209728961Y-74636980D01*
X209721875Y-74637228D01*
X209181129Y-74675040D01*
X209174080Y-74675781D01*
X208637283Y-74751223D01*
X208630295Y-74752456D01*
X208100073Y-74865158D01*
X208093199Y-74866871D01*
X207572095Y-75016295D01*
X207565410Y-75018467D01*
X207055971Y-75203888D01*
X207049447Y-75206524D01*
X206554214Y-75427016D01*
X206547849Y-75430121D01*
X206069218Y-75684613D01*
X206063093Y-75688149D01*
X205603373Y-75975414D01*
X205597512Y-75979367D01*
X205158969Y-76297988D01*
X205153363Y-76302368D01*
X204767954Y-76625763D01*
X204756015Y-76641524D01*
X190242812Y-76641524D01*
X190243909Y-76639778D01*
X190242708Y-76636346D01*
X190237403Y-76630258D01*
X189846637Y-76302368D01*
X189841031Y-76297988D01*
X189402488Y-75979367D01*
X189396627Y-75975414D01*
X188936908Y-75688149D01*
X188930783Y-75684613D01*
X188452151Y-75430121D01*
X188445786Y-75427016D01*
X187950553Y-75206524D01*
X187944029Y-75203888D01*
X187434590Y-75018467D01*
X187427905Y-75016295D01*
X186906801Y-74866871D01*
X186899927Y-74865158D01*
X186369705Y-74752456D01*
X186362717Y-74751223D01*
X185825920Y-74675781D01*
X185818871Y-74675040D01*
X185278125Y-74637228D01*
X185271039Y-74636980D01*
X184728961Y-74636980D01*
X184721875Y-74637228D01*
X184181129Y-74675040D01*
X184174080Y-74675781D01*
X183637283Y-74751223D01*
X183630295Y-74752456D01*
X183100073Y-74865158D01*
X183093199Y-74866871D01*
X182572095Y-75016295D01*
X182565410Y-75018467D01*
X182055971Y-75203888D01*
X182049447Y-75206524D01*
X181554214Y-75427016D01*
X181547849Y-75430121D01*
X181069218Y-75684613D01*
X181063093Y-75688149D01*
X180603373Y-75975414D01*
X180597512Y-75979367D01*
X180158969Y-76297988D01*
X180153363Y-76302368D01*
X179767954Y-76625763D01*
X179756015Y-76641524D01*
X35025500Y-76641524D01*
X35025500Y-74087057D01*
X119029256Y-74087057D01*
X119031061Y-74092215D01*
X119034079Y-74095802D01*
X119075397Y-74133005D01*
X119081911Y-74138394D01*
X119433237Y-74405064D01*
X119440199Y-74409903D01*
X119812594Y-74646232D01*
X119819952Y-74650480D01*
X120210824Y-74854822D01*
X120218461Y-74858417D01*
X120625093Y-75029350D01*
X120633016Y-75032296D01*
X121052512Y-75168599D01*
X121060656Y-75170872D01*
X121490081Y-75271593D01*
X121498397Y-75273179D01*
X121934730Y-75337612D01*
X121943168Y-75338499D01*
X122383353Y-75366193D01*
X122391828Y-75366370D01*
X122832818Y-75357132D01*
X122841243Y-75356602D01*
X123279896Y-75310498D01*
X123288294Y-75309258D01*
X123721525Y-75226614D01*
X123729802Y-75224673D01*
X124154604Y-75106066D01*
X124162670Y-75103445D01*
X124576056Y-74949709D01*
X124583885Y-74946418D01*
X124982972Y-74758621D01*
X124990476Y-74754698D01*
X125372447Y-74534167D01*
X125379610Y-74529621D01*
X125741785Y-74277904D01*
X125748531Y-74272784D01*
X125957634Y-74099799D01*
X125967426Y-74087057D01*
X156529256Y-74087057D01*
X156531061Y-74092215D01*
X156534079Y-74095802D01*
X156575397Y-74133005D01*
X156581911Y-74138394D01*
X156933237Y-74405064D01*
X156940199Y-74409903D01*
X157312594Y-74646232D01*
X157319952Y-74650480D01*
X157710824Y-74854822D01*
X157718461Y-74858417D01*
X158125093Y-75029350D01*
X158133016Y-75032296D01*
X158552512Y-75168599D01*
X158560656Y-75170872D01*
X158990081Y-75271593D01*
X158998397Y-75273179D01*
X159434730Y-75337612D01*
X159443168Y-75338499D01*
X159883353Y-75366193D01*
X159891828Y-75366370D01*
X160332818Y-75357132D01*
X160341243Y-75356602D01*
X160779896Y-75310498D01*
X160788294Y-75309258D01*
X161221525Y-75226614D01*
X161229802Y-75224673D01*
X161654604Y-75106066D01*
X161662670Y-75103445D01*
X162076056Y-74949709D01*
X162083885Y-74946418D01*
X162482972Y-74758621D01*
X162490476Y-74754698D01*
X162872447Y-74534167D01*
X162879610Y-74529621D01*
X163241785Y-74277904D01*
X163248531Y-74272784D01*
X163457634Y-74099799D01*
X163469680Y-74084124D01*
X163468895Y-74080948D01*
X163463771Y-74073862D01*
X160016109Y-70626201D01*
X159999369Y-70615683D01*
X159991739Y-70618353D01*
X156539774Y-74070317D01*
X156529256Y-74087057D01*
X125967426Y-74087057D01*
X125969680Y-74084124D01*
X125968895Y-74080948D01*
X125963771Y-74073862D01*
X122516109Y-70626201D01*
X122499369Y-70615683D01*
X122491739Y-70618353D01*
X119039774Y-74070317D01*
X119029256Y-74087057D01*
X35025500Y-74087057D01*
X35025500Y-69908663D01*
X57093615Y-69908663D01*
X57102378Y-70243320D01*
X57149548Y-70574752D01*
X57234499Y-70898566D01*
X57356105Y-71210470D01*
X57512755Y-71506329D01*
X57516053Y-71511127D01*
X57516055Y-71511131D01*
X57693397Y-71769165D01*
X57702371Y-71782223D01*
X57706204Y-71786617D01*
X57706208Y-71786622D01*
X57918609Y-72030102D01*
X57918616Y-72030109D01*
X57922442Y-72034495D01*
X57926750Y-72038415D01*
X57926753Y-72038418D01*
X58131233Y-72224480D01*
X58170050Y-72259801D01*
X58174786Y-72263204D01*
X58174787Y-72263205D01*
X58399850Y-72424929D01*
X58441912Y-72455154D01*
X58734426Y-72617965D01*
X59043715Y-72746076D01*
X59365679Y-72837790D01*
X59371432Y-72838732D01*
X59371436Y-72838733D01*
X59625436Y-72880327D01*
X59696050Y-72891891D01*
X59929400Y-72902896D01*
X60024637Y-72907387D01*
X60024639Y-72907387D01*
X60030450Y-72907661D01*
X60098321Y-72903034D01*
X60358640Y-72885287D01*
X60358643Y-72885287D01*
X60364446Y-72884891D01*
X60693612Y-72823884D01*
X60699181Y-72822171D01*
X60699184Y-72822170D01*
X61008005Y-72727164D01*
X61008011Y-72727162D01*
X61013585Y-72725447D01*
X61018926Y-72723103D01*
X61018930Y-72723101D01*
X61314784Y-72593231D01*
X61314789Y-72593228D01*
X61320123Y-72590887D01*
X61325148Y-72587950D01*
X61325157Y-72587946D01*
X61604125Y-72424929D01*
X61609163Y-72421985D01*
X61876875Y-72220981D01*
X61912669Y-72187014D01*
X62115485Y-71994550D01*
X62115491Y-71994544D01*
X62119710Y-71990540D01*
X62334449Y-71733715D01*
X62451570Y-71555415D01*
X62515046Y-71458782D01*
X62515048Y-71458778D01*
X62518246Y-71453910D01*
X62668665Y-71154835D01*
X62783713Y-70840452D01*
X62861864Y-70514931D01*
X62897490Y-70220532D01*
X117137072Y-70220532D01*
X117137427Y-70228997D01*
X117174334Y-70668518D01*
X117175397Y-70676930D01*
X117248954Y-71111822D01*
X117250710Y-71120084D01*
X117360405Y-71547320D01*
X117362849Y-71555415D01*
X117507908Y-71971969D01*
X117511017Y-71979820D01*
X117690418Y-72382762D01*
X117694190Y-72390360D01*
X117906678Y-72776873D01*
X117911055Y-72784100D01*
X118155153Y-73151499D01*
X118160117Y-73158330D01*
X118398636Y-73459266D01*
X118414056Y-73471639D01*
X118416178Y-73471161D01*
X118424957Y-73464952D01*
X121873799Y-70016109D01*
X121883524Y-70000631D01*
X123115683Y-70000631D01*
X123118353Y-70008261D01*
X126568909Y-73458818D01*
X126585649Y-73469336D01*
X126589773Y-73467893D01*
X126594871Y-73463512D01*
X126703817Y-73337297D01*
X126709069Y-73330671D01*
X126968329Y-72973830D01*
X126973009Y-72966787D01*
X127201505Y-72589494D01*
X127205576Y-72582089D01*
X127401693Y-72187014D01*
X127405140Y-72179272D01*
X127567513Y-71769165D01*
X127570292Y-71761187D01*
X127697779Y-71338928D01*
X127699883Y-71330734D01*
X127791586Y-70899302D01*
X127792998Y-70890955D01*
X127848281Y-70453348D01*
X127848988Y-70444926D01*
X127863234Y-70105028D01*
X133498025Y-70105028D01*
X133499280Y-70113227D01*
X133499280Y-70113232D01*
X133534090Y-70340719D01*
X133534092Y-70340725D01*
X133535347Y-70348930D01*
X133537926Y-70356820D01*
X133537927Y-70356825D01*
X133566723Y-70444926D01*
X133612003Y-70583460D01*
X133615830Y-70590811D01*
X133615831Y-70590814D01*
X133656281Y-70668518D01*
X133725935Y-70802321D01*
X133874083Y-70999636D01*
X133880079Y-71005366D01*
X133880080Y-71005367D01*
X133902557Y-71026846D01*
X134052468Y-71170104D01*
X134256300Y-71309149D01*
X134480104Y-71413035D01*
X134717871Y-71478974D01*
X134866070Y-71494812D01*
X134913929Y-71499927D01*
X134913932Y-71499927D01*
X134919292Y-71500500D01*
X135062554Y-71500500D01*
X135066688Y-71500160D01*
X135066691Y-71500160D01*
X135138847Y-71494227D01*
X135245911Y-71485425D01*
X135253957Y-71483404D01*
X135253963Y-71483403D01*
X135365043Y-71455501D01*
X135485217Y-71425316D01*
X135492834Y-71422004D01*
X135492837Y-71422003D01*
X135703879Y-71330239D01*
X135703882Y-71330237D01*
X135711493Y-71326928D01*
X135718458Y-71322422D01*
X135718462Y-71322420D01*
X135911693Y-71197413D01*
X135911695Y-71197412D01*
X135918661Y-71192905D01*
X135966507Y-71149369D01*
X136095027Y-71032425D01*
X136095028Y-71032423D01*
X136101158Y-71026846D01*
X136201886Y-70899302D01*
X136248939Y-70839723D01*
X136248942Y-70839718D01*
X136254082Y-70833210D01*
X136373327Y-70617198D01*
X136382671Y-70590814D01*
X136452921Y-70392432D01*
X136455691Y-70384610D01*
X136484918Y-70220532D01*
X154637072Y-70220532D01*
X154637427Y-70228997D01*
X154674334Y-70668518D01*
X154675397Y-70676930D01*
X154748954Y-71111822D01*
X154750710Y-71120084D01*
X154860405Y-71547320D01*
X154862849Y-71555415D01*
X155007908Y-71971969D01*
X155011017Y-71979820D01*
X155190418Y-72382762D01*
X155194190Y-72390360D01*
X155406678Y-72776873D01*
X155411055Y-72784100D01*
X155655153Y-73151499D01*
X155660117Y-73158330D01*
X155898636Y-73459266D01*
X155914056Y-73471639D01*
X155916178Y-73471161D01*
X155924957Y-73464952D01*
X159373799Y-70016109D01*
X159383524Y-70000631D01*
X160615683Y-70000631D01*
X160618353Y-70008261D01*
X164068909Y-73458818D01*
X164085649Y-73469336D01*
X164089773Y-73467893D01*
X164094871Y-73463512D01*
X164203817Y-73337297D01*
X164209069Y-73330671D01*
X164468329Y-72973830D01*
X164473009Y-72966787D01*
X164701505Y-72589494D01*
X164705576Y-72582089D01*
X164901693Y-72187014D01*
X164905140Y-72179272D01*
X165067513Y-71769165D01*
X165070292Y-71761187D01*
X165197779Y-71338928D01*
X165199883Y-71330734D01*
X165291586Y-70899302D01*
X165292998Y-70890955D01*
X165348281Y-70453348D01*
X165348988Y-70444926D01*
X165367459Y-70004223D01*
X165367459Y-69995777D01*
X165348988Y-69555074D01*
X165348281Y-69546652D01*
X165292998Y-69109045D01*
X165291586Y-69100698D01*
X165199883Y-68669266D01*
X165197779Y-68661072D01*
X165070292Y-68238813D01*
X165067513Y-68230835D01*
X164905140Y-67820728D01*
X164901693Y-67812986D01*
X164705576Y-67417911D01*
X164701505Y-67410506D01*
X164473009Y-67033213D01*
X164468329Y-67026170D01*
X164209069Y-66669329D01*
X164203817Y-66662703D01*
X164099906Y-66542321D01*
X164083980Y-66530603D01*
X164079758Y-66531741D01*
X164074358Y-66535733D01*
X160626201Y-69983891D01*
X160615683Y-70000631D01*
X159383524Y-70000631D01*
X159384317Y-69999369D01*
X159381647Y-69991739D01*
X155928897Y-66538988D01*
X155912157Y-66528470D01*
X155910106Y-66529188D01*
X155902099Y-66536365D01*
X155660117Y-66841670D01*
X155655153Y-66848501D01*
X155411055Y-67215900D01*
X155406678Y-67223127D01*
X155194190Y-67609640D01*
X155190418Y-67617238D01*
X155011017Y-68020180D01*
X155007908Y-68028031D01*
X154862849Y-68444585D01*
X154860405Y-68452680D01*
X154750710Y-68879916D01*
X154748954Y-68888178D01*
X154675397Y-69323070D01*
X154674334Y-69331482D01*
X154637427Y-69771003D01*
X154637072Y-69779468D01*
X154637072Y-70220532D01*
X136484918Y-70220532D01*
X136498961Y-70141694D01*
X136501975Y-69894972D01*
X136497634Y-69866603D01*
X136465910Y-69659281D01*
X136465908Y-69659275D01*
X136464653Y-69651070D01*
X136455661Y-69623557D01*
X136390574Y-69424424D01*
X136390573Y-69424423D01*
X136387997Y-69416540D01*
X136365748Y-69373799D01*
X136277897Y-69205040D01*
X136277896Y-69205039D01*
X136274065Y-69197679D01*
X136125917Y-69000364D01*
X136104253Y-68979661D01*
X135953534Y-68835632D01*
X135947532Y-68829896D01*
X135743700Y-68690851D01*
X135519896Y-68586965D01*
X135282129Y-68521026D01*
X135133930Y-68505188D01*
X135086071Y-68500073D01*
X135086068Y-68500073D01*
X135080708Y-68499500D01*
X134937446Y-68499500D01*
X134933312Y-68499840D01*
X134933309Y-68499840D01*
X134861153Y-68505773D01*
X134754089Y-68514575D01*
X134746043Y-68516596D01*
X134746037Y-68516597D01*
X134634957Y-68544499D01*
X134514783Y-68574684D01*
X134507166Y-68577996D01*
X134507163Y-68577997D01*
X134296121Y-68669761D01*
X134296118Y-68669763D01*
X134288507Y-68673072D01*
X134281542Y-68677578D01*
X134281538Y-68677580D01*
X134088307Y-68802587D01*
X134081339Y-68807095D01*
X134075204Y-68812678D01*
X134075202Y-68812679D01*
X133952561Y-68924274D01*
X133898842Y-68973154D01*
X133893704Y-68979660D01*
X133893703Y-68979661D01*
X133751061Y-69160277D01*
X133751058Y-69160282D01*
X133745918Y-69166790D01*
X133626673Y-69382802D01*
X133623906Y-69390615D01*
X133623904Y-69390620D01*
X133568650Y-69546652D01*
X133544309Y-69615390D01*
X133542855Y-69623554D01*
X133542854Y-69623557D01*
X133534296Y-69671602D01*
X133501039Y-69858306D01*
X133498025Y-70105028D01*
X127863234Y-70105028D01*
X127867459Y-70004223D01*
X127867459Y-69995777D01*
X127848988Y-69555074D01*
X127848281Y-69546652D01*
X127792998Y-69109045D01*
X127791586Y-69100698D01*
X127699883Y-68669266D01*
X127697779Y-68661072D01*
X127570292Y-68238813D01*
X127567513Y-68230835D01*
X127405140Y-67820728D01*
X127401693Y-67812986D01*
X127205576Y-67417911D01*
X127201505Y-67410506D01*
X126973009Y-67033213D01*
X126968329Y-67026170D01*
X126709069Y-66669329D01*
X126703817Y-66662703D01*
X126599906Y-66542321D01*
X126583980Y-66530603D01*
X126579758Y-66531741D01*
X126574358Y-66535733D01*
X123126201Y-69983891D01*
X123115683Y-70000631D01*
X121883524Y-70000631D01*
X121884317Y-69999369D01*
X121881647Y-69991739D01*
X118428897Y-66538988D01*
X118412157Y-66528470D01*
X118410106Y-66529188D01*
X118402099Y-66536365D01*
X118160117Y-66841670D01*
X118155153Y-66848501D01*
X117911055Y-67215900D01*
X117906678Y-67223127D01*
X117694190Y-67609640D01*
X117690418Y-67617238D01*
X117511017Y-68020180D01*
X117507908Y-68028031D01*
X117362849Y-68444585D01*
X117360405Y-68452680D01*
X117250710Y-68879916D01*
X117248954Y-68888178D01*
X117175397Y-69323070D01*
X117174334Y-69331482D01*
X117137427Y-69771003D01*
X117137072Y-69779468D01*
X117137072Y-70220532D01*
X62897490Y-70220532D01*
X62902082Y-70182584D01*
X62907820Y-70000000D01*
X62902889Y-69914475D01*
X62888885Y-69671602D01*
X62888884Y-69671594D01*
X62888549Y-69665783D01*
X62830992Y-69335997D01*
X62788054Y-69191039D01*
X62737569Y-69020604D01*
X62737567Y-69020600D01*
X62735912Y-69015011D01*
X62604569Y-68707081D01*
X62527897Y-68572661D01*
X62441593Y-68421354D01*
X62441590Y-68421349D01*
X62438703Y-68416288D01*
X62308335Y-68238813D01*
X62243960Y-68151177D01*
X62243959Y-68151176D01*
X62240514Y-68146486D01*
X62012628Y-67901251D01*
X62008202Y-67897471D01*
X62008198Y-67897467D01*
X61762498Y-67687620D01*
X61762497Y-67687619D01*
X61758065Y-67683834D01*
X61683009Y-67633398D01*
X61485035Y-67500365D01*
X61485031Y-67500363D01*
X61480201Y-67497117D01*
X61182717Y-67343574D01*
X60869557Y-67225241D01*
X60647541Y-67169474D01*
X60550529Y-67145106D01*
X60550526Y-67145105D01*
X60544871Y-67143685D01*
X60539093Y-67142924D01*
X60539086Y-67142923D01*
X60321736Y-67114309D01*
X60212963Y-67099989D01*
X60207144Y-67099898D01*
X60207136Y-67099897D01*
X60027532Y-67097076D01*
X59878233Y-67094731D01*
X59545117Y-67127980D01*
X59218030Y-67199297D01*
X59212523Y-67201182D01*
X59212521Y-67201183D01*
X58906812Y-67305850D01*
X58906809Y-67305851D01*
X58901307Y-67307735D01*
X58599147Y-67451858D01*
X58414477Y-67567701D01*
X58335509Y-67617238D01*
X58315555Y-67629755D01*
X58054289Y-67839069D01*
X58050193Y-67843208D01*
X58050192Y-67843209D01*
X57988533Y-67905517D01*
X57818812Y-68077024D01*
X57815218Y-68081608D01*
X57815215Y-68081611D01*
X57649072Y-68293502D01*
X57612246Y-68340468D01*
X57437328Y-68625907D01*
X57296377Y-68929560D01*
X57191262Y-69247401D01*
X57123374Y-69575217D01*
X57122856Y-69581016D01*
X57122856Y-69581019D01*
X57115804Y-69660038D01*
X57093615Y-69908663D01*
X35025500Y-69908663D01*
X35025500Y-65914496D01*
X119029215Y-65914496D01*
X119030748Y-65919744D01*
X119033572Y-65923481D01*
X122483891Y-69373799D01*
X122500631Y-69384317D01*
X122508261Y-69381647D01*
X125959078Y-65930831D01*
X125969342Y-65914496D01*
X156529215Y-65914496D01*
X156530748Y-65919744D01*
X156533572Y-65923481D01*
X159983891Y-69373799D01*
X160000631Y-69384317D01*
X160008261Y-69381647D01*
X163459078Y-65930831D01*
X163469596Y-65914091D01*
X163468515Y-65911002D01*
X163462749Y-65904433D01*
X163248531Y-65727216D01*
X163241785Y-65722096D01*
X162879610Y-65470379D01*
X162872447Y-65465833D01*
X162490476Y-65245302D01*
X162482972Y-65241379D01*
X162083885Y-65053582D01*
X162076056Y-65050291D01*
X161662670Y-64896555D01*
X161654604Y-64893934D01*
X161229802Y-64775327D01*
X161221525Y-64773386D01*
X160788294Y-64690742D01*
X160779896Y-64689502D01*
X160341243Y-64643398D01*
X160332818Y-64642868D01*
X159891828Y-64633630D01*
X159883353Y-64633807D01*
X159443168Y-64661501D01*
X159434730Y-64662388D01*
X158998397Y-64726821D01*
X158990081Y-64728407D01*
X158560656Y-64829128D01*
X158552512Y-64831401D01*
X158133016Y-64967704D01*
X158125093Y-64970650D01*
X157718461Y-65141583D01*
X157710824Y-65145178D01*
X157319952Y-65349520D01*
X157312594Y-65353768D01*
X156940199Y-65590097D01*
X156933237Y-65594936D01*
X156581911Y-65861606D01*
X156575397Y-65866995D01*
X156540596Y-65898330D01*
X156529215Y-65914496D01*
X125969342Y-65914496D01*
X125969596Y-65914091D01*
X125968515Y-65911002D01*
X125962749Y-65904433D01*
X125748531Y-65727216D01*
X125741785Y-65722096D01*
X125379610Y-65470379D01*
X125372447Y-65465833D01*
X124990476Y-65245302D01*
X124982972Y-65241379D01*
X124583885Y-65053582D01*
X124576056Y-65050291D01*
X124162670Y-64896555D01*
X124154604Y-64893934D01*
X123729802Y-64775327D01*
X123721525Y-64773386D01*
X123288294Y-64690742D01*
X123279896Y-64689502D01*
X122841243Y-64643398D01*
X122832818Y-64642868D01*
X122391828Y-64633630D01*
X122383353Y-64633807D01*
X121943168Y-64661501D01*
X121934730Y-64662388D01*
X121498397Y-64726821D01*
X121490081Y-64728407D01*
X121060656Y-64829128D01*
X121052512Y-64831401D01*
X120633016Y-64967704D01*
X120625093Y-64970650D01*
X120218461Y-65141583D01*
X120210824Y-65145178D01*
X119819952Y-65349520D01*
X119812594Y-65353768D01*
X119440199Y-65590097D01*
X119433237Y-65594936D01*
X119081911Y-65861606D01*
X119075397Y-65866995D01*
X119040596Y-65898330D01*
X119029215Y-65914496D01*
X35025500Y-65914496D01*
X35025500Y-63360222D01*
X204756091Y-63360222D01*
X204757292Y-63363654D01*
X204762597Y-63369742D01*
X205153363Y-63697632D01*
X205158969Y-63702012D01*
X205597512Y-64020633D01*
X205603373Y-64024586D01*
X206063092Y-64311851D01*
X206069217Y-64315387D01*
X206547849Y-64569879D01*
X206554214Y-64572984D01*
X207049447Y-64793476D01*
X207055971Y-64796112D01*
X207565410Y-64981533D01*
X207572095Y-64983705D01*
X208093199Y-65133129D01*
X208100073Y-65134842D01*
X208630295Y-65247544D01*
X208637283Y-65248777D01*
X209174080Y-65324219D01*
X209181129Y-65324960D01*
X209721875Y-65362772D01*
X209728961Y-65363020D01*
X210271039Y-65363020D01*
X210278125Y-65362772D01*
X210818871Y-65324960D01*
X210825920Y-65324219D01*
X211362717Y-65248777D01*
X211369705Y-65247544D01*
X211899927Y-65134842D01*
X211906801Y-65133129D01*
X212427905Y-64983705D01*
X212434590Y-64981533D01*
X212944029Y-64796112D01*
X212950553Y-64793476D01*
X213445786Y-64572984D01*
X213452151Y-64569879D01*
X213930783Y-64315387D01*
X213936908Y-64311851D01*
X214396627Y-64024586D01*
X214402488Y-64020633D01*
X214841031Y-63702012D01*
X214846637Y-63697632D01*
X215232046Y-63374237D01*
X215243985Y-63358476D01*
X215243087Y-63354949D01*
X215238335Y-63348426D01*
X210016109Y-58126201D01*
X209999369Y-58115683D01*
X209991739Y-58118353D01*
X204766609Y-63343482D01*
X204756091Y-63360222D01*
X35025500Y-63360222D01*
X35025500Y-59908663D01*
X57093615Y-59908663D01*
X57102378Y-60243320D01*
X57149548Y-60574752D01*
X57234499Y-60898566D01*
X57356105Y-61210470D01*
X57512755Y-61506329D01*
X57702371Y-61782223D01*
X57706204Y-61786617D01*
X57706208Y-61786622D01*
X57918609Y-62030102D01*
X57918616Y-62030109D01*
X57922442Y-62034495D01*
X57926750Y-62038415D01*
X57926753Y-62038418D01*
X58131233Y-62224480D01*
X58170050Y-62259801D01*
X58174786Y-62263204D01*
X58174787Y-62263205D01*
X58399850Y-62424929D01*
X58441912Y-62455154D01*
X58734426Y-62617965D01*
X58739798Y-62620190D01*
X59027108Y-62739197D01*
X59043715Y-62746076D01*
X59365679Y-62837790D01*
X59371432Y-62838732D01*
X59371436Y-62838733D01*
X59625436Y-62880327D01*
X59696050Y-62891891D01*
X59929400Y-62902896D01*
X60024637Y-62907387D01*
X60024639Y-62907387D01*
X60030450Y-62907661D01*
X60098321Y-62903034D01*
X60358640Y-62885287D01*
X60358643Y-62885287D01*
X60364446Y-62884891D01*
X60693612Y-62823884D01*
X60699181Y-62822171D01*
X60699184Y-62822170D01*
X61008005Y-62727164D01*
X61008011Y-62727162D01*
X61013585Y-62725447D01*
X61018926Y-62723103D01*
X61018930Y-62723101D01*
X61314784Y-62593231D01*
X61314789Y-62593228D01*
X61320123Y-62590887D01*
X61325148Y-62587950D01*
X61325157Y-62587946D01*
X61604125Y-62424929D01*
X61609163Y-62421985D01*
X61876875Y-62220981D01*
X61975525Y-62127366D01*
X62115485Y-61994550D01*
X62115491Y-61994544D01*
X62119710Y-61990540D01*
X62334449Y-61733715D01*
X62337654Y-61728836D01*
X62515046Y-61458782D01*
X62515048Y-61458778D01*
X62518246Y-61453910D01*
X62668665Y-61154835D01*
X62783713Y-60840452D01*
X62861864Y-60514931D01*
X62902082Y-60182584D01*
X62907820Y-60000000D01*
X62902889Y-59914475D01*
X62888885Y-59671602D01*
X62888884Y-59671594D01*
X62888549Y-59665783D01*
X62830992Y-59335997D01*
X62803110Y-59241869D01*
X62737569Y-59020604D01*
X62737567Y-59020600D01*
X62735912Y-59015011D01*
X62604569Y-58707081D01*
X62438703Y-58416288D01*
X62240514Y-58146486D01*
X62012628Y-57901251D01*
X62008202Y-57897471D01*
X62008198Y-57897467D01*
X61762498Y-57687620D01*
X61762497Y-57687619D01*
X61758065Y-57683834D01*
X61683009Y-57633398D01*
X61489733Y-57503522D01*
X202132310Y-57503522D01*
X202151230Y-58045304D01*
X202151723Y-58052348D01*
X202208385Y-58591460D01*
X202209371Y-58598479D01*
X202303507Y-59132347D01*
X202304967Y-59139217D01*
X202436122Y-59665249D01*
X202438060Y-59672010D01*
X202605583Y-60187593D01*
X202607997Y-60194225D01*
X202811071Y-60696850D01*
X202813946Y-60703308D01*
X203051585Y-61190539D01*
X203054901Y-61196777D01*
X203325944Y-61666237D01*
X203329697Y-61672243D01*
X203632828Y-62121651D01*
X203636979Y-62127366D01*
X203970731Y-62554549D01*
X203975274Y-62559962D01*
X204128071Y-62729661D01*
X204144238Y-62741042D01*
X204149485Y-62739509D01*
X204153227Y-62736682D01*
X209373799Y-57516109D01*
X209383524Y-57500631D01*
X210615683Y-57500631D01*
X210618353Y-57508261D01*
X215840575Y-62730484D01*
X215857315Y-62741002D01*
X215862473Y-62739197D01*
X215866060Y-62736179D01*
X216024726Y-62559962D01*
X216029269Y-62554549D01*
X216363021Y-62127366D01*
X216367172Y-62121651D01*
X216670303Y-61672243D01*
X216674056Y-61666237D01*
X216945099Y-61196777D01*
X216948415Y-61190539D01*
X217186054Y-60703308D01*
X217188929Y-60696850D01*
X217392003Y-60194225D01*
X217394417Y-60187593D01*
X217561940Y-59672010D01*
X217563878Y-59665249D01*
X217695033Y-59139217D01*
X217696493Y-59132347D01*
X217790629Y-58598479D01*
X217791615Y-58591460D01*
X217848277Y-58052348D01*
X217848770Y-58045304D01*
X217867690Y-57503522D01*
X217867690Y-57496478D01*
X217848770Y-56954696D01*
X217848277Y-56947652D01*
X217791615Y-56408540D01*
X217790629Y-56401521D01*
X217696493Y-55867653D01*
X217695033Y-55860783D01*
X217563878Y-55334751D01*
X217561940Y-55327990D01*
X217394417Y-54812407D01*
X217392003Y-54805775D01*
X217188929Y-54303150D01*
X217186054Y-54296692D01*
X216948415Y-53809461D01*
X216945099Y-53803223D01*
X216674056Y-53333763D01*
X216670303Y-53327757D01*
X216367172Y-52878349D01*
X216363021Y-52872634D01*
X216029269Y-52445451D01*
X216024726Y-52440038D01*
X215871929Y-52270339D01*
X215855762Y-52258958D01*
X215850515Y-52260491D01*
X215846773Y-52263318D01*
X210626201Y-57483891D01*
X210615683Y-57500631D01*
X209383524Y-57500631D01*
X209384317Y-57499369D01*
X209381647Y-57491739D01*
X204159425Y-52269516D01*
X204142685Y-52258998D01*
X204137527Y-52260803D01*
X204133940Y-52263821D01*
X203975274Y-52440038D01*
X203970731Y-52445451D01*
X203636979Y-52872634D01*
X203632828Y-52878349D01*
X203329697Y-53327757D01*
X203325944Y-53333763D01*
X203054901Y-53803223D01*
X203051585Y-53809461D01*
X202813946Y-54296692D01*
X202811071Y-54303150D01*
X202607997Y-54805775D01*
X202605583Y-54812407D01*
X202438060Y-55327990D01*
X202436122Y-55334751D01*
X202304967Y-55860783D01*
X202303507Y-55867653D01*
X202209371Y-56401521D01*
X202208385Y-56408540D01*
X202151723Y-56947652D01*
X202151230Y-56954696D01*
X202132310Y-57496478D01*
X202132310Y-57503522D01*
X61489733Y-57503522D01*
X61485035Y-57500365D01*
X61485031Y-57500363D01*
X61480201Y-57497117D01*
X61182717Y-57343574D01*
X60869557Y-57225241D01*
X60647541Y-57169474D01*
X60550529Y-57145106D01*
X60550526Y-57145105D01*
X60544871Y-57143685D01*
X60539093Y-57142924D01*
X60539086Y-57142923D01*
X60321736Y-57114309D01*
X60212963Y-57099989D01*
X60207144Y-57099898D01*
X60207136Y-57099897D01*
X60027532Y-57097076D01*
X59878233Y-57094731D01*
X59545117Y-57127980D01*
X59218030Y-57199297D01*
X59212523Y-57201182D01*
X59212521Y-57201183D01*
X58906812Y-57305850D01*
X58906809Y-57305851D01*
X58901307Y-57307735D01*
X58599147Y-57451858D01*
X58315555Y-57629755D01*
X58054289Y-57839069D01*
X58050193Y-57843208D01*
X58050192Y-57843209D01*
X57988533Y-57905517D01*
X57818812Y-58077024D01*
X57815218Y-58081608D01*
X57815215Y-58081611D01*
X57786406Y-58118353D01*
X57612246Y-58340468D01*
X57437328Y-58625907D01*
X57296377Y-58929560D01*
X57191262Y-59247401D01*
X57123374Y-59575217D01*
X57122856Y-59581016D01*
X57122856Y-59581019D01*
X57112755Y-59694197D01*
X57093615Y-59908663D01*
X35025500Y-59908663D01*
X35025500Y-51641524D01*
X204756015Y-51641524D01*
X204756913Y-51645051D01*
X204761665Y-51651574D01*
X209983891Y-56873799D01*
X210000631Y-56884317D01*
X210008261Y-56881647D01*
X215233391Y-51656518D01*
X215243909Y-51639778D01*
X215242708Y-51636346D01*
X215237403Y-51630258D01*
X214846637Y-51302368D01*
X214841031Y-51297988D01*
X214402488Y-50979367D01*
X214396627Y-50975414D01*
X213936908Y-50688149D01*
X213930783Y-50684613D01*
X213452151Y-50430121D01*
X213445786Y-50427016D01*
X213176113Y-50306950D01*
X230309321Y-50306950D01*
X230319588Y-50317875D01*
X230458699Y-50417836D01*
X230468527Y-50424073D01*
X230746825Y-50578971D01*
X230757288Y-50584029D01*
X231051538Y-50705911D01*
X231062530Y-50709740D01*
X231368837Y-50796994D01*
X231380194Y-50799532D01*
X231694494Y-50851001D01*
X231706068Y-50852217D01*
X232024216Y-50867221D01*
X232035837Y-50867099D01*
X232353606Y-50845436D01*
X232365137Y-50843979D01*
X232678300Y-50785937D01*
X232689603Y-50783161D01*
X232994007Y-50689514D01*
X233004922Y-50685455D01*
X233296553Y-50557439D01*
X233306919Y-50552156D01*
X233581896Y-50391472D01*
X233591600Y-50385025D01*
X233678094Y-50320084D01*
X233690866Y-50304993D01*
X233690711Y-50304210D01*
X233683202Y-50293293D01*
X232016109Y-48626201D01*
X231999369Y-48615683D01*
X231991739Y-48618353D01*
X230319770Y-50290321D01*
X230309321Y-50306950D01*
X213176113Y-50306950D01*
X212950553Y-50206524D01*
X212944029Y-50203888D01*
X212434590Y-50018467D01*
X212427905Y-50016295D01*
X211906801Y-49866871D01*
X211899927Y-49865158D01*
X211369705Y-49752456D01*
X211362717Y-49751223D01*
X210825920Y-49675781D01*
X210818871Y-49675040D01*
X210278125Y-49637228D01*
X210271039Y-49636980D01*
X209728961Y-49636980D01*
X209721875Y-49637228D01*
X209181129Y-49675040D01*
X209174080Y-49675781D01*
X208637283Y-49751223D01*
X208630295Y-49752456D01*
X208100073Y-49865158D01*
X208093199Y-49866871D01*
X207572095Y-50016295D01*
X207565410Y-50018467D01*
X207055971Y-50203888D01*
X207049447Y-50206524D01*
X206554214Y-50427016D01*
X206547849Y-50430121D01*
X206069218Y-50684613D01*
X206063093Y-50688149D01*
X205603373Y-50975414D01*
X205597512Y-50979367D01*
X205158969Y-51297988D01*
X205153363Y-51302368D01*
X204767954Y-51625763D01*
X204756015Y-51641524D01*
X35025500Y-51641524D01*
X35025500Y-50306950D01*
X36309321Y-50306950D01*
X36319588Y-50317875D01*
X36458699Y-50417836D01*
X36468527Y-50424073D01*
X36746825Y-50578971D01*
X36757288Y-50584029D01*
X37051538Y-50705911D01*
X37062530Y-50709740D01*
X37368837Y-50796994D01*
X37380194Y-50799532D01*
X37694494Y-50851001D01*
X37706068Y-50852217D01*
X38024216Y-50867221D01*
X38035837Y-50867099D01*
X38353606Y-50845436D01*
X38365137Y-50843979D01*
X38678300Y-50785937D01*
X38689603Y-50783161D01*
X38994007Y-50689514D01*
X39004922Y-50685455D01*
X39296553Y-50557439D01*
X39306919Y-50552156D01*
X39581896Y-50391472D01*
X39591600Y-50385025D01*
X39678094Y-50320084D01*
X39690866Y-50304993D01*
X39690711Y-50304210D01*
X39683202Y-50293293D01*
X38016109Y-48626201D01*
X37999369Y-48615683D01*
X37991739Y-48618353D01*
X36319770Y-50290321D01*
X36309321Y-50306950D01*
X35025500Y-50306950D01*
X35025500Y-49314370D01*
X35045524Y-49226639D01*
X35101630Y-49156284D01*
X35182706Y-49117240D01*
X35272694Y-49117240D01*
X35353770Y-49156284D01*
X35406397Y-49219755D01*
X35544385Y-49480369D01*
X35550414Y-49490324D01*
X35679737Y-49678490D01*
X35693835Y-49691473D01*
X35707264Y-49682645D01*
X37373799Y-48016109D01*
X37383524Y-48000631D01*
X38615683Y-48000631D01*
X38618353Y-48008261D01*
X40293091Y-49683000D01*
X40308897Y-49692931D01*
X40321139Y-49680933D01*
X40480264Y-49438691D01*
X40486072Y-49428630D01*
X40629190Y-49144072D01*
X40633799Y-49133422D01*
X40743256Y-48834317D01*
X40746620Y-48823173D01*
X40820969Y-48513488D01*
X40823031Y-48502031D01*
X40861453Y-48184522D01*
X40862134Y-48175563D01*
X40867510Y-48004506D01*
X40867393Y-47995505D01*
X40862794Y-47915737D01*
X229133915Y-47915737D01*
X229142253Y-48234138D01*
X229143226Y-48245725D01*
X229188102Y-48561040D01*
X229190404Y-48572457D01*
X229271220Y-48880508D01*
X229274820Y-48891588D01*
X229390511Y-49188320D01*
X229395355Y-49198900D01*
X229544385Y-49480369D01*
X229550414Y-49490324D01*
X229679737Y-49678490D01*
X229693835Y-49691473D01*
X229707264Y-49682645D01*
X231373799Y-48016109D01*
X231384317Y-47999369D01*
X231381647Y-47991739D01*
X229708835Y-46318926D01*
X229692095Y-46308408D01*
X229690305Y-46309034D01*
X229681943Y-46316570D01*
X229648832Y-46358798D01*
X229642182Y-46368366D01*
X229475775Y-46639916D01*
X229470271Y-46650183D01*
X229336179Y-46939061D01*
X229331896Y-46949876D01*
X229231891Y-47252265D01*
X229228880Y-47263502D01*
X229164293Y-47575379D01*
X229162593Y-47586887D01*
X229134280Y-47904136D01*
X229133915Y-47915737D01*
X40862794Y-47915737D01*
X40848983Y-47676219D01*
X40847644Y-47664654D01*
X40792886Y-47350905D01*
X40790231Y-47339585D01*
X40699776Y-47034211D01*
X40695831Y-47023254D01*
X40570876Y-46730301D01*
X40565703Y-46719880D01*
X40407906Y-46443233D01*
X40401558Y-46433459D01*
X40319793Y-46322150D01*
X40304835Y-46309219D01*
X40304594Y-46309264D01*
X40292817Y-46317274D01*
X38626201Y-47983891D01*
X38615683Y-48000631D01*
X37383524Y-48000631D01*
X37384317Y-47999369D01*
X37381647Y-47991739D01*
X35708835Y-46318926D01*
X35692095Y-46308408D01*
X35690305Y-46309034D01*
X35681943Y-46316570D01*
X35648832Y-46358798D01*
X35642182Y-46368366D01*
X35475775Y-46639916D01*
X35470270Y-46650183D01*
X35411104Y-46777647D01*
X35356004Y-46848793D01*
X35275491Y-46888985D01*
X35185513Y-46890264D01*
X35103890Y-46852376D01*
X35046789Y-46782826D01*
X35025500Y-46692514D01*
X35025500Y-45227700D01*
X35045524Y-45139969D01*
X35101630Y-45069614D01*
X35182706Y-45030570D01*
X35227700Y-45025500D01*
X36692577Y-45025500D01*
X36780308Y-45045524D01*
G37*
%TD.AperFunction*%
%TD*%
M02*
