G04 #@! TF.GenerationSoftware,KiCad,Pcbnew,(6.0.5)*
G04 #@! TF.CreationDate,2022-06-09T21:04:16-05:00*
G04 #@! TF.ProjectId,TuringPanel,54757269-6e67-4506-916e-656c2e6b6963,rev?*
G04 #@! TF.SameCoordinates,Original*
G04 #@! TF.FileFunction,Copper,L1,Top*
G04 #@! TF.FilePolarity,Positive*
%FSLAX46Y46*%
G04 Gerber Fmt 4.6, Leading zero omitted, Abs format (unit mm)*
G04 Created by KiCad (PCBNEW (6.0.5)) date 2022-06-09 21:04:16*
%MOMM*%
%LPD*%
G01*
G04 APERTURE LIST*
G04 #@! TA.AperFunction,ComponentPad*
%ADD10C,4.000000*%
G04 #@! TD*
G04 #@! TA.AperFunction,ComponentPad*
%ADD11C,5.500000*%
G04 #@! TD*
G04 #@! TA.AperFunction,ComponentPad*
%ADD12C,9.000000*%
G04 #@! TD*
G04 #@! TA.AperFunction,ComponentPad*
%ADD13C,14.000000*%
G04 #@! TD*
G04 APERTURE END LIST*
D10*
X232000000Y-48000000D03*
D11*
X170000000Y-132500000D03*
D12*
X97500000Y-95000000D03*
D13*
X210000000Y-107500000D03*
D11*
X60000000Y-120000000D03*
X60000000Y-70000000D03*
D12*
X135000000Y-120000000D03*
X122500000Y-70000000D03*
D13*
X210000000Y-82500000D03*
D11*
X60000000Y-130000000D03*
D13*
X210000000Y-57500000D03*
D11*
X60000000Y-60000000D03*
D10*
X38000000Y-48000000D03*
D11*
X60000000Y-90000000D03*
D10*
X38000000Y-142000000D03*
D11*
X60000000Y-100000000D03*
D13*
X210000000Y-132500000D03*
D10*
X232000000Y-142000000D03*
D13*
X185000000Y-82500000D03*
D11*
X170000000Y-82500000D03*
D12*
X160000000Y-70000000D03*
D11*
X60000000Y-80000000D03*
X60000000Y-110000000D03*
G04 #@! TA.AperFunction,Conductor*
G36*
X36903424Y-45528502D02*
G01*
X36949917Y-45582158D01*
X36960021Y-45652432D01*
X36930527Y-45717012D01*
X36896004Y-45744915D01*
X36656961Y-45876330D01*
X36650281Y-45880570D01*
X36427177Y-46042664D01*
X36418754Y-46053587D01*
X36425658Y-46066448D01*
X37987188Y-47627978D01*
X38001132Y-47635592D01*
X38002965Y-47635461D01*
X38009580Y-47631210D01*
X39574666Y-46066124D01*
X39581279Y-46054013D01*
X39572452Y-46042395D01*
X39349719Y-45880570D01*
X39343039Y-45876330D01*
X39103996Y-45744915D01*
X39053937Y-45694569D01*
X39039044Y-45625152D01*
X39064045Y-45558703D01*
X39121002Y-45516319D01*
X39164697Y-45508500D01*
X230835303Y-45508500D01*
X230903424Y-45528502D01*
X230949917Y-45582158D01*
X230960021Y-45652432D01*
X230930527Y-45717012D01*
X230896004Y-45744915D01*
X230656961Y-45876330D01*
X230650281Y-45880570D01*
X230427177Y-46042664D01*
X230418754Y-46053587D01*
X230425658Y-46066448D01*
X231987188Y-47627978D01*
X232001132Y-47635592D01*
X232002965Y-47635461D01*
X232009580Y-47631210D01*
X233574666Y-46066124D01*
X233581279Y-46054013D01*
X233572452Y-46042395D01*
X233349719Y-45880570D01*
X233343039Y-45876330D01*
X233103996Y-45744915D01*
X233053937Y-45694569D01*
X233039044Y-45625152D01*
X233064045Y-45558703D01*
X233121002Y-45516319D01*
X233164697Y-45508500D01*
X234365500Y-45508500D01*
X234433621Y-45528502D01*
X234480114Y-45582158D01*
X234491500Y-45634500D01*
X234491500Y-46840640D01*
X234471498Y-46908761D01*
X234417842Y-46955254D01*
X234347568Y-46965358D01*
X234282988Y-46935864D01*
X234251492Y-46894288D01*
X234203810Y-46792959D01*
X234199999Y-46786026D01*
X234035149Y-46526264D01*
X234030505Y-46519871D01*
X233955503Y-46429210D01*
X233942986Y-46420755D01*
X233932248Y-46426962D01*
X232372022Y-47987188D01*
X232364408Y-48001132D01*
X232364539Y-48002965D01*
X232368790Y-48009580D01*
X233931145Y-49571935D01*
X233944407Y-49579177D01*
X233954512Y-49571988D01*
X234030505Y-49480129D01*
X234035149Y-49473736D01*
X234199999Y-49213974D01*
X234203810Y-49207041D01*
X234251492Y-49105712D01*
X234298594Y-49052591D01*
X234366939Y-49033368D01*
X234434827Y-49054147D01*
X234480704Y-49108330D01*
X234491500Y-49159360D01*
X234491500Y-140840640D01*
X234471498Y-140908761D01*
X234417842Y-140955254D01*
X234347568Y-140965358D01*
X234282988Y-140935864D01*
X234251492Y-140894288D01*
X234203810Y-140792959D01*
X234199999Y-140786026D01*
X234035149Y-140526264D01*
X234030505Y-140519871D01*
X233955503Y-140429210D01*
X233942986Y-140420755D01*
X233932248Y-140426962D01*
X232372022Y-141987188D01*
X232364408Y-142001132D01*
X232364539Y-142002965D01*
X232368790Y-142009580D01*
X233931145Y-143571935D01*
X233944407Y-143579177D01*
X233954512Y-143571988D01*
X234030505Y-143480129D01*
X234035149Y-143473736D01*
X234199999Y-143213974D01*
X234203810Y-143207041D01*
X234251492Y-143105712D01*
X234298594Y-143052591D01*
X234366939Y-143033368D01*
X234434827Y-143054147D01*
X234480704Y-143108330D01*
X234491500Y-143159360D01*
X234491500Y-144365500D01*
X234471498Y-144433621D01*
X234417842Y-144480114D01*
X234365500Y-144491500D01*
X233164697Y-144491500D01*
X233096576Y-144471498D01*
X233050083Y-144417842D01*
X233039979Y-144347568D01*
X233069473Y-144282988D01*
X233103996Y-144255085D01*
X233343039Y-144123670D01*
X233349719Y-144119430D01*
X233572823Y-143957336D01*
X233581246Y-143946413D01*
X233574342Y-143933552D01*
X232012812Y-142372022D01*
X231998868Y-142364408D01*
X231997035Y-142364539D01*
X231990420Y-142368790D01*
X230425334Y-143933876D01*
X230418721Y-143945987D01*
X230427548Y-143957605D01*
X230650281Y-144119430D01*
X230656961Y-144123670D01*
X230896004Y-144255085D01*
X230946063Y-144305431D01*
X230960956Y-144374848D01*
X230935955Y-144441297D01*
X230878998Y-144483681D01*
X230835303Y-144491500D01*
X39164697Y-144491500D01*
X39096576Y-144471498D01*
X39050083Y-144417842D01*
X39039979Y-144347568D01*
X39069473Y-144282988D01*
X39103996Y-144255085D01*
X39343039Y-144123670D01*
X39349719Y-144119430D01*
X39572823Y-143957336D01*
X39581246Y-143946413D01*
X39574342Y-143933552D01*
X38012812Y-142372022D01*
X37998868Y-142364408D01*
X37997035Y-142364539D01*
X37990420Y-142368790D01*
X36425334Y-143933876D01*
X36418721Y-143945987D01*
X36427548Y-143957605D01*
X36650281Y-144119430D01*
X36656961Y-144123670D01*
X36896004Y-144255085D01*
X36946063Y-144305431D01*
X36960956Y-144374848D01*
X36935955Y-144441297D01*
X36878998Y-144483681D01*
X36835303Y-144491500D01*
X35634500Y-144491500D01*
X35566379Y-144471498D01*
X35519886Y-144417842D01*
X35508500Y-144365500D01*
X35508500Y-143159360D01*
X35528502Y-143091239D01*
X35582158Y-143044746D01*
X35652432Y-143034642D01*
X35717012Y-143064136D01*
X35748508Y-143105712D01*
X35796190Y-143207041D01*
X35800001Y-143213974D01*
X35964851Y-143473736D01*
X35969495Y-143480129D01*
X36044497Y-143570790D01*
X36057014Y-143579245D01*
X36067752Y-143573038D01*
X37627978Y-142012812D01*
X37634356Y-142001132D01*
X38364408Y-142001132D01*
X38364539Y-142002965D01*
X38368790Y-142009580D01*
X39931145Y-143571935D01*
X39944407Y-143579177D01*
X39954512Y-143571988D01*
X40030505Y-143480129D01*
X40035149Y-143473736D01*
X40199999Y-143213974D01*
X40203811Y-143207041D01*
X40334801Y-142928672D01*
X40337716Y-142921309D01*
X40432783Y-142628723D01*
X40434754Y-142621046D01*
X40492400Y-142318855D01*
X40493393Y-142310994D01*
X40512710Y-142003958D01*
X229487290Y-142003958D01*
X229506607Y-142310994D01*
X229507600Y-142318855D01*
X229565246Y-142621046D01*
X229567217Y-142628723D01*
X229662284Y-142921309D01*
X229665199Y-142928672D01*
X229796189Y-143207041D01*
X229800001Y-143213974D01*
X229964851Y-143473736D01*
X229969495Y-143480129D01*
X230044497Y-143570790D01*
X230057014Y-143579245D01*
X230067752Y-143573038D01*
X231627978Y-142012812D01*
X231635592Y-141998868D01*
X231635461Y-141997035D01*
X231631210Y-141990420D01*
X230068855Y-140428065D01*
X230055593Y-140420823D01*
X230045488Y-140428012D01*
X229969495Y-140519871D01*
X229964851Y-140526264D01*
X229800001Y-140786026D01*
X229796189Y-140792959D01*
X229665199Y-141071328D01*
X229662284Y-141078691D01*
X229567217Y-141371277D01*
X229565246Y-141378954D01*
X229507600Y-141681145D01*
X229506607Y-141689006D01*
X229487290Y-141996042D01*
X229487290Y-142003958D01*
X40512710Y-142003958D01*
X40512710Y-141996042D01*
X40493393Y-141689006D01*
X40492400Y-141681145D01*
X40434754Y-141378954D01*
X40432783Y-141371277D01*
X40337716Y-141078691D01*
X40334801Y-141071328D01*
X40203811Y-140792959D01*
X40199999Y-140786026D01*
X40035149Y-140526264D01*
X40030505Y-140519871D01*
X39955503Y-140429210D01*
X39942986Y-140420755D01*
X39932248Y-140426962D01*
X38372022Y-141987188D01*
X38364408Y-142001132D01*
X37634356Y-142001132D01*
X37635592Y-141998868D01*
X37635461Y-141997035D01*
X37631210Y-141990420D01*
X36068855Y-140428065D01*
X36055593Y-140420823D01*
X36045488Y-140428012D01*
X35969495Y-140519871D01*
X35964851Y-140526264D01*
X35800001Y-140786026D01*
X35796190Y-140792959D01*
X35748508Y-140894288D01*
X35701406Y-140947409D01*
X35633061Y-140966632D01*
X35565173Y-140945853D01*
X35519296Y-140891670D01*
X35508500Y-140840640D01*
X35508500Y-140053587D01*
X36418754Y-140053587D01*
X36425658Y-140066448D01*
X37987188Y-141627978D01*
X38001132Y-141635592D01*
X38002965Y-141635461D01*
X38009580Y-141631210D01*
X39574666Y-140066124D01*
X39581279Y-140054013D01*
X39580955Y-140053587D01*
X230418754Y-140053587D01*
X230425658Y-140066448D01*
X231987188Y-141627978D01*
X232001132Y-141635592D01*
X232002965Y-141635461D01*
X232009580Y-141631210D01*
X233574666Y-140066124D01*
X233581279Y-140054013D01*
X233572452Y-140042395D01*
X233349719Y-139880570D01*
X233343039Y-139876330D01*
X233073428Y-139728110D01*
X233066293Y-139724753D01*
X232780230Y-139611492D01*
X232772704Y-139609047D01*
X232474721Y-139532538D01*
X232466950Y-139531055D01*
X232161722Y-139492497D01*
X232153831Y-139492000D01*
X231846169Y-139492000D01*
X231838278Y-139492497D01*
X231533050Y-139531055D01*
X231525279Y-139532538D01*
X231227296Y-139609047D01*
X231219770Y-139611492D01*
X230933707Y-139724753D01*
X230926572Y-139728110D01*
X230656961Y-139876330D01*
X230650281Y-139880570D01*
X230427177Y-140042664D01*
X230418754Y-140053587D01*
X39580955Y-140053587D01*
X39572452Y-140042395D01*
X39349719Y-139880570D01*
X39343039Y-139876330D01*
X39073428Y-139728110D01*
X39066293Y-139724753D01*
X38780230Y-139611492D01*
X38772704Y-139609047D01*
X38474721Y-139532538D01*
X38466950Y-139531055D01*
X38161722Y-139492497D01*
X38153831Y-139492000D01*
X37846169Y-139492000D01*
X37838278Y-139492497D01*
X37533050Y-139531055D01*
X37525279Y-139532538D01*
X37227296Y-139609047D01*
X37219770Y-139611492D01*
X36933707Y-139724753D01*
X36926572Y-139728110D01*
X36656961Y-139876330D01*
X36650281Y-139880570D01*
X36427177Y-140042664D01*
X36418754Y-140053587D01*
X35508500Y-140053587D01*
X35508500Y-137987102D01*
X204878438Y-137987102D01*
X204878462Y-137987441D01*
X204884285Y-137996073D01*
X205128991Y-138219913D01*
X205132445Y-138222852D01*
X205550430Y-138553550D01*
X205554067Y-138556222D01*
X205994618Y-138856182D01*
X205998446Y-138858593D01*
X206459337Y-139126300D01*
X206463309Y-139128421D01*
X206942148Y-139362483D01*
X206946284Y-139364325D01*
X207440627Y-139563551D01*
X207444871Y-139565087D01*
X207952218Y-139728467D01*
X207956539Y-139729689D01*
X208474254Y-139856374D01*
X208478695Y-139857294D01*
X209004141Y-139946637D01*
X209008595Y-139947232D01*
X209539106Y-139998782D01*
X209543579Y-139999056D01*
X210076427Y-140012543D01*
X210080930Y-140012496D01*
X210613352Y-139987853D01*
X210617836Y-139987485D01*
X211147152Y-139924836D01*
X211151591Y-139924149D01*
X211675087Y-139823814D01*
X211679446Y-139822815D01*
X212194414Y-139685311D01*
X212198727Y-139683992D01*
X212702525Y-139510028D01*
X212706740Y-139508402D01*
X213196805Y-139298866D01*
X213200892Y-139296943D01*
X213674731Y-139052900D01*
X213678658Y-139050696D01*
X214133828Y-138773404D01*
X214137624Y-138770901D01*
X214571786Y-138461788D01*
X214575372Y-138459036D01*
X214986362Y-138119640D01*
X214989705Y-138116672D01*
X215113630Y-137998453D01*
X215121568Y-137984695D01*
X215121518Y-137983649D01*
X215116625Y-137975835D01*
X210012812Y-132872022D01*
X209998868Y-132864408D01*
X209997035Y-132864539D01*
X209990420Y-132868790D01*
X204886052Y-137973158D01*
X204878438Y-137987102D01*
X35508500Y-137987102D01*
X35508500Y-129988609D01*
X56736734Y-129988609D01*
X56754591Y-130341106D01*
X56755128Y-130344461D01*
X56755129Y-130344467D01*
X56782501Y-130515355D01*
X56810412Y-130689613D01*
X56903546Y-131030053D01*
X57032903Y-131358443D01*
X57034486Y-131361458D01*
X57195384Y-131667926D01*
X57195389Y-131667934D01*
X57196968Y-131670942D01*
X57198862Y-131673760D01*
X57198867Y-131673769D01*
X57385544Y-131951573D01*
X57393824Y-131963895D01*
X57621167Y-132233873D01*
X57623627Y-132236224D01*
X57623630Y-132236227D01*
X57873875Y-132475366D01*
X57873882Y-132475372D01*
X57876338Y-132477719D01*
X58156351Y-132692581D01*
X58159269Y-132694355D01*
X58455017Y-132874173D01*
X58455022Y-132874176D01*
X58457932Y-132875945D01*
X58461020Y-132877391D01*
X58461019Y-132877391D01*
X58774468Y-133024222D01*
X58774478Y-133024226D01*
X58777552Y-133025666D01*
X58780770Y-133026768D01*
X58780773Y-133026769D01*
X59108241Y-133138887D01*
X59108245Y-133138888D01*
X59111472Y-133139993D01*
X59114802Y-133140743D01*
X59114811Y-133140746D01*
X59346249Y-133192902D01*
X59455786Y-133217587D01*
X59459171Y-133217973D01*
X59459179Y-133217974D01*
X59803083Y-133257157D01*
X59803091Y-133257157D01*
X59806466Y-133257542D01*
X59809870Y-133257560D01*
X59809873Y-133257560D01*
X60001627Y-133258564D01*
X60159411Y-133259390D01*
X60162797Y-133259040D01*
X60162799Y-133259040D01*
X60507098Y-133223461D01*
X60507107Y-133223460D01*
X60510490Y-133223110D01*
X60513823Y-133222396D01*
X60513826Y-133222395D01*
X60683692Y-133185979D01*
X60855598Y-133149125D01*
X61190697Y-133038301D01*
X61511867Y-132891936D01*
X61605405Y-132836397D01*
X61812407Y-132713489D01*
X61812412Y-132713486D01*
X61815352Y-132711740D01*
X61840870Y-132692581D01*
X62094867Y-132501874D01*
X62097600Y-132499822D01*
X62109582Y-132488609D01*
X166736734Y-132488609D01*
X166736906Y-132492004D01*
X166736906Y-132492005D01*
X166748126Y-132713489D01*
X166754591Y-132841106D01*
X166755128Y-132844461D01*
X166755129Y-132844467D01*
X166769553Y-132934517D01*
X166810412Y-133189613D01*
X166903546Y-133530053D01*
X167032903Y-133858443D01*
X167034486Y-133861458D01*
X167195384Y-134167926D01*
X167195389Y-134167934D01*
X167196968Y-134170942D01*
X167198862Y-134173760D01*
X167198867Y-134173769D01*
X167218518Y-134203012D01*
X167393824Y-134463895D01*
X167621167Y-134733873D01*
X167623627Y-134736224D01*
X167623630Y-134736227D01*
X167873875Y-134975366D01*
X167873882Y-134975372D01*
X167876338Y-134977719D01*
X168156351Y-135192581D01*
X168159269Y-135194355D01*
X168455017Y-135374173D01*
X168455022Y-135374176D01*
X168457932Y-135375945D01*
X168461020Y-135377391D01*
X168461019Y-135377391D01*
X168774468Y-135524222D01*
X168774478Y-135524226D01*
X168777552Y-135525666D01*
X168780770Y-135526768D01*
X168780773Y-135526769D01*
X169108241Y-135638887D01*
X169108245Y-135638888D01*
X169111472Y-135639993D01*
X169114802Y-135640743D01*
X169114811Y-135640746D01*
X169358164Y-135695587D01*
X169455786Y-135717587D01*
X169459171Y-135717973D01*
X169459179Y-135717974D01*
X169803083Y-135757157D01*
X169803091Y-135757157D01*
X169806466Y-135757542D01*
X169809870Y-135757560D01*
X169809873Y-135757560D01*
X170001627Y-135758564D01*
X170159411Y-135759390D01*
X170162797Y-135759040D01*
X170162799Y-135759040D01*
X170507098Y-135723461D01*
X170507107Y-135723460D01*
X170510490Y-135723110D01*
X170513823Y-135722396D01*
X170513826Y-135722395D01*
X170743863Y-135673079D01*
X170855598Y-135649125D01*
X171190697Y-135538301D01*
X171511867Y-135391936D01*
X171605405Y-135336397D01*
X171812407Y-135213489D01*
X171812412Y-135213486D01*
X171815352Y-135211740D01*
X171840870Y-135192581D01*
X172094867Y-135001874D01*
X172097600Y-134999822D01*
X172355310Y-134758661D01*
X172585468Y-134491078D01*
X172785380Y-134200203D01*
X172786992Y-134197209D01*
X172786997Y-134197201D01*
X172951087Y-133892452D01*
X172952709Y-133889440D01*
X173085498Y-133562422D01*
X173093816Y-133533223D01*
X173171918Y-133259040D01*
X173182191Y-133222976D01*
X173241659Y-132875073D01*
X173242044Y-132868790D01*
X173261529Y-132550201D01*
X202487236Y-132550201D01*
X202487267Y-132554699D01*
X202510052Y-133087215D01*
X202510404Y-133091696D01*
X202571206Y-133621240D01*
X202571874Y-133625659D01*
X202670381Y-134149497D01*
X202671370Y-134153884D01*
X202807070Y-134669308D01*
X202808381Y-134673648D01*
X202980581Y-135178039D01*
X202982188Y-135182249D01*
X203190028Y-135673079D01*
X203191917Y-135677129D01*
X203434314Y-136151836D01*
X203436507Y-136155776D01*
X203712217Y-136611925D01*
X203714678Y-136615685D01*
X204022290Y-137050947D01*
X204025036Y-137054552D01*
X204362987Y-137466712D01*
X204365944Y-137470066D01*
X204501751Y-137613428D01*
X204515482Y-137621415D01*
X204516410Y-137621374D01*
X204524399Y-137616391D01*
X209627978Y-132512812D01*
X209634356Y-132501132D01*
X210364408Y-132501132D01*
X210364539Y-132502965D01*
X210368790Y-132509580D01*
X215473389Y-137614179D01*
X215487333Y-137621793D01*
X215487556Y-137621778D01*
X215496338Y-137615831D01*
X215736905Y-137350987D01*
X215739793Y-137347570D01*
X216069044Y-136928414D01*
X216071701Y-136924771D01*
X216370130Y-136483164D01*
X216372526Y-136479329D01*
X216638617Y-136017514D01*
X216640726Y-136013531D01*
X216873116Y-135533878D01*
X216874941Y-135529741D01*
X217072446Y-135034690D01*
X217073961Y-135030460D01*
X217235567Y-134522549D01*
X217236781Y-134518202D01*
X217361661Y-134000034D01*
X217362555Y-133995638D01*
X217450064Y-133469885D01*
X217450649Y-133465380D01*
X217500363Y-132934517D01*
X217500613Y-132930439D01*
X217512954Y-132502024D01*
X217512939Y-132497967D01*
X217493866Y-131965096D01*
X217493544Y-131960601D01*
X217436442Y-131430662D01*
X217435800Y-131426211D01*
X217340955Y-130901710D01*
X217339999Y-130897327D01*
X217207892Y-130380933D01*
X217206630Y-130376645D01*
X217037938Y-129871015D01*
X217036370Y-129866818D01*
X216831966Y-129374558D01*
X216830088Y-129370456D01*
X216591023Y-128894094D01*
X216588855Y-128890133D01*
X216316347Y-128432090D01*
X216313891Y-128428279D01*
X216009331Y-127990890D01*
X216006624Y-127987284D01*
X215671552Y-127572765D01*
X215668609Y-127569380D01*
X215498034Y-127386780D01*
X215484361Y-127378698D01*
X215483667Y-127378724D01*
X215475320Y-127383890D01*
X210372022Y-132487188D01*
X210364408Y-132501132D01*
X209634356Y-132501132D01*
X209635592Y-132498868D01*
X209635461Y-132497035D01*
X209631210Y-132490420D01*
X204527007Y-127386217D01*
X204513063Y-127378603D01*
X204512606Y-127378635D01*
X204504130Y-127384332D01*
X204297104Y-127609077D01*
X204294190Y-127612477D01*
X203962015Y-128029331D01*
X203959344Y-128032941D01*
X203657831Y-128472465D01*
X203655409Y-128476283D01*
X203386107Y-128936216D01*
X203383964Y-128940196D01*
X203148233Y-129418211D01*
X203146376Y-129422343D01*
X202945427Y-129915984D01*
X202943874Y-129920230D01*
X202778729Y-130426984D01*
X202777484Y-130431326D01*
X202648991Y-130948608D01*
X202648067Y-130952991D01*
X202556885Y-131478152D01*
X202556274Y-131482609D01*
X202502873Y-132012930D01*
X202502583Y-132017413D01*
X202487236Y-132550201D01*
X173261529Y-132550201D01*
X173263096Y-132524580D01*
X173263206Y-132522782D01*
X173263279Y-132502024D01*
X173263280Y-132501819D01*
X173263280Y-132501806D01*
X173263286Y-132500000D01*
X173244199Y-132147567D01*
X173187161Y-131799257D01*
X173092839Y-131459145D01*
X173089849Y-131451630D01*
X172963597Y-131134372D01*
X172962338Y-131131208D01*
X172797182Y-130819283D01*
X172790579Y-130809530D01*
X172601211Y-130529834D01*
X172601204Y-130529825D01*
X172599305Y-130527020D01*
X172597109Y-130524430D01*
X172597104Y-130524424D01*
X172473283Y-130378420D01*
X172371021Y-130257837D01*
X172115001Y-130014883D01*
X172112294Y-130012821D01*
X172112286Y-130012814D01*
X171926147Y-129871015D01*
X171834239Y-129801000D01*
X171532020Y-129618689D01*
X171528930Y-129617255D01*
X171528925Y-129617252D01*
X171371949Y-129544387D01*
X171211879Y-129470085D01*
X171208654Y-129468993D01*
X171208648Y-129468991D01*
X170880798Y-129358020D01*
X170880793Y-129358018D01*
X170877562Y-129356925D01*
X170863832Y-129353881D01*
X170794730Y-129338562D01*
X170532979Y-129280533D01*
X170408353Y-129266774D01*
X170185543Y-129242175D01*
X170185538Y-129242175D01*
X170182162Y-129241802D01*
X170178763Y-129241796D01*
X170178762Y-129241796D01*
X170012289Y-129241506D01*
X169829213Y-129241186D01*
X169698206Y-129255187D01*
X169481646Y-129278330D01*
X169481640Y-129278331D01*
X169478262Y-129278692D01*
X169133414Y-129353881D01*
X168798704Y-129465873D01*
X168478047Y-129613359D01*
X168175194Y-129794613D01*
X167893687Y-130007515D01*
X167636820Y-130249574D01*
X167407598Y-130517959D01*
X167208702Y-130809530D01*
X167201886Y-130822295D01*
X167071987Y-131065574D01*
X167042458Y-131120876D01*
X167041183Y-131124048D01*
X167041181Y-131124052D01*
X166917926Y-131430662D01*
X166910813Y-131448355D01*
X166909894Y-131451623D01*
X166909892Y-131451630D01*
X166840021Y-131700203D01*
X166815304Y-131788136D01*
X166814743Y-131791489D01*
X166814742Y-131791493D01*
X166757614Y-132132880D01*
X166757051Y-132136245D01*
X166736734Y-132488609D01*
X62109582Y-132488609D01*
X62355310Y-132258661D01*
X62585468Y-131991078D01*
X62785380Y-131700203D01*
X62786992Y-131697209D01*
X62786997Y-131697201D01*
X62915177Y-131459145D01*
X62952709Y-131389440D01*
X63085498Y-131062422D01*
X63093816Y-131033223D01*
X63181257Y-130726254D01*
X63182191Y-130722976D01*
X63241659Y-130375073D01*
X63243945Y-130337711D01*
X63263096Y-130024580D01*
X63263206Y-130022782D01*
X63263286Y-130000000D01*
X63244199Y-129647567D01*
X63187161Y-129299257D01*
X63092839Y-128959145D01*
X63089849Y-128951630D01*
X62963597Y-128634372D01*
X62962338Y-128631208D01*
X62856910Y-128432090D01*
X62798777Y-128322295D01*
X62798775Y-128322292D01*
X62797182Y-128319283D01*
X62790579Y-128309530D01*
X62601211Y-128029834D01*
X62601204Y-128029825D01*
X62599305Y-128027020D01*
X62597109Y-128024430D01*
X62597104Y-128024424D01*
X62508715Y-127920201D01*
X62371021Y-127757837D01*
X62115001Y-127514883D01*
X62112294Y-127512821D01*
X62112286Y-127512814D01*
X61953809Y-127392088D01*
X61834239Y-127301000D01*
X61532020Y-127118689D01*
X61528930Y-127117255D01*
X61528925Y-127117252D01*
X61311665Y-127016404D01*
X61309914Y-127015591D01*
X204878674Y-127015591D01*
X204878707Y-127016404D01*
X204883783Y-127024573D01*
X209987188Y-132127978D01*
X210001132Y-132135592D01*
X210002965Y-132135461D01*
X210009580Y-132131210D01*
X215113682Y-127027108D01*
X215121296Y-127013164D01*
X215121255Y-127012590D01*
X215115684Y-127004268D01*
X214910818Y-126814228D01*
X214907387Y-126811267D01*
X214491729Y-126477666D01*
X214488115Y-126474972D01*
X214049654Y-126171933D01*
X214045835Y-126169490D01*
X213586846Y-125898585D01*
X213582877Y-125896430D01*
X213105679Y-125659028D01*
X213101575Y-125657166D01*
X212608610Y-125454483D01*
X212604395Y-125452924D01*
X212098199Y-125286006D01*
X212093883Y-125284752D01*
X211577042Y-125154451D01*
X211572665Y-125153513D01*
X211047822Y-125060496D01*
X211043365Y-125059870D01*
X210513241Y-125004620D01*
X210508747Y-125004313D01*
X209976027Y-124987107D01*
X209971530Y-124987122D01*
X209438927Y-125008048D01*
X209434451Y-125008384D01*
X208904713Y-125067336D01*
X208900261Y-125067994D01*
X208376106Y-125164667D01*
X208371701Y-125165643D01*
X207855801Y-125299545D01*
X207851490Y-125300830D01*
X207346471Y-125471278D01*
X207342259Y-125472870D01*
X206850723Y-125678988D01*
X206846647Y-125680871D01*
X206371109Y-125921605D01*
X206367158Y-125923786D01*
X205910063Y-126197893D01*
X205906267Y-126200358D01*
X205469930Y-126506452D01*
X205466347Y-126509162D01*
X205053007Y-126845674D01*
X205049617Y-126848642D01*
X204886708Y-127001891D01*
X204878674Y-127015591D01*
X61309914Y-127015591D01*
X61211879Y-126970085D01*
X61208654Y-126968993D01*
X61208648Y-126968991D01*
X60880798Y-126858020D01*
X60880793Y-126858018D01*
X60877562Y-126856925D01*
X60863832Y-126853881D01*
X60794730Y-126838562D01*
X60532979Y-126780533D01*
X60408353Y-126766774D01*
X60185543Y-126742175D01*
X60185538Y-126742175D01*
X60182162Y-126741802D01*
X60178763Y-126741796D01*
X60178762Y-126741796D01*
X60012289Y-126741506D01*
X59829213Y-126741186D01*
X59698206Y-126755187D01*
X59481646Y-126778330D01*
X59481640Y-126778331D01*
X59478262Y-126778692D01*
X59133414Y-126853881D01*
X58798704Y-126965873D01*
X58795611Y-126967295D01*
X58795610Y-126967296D01*
X58688842Y-127016404D01*
X58478047Y-127113359D01*
X58175194Y-127294613D01*
X57893687Y-127507515D01*
X57636820Y-127749574D01*
X57407598Y-128017959D01*
X57405670Y-128020786D01*
X57405668Y-128020788D01*
X57399497Y-128029834D01*
X57208702Y-128309530D01*
X57042458Y-128620876D01*
X57041183Y-128624048D01*
X57041181Y-128624052D01*
X56932626Y-128894094D01*
X56910813Y-128948355D01*
X56909894Y-128951623D01*
X56909892Y-128951630D01*
X56816225Y-129284858D01*
X56815304Y-129288136D01*
X56814743Y-129291489D01*
X56814742Y-129291493D01*
X56785742Y-129464793D01*
X56757051Y-129636245D01*
X56736734Y-129988609D01*
X35508500Y-129988609D01*
X35508500Y-123717924D01*
X131647616Y-123717924D01*
X131647665Y-123718616D01*
X131653111Y-123726781D01*
X131742226Y-123810027D01*
X131746503Y-123813681D01*
X132093829Y-124084553D01*
X132098386Y-124087792D01*
X132468432Y-124326727D01*
X132473261Y-124329549D01*
X132863048Y-124534626D01*
X132868150Y-124537027D01*
X133274633Y-124706647D01*
X133279888Y-124708570D01*
X133699860Y-124841389D01*
X133705259Y-124842836D01*
X134135375Y-124937796D01*
X134140886Y-124938758D01*
X134577749Y-124995110D01*
X134583312Y-124995577D01*
X135023453Y-125012869D01*
X135029045Y-125012840D01*
X135468965Y-124990940D01*
X135474548Y-124990412D01*
X135910788Y-124929490D01*
X135916275Y-124928473D01*
X136345381Y-124829012D01*
X136350767Y-124827508D01*
X136769333Y-124690296D01*
X136774550Y-124688324D01*
X137179260Y-124514447D01*
X137184303Y-124512009D01*
X137571943Y-124302850D01*
X137576747Y-124299975D01*
X137944239Y-124057198D01*
X137948802Y-124053883D01*
X138293266Y-123779393D01*
X138297481Y-123775716D01*
X138345286Y-123730112D01*
X138353226Y-123716352D01*
X138353176Y-123715307D01*
X138348285Y-123707495D01*
X135012812Y-120372022D01*
X134998868Y-120364408D01*
X134997035Y-120364539D01*
X134990420Y-120368790D01*
X131655230Y-123703980D01*
X131647616Y-123717924D01*
X35508500Y-123717924D01*
X35508500Y-119988609D01*
X56736734Y-119988609D01*
X56736906Y-119992004D01*
X56736906Y-119992005D01*
X56738465Y-120022782D01*
X56754591Y-120341106D01*
X56755128Y-120344461D01*
X56755129Y-120344467D01*
X56793957Y-120586878D01*
X56810412Y-120689613D01*
X56903546Y-121030053D01*
X57032903Y-121358443D01*
X57034486Y-121361458D01*
X57195384Y-121667926D01*
X57195389Y-121667934D01*
X57196968Y-121670942D01*
X57198862Y-121673760D01*
X57198867Y-121673769D01*
X57218518Y-121703012D01*
X57393824Y-121963895D01*
X57621167Y-122233873D01*
X57623627Y-122236224D01*
X57623630Y-122236227D01*
X57873875Y-122475366D01*
X57873882Y-122475372D01*
X57876338Y-122477719D01*
X58156351Y-122692581D01*
X58159269Y-122694355D01*
X58455017Y-122874173D01*
X58455022Y-122874176D01*
X58457932Y-122875945D01*
X58461020Y-122877391D01*
X58461019Y-122877391D01*
X58774468Y-123024222D01*
X58774478Y-123024226D01*
X58777552Y-123025666D01*
X58780770Y-123026768D01*
X58780773Y-123026769D01*
X59108241Y-123138887D01*
X59108245Y-123138888D01*
X59111472Y-123139993D01*
X59114802Y-123140743D01*
X59114811Y-123140746D01*
X59358164Y-123195587D01*
X59455786Y-123217587D01*
X59459171Y-123217973D01*
X59459179Y-123217974D01*
X59803083Y-123257157D01*
X59803091Y-123257157D01*
X59806466Y-123257542D01*
X59809870Y-123257560D01*
X59809873Y-123257560D01*
X60001627Y-123258564D01*
X60159411Y-123259390D01*
X60162797Y-123259040D01*
X60162799Y-123259040D01*
X60507098Y-123223461D01*
X60507107Y-123223460D01*
X60510490Y-123223110D01*
X60513823Y-123222396D01*
X60513826Y-123222395D01*
X60744553Y-123172931D01*
X60855598Y-123149125D01*
X61190697Y-123038301D01*
X61511867Y-122891936D01*
X61714238Y-122771777D01*
X61812407Y-122713489D01*
X61812412Y-122713486D01*
X61815352Y-122711740D01*
X61840870Y-122692581D01*
X62094867Y-122501874D01*
X62097600Y-122499822D01*
X62355310Y-122258661D01*
X62585468Y-121991078D01*
X62785380Y-121700203D01*
X62786992Y-121697209D01*
X62786997Y-121697201D01*
X62951087Y-121392452D01*
X62952709Y-121389440D01*
X63085498Y-121062422D01*
X63093816Y-121033223D01*
X63181257Y-120726254D01*
X63182191Y-120722976D01*
X63241659Y-120375073D01*
X63242044Y-120368790D01*
X63263096Y-120024580D01*
X63263206Y-120022782D01*
X63263276Y-120002965D01*
X63263280Y-120001819D01*
X63263280Y-120001806D01*
X63263286Y-120000000D01*
X63256331Y-119871585D01*
X129988722Y-119871585D01*
X129996793Y-120311981D01*
X129997143Y-120317547D01*
X130044333Y-120755491D01*
X130045180Y-120761030D01*
X130131112Y-121193042D01*
X130132441Y-121198453D01*
X130256444Y-121621138D01*
X130258250Y-121626413D01*
X130419326Y-122036377D01*
X130421608Y-122041501D01*
X130618485Y-122435516D01*
X130621209Y-122440409D01*
X130852333Y-122815363D01*
X130855484Y-122819999D01*
X131119031Y-123172931D01*
X131122564Y-123177248D01*
X131271583Y-123343625D01*
X131285079Y-123351989D01*
X131294491Y-123346299D01*
X134627978Y-120012812D01*
X134634356Y-120001132D01*
X135364408Y-120001132D01*
X135364539Y-120002965D01*
X135368790Y-120009580D01*
X138703870Y-123344660D01*
X138717631Y-123352174D01*
X138726992Y-123345716D01*
X138910483Y-123136482D01*
X138913988Y-123132109D01*
X139173825Y-122776435D01*
X139176920Y-122771777D01*
X139404101Y-122394431D01*
X139406782Y-122389492D01*
X139599515Y-121993455D01*
X139601750Y-121988289D01*
X139758519Y-121576675D01*
X139760275Y-121571363D01*
X139879838Y-121147427D01*
X139881114Y-121141991D01*
X139962520Y-120709092D01*
X139963307Y-120703555D01*
X140005963Y-120264580D01*
X140006236Y-120260143D01*
X140012990Y-120002234D01*
X140012948Y-119997762D01*
X139993327Y-119557177D01*
X139992829Y-119551590D01*
X139934193Y-119115047D01*
X139933200Y-119109524D01*
X139835990Y-118679920D01*
X139834517Y-118674533D01*
X139699499Y-118255261D01*
X139697544Y-118250003D01*
X139525801Y-117844419D01*
X139523382Y-117839348D01*
X139316253Y-117450614D01*
X139313418Y-117445819D01*
X139072538Y-117077013D01*
X139069287Y-117072489D01*
X138796582Y-116726564D01*
X138792934Y-116722338D01*
X138729587Y-116655233D01*
X138715871Y-116647222D01*
X138715000Y-116647259D01*
X138706923Y-116652287D01*
X135372022Y-119987188D01*
X135364408Y-120001132D01*
X134634356Y-120001132D01*
X134635592Y-119998868D01*
X134635461Y-119997035D01*
X134631210Y-119990420D01*
X131293542Y-116652752D01*
X131280234Y-116645485D01*
X131270195Y-116652607D01*
X131008756Y-116966953D01*
X131005361Y-116971425D01*
X130754932Y-117333765D01*
X130751953Y-117338515D01*
X130534719Y-117721695D01*
X130532188Y-117726662D01*
X130349866Y-118127656D01*
X130347788Y-118132824D01*
X130201840Y-118548426D01*
X130200219Y-118553795D01*
X130091798Y-118980705D01*
X130090664Y-118986178D01*
X130020621Y-119421044D01*
X130019976Y-119426622D01*
X129988869Y-119865964D01*
X129988722Y-119871585D01*
X63256331Y-119871585D01*
X63244199Y-119647567D01*
X63187161Y-119299257D01*
X63092839Y-118959145D01*
X63089849Y-118951630D01*
X62963597Y-118634372D01*
X62962338Y-118631208D01*
X62797182Y-118319283D01*
X62790579Y-118309530D01*
X62601211Y-118029834D01*
X62601204Y-118029825D01*
X62599305Y-118027020D01*
X62597109Y-118024430D01*
X62597104Y-118024424D01*
X62440147Y-117839348D01*
X62371021Y-117757837D01*
X62115001Y-117514883D01*
X62112294Y-117512821D01*
X62112286Y-117512814D01*
X61953809Y-117392088D01*
X61834239Y-117301000D01*
X61532020Y-117118689D01*
X61528930Y-117117255D01*
X61528925Y-117117252D01*
X61371950Y-117044387D01*
X61211879Y-116970085D01*
X61208654Y-116968993D01*
X61208648Y-116968991D01*
X60880798Y-116858020D01*
X60880793Y-116858018D01*
X60877562Y-116856925D01*
X60863832Y-116853881D01*
X60794730Y-116838562D01*
X60532979Y-116780533D01*
X60408353Y-116766774D01*
X60185543Y-116742175D01*
X60185538Y-116742175D01*
X60182162Y-116741802D01*
X60178763Y-116741796D01*
X60178762Y-116741796D01*
X60012289Y-116741506D01*
X59829213Y-116741186D01*
X59698206Y-116755187D01*
X59481646Y-116778330D01*
X59481640Y-116778331D01*
X59478262Y-116778692D01*
X59133414Y-116853881D01*
X58798704Y-116965873D01*
X58478047Y-117113359D01*
X58175194Y-117294613D01*
X57893687Y-117507515D01*
X57636820Y-117749574D01*
X57407598Y-118017959D01*
X57208702Y-118309530D01*
X57042458Y-118620876D01*
X57041183Y-118624048D01*
X57041181Y-118624052D01*
X57018723Y-118679920D01*
X56910813Y-118948355D01*
X56909894Y-118951623D01*
X56909892Y-118951630D01*
X56816225Y-119284858D01*
X56815304Y-119288136D01*
X56814743Y-119291489D01*
X56814742Y-119291493D01*
X56757614Y-119632880D01*
X56757051Y-119636245D01*
X56736734Y-119988609D01*
X35508500Y-119988609D01*
X35508500Y-116282502D01*
X131646077Y-116282502D01*
X131652184Y-116292974D01*
X134987188Y-119627978D01*
X135001132Y-119635592D01*
X135002965Y-119635461D01*
X135009580Y-119631210D01*
X138344435Y-116296355D01*
X138351998Y-116282505D01*
X138345671Y-116273283D01*
X138156913Y-116105992D01*
X138152551Y-116102459D01*
X137798262Y-115840778D01*
X137793609Y-115837651D01*
X137417453Y-115608495D01*
X137412536Y-115605791D01*
X137017488Y-115410974D01*
X137012379Y-115408732D01*
X136601563Y-115249799D01*
X136596273Y-115248019D01*
X136172954Y-115126234D01*
X136167530Y-115124932D01*
X135735068Y-115041261D01*
X135729539Y-115040445D01*
X135291353Y-114995550D01*
X135285771Y-114995228D01*
X134845346Y-114989463D01*
X134839735Y-114989639D01*
X134400541Y-115023048D01*
X134394984Y-115023720D01*
X133960504Y-115096037D01*
X133955007Y-115097205D01*
X133528680Y-115207858D01*
X133523314Y-115209510D01*
X133108509Y-115357622D01*
X133103321Y-115359739D01*
X132703311Y-115544147D01*
X132698342Y-115546711D01*
X132316308Y-115765948D01*
X132311575Y-115768951D01*
X131950545Y-116021278D01*
X131946104Y-116024686D01*
X131654521Y-116269785D01*
X131646077Y-116282502D01*
X35508500Y-116282502D01*
X35508500Y-109988609D01*
X56736734Y-109988609D01*
X56754591Y-110341106D01*
X56755128Y-110344461D01*
X56755129Y-110344467D01*
X56784805Y-110529741D01*
X56810412Y-110689613D01*
X56903546Y-111030053D01*
X57032903Y-111358443D01*
X57034486Y-111361458D01*
X57195384Y-111667926D01*
X57195389Y-111667934D01*
X57196968Y-111670942D01*
X57198862Y-111673760D01*
X57198867Y-111673769D01*
X57218518Y-111703012D01*
X57393824Y-111963895D01*
X57621167Y-112233873D01*
X57623627Y-112236224D01*
X57623630Y-112236227D01*
X57873875Y-112475366D01*
X57873882Y-112475372D01*
X57876338Y-112477719D01*
X58156351Y-112692581D01*
X58159269Y-112694355D01*
X58455017Y-112874173D01*
X58455022Y-112874176D01*
X58457932Y-112875945D01*
X58461020Y-112877391D01*
X58461019Y-112877391D01*
X58774468Y-113024222D01*
X58774478Y-113024226D01*
X58777552Y-113025666D01*
X58780770Y-113026768D01*
X58780773Y-113026769D01*
X59108241Y-113138887D01*
X59108245Y-113138888D01*
X59111472Y-113139993D01*
X59114802Y-113140743D01*
X59114811Y-113140746D01*
X59358164Y-113195587D01*
X59455786Y-113217587D01*
X59459171Y-113217973D01*
X59459179Y-113217974D01*
X59803083Y-113257157D01*
X59803091Y-113257157D01*
X59806466Y-113257542D01*
X59809870Y-113257560D01*
X59809873Y-113257560D01*
X60001627Y-113258564D01*
X60159411Y-113259390D01*
X60162797Y-113259040D01*
X60162799Y-113259040D01*
X60507098Y-113223461D01*
X60507107Y-113223460D01*
X60510490Y-113223110D01*
X60513823Y-113222396D01*
X60513826Y-113222395D01*
X60683692Y-113185979D01*
X60855598Y-113149125D01*
X61190697Y-113038301D01*
X61303043Y-112987102D01*
X204878438Y-112987102D01*
X204878462Y-112987441D01*
X204884285Y-112996073D01*
X205128991Y-113219913D01*
X205132445Y-113222852D01*
X205550430Y-113553550D01*
X205554067Y-113556222D01*
X205994618Y-113856182D01*
X205998446Y-113858593D01*
X206459337Y-114126300D01*
X206463309Y-114128421D01*
X206942148Y-114362483D01*
X206946284Y-114364325D01*
X207440627Y-114563551D01*
X207444871Y-114565087D01*
X207952218Y-114728467D01*
X207956539Y-114729689D01*
X208474254Y-114856374D01*
X208478695Y-114857294D01*
X209004141Y-114946637D01*
X209008595Y-114947232D01*
X209539106Y-114998782D01*
X209543579Y-114999056D01*
X210076427Y-115012543D01*
X210080930Y-115012496D01*
X210613352Y-114987853D01*
X210617836Y-114987485D01*
X211147152Y-114924836D01*
X211151591Y-114924149D01*
X211675087Y-114823814D01*
X211679446Y-114822815D01*
X212194414Y-114685311D01*
X212198727Y-114683992D01*
X212702525Y-114510028D01*
X212706740Y-114508402D01*
X213196805Y-114298866D01*
X213200892Y-114296943D01*
X213674731Y-114052900D01*
X213678658Y-114050696D01*
X214133828Y-113773404D01*
X214137624Y-113770901D01*
X214571786Y-113461788D01*
X214575372Y-113459036D01*
X214986362Y-113119640D01*
X214989705Y-113116672D01*
X215113630Y-112998453D01*
X215121568Y-112984695D01*
X215121518Y-112983649D01*
X215116625Y-112975835D01*
X210012812Y-107872022D01*
X209998868Y-107864408D01*
X209997035Y-107864539D01*
X209990420Y-107868790D01*
X204886052Y-112973158D01*
X204878438Y-112987102D01*
X61303043Y-112987102D01*
X61511867Y-112891936D01*
X61605405Y-112836397D01*
X61812407Y-112713489D01*
X61812412Y-112713486D01*
X61815352Y-112711740D01*
X61840870Y-112692581D01*
X62094867Y-112501874D01*
X62097600Y-112499822D01*
X62355310Y-112258661D01*
X62585468Y-111991078D01*
X62785380Y-111700203D01*
X62786992Y-111697209D01*
X62786997Y-111697201D01*
X62951087Y-111392452D01*
X62952709Y-111389440D01*
X63085498Y-111062422D01*
X63093816Y-111033223D01*
X63181257Y-110726254D01*
X63182191Y-110722976D01*
X63241659Y-110375073D01*
X63243945Y-110337711D01*
X63263096Y-110024580D01*
X63263206Y-110022782D01*
X63263286Y-110000000D01*
X63244199Y-109647567D01*
X63187161Y-109299257D01*
X63092839Y-108959145D01*
X63089849Y-108951630D01*
X62963597Y-108634372D01*
X62962338Y-108631208D01*
X62876922Y-108469885D01*
X62798777Y-108322295D01*
X62798775Y-108322292D01*
X62797182Y-108319283D01*
X62790579Y-108309530D01*
X62601211Y-108029834D01*
X62601204Y-108029825D01*
X62599305Y-108027020D01*
X62597109Y-108024430D01*
X62597104Y-108024424D01*
X62461400Y-107864408D01*
X62371021Y-107757837D01*
X62152218Y-107550201D01*
X202487236Y-107550201D01*
X202487267Y-107554699D01*
X202510052Y-108087215D01*
X202510404Y-108091696D01*
X202571206Y-108621240D01*
X202571874Y-108625659D01*
X202670381Y-109149497D01*
X202671370Y-109153884D01*
X202807070Y-109669308D01*
X202808381Y-109673648D01*
X202980581Y-110178039D01*
X202982188Y-110182249D01*
X203190028Y-110673079D01*
X203191917Y-110677129D01*
X203434314Y-111151836D01*
X203436507Y-111155776D01*
X203712217Y-111611925D01*
X203714678Y-111615685D01*
X204022290Y-112050947D01*
X204025036Y-112054552D01*
X204362987Y-112466712D01*
X204365944Y-112470066D01*
X204501751Y-112613428D01*
X204515482Y-112621415D01*
X204516410Y-112621374D01*
X204524399Y-112616391D01*
X209627978Y-107512812D01*
X209634356Y-107501132D01*
X210364408Y-107501132D01*
X210364539Y-107502965D01*
X210368790Y-107509580D01*
X215473389Y-112614179D01*
X215487333Y-112621793D01*
X215487556Y-112621778D01*
X215496338Y-112615831D01*
X215736905Y-112350987D01*
X215739793Y-112347570D01*
X216069044Y-111928414D01*
X216071701Y-111924771D01*
X216370130Y-111483164D01*
X216372526Y-111479329D01*
X216638617Y-111017514D01*
X216640726Y-111013531D01*
X216873116Y-110533878D01*
X216874941Y-110529741D01*
X217072446Y-110034690D01*
X217073961Y-110030460D01*
X217235567Y-109522549D01*
X217236781Y-109518202D01*
X217361661Y-109000034D01*
X217362555Y-108995638D01*
X217450064Y-108469885D01*
X217450649Y-108465380D01*
X217500363Y-107934517D01*
X217500613Y-107930439D01*
X217512954Y-107502024D01*
X217512939Y-107497967D01*
X217493866Y-106965096D01*
X217493544Y-106960601D01*
X217436442Y-106430662D01*
X217435800Y-106426211D01*
X217340955Y-105901710D01*
X217339999Y-105897327D01*
X217207892Y-105380933D01*
X217206630Y-105376645D01*
X217037938Y-104871015D01*
X217036370Y-104866818D01*
X216831966Y-104374558D01*
X216830088Y-104370456D01*
X216591023Y-103894094D01*
X216588855Y-103890133D01*
X216316347Y-103432090D01*
X216313891Y-103428279D01*
X216009331Y-102990890D01*
X216006624Y-102987284D01*
X215671552Y-102572765D01*
X215668609Y-102569380D01*
X215498034Y-102386780D01*
X215484361Y-102378698D01*
X215483667Y-102378724D01*
X215475320Y-102383890D01*
X210372022Y-107487188D01*
X210364408Y-107501132D01*
X209634356Y-107501132D01*
X209635592Y-107498868D01*
X209635461Y-107497035D01*
X209631210Y-107490420D01*
X204527007Y-102386217D01*
X204513063Y-102378603D01*
X204512606Y-102378635D01*
X204504130Y-102384332D01*
X204297104Y-102609077D01*
X204294190Y-102612477D01*
X203962015Y-103029331D01*
X203959344Y-103032941D01*
X203657831Y-103472465D01*
X203655409Y-103476283D01*
X203386107Y-103936216D01*
X203383964Y-103940196D01*
X203148233Y-104418211D01*
X203146376Y-104422343D01*
X202945427Y-104915984D01*
X202943874Y-104920230D01*
X202778729Y-105426984D01*
X202777484Y-105431326D01*
X202648991Y-105948608D01*
X202648067Y-105952991D01*
X202556885Y-106478152D01*
X202556274Y-106482609D01*
X202502873Y-107012930D01*
X202502583Y-107017413D01*
X202487236Y-107550201D01*
X62152218Y-107550201D01*
X62115001Y-107514883D01*
X62112294Y-107512821D01*
X62112286Y-107512814D01*
X61953809Y-107392088D01*
X61834239Y-107301000D01*
X61552776Y-107131210D01*
X61534941Y-107120451D01*
X61534940Y-107120450D01*
X61532020Y-107118689D01*
X61528930Y-107117255D01*
X61528925Y-107117252D01*
X61304181Y-107012930D01*
X61211879Y-106970085D01*
X61208654Y-106968993D01*
X61208648Y-106968991D01*
X60880798Y-106858020D01*
X60880793Y-106858018D01*
X60877562Y-106856925D01*
X60863832Y-106853881D01*
X60794730Y-106838562D01*
X60532979Y-106780533D01*
X60408353Y-106766774D01*
X60185543Y-106742175D01*
X60185538Y-106742175D01*
X60182162Y-106741802D01*
X60178763Y-106741796D01*
X60178762Y-106741796D01*
X60012289Y-106741506D01*
X59829213Y-106741186D01*
X59698206Y-106755187D01*
X59481646Y-106778330D01*
X59481640Y-106778331D01*
X59478262Y-106778692D01*
X59133414Y-106853881D01*
X58798704Y-106965873D01*
X58478047Y-107113359D01*
X58175194Y-107294613D01*
X57893687Y-107507515D01*
X57636820Y-107749574D01*
X57407598Y-108017959D01*
X57208702Y-108309530D01*
X57042458Y-108620876D01*
X57041183Y-108624048D01*
X57041181Y-108624052D01*
X57037033Y-108634372D01*
X56910813Y-108948355D01*
X56909894Y-108951623D01*
X56909892Y-108951630D01*
X56816225Y-109284858D01*
X56815304Y-109288136D01*
X56814743Y-109291489D01*
X56814742Y-109291493D01*
X56776804Y-109518202D01*
X56757051Y-109636245D01*
X56736734Y-109988609D01*
X35508500Y-109988609D01*
X35508500Y-99988609D01*
X56736734Y-99988609D01*
X56736906Y-99992004D01*
X56736906Y-99992005D01*
X56737963Y-100012869D01*
X56754591Y-100341106D01*
X56755128Y-100344461D01*
X56755129Y-100344467D01*
X56772501Y-100452924D01*
X56810412Y-100689613D01*
X56903546Y-101030053D01*
X57032903Y-101358443D01*
X57034486Y-101361458D01*
X57195384Y-101667926D01*
X57195389Y-101667934D01*
X57196968Y-101670942D01*
X57198862Y-101673760D01*
X57198867Y-101673769D01*
X57218518Y-101703012D01*
X57393824Y-101963895D01*
X57621167Y-102233873D01*
X57623627Y-102236224D01*
X57623630Y-102236227D01*
X57873875Y-102475366D01*
X57873882Y-102475372D01*
X57876338Y-102477719D01*
X58156351Y-102692581D01*
X58159269Y-102694355D01*
X58455017Y-102874173D01*
X58455022Y-102874176D01*
X58457932Y-102875945D01*
X58461020Y-102877391D01*
X58461019Y-102877391D01*
X58774468Y-103024222D01*
X58774478Y-103024226D01*
X58777552Y-103025666D01*
X58780770Y-103026768D01*
X58780773Y-103026769D01*
X59108241Y-103138887D01*
X59108245Y-103138888D01*
X59111472Y-103139993D01*
X59114802Y-103140743D01*
X59114811Y-103140746D01*
X59358164Y-103195587D01*
X59455786Y-103217587D01*
X59459171Y-103217973D01*
X59459179Y-103217974D01*
X59803083Y-103257157D01*
X59803091Y-103257157D01*
X59806466Y-103257542D01*
X59809870Y-103257560D01*
X59809873Y-103257560D01*
X60001627Y-103258564D01*
X60159411Y-103259390D01*
X60162797Y-103259040D01*
X60162799Y-103259040D01*
X60507098Y-103223461D01*
X60507107Y-103223460D01*
X60510490Y-103223110D01*
X60513823Y-103222396D01*
X60513826Y-103222395D01*
X60683692Y-103185979D01*
X60855598Y-103149125D01*
X61190697Y-103038301D01*
X61511867Y-102891936D01*
X61605405Y-102836397D01*
X61812407Y-102713489D01*
X61812412Y-102713486D01*
X61815352Y-102711740D01*
X61840870Y-102692581D01*
X62094867Y-102501874D01*
X62097600Y-102499822D01*
X62355310Y-102258661D01*
X62564383Y-102015591D01*
X204878674Y-102015591D01*
X204878707Y-102016404D01*
X204883783Y-102024573D01*
X209987188Y-107127978D01*
X210001132Y-107135592D01*
X210002965Y-107135461D01*
X210009580Y-107131210D01*
X215113682Y-102027108D01*
X215121296Y-102013164D01*
X215121255Y-102012590D01*
X215115684Y-102004268D01*
X214910818Y-101814228D01*
X214907387Y-101811267D01*
X214491729Y-101477666D01*
X214488115Y-101474972D01*
X214049654Y-101171933D01*
X214045835Y-101169490D01*
X213586846Y-100898585D01*
X213582877Y-100896430D01*
X213105679Y-100659028D01*
X213101575Y-100657166D01*
X212608610Y-100454483D01*
X212604395Y-100452924D01*
X212098199Y-100286006D01*
X212093883Y-100284752D01*
X211577042Y-100154451D01*
X211572665Y-100153513D01*
X211047822Y-100060496D01*
X211043365Y-100059870D01*
X210513241Y-100004620D01*
X210508747Y-100004313D01*
X209976027Y-99987107D01*
X209971530Y-99987122D01*
X209438927Y-100008048D01*
X209434451Y-100008384D01*
X208904713Y-100067336D01*
X208900261Y-100067994D01*
X208376106Y-100164667D01*
X208371701Y-100165643D01*
X207855801Y-100299545D01*
X207851490Y-100300830D01*
X207346471Y-100471278D01*
X207342259Y-100472870D01*
X206850723Y-100678988D01*
X206846647Y-100680871D01*
X206371109Y-100921605D01*
X206367158Y-100923786D01*
X205910063Y-101197893D01*
X205906267Y-101200358D01*
X205469930Y-101506452D01*
X205466347Y-101509162D01*
X205053007Y-101845674D01*
X205049617Y-101848642D01*
X204886708Y-102001891D01*
X204878674Y-102015591D01*
X62564383Y-102015591D01*
X62585468Y-101991078D01*
X62785380Y-101700203D01*
X62786992Y-101697209D01*
X62786997Y-101697201D01*
X62951087Y-101392452D01*
X62952709Y-101389440D01*
X63085498Y-101062422D01*
X63093816Y-101033223D01*
X63181257Y-100726254D01*
X63182191Y-100722976D01*
X63224942Y-100472870D01*
X63241087Y-100378420D01*
X63241087Y-100378418D01*
X63241659Y-100375073D01*
X63243945Y-100337711D01*
X63263096Y-100024580D01*
X63263206Y-100022782D01*
X63263286Y-100000000D01*
X63244199Y-99647567D01*
X63187161Y-99299257D01*
X63092839Y-98959145D01*
X63089849Y-98951630D01*
X62996846Y-98717924D01*
X94147616Y-98717924D01*
X94147665Y-98718616D01*
X94153111Y-98726781D01*
X94242226Y-98810027D01*
X94246503Y-98813681D01*
X94593829Y-99084553D01*
X94598386Y-99087792D01*
X94968432Y-99326727D01*
X94973261Y-99329549D01*
X95363048Y-99534626D01*
X95368150Y-99537027D01*
X95774633Y-99706647D01*
X95779888Y-99708570D01*
X96199860Y-99841389D01*
X96205259Y-99842836D01*
X96635375Y-99937796D01*
X96640886Y-99938758D01*
X97077749Y-99995110D01*
X97083312Y-99995577D01*
X97523453Y-100012869D01*
X97529045Y-100012840D01*
X97968965Y-99990940D01*
X97974548Y-99990412D01*
X98410788Y-99929490D01*
X98416275Y-99928473D01*
X98845381Y-99829012D01*
X98850767Y-99827508D01*
X99269333Y-99690296D01*
X99274550Y-99688324D01*
X99679260Y-99514447D01*
X99684303Y-99512009D01*
X100071943Y-99302850D01*
X100076747Y-99299975D01*
X100444239Y-99057198D01*
X100448802Y-99053883D01*
X100793266Y-98779393D01*
X100797481Y-98775716D01*
X100845286Y-98730112D01*
X100853226Y-98716352D01*
X100853176Y-98715307D01*
X100848285Y-98707495D01*
X97512812Y-95372022D01*
X97498868Y-95364408D01*
X97497035Y-95364539D01*
X97490420Y-95368790D01*
X94155230Y-98703980D01*
X94147616Y-98717924D01*
X62996846Y-98717924D01*
X62963597Y-98634372D01*
X62962338Y-98631208D01*
X62811178Y-98345716D01*
X62798777Y-98322295D01*
X62798775Y-98322292D01*
X62797182Y-98319283D01*
X62790579Y-98309530D01*
X62601211Y-98029834D01*
X62601204Y-98029825D01*
X62599305Y-98027020D01*
X62597109Y-98024430D01*
X62597104Y-98024424D01*
X62423738Y-97819999D01*
X62371021Y-97757837D01*
X62115001Y-97514883D01*
X62112294Y-97512821D01*
X62112286Y-97512814D01*
X61950402Y-97389492D01*
X61834239Y-97301000D01*
X61532020Y-97118689D01*
X61528930Y-97117255D01*
X61528925Y-97117252D01*
X61354693Y-97036377D01*
X61211879Y-96970085D01*
X61208654Y-96968993D01*
X61208648Y-96968991D01*
X60880798Y-96858020D01*
X60880793Y-96858018D01*
X60877562Y-96856925D01*
X60863832Y-96853881D01*
X60794730Y-96838562D01*
X60532979Y-96780533D01*
X60408353Y-96766774D01*
X60185543Y-96742175D01*
X60185538Y-96742175D01*
X60182162Y-96741802D01*
X60178763Y-96741796D01*
X60178762Y-96741796D01*
X60012289Y-96741506D01*
X59829213Y-96741186D01*
X59698206Y-96755187D01*
X59481646Y-96778330D01*
X59481640Y-96778331D01*
X59478262Y-96778692D01*
X59133414Y-96853881D01*
X58798704Y-96965873D01*
X58795611Y-96967295D01*
X58795610Y-96967296D01*
X58645418Y-97036377D01*
X58478047Y-97113359D01*
X58175194Y-97294613D01*
X57893687Y-97507515D01*
X57636820Y-97749574D01*
X57407598Y-98017959D01*
X57208702Y-98309530D01*
X57042458Y-98620876D01*
X57041183Y-98624048D01*
X57041181Y-98624052D01*
X56998546Y-98730112D01*
X56910813Y-98948355D01*
X56909894Y-98951623D01*
X56909892Y-98951630D01*
X56816225Y-99284858D01*
X56815304Y-99288136D01*
X56814743Y-99291489D01*
X56814742Y-99291493D01*
X56812842Y-99302850D01*
X56757051Y-99636245D01*
X56736734Y-99988609D01*
X35508500Y-99988609D01*
X35508500Y-94871585D01*
X92488722Y-94871585D01*
X92496793Y-95311981D01*
X92497143Y-95317547D01*
X92544333Y-95755491D01*
X92545180Y-95761030D01*
X92631112Y-96193042D01*
X92632441Y-96198453D01*
X92756444Y-96621138D01*
X92758250Y-96626413D01*
X92919326Y-97036377D01*
X92921608Y-97041501D01*
X93118485Y-97435516D01*
X93121209Y-97440409D01*
X93352333Y-97815363D01*
X93355484Y-97819999D01*
X93619031Y-98172931D01*
X93622564Y-98177248D01*
X93771583Y-98343625D01*
X93785079Y-98351989D01*
X93794491Y-98346299D01*
X97127978Y-95012812D01*
X97134356Y-95001132D01*
X97864408Y-95001132D01*
X97864539Y-95002965D01*
X97868790Y-95009580D01*
X101203870Y-98344660D01*
X101217631Y-98352174D01*
X101226992Y-98345716D01*
X101410483Y-98136482D01*
X101413988Y-98132109D01*
X101673825Y-97776435D01*
X101676920Y-97771777D01*
X101904101Y-97394431D01*
X101906782Y-97389492D01*
X102099515Y-96993455D01*
X102101750Y-96988289D01*
X102258519Y-96576675D01*
X102260275Y-96571363D01*
X102379838Y-96147427D01*
X102381114Y-96141991D01*
X102462520Y-95709092D01*
X102463307Y-95703555D01*
X102505963Y-95264580D01*
X102506236Y-95260143D01*
X102512990Y-95002234D01*
X102512948Y-94997762D01*
X102493327Y-94557177D01*
X102492829Y-94551590D01*
X102434193Y-94115047D01*
X102433200Y-94109524D01*
X102335990Y-93679920D01*
X102334517Y-93674533D01*
X102199499Y-93255261D01*
X102197544Y-93250003D01*
X102025801Y-92844419D01*
X102023382Y-92839348D01*
X101816253Y-92450614D01*
X101813418Y-92445819D01*
X101572538Y-92077013D01*
X101569287Y-92072489D01*
X101296582Y-91726564D01*
X101292934Y-91722338D01*
X101229587Y-91655233D01*
X101215871Y-91647222D01*
X101215000Y-91647259D01*
X101206923Y-91652287D01*
X97872022Y-94987188D01*
X97864408Y-95001132D01*
X97134356Y-95001132D01*
X97135592Y-94998868D01*
X97135461Y-94997035D01*
X97131210Y-94990420D01*
X93793542Y-91652752D01*
X93780234Y-91645485D01*
X93770195Y-91652607D01*
X93508756Y-91966953D01*
X93505361Y-91971425D01*
X93254932Y-92333765D01*
X93251953Y-92338515D01*
X93034719Y-92721695D01*
X93032188Y-92726662D01*
X92849866Y-93127656D01*
X92847788Y-93132824D01*
X92701840Y-93548426D01*
X92700219Y-93553795D01*
X92591798Y-93980705D01*
X92590664Y-93986178D01*
X92520621Y-94421044D01*
X92519976Y-94426622D01*
X92488869Y-94865964D01*
X92488722Y-94871585D01*
X35508500Y-94871585D01*
X35508500Y-89988609D01*
X56736734Y-89988609D01*
X56736906Y-89992004D01*
X56736906Y-89992005D01*
X56754419Y-90337711D01*
X56754591Y-90341106D01*
X56755128Y-90344461D01*
X56755129Y-90344467D01*
X56765423Y-90408732D01*
X56810412Y-90689613D01*
X56903546Y-91030053D01*
X57032903Y-91358443D01*
X57034486Y-91361458D01*
X57195384Y-91667926D01*
X57195389Y-91667934D01*
X57196968Y-91670942D01*
X57198862Y-91673760D01*
X57198867Y-91673769D01*
X57234344Y-91726564D01*
X57393824Y-91963895D01*
X57621167Y-92233873D01*
X57623627Y-92236224D01*
X57623630Y-92236227D01*
X57873875Y-92475366D01*
X57873882Y-92475372D01*
X57876338Y-92477719D01*
X58156351Y-92692581D01*
X58256833Y-92753675D01*
X58455017Y-92874173D01*
X58455022Y-92874176D01*
X58457932Y-92875945D01*
X58461020Y-92877391D01*
X58461019Y-92877391D01*
X58774468Y-93024222D01*
X58774478Y-93024226D01*
X58777552Y-93025666D01*
X58780770Y-93026768D01*
X58780773Y-93026769D01*
X59108241Y-93138887D01*
X59108245Y-93138888D01*
X59111472Y-93139993D01*
X59114802Y-93140743D01*
X59114811Y-93140746D01*
X59358164Y-93195587D01*
X59455786Y-93217587D01*
X59459171Y-93217973D01*
X59459179Y-93217974D01*
X59803083Y-93257157D01*
X59803091Y-93257157D01*
X59806466Y-93257542D01*
X59809870Y-93257560D01*
X59809873Y-93257560D01*
X60001627Y-93258564D01*
X60159411Y-93259390D01*
X60162797Y-93259040D01*
X60162799Y-93259040D01*
X60507098Y-93223461D01*
X60507107Y-93223460D01*
X60510490Y-93223110D01*
X60513823Y-93222396D01*
X60513826Y-93222395D01*
X60683692Y-93185979D01*
X60855598Y-93149125D01*
X61190697Y-93038301D01*
X61511867Y-92891936D01*
X61605405Y-92836397D01*
X61812407Y-92713489D01*
X61812412Y-92713486D01*
X61815352Y-92711740D01*
X61840870Y-92692581D01*
X62094867Y-92501874D01*
X62097600Y-92499822D01*
X62355310Y-92258661D01*
X62585468Y-91991078D01*
X62785380Y-91700203D01*
X62786992Y-91697209D01*
X62786997Y-91697201D01*
X62951087Y-91392452D01*
X62952709Y-91389440D01*
X62996132Y-91282502D01*
X94146077Y-91282502D01*
X94152184Y-91292974D01*
X97487188Y-94627978D01*
X97501132Y-94635592D01*
X97502965Y-94635461D01*
X97509580Y-94631210D01*
X100844435Y-91296355D01*
X100851998Y-91282505D01*
X100845671Y-91273283D01*
X100656913Y-91105992D01*
X100652551Y-91102459D01*
X100298262Y-90840778D01*
X100293609Y-90837651D01*
X99917453Y-90608495D01*
X99912536Y-90605791D01*
X99517488Y-90410974D01*
X99512379Y-90408732D01*
X99101563Y-90249799D01*
X99096273Y-90248019D01*
X98672954Y-90126234D01*
X98667530Y-90124932D01*
X98235068Y-90041261D01*
X98229539Y-90040445D01*
X97791353Y-89995550D01*
X97785771Y-89995228D01*
X97345346Y-89989463D01*
X97339735Y-89989639D01*
X96900541Y-90023048D01*
X96894984Y-90023720D01*
X96460504Y-90096037D01*
X96455007Y-90097205D01*
X96028680Y-90207858D01*
X96023314Y-90209510D01*
X95608509Y-90357622D01*
X95603321Y-90359739D01*
X95203311Y-90544147D01*
X95198342Y-90546711D01*
X94816308Y-90765948D01*
X94811575Y-90768951D01*
X94450545Y-91021278D01*
X94446104Y-91024686D01*
X94154521Y-91269785D01*
X94146077Y-91282502D01*
X62996132Y-91282502D01*
X63085498Y-91062422D01*
X63093816Y-91033223D01*
X63181257Y-90726254D01*
X63182191Y-90722976D01*
X63202222Y-90605791D01*
X63241087Y-90378420D01*
X63241087Y-90378418D01*
X63241659Y-90375073D01*
X63242727Y-90357622D01*
X63263096Y-90024580D01*
X63263206Y-90022782D01*
X63263286Y-90000000D01*
X63244199Y-89647567D01*
X63187161Y-89299257D01*
X63092839Y-88959145D01*
X63089849Y-88951630D01*
X62963597Y-88634372D01*
X62962338Y-88631208D01*
X62797182Y-88319283D01*
X62790579Y-88309530D01*
X62601211Y-88029834D01*
X62601204Y-88029825D01*
X62599305Y-88027020D01*
X62597109Y-88024430D01*
X62597104Y-88024424D01*
X62565452Y-87987102D01*
X179878438Y-87987102D01*
X179878462Y-87987441D01*
X179884285Y-87996073D01*
X180128991Y-88219913D01*
X180132445Y-88222852D01*
X180550430Y-88553550D01*
X180554067Y-88556222D01*
X180994618Y-88856182D01*
X180998446Y-88858593D01*
X181459337Y-89126300D01*
X181463309Y-89128421D01*
X181942148Y-89362483D01*
X181946284Y-89364325D01*
X182440627Y-89563551D01*
X182444871Y-89565087D01*
X182952218Y-89728467D01*
X182956539Y-89729689D01*
X183474254Y-89856374D01*
X183478695Y-89857294D01*
X184004141Y-89946637D01*
X184008595Y-89947232D01*
X184539106Y-89998782D01*
X184543579Y-89999056D01*
X185076427Y-90012543D01*
X185080930Y-90012496D01*
X185613352Y-89987853D01*
X185617836Y-89987485D01*
X186147152Y-89924836D01*
X186151591Y-89924149D01*
X186675087Y-89823814D01*
X186679446Y-89822815D01*
X187194414Y-89685311D01*
X187198727Y-89683992D01*
X187702525Y-89510028D01*
X187706740Y-89508402D01*
X188196805Y-89298866D01*
X188200892Y-89296943D01*
X188674731Y-89052900D01*
X188678658Y-89050696D01*
X189133828Y-88773404D01*
X189137624Y-88770901D01*
X189571786Y-88461788D01*
X189575372Y-88459036D01*
X189986362Y-88119640D01*
X189989705Y-88116672D01*
X190113630Y-87998453D01*
X190120179Y-87987102D01*
X204878438Y-87987102D01*
X204878462Y-87987441D01*
X204884285Y-87996073D01*
X205128991Y-88219913D01*
X205132445Y-88222852D01*
X205550430Y-88553550D01*
X205554067Y-88556222D01*
X205994618Y-88856182D01*
X205998446Y-88858593D01*
X206459337Y-89126300D01*
X206463309Y-89128421D01*
X206942148Y-89362483D01*
X206946284Y-89364325D01*
X207440627Y-89563551D01*
X207444871Y-89565087D01*
X207952218Y-89728467D01*
X207956539Y-89729689D01*
X208474254Y-89856374D01*
X208478695Y-89857294D01*
X209004141Y-89946637D01*
X209008595Y-89947232D01*
X209539106Y-89998782D01*
X209543579Y-89999056D01*
X210076427Y-90012543D01*
X210080930Y-90012496D01*
X210613352Y-89987853D01*
X210617836Y-89987485D01*
X211147152Y-89924836D01*
X211151591Y-89924149D01*
X211675087Y-89823814D01*
X211679446Y-89822815D01*
X212194414Y-89685311D01*
X212198727Y-89683992D01*
X212702525Y-89510028D01*
X212706740Y-89508402D01*
X213196805Y-89298866D01*
X213200892Y-89296943D01*
X213674731Y-89052900D01*
X213678658Y-89050696D01*
X214133828Y-88773404D01*
X214137624Y-88770901D01*
X214571786Y-88461788D01*
X214575372Y-88459036D01*
X214986362Y-88119640D01*
X214989705Y-88116672D01*
X215113630Y-87998453D01*
X215121568Y-87984695D01*
X215121518Y-87983649D01*
X215116625Y-87975835D01*
X210012812Y-82872022D01*
X209998868Y-82864408D01*
X209997035Y-82864539D01*
X209990420Y-82868790D01*
X204886052Y-87973158D01*
X204878438Y-87987102D01*
X190120179Y-87987102D01*
X190121568Y-87984695D01*
X190121518Y-87983649D01*
X190116625Y-87975835D01*
X185012812Y-82872022D01*
X184998868Y-82864408D01*
X184997035Y-82864539D01*
X184990420Y-82868790D01*
X179886052Y-87973158D01*
X179878438Y-87987102D01*
X62565452Y-87987102D01*
X62508715Y-87920201D01*
X62371021Y-87757837D01*
X62115001Y-87514883D01*
X62112294Y-87512821D01*
X62112286Y-87512814D01*
X61895371Y-87347570D01*
X61834239Y-87301000D01*
X61532020Y-87118689D01*
X61528930Y-87117255D01*
X61528925Y-87117252D01*
X61371949Y-87044387D01*
X61211879Y-86970085D01*
X61208654Y-86968993D01*
X61208648Y-86968991D01*
X60880798Y-86858020D01*
X60880793Y-86858018D01*
X60877562Y-86856925D01*
X60863832Y-86853881D01*
X60794730Y-86838562D01*
X60532979Y-86780533D01*
X60408353Y-86766774D01*
X60185543Y-86742175D01*
X60185538Y-86742175D01*
X60182162Y-86741802D01*
X60178763Y-86741796D01*
X60178762Y-86741796D01*
X60012289Y-86741506D01*
X59829213Y-86741186D01*
X59698206Y-86755187D01*
X59481646Y-86778330D01*
X59481640Y-86778331D01*
X59478262Y-86778692D01*
X59133414Y-86853881D01*
X58798704Y-86965873D01*
X58478047Y-87113359D01*
X58175194Y-87294613D01*
X57893687Y-87507515D01*
X57636820Y-87749574D01*
X57407598Y-88017959D01*
X57208702Y-88309530D01*
X57042458Y-88620876D01*
X57041183Y-88624048D01*
X57041181Y-88624052D01*
X56982149Y-88770901D01*
X56910813Y-88948355D01*
X56815304Y-89288136D01*
X56814743Y-89291489D01*
X56814742Y-89291493D01*
X56802554Y-89364325D01*
X56757051Y-89636245D01*
X56736734Y-89988609D01*
X35508500Y-89988609D01*
X35508500Y-79988609D01*
X56736734Y-79988609D01*
X56754591Y-80341106D01*
X56755128Y-80344461D01*
X56755129Y-80344467D01*
X56782501Y-80515355D01*
X56810412Y-80689613D01*
X56903546Y-81030053D01*
X57032903Y-81358443D01*
X57034486Y-81361458D01*
X57195384Y-81667926D01*
X57195389Y-81667934D01*
X57196968Y-81670942D01*
X57198862Y-81673760D01*
X57198867Y-81673769D01*
X57385544Y-81951573D01*
X57393824Y-81963895D01*
X57621167Y-82233873D01*
X57623627Y-82236224D01*
X57623630Y-82236227D01*
X57873875Y-82475366D01*
X57873882Y-82475372D01*
X57876338Y-82477719D01*
X58156351Y-82692581D01*
X58159269Y-82694355D01*
X58455017Y-82874173D01*
X58455022Y-82874176D01*
X58457932Y-82875945D01*
X58461020Y-82877391D01*
X58461019Y-82877391D01*
X58774468Y-83024222D01*
X58774478Y-83024226D01*
X58777552Y-83025666D01*
X58780770Y-83026768D01*
X58780773Y-83026769D01*
X59108241Y-83138887D01*
X59108245Y-83138888D01*
X59111472Y-83139993D01*
X59114802Y-83140743D01*
X59114811Y-83140746D01*
X59346249Y-83192902D01*
X59455786Y-83217587D01*
X59459171Y-83217973D01*
X59459179Y-83217974D01*
X59803083Y-83257157D01*
X59803091Y-83257157D01*
X59806466Y-83257542D01*
X59809870Y-83257560D01*
X59809873Y-83257560D01*
X60001627Y-83258564D01*
X60159411Y-83259390D01*
X60162797Y-83259040D01*
X60162799Y-83259040D01*
X60507098Y-83223461D01*
X60507107Y-83223460D01*
X60510490Y-83223110D01*
X60513823Y-83222396D01*
X60513826Y-83222395D01*
X60683692Y-83185979D01*
X60855598Y-83149125D01*
X61190697Y-83038301D01*
X61511867Y-82891936D01*
X61605405Y-82836397D01*
X61812407Y-82713489D01*
X61812412Y-82713486D01*
X61815352Y-82711740D01*
X61840870Y-82692581D01*
X62094867Y-82501874D01*
X62097600Y-82499822D01*
X62109582Y-82488609D01*
X166736734Y-82488609D01*
X166736906Y-82492004D01*
X166736906Y-82492005D01*
X166748126Y-82713489D01*
X166754591Y-82841106D01*
X166755128Y-82844461D01*
X166755129Y-82844467D01*
X166769553Y-82934517D01*
X166810412Y-83189613D01*
X166903546Y-83530053D01*
X167032903Y-83858443D01*
X167034486Y-83861458D01*
X167195384Y-84167926D01*
X167195389Y-84167934D01*
X167196968Y-84170942D01*
X167198862Y-84173760D01*
X167198867Y-84173769D01*
X167218518Y-84203012D01*
X167393824Y-84463895D01*
X167621167Y-84733873D01*
X167623627Y-84736224D01*
X167623630Y-84736227D01*
X167873875Y-84975366D01*
X167873882Y-84975372D01*
X167876338Y-84977719D01*
X168156351Y-85192581D01*
X168159269Y-85194355D01*
X168455017Y-85374173D01*
X168455022Y-85374176D01*
X168457932Y-85375945D01*
X168461020Y-85377391D01*
X168461019Y-85377391D01*
X168774468Y-85524222D01*
X168774478Y-85524226D01*
X168777552Y-85525666D01*
X168780770Y-85526768D01*
X168780773Y-85526769D01*
X169108241Y-85638887D01*
X169108245Y-85638888D01*
X169111472Y-85639993D01*
X169114802Y-85640743D01*
X169114811Y-85640746D01*
X169358164Y-85695587D01*
X169455786Y-85717587D01*
X169459171Y-85717973D01*
X169459179Y-85717974D01*
X169803083Y-85757157D01*
X169803091Y-85757157D01*
X169806466Y-85757542D01*
X169809870Y-85757560D01*
X169809873Y-85757560D01*
X170001627Y-85758564D01*
X170159411Y-85759390D01*
X170162797Y-85759040D01*
X170162799Y-85759040D01*
X170507098Y-85723461D01*
X170507107Y-85723460D01*
X170510490Y-85723110D01*
X170513823Y-85722396D01*
X170513826Y-85722395D01*
X170743863Y-85673079D01*
X170855598Y-85649125D01*
X171190697Y-85538301D01*
X171511867Y-85391936D01*
X171605405Y-85336397D01*
X171812407Y-85213489D01*
X171812412Y-85213486D01*
X171815352Y-85211740D01*
X171840870Y-85192581D01*
X172094867Y-85001874D01*
X172097600Y-84999822D01*
X172355310Y-84758661D01*
X172585468Y-84491078D01*
X172785380Y-84200203D01*
X172786992Y-84197209D01*
X172786997Y-84197201D01*
X172951087Y-83892452D01*
X172952709Y-83889440D01*
X173085498Y-83562422D01*
X173093816Y-83533223D01*
X173171918Y-83259040D01*
X173182191Y-83222976D01*
X173241659Y-82875073D01*
X173242044Y-82868790D01*
X173261529Y-82550201D01*
X177487236Y-82550201D01*
X177487267Y-82554699D01*
X177510052Y-83087215D01*
X177510404Y-83091696D01*
X177571206Y-83621240D01*
X177571874Y-83625659D01*
X177670381Y-84149497D01*
X177671370Y-84153884D01*
X177807070Y-84669308D01*
X177808381Y-84673648D01*
X177980581Y-85178039D01*
X177982188Y-85182249D01*
X178190028Y-85673079D01*
X178191917Y-85677129D01*
X178434314Y-86151836D01*
X178436507Y-86155776D01*
X178712217Y-86611925D01*
X178714678Y-86615685D01*
X179022290Y-87050947D01*
X179025036Y-87054552D01*
X179362987Y-87466712D01*
X179365944Y-87470066D01*
X179501751Y-87613428D01*
X179515482Y-87621415D01*
X179516410Y-87621374D01*
X179524399Y-87616391D01*
X184627978Y-82512812D01*
X184634356Y-82501132D01*
X185364408Y-82501132D01*
X185364539Y-82502965D01*
X185368790Y-82509580D01*
X190473389Y-87614179D01*
X190487333Y-87621793D01*
X190487556Y-87621778D01*
X190496338Y-87615831D01*
X190736905Y-87350987D01*
X190739793Y-87347570D01*
X191069044Y-86928414D01*
X191071701Y-86924771D01*
X191370130Y-86483164D01*
X191372526Y-86479329D01*
X191638617Y-86017514D01*
X191640726Y-86013531D01*
X191873116Y-85533878D01*
X191874941Y-85529741D01*
X192072446Y-85034690D01*
X192073961Y-85030460D01*
X192235567Y-84522549D01*
X192236781Y-84518202D01*
X192361661Y-84000034D01*
X192362555Y-83995638D01*
X192450064Y-83469885D01*
X192450649Y-83465380D01*
X192500363Y-82934517D01*
X192500613Y-82930439D01*
X192511566Y-82550201D01*
X202487236Y-82550201D01*
X202487267Y-82554699D01*
X202510052Y-83087215D01*
X202510404Y-83091696D01*
X202571206Y-83621240D01*
X202571874Y-83625659D01*
X202670381Y-84149497D01*
X202671370Y-84153884D01*
X202807070Y-84669308D01*
X202808381Y-84673648D01*
X202980581Y-85178039D01*
X202982188Y-85182249D01*
X203190028Y-85673079D01*
X203191917Y-85677129D01*
X203434314Y-86151836D01*
X203436507Y-86155776D01*
X203712217Y-86611925D01*
X203714678Y-86615685D01*
X204022290Y-87050947D01*
X204025036Y-87054552D01*
X204362987Y-87466712D01*
X204365944Y-87470066D01*
X204501751Y-87613428D01*
X204515482Y-87621415D01*
X204516410Y-87621374D01*
X204524399Y-87616391D01*
X209627978Y-82512812D01*
X209634356Y-82501132D01*
X210364408Y-82501132D01*
X210364539Y-82502965D01*
X210368790Y-82509580D01*
X215473389Y-87614179D01*
X215487333Y-87621793D01*
X215487556Y-87621778D01*
X215496338Y-87615831D01*
X215736905Y-87350987D01*
X215739793Y-87347570D01*
X216069044Y-86928414D01*
X216071701Y-86924771D01*
X216370130Y-86483164D01*
X216372526Y-86479329D01*
X216638617Y-86017514D01*
X216640726Y-86013531D01*
X216873116Y-85533878D01*
X216874941Y-85529741D01*
X217072446Y-85034690D01*
X217073961Y-85030460D01*
X217235567Y-84522549D01*
X217236781Y-84518202D01*
X217361661Y-84000034D01*
X217362555Y-83995638D01*
X217450064Y-83469885D01*
X217450649Y-83465380D01*
X217500363Y-82934517D01*
X217500613Y-82930439D01*
X217512954Y-82502024D01*
X217512939Y-82497967D01*
X217493866Y-81965096D01*
X217493544Y-81960601D01*
X217436442Y-81430662D01*
X217435800Y-81426211D01*
X217340955Y-80901710D01*
X217339999Y-80897327D01*
X217207892Y-80380933D01*
X217206630Y-80376645D01*
X217037938Y-79871015D01*
X217036370Y-79866818D01*
X216831966Y-79374558D01*
X216830088Y-79370456D01*
X216591023Y-78894094D01*
X216588855Y-78890133D01*
X216316347Y-78432090D01*
X216313891Y-78428279D01*
X216009331Y-77990890D01*
X216006624Y-77987284D01*
X215671552Y-77572765D01*
X215668609Y-77569380D01*
X215498034Y-77386780D01*
X215484361Y-77378698D01*
X215483667Y-77378724D01*
X215475320Y-77383890D01*
X210372022Y-82487188D01*
X210364408Y-82501132D01*
X209634356Y-82501132D01*
X209635592Y-82498868D01*
X209635461Y-82497035D01*
X209631210Y-82490420D01*
X204527007Y-77386217D01*
X204513063Y-77378603D01*
X204512606Y-77378635D01*
X204504130Y-77384332D01*
X204297104Y-77609077D01*
X204294190Y-77612477D01*
X203962015Y-78029331D01*
X203959344Y-78032941D01*
X203657831Y-78472465D01*
X203655409Y-78476283D01*
X203386107Y-78936216D01*
X203383964Y-78940196D01*
X203148233Y-79418211D01*
X203146376Y-79422343D01*
X202945427Y-79915984D01*
X202943874Y-79920230D01*
X202778729Y-80426984D01*
X202777484Y-80431326D01*
X202648991Y-80948608D01*
X202648067Y-80952991D01*
X202556885Y-81478152D01*
X202556274Y-81482609D01*
X202502873Y-82012930D01*
X202502583Y-82017413D01*
X202487236Y-82550201D01*
X192511566Y-82550201D01*
X192512954Y-82502024D01*
X192512939Y-82497967D01*
X192493866Y-81965096D01*
X192493544Y-81960601D01*
X192436442Y-81430662D01*
X192435800Y-81426211D01*
X192340955Y-80901710D01*
X192339999Y-80897327D01*
X192207892Y-80380933D01*
X192206630Y-80376645D01*
X192037938Y-79871015D01*
X192036370Y-79866818D01*
X191831966Y-79374558D01*
X191830088Y-79370456D01*
X191591023Y-78894094D01*
X191588855Y-78890133D01*
X191316347Y-78432090D01*
X191313891Y-78428279D01*
X191009331Y-77990890D01*
X191006624Y-77987284D01*
X190671552Y-77572765D01*
X190668609Y-77569380D01*
X190498034Y-77386780D01*
X190484361Y-77378698D01*
X190483667Y-77378724D01*
X190475320Y-77383890D01*
X185372022Y-82487188D01*
X185364408Y-82501132D01*
X184634356Y-82501132D01*
X184635592Y-82498868D01*
X184635461Y-82497035D01*
X184631210Y-82490420D01*
X179527007Y-77386217D01*
X179513063Y-77378603D01*
X179512606Y-77378635D01*
X179504130Y-77384332D01*
X179297104Y-77609077D01*
X179294190Y-77612477D01*
X178962015Y-78029331D01*
X178959344Y-78032941D01*
X178657831Y-78472465D01*
X178655409Y-78476283D01*
X178386107Y-78936216D01*
X178383964Y-78940196D01*
X178148233Y-79418211D01*
X178146376Y-79422343D01*
X177945427Y-79915984D01*
X177943874Y-79920230D01*
X177778729Y-80426984D01*
X177777484Y-80431326D01*
X177648991Y-80948608D01*
X177648067Y-80952991D01*
X177556885Y-81478152D01*
X177556274Y-81482609D01*
X177502873Y-82012930D01*
X177502583Y-82017413D01*
X177487236Y-82550201D01*
X173261529Y-82550201D01*
X173263096Y-82524580D01*
X173263206Y-82522782D01*
X173263279Y-82502024D01*
X173263280Y-82501819D01*
X173263280Y-82501806D01*
X173263286Y-82500000D01*
X173244199Y-82147567D01*
X173187161Y-81799257D01*
X173092839Y-81459145D01*
X173089849Y-81451630D01*
X172963597Y-81134372D01*
X172962338Y-81131208D01*
X172797182Y-80819283D01*
X172790579Y-80809530D01*
X172601211Y-80529834D01*
X172601204Y-80529825D01*
X172599305Y-80527020D01*
X172597109Y-80524430D01*
X172597104Y-80524424D01*
X172473283Y-80378420D01*
X172371021Y-80257837D01*
X172115001Y-80014883D01*
X172112294Y-80012821D01*
X172112286Y-80012814D01*
X171926147Y-79871015D01*
X171834239Y-79801000D01*
X171532020Y-79618689D01*
X171528930Y-79617255D01*
X171528925Y-79617252D01*
X171371950Y-79544387D01*
X171211879Y-79470085D01*
X171208654Y-79468993D01*
X171208648Y-79468991D01*
X170880798Y-79358020D01*
X170880793Y-79358018D01*
X170877562Y-79356925D01*
X170863832Y-79353881D01*
X170794730Y-79338562D01*
X170532979Y-79280533D01*
X170408353Y-79266774D01*
X170185543Y-79242175D01*
X170185538Y-79242175D01*
X170182162Y-79241802D01*
X170178763Y-79241796D01*
X170178762Y-79241796D01*
X170012289Y-79241506D01*
X169829213Y-79241186D01*
X169698206Y-79255187D01*
X169481646Y-79278330D01*
X169481640Y-79278331D01*
X169478262Y-79278692D01*
X169133414Y-79353881D01*
X168798704Y-79465873D01*
X168478047Y-79613359D01*
X168175194Y-79794613D01*
X167893687Y-80007515D01*
X167636820Y-80249574D01*
X167407598Y-80517959D01*
X167208702Y-80809530D01*
X167201886Y-80822295D01*
X167071987Y-81065574D01*
X167042458Y-81120876D01*
X167041183Y-81124048D01*
X167041181Y-81124052D01*
X166917926Y-81430662D01*
X166910813Y-81448355D01*
X166909894Y-81451623D01*
X166909892Y-81451630D01*
X166840021Y-81700203D01*
X166815304Y-81788136D01*
X166814743Y-81791489D01*
X166814742Y-81791493D01*
X166757614Y-82132880D01*
X166757051Y-82136245D01*
X166736734Y-82488609D01*
X62109582Y-82488609D01*
X62355310Y-82258661D01*
X62585468Y-81991078D01*
X62785380Y-81700203D01*
X62786992Y-81697209D01*
X62786997Y-81697201D01*
X62915177Y-81459145D01*
X62952709Y-81389440D01*
X63085498Y-81062422D01*
X63093816Y-81033223D01*
X63181257Y-80726254D01*
X63182191Y-80722976D01*
X63241659Y-80375073D01*
X63243945Y-80337711D01*
X63263096Y-80024580D01*
X63263206Y-80022782D01*
X63263286Y-80000000D01*
X63244199Y-79647567D01*
X63187161Y-79299257D01*
X63092839Y-78959145D01*
X63089849Y-78951630D01*
X62963597Y-78634372D01*
X62962338Y-78631208D01*
X62856910Y-78432090D01*
X62798777Y-78322295D01*
X62798775Y-78322292D01*
X62797182Y-78319283D01*
X62790579Y-78309530D01*
X62601211Y-78029834D01*
X62601204Y-78029825D01*
X62599305Y-78027020D01*
X62597109Y-78024430D01*
X62597104Y-78024424D01*
X62508715Y-77920201D01*
X62371021Y-77757837D01*
X62115001Y-77514883D01*
X62112294Y-77512821D01*
X62112286Y-77512814D01*
X61953809Y-77392088D01*
X61834239Y-77301000D01*
X61532020Y-77118689D01*
X61528930Y-77117255D01*
X61528925Y-77117252D01*
X61311665Y-77016404D01*
X61309914Y-77015591D01*
X179878674Y-77015591D01*
X179878707Y-77016404D01*
X179883783Y-77024573D01*
X184987188Y-82127978D01*
X185001132Y-82135592D01*
X185002965Y-82135461D01*
X185009580Y-82131210D01*
X190113682Y-77027108D01*
X190119971Y-77015591D01*
X204878674Y-77015591D01*
X204878707Y-77016404D01*
X204883783Y-77024573D01*
X209987188Y-82127978D01*
X210001132Y-82135592D01*
X210002965Y-82135461D01*
X210009580Y-82131210D01*
X215113682Y-77027108D01*
X215121296Y-77013164D01*
X215121255Y-77012590D01*
X215115684Y-77004268D01*
X214910818Y-76814228D01*
X214907387Y-76811267D01*
X214491729Y-76477666D01*
X214488115Y-76474972D01*
X214049654Y-76171933D01*
X214045835Y-76169490D01*
X213586846Y-75898585D01*
X213582877Y-75896430D01*
X213105679Y-75659028D01*
X213101575Y-75657166D01*
X212608610Y-75454483D01*
X212604395Y-75452924D01*
X212098199Y-75286006D01*
X212093883Y-75284752D01*
X211577042Y-75154451D01*
X211572665Y-75153513D01*
X211047822Y-75060496D01*
X211043365Y-75059870D01*
X210513241Y-75004620D01*
X210508747Y-75004313D01*
X209976027Y-74987107D01*
X209971530Y-74987122D01*
X209438927Y-75008048D01*
X209434451Y-75008384D01*
X208904713Y-75067336D01*
X208900261Y-75067994D01*
X208376106Y-75164667D01*
X208371701Y-75165643D01*
X207855801Y-75299545D01*
X207851490Y-75300830D01*
X207346471Y-75471278D01*
X207342259Y-75472870D01*
X206850723Y-75678988D01*
X206846647Y-75680871D01*
X206371109Y-75921605D01*
X206367158Y-75923786D01*
X205910063Y-76197893D01*
X205906267Y-76200358D01*
X205469930Y-76506452D01*
X205466347Y-76509162D01*
X205053007Y-76845674D01*
X205049617Y-76848642D01*
X204886708Y-77001891D01*
X204878674Y-77015591D01*
X190119971Y-77015591D01*
X190121296Y-77013164D01*
X190121255Y-77012590D01*
X190115684Y-77004268D01*
X189910818Y-76814228D01*
X189907387Y-76811267D01*
X189491729Y-76477666D01*
X189488115Y-76474972D01*
X189049654Y-76171933D01*
X189045835Y-76169490D01*
X188586846Y-75898585D01*
X188582877Y-75896430D01*
X188105679Y-75659028D01*
X188101575Y-75657166D01*
X187608610Y-75454483D01*
X187604395Y-75452924D01*
X187098199Y-75286006D01*
X187093883Y-75284752D01*
X186577042Y-75154451D01*
X186572665Y-75153513D01*
X186047822Y-75060496D01*
X186043365Y-75059870D01*
X185513241Y-75004620D01*
X185508747Y-75004313D01*
X184976027Y-74987107D01*
X184971530Y-74987122D01*
X184438927Y-75008048D01*
X184434451Y-75008384D01*
X183904713Y-75067336D01*
X183900261Y-75067994D01*
X183376106Y-75164667D01*
X183371701Y-75165643D01*
X182855801Y-75299545D01*
X182851490Y-75300830D01*
X182346471Y-75471278D01*
X182342259Y-75472870D01*
X181850723Y-75678988D01*
X181846647Y-75680871D01*
X181371109Y-75921605D01*
X181367158Y-75923786D01*
X180910063Y-76197893D01*
X180906267Y-76200358D01*
X180469930Y-76506452D01*
X180466347Y-76509162D01*
X180053007Y-76845674D01*
X180049617Y-76848642D01*
X179886708Y-77001891D01*
X179878674Y-77015591D01*
X61309914Y-77015591D01*
X61211879Y-76970085D01*
X61208654Y-76968993D01*
X61208648Y-76968991D01*
X60880798Y-76858020D01*
X60880793Y-76858018D01*
X60877562Y-76856925D01*
X60863832Y-76853881D01*
X60794730Y-76838562D01*
X60532979Y-76780533D01*
X60408353Y-76766774D01*
X60185543Y-76742175D01*
X60185538Y-76742175D01*
X60182162Y-76741802D01*
X60178763Y-76741796D01*
X60178762Y-76741796D01*
X60012289Y-76741506D01*
X59829213Y-76741186D01*
X59698206Y-76755187D01*
X59481646Y-76778330D01*
X59481640Y-76778331D01*
X59478262Y-76778692D01*
X59133414Y-76853881D01*
X58798704Y-76965873D01*
X58795611Y-76967295D01*
X58795610Y-76967296D01*
X58688842Y-77016404D01*
X58478047Y-77113359D01*
X58175194Y-77294613D01*
X57893687Y-77507515D01*
X57636820Y-77749574D01*
X57407598Y-78017959D01*
X57405670Y-78020786D01*
X57405668Y-78020788D01*
X57399497Y-78029834D01*
X57208702Y-78309530D01*
X57042458Y-78620876D01*
X57041183Y-78624048D01*
X57041181Y-78624052D01*
X56932626Y-78894094D01*
X56910813Y-78948355D01*
X56909894Y-78951623D01*
X56909892Y-78951630D01*
X56816225Y-79284858D01*
X56815304Y-79288136D01*
X56814743Y-79291489D01*
X56814742Y-79291493D01*
X56785742Y-79464793D01*
X56757051Y-79636245D01*
X56736734Y-79988609D01*
X35508500Y-79988609D01*
X35508500Y-73717924D01*
X119147616Y-73717924D01*
X119147665Y-73718616D01*
X119153111Y-73726781D01*
X119242226Y-73810027D01*
X119246503Y-73813681D01*
X119593829Y-74084553D01*
X119598386Y-74087792D01*
X119968432Y-74326727D01*
X119973261Y-74329549D01*
X120363048Y-74534626D01*
X120368150Y-74537027D01*
X120774633Y-74706647D01*
X120779888Y-74708570D01*
X121199860Y-74841389D01*
X121205259Y-74842836D01*
X121635375Y-74937796D01*
X121640886Y-74938758D01*
X122077749Y-74995110D01*
X122083312Y-74995577D01*
X122523453Y-75012869D01*
X122529045Y-75012840D01*
X122968965Y-74990940D01*
X122974548Y-74990412D01*
X123410788Y-74929490D01*
X123416275Y-74928473D01*
X123845381Y-74829012D01*
X123850767Y-74827508D01*
X124269333Y-74690296D01*
X124274550Y-74688324D01*
X124679260Y-74514447D01*
X124684303Y-74512009D01*
X125071943Y-74302850D01*
X125076747Y-74299975D01*
X125444239Y-74057198D01*
X125448802Y-74053883D01*
X125793266Y-73779393D01*
X125797481Y-73775716D01*
X125845286Y-73730112D01*
X125852319Y-73717924D01*
X156647616Y-73717924D01*
X156647665Y-73718616D01*
X156653111Y-73726781D01*
X156742226Y-73810027D01*
X156746503Y-73813681D01*
X157093829Y-74084553D01*
X157098386Y-74087792D01*
X157468432Y-74326727D01*
X157473261Y-74329549D01*
X157863048Y-74534626D01*
X157868150Y-74537027D01*
X158274633Y-74706647D01*
X158279888Y-74708570D01*
X158699860Y-74841389D01*
X158705259Y-74842836D01*
X159135375Y-74937796D01*
X159140886Y-74938758D01*
X159577749Y-74995110D01*
X159583312Y-74995577D01*
X160023453Y-75012869D01*
X160029045Y-75012840D01*
X160468965Y-74990940D01*
X160474548Y-74990412D01*
X160910788Y-74929490D01*
X160916275Y-74928473D01*
X161345381Y-74829012D01*
X161350767Y-74827508D01*
X161769333Y-74690296D01*
X161774550Y-74688324D01*
X162179260Y-74514447D01*
X162184303Y-74512009D01*
X162571943Y-74302850D01*
X162576747Y-74299975D01*
X162944239Y-74057198D01*
X162948802Y-74053883D01*
X163293266Y-73779393D01*
X163297481Y-73775716D01*
X163345286Y-73730112D01*
X163353226Y-73716352D01*
X163353176Y-73715307D01*
X163348285Y-73707495D01*
X160012812Y-70372022D01*
X159998868Y-70364408D01*
X159997035Y-70364539D01*
X159990420Y-70368790D01*
X156655230Y-73703980D01*
X156647616Y-73717924D01*
X125852319Y-73717924D01*
X125853226Y-73716352D01*
X125853176Y-73715307D01*
X125848285Y-73707495D01*
X122512812Y-70372022D01*
X122498868Y-70364408D01*
X122497035Y-70364539D01*
X122490420Y-70368790D01*
X119155230Y-73703980D01*
X119147616Y-73717924D01*
X35508500Y-73717924D01*
X35508500Y-69988609D01*
X56736734Y-69988609D01*
X56736906Y-69992004D01*
X56736906Y-69992005D01*
X56738465Y-70022782D01*
X56754591Y-70341106D01*
X56755128Y-70344461D01*
X56755129Y-70344467D01*
X56793957Y-70586878D01*
X56810412Y-70689613D01*
X56903546Y-71030053D01*
X57032903Y-71358443D01*
X57034486Y-71361458D01*
X57195384Y-71667926D01*
X57195389Y-71667934D01*
X57196968Y-71670942D01*
X57198862Y-71673760D01*
X57198867Y-71673769D01*
X57246334Y-71744407D01*
X57393824Y-71963895D01*
X57621167Y-72233873D01*
X57623627Y-72236224D01*
X57623630Y-72236227D01*
X57873875Y-72475366D01*
X57873882Y-72475372D01*
X57876338Y-72477719D01*
X58156351Y-72692581D01*
X58159269Y-72694355D01*
X58455017Y-72874173D01*
X58455022Y-72874176D01*
X58457932Y-72875945D01*
X58461020Y-72877391D01*
X58461019Y-72877391D01*
X58774468Y-73024222D01*
X58774478Y-73024226D01*
X58777552Y-73025666D01*
X58780770Y-73026768D01*
X58780773Y-73026769D01*
X59108241Y-73138887D01*
X59108245Y-73138888D01*
X59111472Y-73139993D01*
X59114802Y-73140743D01*
X59114811Y-73140746D01*
X59358164Y-73195587D01*
X59455786Y-73217587D01*
X59459171Y-73217973D01*
X59459179Y-73217974D01*
X59803083Y-73257157D01*
X59803091Y-73257157D01*
X59806466Y-73257542D01*
X59809870Y-73257560D01*
X59809873Y-73257560D01*
X60001627Y-73258564D01*
X60159411Y-73259390D01*
X60162797Y-73259040D01*
X60162799Y-73259040D01*
X60507098Y-73223461D01*
X60507107Y-73223460D01*
X60510490Y-73223110D01*
X60513823Y-73222396D01*
X60513826Y-73222395D01*
X60744553Y-73172931D01*
X60855598Y-73149125D01*
X61190697Y-73038301D01*
X61511867Y-72891936D01*
X61714238Y-72771777D01*
X61812407Y-72713489D01*
X61812412Y-72713486D01*
X61815352Y-72711740D01*
X61840870Y-72692581D01*
X62094867Y-72501874D01*
X62097600Y-72499822D01*
X62355310Y-72258661D01*
X62585468Y-71991078D01*
X62785380Y-71700203D01*
X62786992Y-71697209D01*
X62786997Y-71697201D01*
X62915223Y-71459059D01*
X62952709Y-71389440D01*
X63085498Y-71062422D01*
X63093816Y-71033223D01*
X63181257Y-70726254D01*
X63182191Y-70722976D01*
X63241659Y-70375073D01*
X63241901Y-70371126D01*
X63263096Y-70024580D01*
X63263206Y-70022782D01*
X63263276Y-70002965D01*
X63263280Y-70001819D01*
X63263280Y-70001806D01*
X63263286Y-70000000D01*
X63256331Y-69871585D01*
X117488722Y-69871585D01*
X117496793Y-70311981D01*
X117497143Y-70317547D01*
X117544333Y-70755491D01*
X117545180Y-70761030D01*
X117631112Y-71193042D01*
X117632441Y-71198453D01*
X117756444Y-71621138D01*
X117758250Y-71626413D01*
X117919326Y-72036377D01*
X117921608Y-72041501D01*
X118118485Y-72435516D01*
X118121209Y-72440409D01*
X118352333Y-72815363D01*
X118355484Y-72819999D01*
X118619031Y-73172931D01*
X118622564Y-73177248D01*
X118771583Y-73343625D01*
X118785079Y-73351989D01*
X118794491Y-73346299D01*
X122127978Y-70012812D01*
X122134356Y-70001132D01*
X122864408Y-70001132D01*
X122864539Y-70002965D01*
X122868790Y-70009580D01*
X126203870Y-73344660D01*
X126217631Y-73352174D01*
X126226992Y-73345716D01*
X126410483Y-73136482D01*
X126413988Y-73132109D01*
X126673825Y-72776435D01*
X126676920Y-72771777D01*
X126904101Y-72394431D01*
X126906782Y-72389492D01*
X127099515Y-71993455D01*
X127101750Y-71988289D01*
X127258519Y-71576675D01*
X127260275Y-71571363D01*
X127379838Y-71147427D01*
X127381114Y-71141991D01*
X127462520Y-70709092D01*
X127463307Y-70703555D01*
X127505963Y-70264580D01*
X127506236Y-70260143D01*
X127510229Y-70107655D01*
X133239858Y-70107655D01*
X133275104Y-70366638D01*
X133276412Y-70371124D01*
X133276412Y-70371126D01*
X133296098Y-70438664D01*
X133348243Y-70617567D01*
X133457668Y-70854928D01*
X133460231Y-70858837D01*
X133598410Y-71069596D01*
X133598414Y-71069601D01*
X133600976Y-71073509D01*
X133775018Y-71268506D01*
X133975970Y-71435637D01*
X133979973Y-71438066D01*
X134195422Y-71568804D01*
X134195426Y-71568806D01*
X134199419Y-71571229D01*
X134440455Y-71672303D01*
X134693783Y-71736641D01*
X134698434Y-71737109D01*
X134698438Y-71737110D01*
X134891308Y-71756531D01*
X134910867Y-71758500D01*
X135066354Y-71758500D01*
X135068679Y-71758327D01*
X135068685Y-71758327D01*
X135256000Y-71744407D01*
X135256004Y-71744406D01*
X135260652Y-71744061D01*
X135265200Y-71743032D01*
X135265206Y-71743031D01*
X135467742Y-71697201D01*
X135515577Y-71686377D01*
X135551769Y-71672303D01*
X135754824Y-71593340D01*
X135754827Y-71593339D01*
X135759177Y-71591647D01*
X135986098Y-71461951D01*
X136191357Y-71300138D01*
X136370443Y-71109763D01*
X136519424Y-70895009D01*
X136635025Y-70660593D01*
X136714707Y-70411665D01*
X136756721Y-70153693D01*
X136758748Y-69998868D01*
X136760081Y-69897022D01*
X136760081Y-69897019D01*
X136760142Y-69892345D01*
X136757317Y-69871585D01*
X154988722Y-69871585D01*
X154996793Y-70311981D01*
X154997143Y-70317547D01*
X155044333Y-70755491D01*
X155045180Y-70761030D01*
X155131112Y-71193042D01*
X155132441Y-71198453D01*
X155256444Y-71621138D01*
X155258250Y-71626413D01*
X155419326Y-72036377D01*
X155421608Y-72041501D01*
X155618485Y-72435516D01*
X155621209Y-72440409D01*
X155852333Y-72815363D01*
X155855484Y-72819999D01*
X156119031Y-73172931D01*
X156122564Y-73177248D01*
X156271583Y-73343625D01*
X156285079Y-73351989D01*
X156294491Y-73346299D01*
X159627978Y-70012812D01*
X159634356Y-70001132D01*
X160364408Y-70001132D01*
X160364539Y-70002965D01*
X160368790Y-70009580D01*
X163703870Y-73344660D01*
X163717631Y-73352174D01*
X163726992Y-73345716D01*
X163910483Y-73136482D01*
X163913988Y-73132109D01*
X164173825Y-72776435D01*
X164176920Y-72771777D01*
X164404101Y-72394431D01*
X164406782Y-72389492D01*
X164599515Y-71993455D01*
X164601750Y-71988289D01*
X164758519Y-71576675D01*
X164760275Y-71571363D01*
X164879838Y-71147427D01*
X164881114Y-71141991D01*
X164962520Y-70709092D01*
X164963307Y-70703555D01*
X165005963Y-70264580D01*
X165006236Y-70260143D01*
X165012990Y-70002234D01*
X165012948Y-69997762D01*
X164993327Y-69557177D01*
X164992829Y-69551590D01*
X164934193Y-69115047D01*
X164933200Y-69109524D01*
X164835990Y-68679920D01*
X164834517Y-68674533D01*
X164699499Y-68255261D01*
X164697544Y-68250003D01*
X164525801Y-67844419D01*
X164523382Y-67839348D01*
X164316253Y-67450614D01*
X164313418Y-67445819D01*
X164072538Y-67077013D01*
X164069287Y-67072489D01*
X163796582Y-66726564D01*
X163792934Y-66722338D01*
X163729587Y-66655233D01*
X163715871Y-66647222D01*
X163715000Y-66647259D01*
X163706923Y-66652287D01*
X160372022Y-69987188D01*
X160364408Y-70001132D01*
X159634356Y-70001132D01*
X159635592Y-69998868D01*
X159635461Y-69997035D01*
X159631210Y-69990420D01*
X156293542Y-66652752D01*
X156280234Y-66645485D01*
X156270195Y-66652607D01*
X156008756Y-66966953D01*
X156005361Y-66971425D01*
X155754932Y-67333765D01*
X155751953Y-67338515D01*
X155534719Y-67721695D01*
X155532188Y-67726662D01*
X155349866Y-68127656D01*
X155347788Y-68132824D01*
X155201840Y-68548426D01*
X155200219Y-68553795D01*
X155091798Y-68980705D01*
X155090664Y-68986178D01*
X155020621Y-69421044D01*
X155019976Y-69426622D01*
X154988869Y-69865964D01*
X154988722Y-69871585D01*
X136757317Y-69871585D01*
X136724896Y-69633362D01*
X136710473Y-69583877D01*
X136653068Y-69386932D01*
X136651757Y-69382433D01*
X136542332Y-69145072D01*
X136438157Y-68986178D01*
X136401590Y-68930404D01*
X136401586Y-68930399D01*
X136399024Y-68926491D01*
X136224982Y-68731494D01*
X136024030Y-68564363D01*
X135976844Y-68535730D01*
X135804578Y-68431196D01*
X135804574Y-68431194D01*
X135800581Y-68428771D01*
X135559545Y-68327697D01*
X135306217Y-68263359D01*
X135301566Y-68262891D01*
X135301562Y-68262890D01*
X135092271Y-68241816D01*
X135089133Y-68241500D01*
X134933646Y-68241500D01*
X134931321Y-68241673D01*
X134931315Y-68241673D01*
X134744000Y-68255593D01*
X134743996Y-68255594D01*
X134739348Y-68255939D01*
X134734800Y-68256968D01*
X134734794Y-68256969D01*
X134548399Y-68299147D01*
X134484423Y-68313623D01*
X134480071Y-68315315D01*
X134480069Y-68315316D01*
X134245176Y-68406660D01*
X134245173Y-68406661D01*
X134240823Y-68408353D01*
X134013902Y-68538049D01*
X133808643Y-68699862D01*
X133629557Y-68890237D01*
X133480576Y-69104991D01*
X133478510Y-69109181D01*
X133478508Y-69109184D01*
X133384775Y-69299257D01*
X133364975Y-69339407D01*
X133285293Y-69588335D01*
X133243279Y-69846307D01*
X133239858Y-70107655D01*
X127510229Y-70107655D01*
X127512990Y-70002234D01*
X127512948Y-69997762D01*
X127493327Y-69557177D01*
X127492829Y-69551590D01*
X127434193Y-69115047D01*
X127433200Y-69109524D01*
X127335990Y-68679920D01*
X127334517Y-68674533D01*
X127199499Y-68255261D01*
X127197544Y-68250003D01*
X127025801Y-67844419D01*
X127023382Y-67839348D01*
X126816253Y-67450614D01*
X126813418Y-67445819D01*
X126572538Y-67077013D01*
X126569287Y-67072489D01*
X126296582Y-66726564D01*
X126292934Y-66722338D01*
X126229587Y-66655233D01*
X126215871Y-66647222D01*
X126215000Y-66647259D01*
X126206923Y-66652287D01*
X122872022Y-69987188D01*
X122864408Y-70001132D01*
X122134356Y-70001132D01*
X122135592Y-69998868D01*
X122135461Y-69997035D01*
X122131210Y-69990420D01*
X118793542Y-66652752D01*
X118780234Y-66645485D01*
X118770195Y-66652607D01*
X118508756Y-66966953D01*
X118505361Y-66971425D01*
X118254932Y-67333765D01*
X118251953Y-67338515D01*
X118034719Y-67721695D01*
X118032188Y-67726662D01*
X117849866Y-68127656D01*
X117847788Y-68132824D01*
X117701840Y-68548426D01*
X117700219Y-68553795D01*
X117591798Y-68980705D01*
X117590664Y-68986178D01*
X117520621Y-69421044D01*
X117519976Y-69426622D01*
X117488869Y-69865964D01*
X117488722Y-69871585D01*
X63256331Y-69871585D01*
X63244199Y-69647567D01*
X63187161Y-69299257D01*
X63092839Y-68959145D01*
X63089849Y-68951630D01*
X62963597Y-68634372D01*
X62962338Y-68631208D01*
X62797182Y-68319283D01*
X62790579Y-68309530D01*
X62601211Y-68029834D01*
X62601204Y-68029825D01*
X62599305Y-68027020D01*
X62597109Y-68024430D01*
X62597104Y-68024424D01*
X62440147Y-67839348D01*
X62371021Y-67757837D01*
X62115001Y-67514883D01*
X62112294Y-67512821D01*
X62112286Y-67512814D01*
X61953809Y-67392088D01*
X61834239Y-67301000D01*
X61532020Y-67118689D01*
X61528930Y-67117255D01*
X61528925Y-67117252D01*
X61371950Y-67044387D01*
X61211879Y-66970085D01*
X61208654Y-66968993D01*
X61208648Y-66968991D01*
X60880798Y-66858020D01*
X60880793Y-66858018D01*
X60877562Y-66856925D01*
X60863832Y-66853881D01*
X60794730Y-66838562D01*
X60532979Y-66780533D01*
X60408353Y-66766774D01*
X60185543Y-66742175D01*
X60185538Y-66742175D01*
X60182162Y-66741802D01*
X60178763Y-66741796D01*
X60178762Y-66741796D01*
X60012289Y-66741506D01*
X59829213Y-66741186D01*
X59698206Y-66755187D01*
X59481646Y-66778330D01*
X59481640Y-66778331D01*
X59478262Y-66778692D01*
X59133414Y-66853881D01*
X58798704Y-66965873D01*
X58478047Y-67113359D01*
X58175194Y-67294613D01*
X57893687Y-67507515D01*
X57636820Y-67749574D01*
X57407598Y-68017959D01*
X57208702Y-68309530D01*
X57201886Y-68322295D01*
X57071036Y-68567355D01*
X57042458Y-68620876D01*
X57041183Y-68624048D01*
X57041181Y-68624052D01*
X56932630Y-68894084D01*
X56910813Y-68948355D01*
X56909894Y-68951623D01*
X56909892Y-68951630D01*
X56854324Y-69149318D01*
X56815304Y-69288136D01*
X56814743Y-69291489D01*
X56814742Y-69291493D01*
X56757614Y-69632880D01*
X56757051Y-69636245D01*
X56736734Y-69988609D01*
X35508500Y-69988609D01*
X35508500Y-66282502D01*
X119146077Y-66282502D01*
X119152184Y-66292974D01*
X122487188Y-69627978D01*
X122501132Y-69635592D01*
X122502965Y-69635461D01*
X122509580Y-69631210D01*
X125844435Y-66296355D01*
X125851998Y-66282505D01*
X125851996Y-66282502D01*
X156646077Y-66282502D01*
X156652184Y-66292974D01*
X159987188Y-69627978D01*
X160001132Y-69635592D01*
X160002965Y-69635461D01*
X160009580Y-69631210D01*
X163344435Y-66296355D01*
X163351998Y-66282505D01*
X163345671Y-66273283D01*
X163156913Y-66105992D01*
X163152551Y-66102459D01*
X162798262Y-65840778D01*
X162793609Y-65837651D01*
X162417453Y-65608495D01*
X162412536Y-65605791D01*
X162017488Y-65410974D01*
X162012379Y-65408732D01*
X161601563Y-65249799D01*
X161596273Y-65248019D01*
X161172954Y-65126234D01*
X161167530Y-65124932D01*
X160735068Y-65041261D01*
X160729539Y-65040445D01*
X160291353Y-64995550D01*
X160285771Y-64995228D01*
X159845346Y-64989463D01*
X159839735Y-64989639D01*
X159400541Y-65023048D01*
X159394984Y-65023720D01*
X158960504Y-65096037D01*
X158955007Y-65097205D01*
X158528680Y-65207858D01*
X158523314Y-65209510D01*
X158108509Y-65357622D01*
X158103321Y-65359739D01*
X157703311Y-65544147D01*
X157698342Y-65546711D01*
X157316308Y-65765948D01*
X157311575Y-65768951D01*
X156950545Y-66021278D01*
X156946104Y-66024686D01*
X156654521Y-66269785D01*
X156646077Y-66282502D01*
X125851996Y-66282502D01*
X125845671Y-66273283D01*
X125656913Y-66105992D01*
X125652551Y-66102459D01*
X125298262Y-65840778D01*
X125293609Y-65837651D01*
X124917453Y-65608495D01*
X124912536Y-65605791D01*
X124517488Y-65410974D01*
X124512379Y-65408732D01*
X124101563Y-65249799D01*
X124096273Y-65248019D01*
X123672954Y-65126234D01*
X123667530Y-65124932D01*
X123235068Y-65041261D01*
X123229539Y-65040445D01*
X122791353Y-64995550D01*
X122785771Y-64995228D01*
X122345346Y-64989463D01*
X122339735Y-64989639D01*
X121900541Y-65023048D01*
X121894984Y-65023720D01*
X121460504Y-65096037D01*
X121455007Y-65097205D01*
X121028680Y-65207858D01*
X121023314Y-65209510D01*
X120608509Y-65357622D01*
X120603321Y-65359739D01*
X120203311Y-65544147D01*
X120198342Y-65546711D01*
X119816308Y-65765948D01*
X119811575Y-65768951D01*
X119450545Y-66021278D01*
X119446104Y-66024686D01*
X119154521Y-66269785D01*
X119146077Y-66282502D01*
X35508500Y-66282502D01*
X35508500Y-59988609D01*
X56736734Y-59988609D01*
X56754591Y-60341106D01*
X56755128Y-60344461D01*
X56755129Y-60344467D01*
X56784805Y-60529741D01*
X56810412Y-60689613D01*
X56903546Y-61030053D01*
X57032903Y-61358443D01*
X57034486Y-61361458D01*
X57195384Y-61667926D01*
X57195389Y-61667934D01*
X57196968Y-61670942D01*
X57198862Y-61673760D01*
X57198867Y-61673769D01*
X57218518Y-61703012D01*
X57393824Y-61963895D01*
X57621167Y-62233873D01*
X57623627Y-62236224D01*
X57623630Y-62236227D01*
X57873875Y-62475366D01*
X57873882Y-62475372D01*
X57876338Y-62477719D01*
X58156351Y-62692581D01*
X58159269Y-62694355D01*
X58455017Y-62874173D01*
X58455022Y-62874176D01*
X58457932Y-62875945D01*
X58461020Y-62877391D01*
X58461019Y-62877391D01*
X58774468Y-63024222D01*
X58774478Y-63024226D01*
X58777552Y-63025666D01*
X58780770Y-63026768D01*
X58780773Y-63026769D01*
X59108241Y-63138887D01*
X59108245Y-63138888D01*
X59111472Y-63139993D01*
X59114802Y-63140743D01*
X59114811Y-63140746D01*
X59358164Y-63195587D01*
X59455786Y-63217587D01*
X59459171Y-63217973D01*
X59459179Y-63217974D01*
X59803083Y-63257157D01*
X59803091Y-63257157D01*
X59806466Y-63257542D01*
X59809870Y-63257560D01*
X59809873Y-63257560D01*
X60001627Y-63258564D01*
X60159411Y-63259390D01*
X60162797Y-63259040D01*
X60162799Y-63259040D01*
X60507098Y-63223461D01*
X60507107Y-63223460D01*
X60510490Y-63223110D01*
X60513823Y-63222396D01*
X60513826Y-63222395D01*
X60683692Y-63185979D01*
X60855598Y-63149125D01*
X61190697Y-63038301D01*
X61303043Y-62987102D01*
X204878438Y-62987102D01*
X204878462Y-62987441D01*
X204884285Y-62996073D01*
X205128991Y-63219913D01*
X205132445Y-63222852D01*
X205550430Y-63553550D01*
X205554067Y-63556222D01*
X205994618Y-63856182D01*
X205998446Y-63858593D01*
X206459337Y-64126300D01*
X206463309Y-64128421D01*
X206942148Y-64362483D01*
X206946284Y-64364325D01*
X207440627Y-64563551D01*
X207444871Y-64565087D01*
X207952218Y-64728467D01*
X207956539Y-64729689D01*
X208474254Y-64856374D01*
X208478695Y-64857294D01*
X209004141Y-64946637D01*
X209008595Y-64947232D01*
X209539106Y-64998782D01*
X209543579Y-64999056D01*
X210076427Y-65012543D01*
X210080930Y-65012496D01*
X210613352Y-64987853D01*
X210617836Y-64987485D01*
X211147152Y-64924836D01*
X211151591Y-64924149D01*
X211675087Y-64823814D01*
X211679446Y-64822815D01*
X212194414Y-64685311D01*
X212198727Y-64683992D01*
X212702525Y-64510028D01*
X212706740Y-64508402D01*
X213196805Y-64298866D01*
X213200892Y-64296943D01*
X213674731Y-64052900D01*
X213678658Y-64050696D01*
X214133828Y-63773404D01*
X214137624Y-63770901D01*
X214571786Y-63461788D01*
X214575372Y-63459036D01*
X214986362Y-63119640D01*
X214989705Y-63116672D01*
X215113630Y-62998453D01*
X215121568Y-62984695D01*
X215121518Y-62983649D01*
X215116625Y-62975835D01*
X210012812Y-57872022D01*
X209998868Y-57864408D01*
X209997035Y-57864539D01*
X209990420Y-57868790D01*
X204886052Y-62973158D01*
X204878438Y-62987102D01*
X61303043Y-62987102D01*
X61511867Y-62891936D01*
X61605405Y-62836397D01*
X61812407Y-62713489D01*
X61812412Y-62713486D01*
X61815352Y-62711740D01*
X61840870Y-62692581D01*
X62094867Y-62501874D01*
X62097600Y-62499822D01*
X62355310Y-62258661D01*
X62585468Y-61991078D01*
X62785380Y-61700203D01*
X62786992Y-61697209D01*
X62786997Y-61697201D01*
X62951087Y-61392452D01*
X62952709Y-61389440D01*
X63085498Y-61062422D01*
X63093816Y-61033223D01*
X63181257Y-60726254D01*
X63182191Y-60722976D01*
X63241659Y-60375073D01*
X63243945Y-60337711D01*
X63263096Y-60024580D01*
X63263206Y-60022782D01*
X63263286Y-60000000D01*
X63244199Y-59647567D01*
X63187161Y-59299257D01*
X63092839Y-58959145D01*
X63089849Y-58951630D01*
X62963597Y-58634372D01*
X62962338Y-58631208D01*
X62876922Y-58469885D01*
X62798777Y-58322295D01*
X62798775Y-58322292D01*
X62797182Y-58319283D01*
X62790579Y-58309530D01*
X62601211Y-58029834D01*
X62601204Y-58029825D01*
X62599305Y-58027020D01*
X62597109Y-58024430D01*
X62597104Y-58024424D01*
X62461400Y-57864408D01*
X62371021Y-57757837D01*
X62152218Y-57550201D01*
X202487236Y-57550201D01*
X202487267Y-57554699D01*
X202510052Y-58087215D01*
X202510404Y-58091696D01*
X202571206Y-58621240D01*
X202571874Y-58625659D01*
X202670381Y-59149497D01*
X202671370Y-59153884D01*
X202807070Y-59669308D01*
X202808381Y-59673648D01*
X202980581Y-60178039D01*
X202982188Y-60182249D01*
X203190028Y-60673079D01*
X203191917Y-60677129D01*
X203434314Y-61151836D01*
X203436507Y-61155776D01*
X203712217Y-61611925D01*
X203714678Y-61615685D01*
X204022290Y-62050947D01*
X204025036Y-62054552D01*
X204362987Y-62466712D01*
X204365944Y-62470066D01*
X204501751Y-62613428D01*
X204515482Y-62621415D01*
X204516410Y-62621374D01*
X204524399Y-62616391D01*
X209627978Y-57512812D01*
X209634356Y-57501132D01*
X210364408Y-57501132D01*
X210364539Y-57502965D01*
X210368790Y-57509580D01*
X215473389Y-62614179D01*
X215487333Y-62621793D01*
X215487556Y-62621778D01*
X215496338Y-62615831D01*
X215736905Y-62350987D01*
X215739793Y-62347570D01*
X216069044Y-61928414D01*
X216071701Y-61924771D01*
X216370130Y-61483164D01*
X216372526Y-61479329D01*
X216638617Y-61017514D01*
X216640726Y-61013531D01*
X216873116Y-60533878D01*
X216874941Y-60529741D01*
X217072446Y-60034690D01*
X217073961Y-60030460D01*
X217235567Y-59522549D01*
X217236781Y-59518202D01*
X217361661Y-59000034D01*
X217362555Y-58995638D01*
X217450064Y-58469885D01*
X217450649Y-58465380D01*
X217500363Y-57934517D01*
X217500613Y-57930439D01*
X217512954Y-57502024D01*
X217512939Y-57497967D01*
X217493866Y-56965096D01*
X217493544Y-56960601D01*
X217436442Y-56430662D01*
X217435800Y-56426211D01*
X217340955Y-55901710D01*
X217339999Y-55897327D01*
X217207892Y-55380933D01*
X217206630Y-55376645D01*
X217037938Y-54871015D01*
X217036370Y-54866818D01*
X216831966Y-54374558D01*
X216830088Y-54370456D01*
X216591023Y-53894094D01*
X216588855Y-53890133D01*
X216316347Y-53432090D01*
X216313891Y-53428279D01*
X216009331Y-52990890D01*
X216006624Y-52987284D01*
X215671552Y-52572765D01*
X215668609Y-52569380D01*
X215498034Y-52386780D01*
X215484361Y-52378698D01*
X215483667Y-52378724D01*
X215475320Y-52383890D01*
X210372022Y-57487188D01*
X210364408Y-57501132D01*
X209634356Y-57501132D01*
X209635592Y-57498868D01*
X209635461Y-57497035D01*
X209631210Y-57490420D01*
X204527007Y-52386217D01*
X204513063Y-52378603D01*
X204512606Y-52378635D01*
X204504130Y-52384332D01*
X204297104Y-52609077D01*
X204294190Y-52612477D01*
X203962015Y-53029331D01*
X203959344Y-53032941D01*
X203657831Y-53472465D01*
X203655409Y-53476283D01*
X203386107Y-53936216D01*
X203383964Y-53940196D01*
X203148233Y-54418211D01*
X203146376Y-54422343D01*
X202945427Y-54915984D01*
X202943874Y-54920230D01*
X202778729Y-55426984D01*
X202777484Y-55431326D01*
X202648991Y-55948608D01*
X202648067Y-55952991D01*
X202556885Y-56478152D01*
X202556274Y-56482609D01*
X202502873Y-57012930D01*
X202502583Y-57017413D01*
X202487236Y-57550201D01*
X62152218Y-57550201D01*
X62115001Y-57514883D01*
X62112294Y-57512821D01*
X62112286Y-57512814D01*
X61953809Y-57392088D01*
X61834239Y-57301000D01*
X61552776Y-57131210D01*
X61534941Y-57120451D01*
X61534940Y-57120450D01*
X61532020Y-57118689D01*
X61528930Y-57117255D01*
X61528925Y-57117252D01*
X61304181Y-57012930D01*
X61211879Y-56970085D01*
X61208654Y-56968993D01*
X61208648Y-56968991D01*
X60880798Y-56858020D01*
X60880793Y-56858018D01*
X60877562Y-56856925D01*
X60863832Y-56853881D01*
X60794730Y-56838562D01*
X60532979Y-56780533D01*
X60408353Y-56766774D01*
X60185543Y-56742175D01*
X60185538Y-56742175D01*
X60182162Y-56741802D01*
X60178763Y-56741796D01*
X60178762Y-56741796D01*
X60012289Y-56741506D01*
X59829213Y-56741186D01*
X59698206Y-56755187D01*
X59481646Y-56778330D01*
X59481640Y-56778331D01*
X59478262Y-56778692D01*
X59133414Y-56853881D01*
X58798704Y-56965873D01*
X58478047Y-57113359D01*
X58175194Y-57294613D01*
X57893687Y-57507515D01*
X57636820Y-57749574D01*
X57407598Y-58017959D01*
X57208702Y-58309530D01*
X57042458Y-58620876D01*
X57041183Y-58624048D01*
X57041181Y-58624052D01*
X57037033Y-58634372D01*
X56910813Y-58948355D01*
X56909894Y-58951623D01*
X56909892Y-58951630D01*
X56816225Y-59284858D01*
X56815304Y-59288136D01*
X56814743Y-59291489D01*
X56814742Y-59291493D01*
X56776804Y-59518202D01*
X56757051Y-59636245D01*
X56736734Y-59988609D01*
X35508500Y-59988609D01*
X35508500Y-52015591D01*
X204878674Y-52015591D01*
X204878707Y-52016404D01*
X204883783Y-52024573D01*
X209987188Y-57127978D01*
X210001132Y-57135592D01*
X210002965Y-57135461D01*
X210009580Y-57131210D01*
X215113682Y-52027108D01*
X215121296Y-52013164D01*
X215121255Y-52012590D01*
X215115684Y-52004268D01*
X214910818Y-51814228D01*
X214907387Y-51811267D01*
X214491729Y-51477666D01*
X214488115Y-51474972D01*
X214049654Y-51171933D01*
X214045835Y-51169490D01*
X213586846Y-50898585D01*
X213582877Y-50896430D01*
X213105679Y-50659028D01*
X213101575Y-50657166D01*
X212608610Y-50454483D01*
X212604395Y-50452924D01*
X212098199Y-50286006D01*
X212093883Y-50284752D01*
X211577042Y-50154451D01*
X211572665Y-50153513D01*
X211047822Y-50060496D01*
X211043365Y-50059870D01*
X210513241Y-50004620D01*
X210508747Y-50004313D01*
X209976027Y-49987107D01*
X209971530Y-49987122D01*
X209438927Y-50008048D01*
X209434451Y-50008384D01*
X208904713Y-50067336D01*
X208900261Y-50067994D01*
X208376106Y-50164667D01*
X208371701Y-50165643D01*
X207855801Y-50299545D01*
X207851490Y-50300830D01*
X207346471Y-50471278D01*
X207342259Y-50472870D01*
X206850723Y-50678988D01*
X206846647Y-50680871D01*
X206371109Y-50921605D01*
X206367158Y-50923786D01*
X205910063Y-51197893D01*
X205906267Y-51200358D01*
X205469930Y-51506452D01*
X205466347Y-51509162D01*
X205053007Y-51845674D01*
X205049617Y-51848642D01*
X204886708Y-52001891D01*
X204878674Y-52015591D01*
X35508500Y-52015591D01*
X35508500Y-49945987D01*
X36418721Y-49945987D01*
X36427548Y-49957605D01*
X36650281Y-50119430D01*
X36656961Y-50123670D01*
X36926572Y-50271890D01*
X36933707Y-50275247D01*
X37219770Y-50388508D01*
X37227296Y-50390953D01*
X37525279Y-50467462D01*
X37533050Y-50468945D01*
X37838278Y-50507503D01*
X37846169Y-50508000D01*
X38153831Y-50508000D01*
X38161722Y-50507503D01*
X38466950Y-50468945D01*
X38474721Y-50467462D01*
X38772704Y-50390953D01*
X38780230Y-50388508D01*
X39066293Y-50275247D01*
X39073428Y-50271890D01*
X39343039Y-50123670D01*
X39349719Y-50119430D01*
X39572823Y-49957336D01*
X39581246Y-49946413D01*
X39581017Y-49945987D01*
X230418721Y-49945987D01*
X230427548Y-49957605D01*
X230650281Y-50119430D01*
X230656961Y-50123670D01*
X230926572Y-50271890D01*
X230933707Y-50275247D01*
X231219770Y-50388508D01*
X231227296Y-50390953D01*
X231525279Y-50467462D01*
X231533050Y-50468945D01*
X231838278Y-50507503D01*
X231846169Y-50508000D01*
X232153831Y-50508000D01*
X232161722Y-50507503D01*
X232466950Y-50468945D01*
X232474721Y-50467462D01*
X232772704Y-50390953D01*
X232780230Y-50388508D01*
X233066293Y-50275247D01*
X233073428Y-50271890D01*
X233343039Y-50123670D01*
X233349719Y-50119430D01*
X233572823Y-49957336D01*
X233581246Y-49946413D01*
X233574342Y-49933552D01*
X232012812Y-48372022D01*
X231998868Y-48364408D01*
X231997035Y-48364539D01*
X231990420Y-48368790D01*
X230425334Y-49933876D01*
X230418721Y-49945987D01*
X39581017Y-49945987D01*
X39574342Y-49933552D01*
X38012812Y-48372022D01*
X37998868Y-48364408D01*
X37997035Y-48364539D01*
X37990420Y-48368790D01*
X36425334Y-49933876D01*
X36418721Y-49945987D01*
X35508500Y-49945987D01*
X35508500Y-49159360D01*
X35528502Y-49091239D01*
X35582158Y-49044746D01*
X35652432Y-49034642D01*
X35717012Y-49064136D01*
X35748508Y-49105712D01*
X35796190Y-49207041D01*
X35800001Y-49213974D01*
X35964851Y-49473736D01*
X35969495Y-49480129D01*
X36044497Y-49570790D01*
X36057014Y-49579245D01*
X36067752Y-49573038D01*
X37627978Y-48012812D01*
X37634356Y-48001132D01*
X38364408Y-48001132D01*
X38364539Y-48002965D01*
X38368790Y-48009580D01*
X39931145Y-49571935D01*
X39944407Y-49579177D01*
X39954512Y-49571988D01*
X40030505Y-49480129D01*
X40035149Y-49473736D01*
X40199999Y-49213974D01*
X40203811Y-49207041D01*
X40334801Y-48928672D01*
X40337716Y-48921309D01*
X40432783Y-48628723D01*
X40434754Y-48621046D01*
X40492400Y-48318855D01*
X40493393Y-48310994D01*
X40512710Y-48003958D01*
X229487290Y-48003958D01*
X229506607Y-48310994D01*
X229507600Y-48318855D01*
X229565246Y-48621046D01*
X229567217Y-48628723D01*
X229662284Y-48921309D01*
X229665199Y-48928672D01*
X229796189Y-49207041D01*
X229800001Y-49213974D01*
X229964851Y-49473736D01*
X229969495Y-49480129D01*
X230044497Y-49570790D01*
X230057014Y-49579245D01*
X230067752Y-49573038D01*
X231627978Y-48012812D01*
X231635592Y-47998868D01*
X231635461Y-47997035D01*
X231631210Y-47990420D01*
X230068855Y-46428065D01*
X230055593Y-46420823D01*
X230045488Y-46428012D01*
X229969495Y-46519871D01*
X229964851Y-46526264D01*
X229800001Y-46786026D01*
X229796189Y-46792959D01*
X229665199Y-47071328D01*
X229662284Y-47078691D01*
X229567217Y-47371277D01*
X229565246Y-47378954D01*
X229507600Y-47681145D01*
X229506607Y-47689006D01*
X229487290Y-47996042D01*
X229487290Y-48003958D01*
X40512710Y-48003958D01*
X40512710Y-47996042D01*
X40493393Y-47689006D01*
X40492400Y-47681145D01*
X40434754Y-47378954D01*
X40432783Y-47371277D01*
X40337716Y-47078691D01*
X40334801Y-47071328D01*
X40203811Y-46792959D01*
X40199999Y-46786026D01*
X40035149Y-46526264D01*
X40030505Y-46519871D01*
X39955503Y-46429210D01*
X39942986Y-46420755D01*
X39932248Y-46426962D01*
X38372022Y-47987188D01*
X38364408Y-48001132D01*
X37634356Y-48001132D01*
X37635592Y-47998868D01*
X37635461Y-47997035D01*
X37631210Y-47990420D01*
X36068855Y-46428065D01*
X36055593Y-46420823D01*
X36045488Y-46428012D01*
X35969495Y-46519871D01*
X35964851Y-46526264D01*
X35800001Y-46786026D01*
X35796190Y-46792959D01*
X35748508Y-46894288D01*
X35701406Y-46947409D01*
X35633061Y-46966632D01*
X35565173Y-46945853D01*
X35519296Y-46891670D01*
X35508500Y-46840640D01*
X35508500Y-45634500D01*
X35528502Y-45566379D01*
X35582158Y-45519886D01*
X35634500Y-45508500D01*
X36835303Y-45508500D01*
X36903424Y-45528502D01*
G37*
G04 #@! TD.AperFunction*
M02*
