M48
INCH,TZ
T1C0.1260
T2C0.1969
T3C0.2756
T4C0.3937
%
G90
G05
T1
X14961Y-18898
X14961Y-55906
X91339Y-18898
X91339Y-55906
T2
X23622Y-23622
X23622Y-27559
X23622Y-31496
X23622Y-35433
X23622Y-39370
X23622Y-43307
X23622Y-47244
X23622Y-51181
X66929Y-32480
X66929Y-52165
T3
X38386Y-37402
X48228Y-27559
X53150Y-47244
X62992Y-27559
T4
X72835Y-32480
X82677Y-22638
X82677Y-32480
X82677Y-42323
X82677Y-52165
T0
M30
